<svg xmlns="http://www.w3.org/2000/svg" xmlns:xlink="http://www.w3.org/1999/xlink" width="400" height="313" viewBox="0 0 400 313">
  <defs>
    <clipPath id="clip-path">
      <rect id="Rectángulo_402176" data-name="Rectángulo 402176" width="263.93" height="262.631" fill="#7eadbf"/>
    </clipPath>
    <clipPath id="clip-path-2">
      <rect id="Rectángulo_402548" data-name="Rectángulo 402548" width="400" height="313" transform="translate(179.73 2356)" fill="#e5eef2"/>
    </clipPath>
    <clipPath id="clip-path-3">
      <rect id="Rectángulo_402727" data-name="Rectángulo 402727" width="441.811" height="314.819" fill="none"/>
    </clipPath>
    <clipPath id="clip-path-5">
      <path id="Trazado_893472" data-name="Trazado 893472" d="M1670.418,542.2c-2.7,6.9-15.018,29.378-15.254,27.649-2.475-18.13,5.305-47.51,9.636-57.15,2.979-6.631,10.763-12.62,9.751-12.031-4.59,2.669-13.541,7.478-16.208,12.811-4.577,9.151-14.715,28.346-19.952,68.742-1.511,11.653-6.635,29.92-8.172,39.893s-5.249,21.521-5.353,35.8c3.482,5.587,18.53,20.327,99.988,12,1.191-.122,2.318-11.091,2.318-11.091.031.618,2.533,10.577,3.156,10.508q1.412-.157,2.85-.322c7.091-.816,4.2-8.348,4.069-11.848,0-25.689-4.626-51.785-7.694-103.775-2.045-34.659-23.671-50.874-34.013-54.671a1.48,1.48,0,0,0-.514-.089c-4.335,0-14.147,16.854-24.607,43.576" transform="translate(-1624.865 -498.623)" fill="#4c6873"/>
    </clipPath>
    <clipPath id="clip-path-7">
      <path id="Trazado_893476" data-name="Trazado 893476" d="M1864.715,1116.8c-2.7.435-3.808,5.511,0,5.458,3.671-.051,2.769-5.482.284-5.481a1.784,1.784,0,0,0-.284.023" transform="translate(-1862.259 -1116.772)" fill="#e3dcd9"/>
    </clipPath>
    <clipPath id="clip-path-8">
      <path id="Trazado_893477" data-name="Trazado 893477" d="M1848.242,1267.577c-2.7.435-3.808,5.511,0,5.458,3.671-.051,2.769-5.482.284-5.482a1.781,1.781,0,0,0-.284.023" transform="translate(-1845.786 -1267.554)" fill="#e3dcd9"/>
    </clipPath>
    <clipPath id="clip-path-9">
      <path id="Trazado_893478" data-name="Trazado 893478" d="M1814.26,1444.014c-2.7.435-3.808,5.511,0,5.458,3.671-.051,2.769-5.482.284-5.481a1.767,1.767,0,0,0-.284.023" transform="translate(-1811.804 -1443.991)" fill="#e3dcd9"/>
    </clipPath>
    <clipPath id="clip-path-10">
      <path id="Trazado_893479" data-name="Trazado 893479" d="M1783.883,1600.056c-2.7.435-3.808,5.511,0,5.458,3.671-.051,2.769-5.482.284-5.481a1.755,1.755,0,0,0-.284.023" transform="translate(-1781.427 -1600.033)" fill="#e3dcd9"/>
    </clipPath>
    <clipPath id="clip-path-12">
      <rect id="Rectángulo_402713" data-name="Rectángulo 402713" width="6.169" height="6.169" fill="none"/>
    </clipPath>
    <clipPath id="clip-path-13">
      <rect id="Rectángulo_402714" data-name="Rectángulo 402714" width="2.997" height="4.917" fill="none"/>
    </clipPath>
    <clipPath id="clip-path-14">
      <path id="Trazado_893515" data-name="Trazado 893515" d="M3119.308,1914.537l-.624,7.066a1.9,1.9,0,0,0,1.722,2.056l16.117,1.423a1.9,1.9,0,0,0,2.056-1.722l.624-7.066a1.9,1.9,0,0,0-1.722-2.056l-16.117-1.424q-.085-.007-.169-.007a1.9,1.9,0,0,0-1.887,1.729" transform="translate(-3118.676 -1912.808)" fill="#727aa6"/>
    </clipPath>
    <clipPath id="clip-path-16">
      <path id="Trazado_893519" data-name="Trazado 893519" d="M2072.783,2154.924a1.431,1.431,0,1,0,.995-.4,1.431,1.431,0,0,0-.995.4" transform="translate(-2072.348 -2154.521)" fill="#cbdee5"/>
    </clipPath>
    <clipPath id="clip-path-18">
      <path id="Trazado_893523" data-name="Trazado 893523" d="M2008.458,2100.936a1.429,1.429,0,1,0,1.337-.921,1.431,1.431,0,0,0-1.337.921" transform="translate(-2008.363 -2100.015)" fill="#cbdee5"/>
    </clipPath>
    <clipPath id="clip-path-19">
      <rect id="Rectángulo_402721" data-name="Rectángulo 402721" width="441.811" height="314.819" fill="#e5eef2"/>
    </clipPath>
    <clipPath id="clip-path-20">
      <path id="Trazado_893529" data-name="Trazado 893529" d="M1964.649,2102.744a1.431,1.431,0,1,0,1.6-1.24,1.463,1.463,0,0,0-.181-.011,1.431,1.431,0,0,0-1.417,1.251" transform="translate(-1964.638 -2101.493)" fill="#cbdee5"/>
    </clipPath>
    <clipPath id="clip-path-22">
      <path id="Trazado_893533" data-name="Trazado 893533" d="M1847.87,2098.989a1.032,1.032,0,0,0-.724,1.153l-.017.005a1.032,1.032,0,0,0-1.931.714.869.869,0,0,0,.474.607l2.207,1.168,1.185-2.177a.965.965,0,0,0,.089-.775,1.031,1.031,0,0,0-1.283-.695" transform="translate(-1845.154 -2098.946)" fill="#e5eef2"/>
    </clipPath>
    <clipPath id="clip-path-23">
      <path id="Trazado_893534" data-name="Trazado 893534" d="M1822.122,2197.4h29.708a16.151,16.151,0,0,0-29.708,0" transform="translate(-1822.122 -2187.595)" fill="#453028"/>
    </clipPath>
  </defs>
  <g id="Grupo_1102430" data-name="Grupo 1102430" transform="translate(-179.731 -414.862)">
    <g id="Grupo_1101789" data-name="Grupo 1101789" transform="translate(14614.731 4967.862)">
      <rect id="Rectángulo_402102" data-name="Rectángulo 402102" width="400" height="313" transform="translate(-14435 -4553)" fill="#e5eef2"/>
      <g id="Grupo_1101288" data-name="Grupo 1101288" transform="translate(-14359.526 -4527.916)">
        <g id="Grupo_1101287" data-name="Grupo 1101287" clip-path="url(#clip-path)">
          <path id="Trazado_874703" data-name="Trazado 874703" d="M78.441,10.9C12.6,41.171-16.86,97.579,9.757,184.877s108.893,89.155,188.211,63.152S275.914,92.006,241.693,54.858,143.08-18.819,78.441,10.9" transform="translate(0 0)" fill="#c6e6f2"/>
          <path id="Trazado_874704" data-name="Trazado 874704" d="M81.19,28.44a4.4,4.4,0,1,1-4.4-4.3,4.352,4.352,0,0,1,4.4,4.3" transform="translate(5.095 1.105)" fill="#7eadbf"/>
          <path id="Trazado_874705" data-name="Trazado 874705" d="M65.233,36.664a4.4,4.4,0,1,1-4.4-4.3,4.352,4.352,0,0,1,4.4,4.3" transform="translate(3.972 1.481)" fill="#7eadbf"/>
          <path id="Trazado_874706" data-name="Trazado 874706" d="M52.4,47.071a4.4,4.4,0,1,1-4.4-4.3,4.352,4.352,0,0,1,4.4,4.3" transform="translate(3.068 1.958)" fill="#7eadbf"/>
          <path id="Trazado_874707" data-name="Trazado 874707" d="M40.841,58.656a4.4,4.4,0,1,1-4.4-4.3,4.352,4.352,0,0,1,4.4,4.3" transform="translate(2.255 2.488)" fill="#7eadbf"/>
          <path id="Trazado_874708" data-name="Trazado 874708" d="M32.115,72.7a4.4,4.4,0,1,1-4.4-4.3,4.352,4.352,0,0,1,4.4,4.3" transform="translate(1.641 3.131)" fill="#7eadbf"/>
          <path id="Trazado_874709" data-name="Trazado 874709" d="M25.355,88.121a4.4,4.4,0,1,1-4.4-4.3,4.352,4.352,0,0,1,4.4,4.3" transform="translate(1.165 3.837)" fill="#7eadbf"/>
          <path id="Trazado_874710" data-name="Trazado 874710" d="M21.655,103.547a4.4,4.4,0,1,1-4.4-4.3,4.352,4.352,0,0,1,4.4,4.3" transform="translate(0.905 4.543)" fill="#7eadbf"/>
          <path id="Trazado_874711" data-name="Trazado 874711" d="M19.6,120.4a4.4,4.4,0,1,1-4.4-4.3,4.352,4.352,0,0,1,4.4,4.3" transform="translate(0.76 5.315)" fill="#7eadbf"/>
          <path id="Trazado_874712" data-name="Trazado 874712" d="M20.961,136.365a4.4,4.4,0,1,1-4.4-4.3,4.352,4.352,0,0,1,4.4,4.3" transform="translate(0.856 6.045)" fill="#7eadbf"/>
          <path id="Trazado_874713" data-name="Trazado 874713" d="M23.715,152.327a4.4,4.4,0,1,1-4.4-4.3,4.352,4.352,0,0,1,4.4,4.3" transform="translate(1.05 6.776)" fill="#7eadbf"/>
          <path id="Trazado_874714" data-name="Trazado 874714" d="M26.469,168.289a4.4,4.4,0,1,1-4.4-4.3,4.352,4.352,0,0,1,4.4,4.3" transform="translate(1.244 7.507)" fill="#7eadbf"/>
          <path id="Trazado_874715" data-name="Trazado 874715" d="M32.982,184.6a4.4,4.4,0,1,1-4.4-4.3,4.352,4.352,0,0,1,4.4,4.3" transform="translate(1.702 8.253)" fill="#7eadbf"/>
          <path id="Trazado_874716" data-name="Trazado 874716" d="M32.982,184.6a4.4,4.4,0,1,1-4.4-4.3,4.352,4.352,0,0,1,4.4,4.3" transform="translate(1.702 8.253)" fill="#7eadbf"/>
          <path id="Trazado_874717" data-name="Trazado 874717" d="M41.206,198.764a4.4,4.4,0,1,1-4.4-4.3,4.352,4.352,0,0,1,4.4,4.3" transform="translate(2.281 8.902)" fill="#7eadbf"/>
          <path id="Trazado_874718" data-name="Trazado 874718" d="M51.613,211.252a4.4,4.4,0,1,1-4.4-4.3,4.352,4.352,0,0,1,4.4,4.3" transform="translate(3.013 9.473)" fill="#7eadbf"/>
          <path id="Trazado_874719" data-name="Trazado 874719" d="M63.581,222.873a4.4,4.4,0,1,1-4.4-4.3,4.352,4.352,0,0,1,4.4,4.3" transform="translate(3.856 10.005)" fill="#7eadbf"/>
          <path id="Trazado_874720" data-name="Trazado 874720" d="M78.961,229.349a4.4,4.4,0,1,1-4.4-4.3,4.352,4.352,0,0,1,4.4,4.3" transform="translate(4.938 10.302)" fill="#7eadbf"/>
          <path id="Trazado_874721" data-name="Trazado 874721" d="M94.762,233.461a4.4,4.4,0,1,1-4.4-4.3,4.352,4.352,0,0,1,4.4,4.3" transform="translate(6.05 10.49)" fill="#7eadbf"/>
          <path id="Trazado_874722" data-name="Trazado 874722" d="M110.563,235.823a4.4,4.4,0,1,1-4.4-4.3,4.352,4.352,0,0,1,4.4,4.3" transform="translate(7.163 10.598)" fill="#7eadbf"/>
          <path id="Trazado_874723" data-name="Trazado 874723" d="M127.978,235.823a4.4,4.4,0,1,1-4.4-4.3,4.352,4.352,0,0,1,4.4,4.3" transform="translate(8.388 10.598)" fill="#7eadbf"/>
          <path id="Trazado_874724" data-name="Trazado 874724" d="M143.464,233.461a4.4,4.4,0,1,1-4.4-4.3,4.352,4.352,0,0,1,4.4,4.3" transform="translate(9.478 10.49)" fill="#7eadbf"/>
          <path id="Trazado_874725" data-name="Trazado 874725" d="M159.872,229.349a4.4,4.4,0,1,1-4.4-4.3,4.352,4.352,0,0,1,4.4,4.3" transform="translate(10.633 10.302)" fill="#7eadbf"/>
          <path id="Trazado_874726" data-name="Trazado 874726" d="M176.056,224.626a4.4,4.4,0,1,1-4.4-4.3,4.352,4.352,0,0,1,4.4,4.3" transform="translate(11.773 10.086)" fill="#7eadbf"/>
          <path id="Trazado_874727" data-name="Trazado 874727" d="M190.733,218.762a4.4,4.4,0,1,1-4.4-4.3,4.352,4.352,0,0,1,4.4,4.3" transform="translate(12.806 9.817)" fill="#7eadbf"/>
          <path id="Trazado_874728" data-name="Trazado 874728" d="M205.41,209.444a4.4,4.4,0,1,1-4.4-4.3,4.352,4.352,0,0,1,4.4,4.3" transform="translate(13.839 9.391)" fill="#7eadbf"/>
          <path id="Trazado_874729" data-name="Trazado 874729" d="M216.785,195.982a4.4,4.4,0,1,1-4.4-4.3,4.352,4.352,0,0,1,4.4,4.3" transform="translate(14.639 8.774)" fill="#7eadbf"/>
          <path id="Trazado_874730" data-name="Trazado 874730" d="M222.721,180.781a4.4,4.4,0,1,1-4.4-4.3,4.352,4.352,0,0,1,4.4,4.3" transform="translate(15.057 8.079)" fill="#7eadbf"/>
          <path id="Trazado_874731" data-name="Trazado 874731" d="M228.656,165.58a4.4,4.4,0,1,1-4.4-4.3,4.352,4.352,0,0,1,4.4,4.3" transform="translate(15.475 7.383)" fill="#7eadbf"/>
          <path id="Trazado_874732" data-name="Trazado 874732" d="M232.768,150.379a4.4,4.4,0,1,1-4.4-4.3,4.352,4.352,0,0,1,4.4,4.3" transform="translate(15.764 6.687)" fill="#7eadbf"/>
          <path id="Trazado_874733" data-name="Trazado 874733" d="M233.209,133.963a4.4,4.4,0,1,1-4.4-4.3,4.352,4.352,0,0,1,4.4,4.3" transform="translate(15.795 5.935)" fill="#7eadbf"/>
          <path id="Trazado_874734" data-name="Trazado 874734" d="M233.209,115.866a4.4,4.4,0,1,1-4.4-4.3,4.352,4.352,0,0,1,4.4,4.3" transform="translate(15.795 5.107)" fill="#7eadbf"/>
          <path id="Trazado_874735" data-name="Trazado 874735" d="M230.944,100.665a4.4,4.4,0,1,1-4.4-4.3,4.352,4.352,0,0,1,4.4,4.3" transform="translate(15.636 4.411)" fill="#7eadbf"/>
          <path id="Trazado_874736" data-name="Trazado 874736" d="M226.832,85.464a4.4,4.4,0,1,1-4.4-4.3,4.352,4.352,0,0,1,4.4,4.3" transform="translate(15.346 3.715)" fill="#7eadbf"/>
          <path id="Trazado_874737" data-name="Trazado 874737" d="M222.721,70.264a4.4,4.4,0,1,1-4.4-4.3,4.352,4.352,0,0,1,4.4,4.3" transform="translate(15.057 3.02)" fill="#7eadbf"/>
          <path id="Trazado_874738" data-name="Trazado 874738" d="M210.385,56.951a4.4,4.4,0,1,1-4.4-4.3,4.352,4.352,0,0,1,4.4,4.3" transform="translate(14.189 2.41)" fill="#7eadbf"/>
          <path id="Trazado_874739" data-name="Trazado 874739" d="M198.049,45.875a4.4,4.4,0,1,1-4.4-4.3,4.352,4.352,0,0,1,4.4,4.3" transform="translate(13.321 1.903)" fill="#7eadbf"/>
          <path id="Trazado_874740" data-name="Trazado 874740" d="M184.387,36.664a4.4,4.4,0,1,1-4.4-4.3,4.352,4.352,0,0,1,4.4,4.3" transform="translate(12.359 1.481)" fill="#7eadbf"/>
          <path id="Trazado_874741" data-name="Trazado 874741" d="M169.4,29.032a4.4,4.4,0,1,1-4.4-4.3,4.352,4.352,0,0,1,4.4,4.3" transform="translate(11.304 1.132)" fill="#7eadbf"/>
          <path id="Trazado_874742" data-name="Trazado 874742" d="M154.057,22.69a4.4,4.4,0,1,1-4.4-4.3,4.352,4.352,0,0,1,4.4,4.3" transform="translate(10.224 0.842)" fill="#7eadbf"/>
          <path id="Trazado_874743" data-name="Trazado 874743" d="M137.439,18.578a4.4,4.4,0,1,1-4.4-4.3,4.352,4.352,0,0,1,4.4,4.3" transform="translate(9.054 0.654)" fill="#7eadbf"/>
          <path id="Trazado_874744" data-name="Trazado 874744" d="M120.01,18.578a4.4,4.4,0,1,1-4.4-4.3,4.352,4.352,0,0,1,4.4,4.3" transform="translate(7.828 0.654)" fill="#7eadbf"/>
          <path id="Trazado_874745" data-name="Trazado 874745" d="M102.581,20.808a4.4,4.4,0,1,1-4.4-4.3,4.352,4.352,0,0,1,4.4,4.3" transform="translate(6.601 0.756)" fill="#7eadbf"/>
        </g>
      </g>
    </g>
    <g id="Enmascarar_grupo_1098721" data-name="Enmascarar grupo 1098721" transform="translate(0.001 -1941.138)" clip-path="url(#clip-path-2)">
      <g id="Grupo_1102041" data-name="Grupo 1102041" transform="translate(147.188 2372.298)">
        <g id="Grupo_1102040" data-name="Grupo 1102040" clip-path="url(#clip-path-3)">
          <g id="Grupo_1101997" data-name="Grupo 1101997" transform="translate(0 0)">
            <g id="Grupo_1101996" data-name="Grupo 1101996" clip-path="url(#clip-path-3)">
              <path id="Trazado_893469" data-name="Trazado 893469" d="M1461.794,631.718c25.223-44.279,2.994-68.275-21.591-37.006-15.629,19.878-41.208,45.419-47.614,54.023-14.87,19.972.8,60.211,21.486,41.172,14.007-12.89,26.825-21.509,47.72-58.19" transform="translate(-1207.441 -505.47)" fill="#7eadbf"/>
              <path id="Trazado_893470" data-name="Trazado 893470" d="M1653.091,1018.493s7.714-7.593,9.98-9.407,3.861-43.891,3.861-43.891-10.675,40.717-13.841,53.3" transform="translate(-1439.377 -840.414)" fill="#9ab6cc"/>
              <path id="Trazado_893471" data-name="Trazado 893471" d="M1661.719,508.407c-4.577,9.151-16.152,30.207-22.291,79.835-4.483,36.237-6.658,44.179-14.562,78.712,0,0,11.068,16.083,37.6,19.43,20.543,2.592,63.01-4.449,63.01-4.449,20.795-20.507,1.116-161.237-10.209-175.289-16.542-20.526-24.563-18.879-31.815-18.506-9.663.5-17.62,12.047-21.732,20.267" transform="translate(-1414.8 -424.868)" fill="#e5eef2"/>
            </g>
          </g>
          <g id="Grupo_1101999" data-name="Grupo 1101999" transform="translate(210.065 64.463)">
            <g id="Grupo_1101998" data-name="Grupo 1101998" clip-path="url(#clip-path-5)">
              <rect id="Rectángulo_402707" data-name="Rectángulo 402707" width="115.403" height="179.617" transform="translate(0 0)" fill="#4c6873"/>
            </g>
          </g>
          <g id="Grupo_1102001" data-name="Grupo 1102001" transform="translate(0 0)">
            <g id="Grupo_1102000" data-name="Grupo 1102000" clip-path="url(#clip-path-3)">
              <path id="Trazado_893473" data-name="Trazado 893473" d="M1725.841,880.3l41.815-56.692,7.334-32.651,35.973-40.887s11.563,71.476,7.434,98.222c-3.143,20.359-50.7,49.121-76.889,51.817-15.134,1.558-15.667-19.81-15.667-19.81" transform="translate(-1502.721 -653.102)" fill="#4c6873"/>
              <path id="Trazado_893474" data-name="Trazado 893474" d="M1751.981,1077.556c-.055,1.476-.18,2.945-.21,4.423q-.043,2.106-.172,4.21c-.171,2.8-.391,5.6-.707,8.387a152.683,152.683,0,0,1-3.018,16.877c-1.279,5.581-2.739,11.116-4.072,16.683-1.352,5.647-2.567,11.31-3.6,17.025q-.875,4.861-1.631,9.743a79.306,79.306,0,0,0-1.178,9.895.972.972,0,0,0,1.9.257c.677-2.86,1.008-5.8,1.462-8.7.45-2.881.912-5.76,1.414-8.632,1.009-5.764,2.118-11.515,3.281-17.25,2.275-11.221,4.692-22.419,6.389-33.745.474-3.161.891-6.347,1.082-9.539q.144-2.4.18-4.809a42.419,42.419,0,0,0-.278-4.824.424.424,0,0,0-.847,0" transform="translate(-1512.783 -937.892)" fill="#e5eef2"/>
              <path id="Trazado_893475" data-name="Trazado 893475" d="M2413.783,1533.795c-.307,6.139-.4,12.291-.555,18.435q-.038,1.479-.08,2.959l-.043,1.578a4.077,4.077,0,0,0,.2,1.981.95.95,0,0,0,1.63,0,3.462,3.462,0,0,0,.237-1.689l-.006-1.51q0-1.35-.009-2.7,0-2.216-.009-4.432-.009-4.139-.017-8.279-.007-3.174-.09-6.343a.63.63,0,0,0-1.258,0" transform="translate(-2101.112 -1334.974)" fill="#e5eef2"/>
            </g>
          </g>
          <g id="Grupo_1102003" data-name="Grupo 1102003" transform="translate(240.756 144.378)">
            <g id="Grupo_1102002" data-name="Grupo 1102002" clip-path="url(#clip-path-7)">
              <rect id="Rectángulo_402709" data-name="Rectángulo 402709" width="7.479" height="5.535" transform="translate(-1.351 0)" fill="#e3dcd9"/>
            </g>
          </g>
          <g id="Grupo_1102005" data-name="Grupo 1102005" transform="translate(238.626 163.871)">
            <g id="Grupo_1102004" data-name="Grupo 1102004" clip-path="url(#clip-path-8)">
              <rect id="Rectángulo_402710" data-name="Rectángulo 402710" width="7.479" height="5.535" transform="translate(-1.351 0)" fill="#e3dcd9"/>
            </g>
          </g>
          <g id="Grupo_1102007" data-name="Grupo 1102007" transform="translate(234.233 186.681)">
            <g id="Grupo_1102006" data-name="Grupo 1102006" clip-path="url(#clip-path-9)">
              <rect id="Rectángulo_402711" data-name="Rectángulo 402711" width="7.479" height="5.534" transform="translate(-1.351 0)" fill="#e3dcd9"/>
            </g>
          </g>
          <g id="Grupo_1102009" data-name="Grupo 1102009" transform="translate(230.306 206.855)">
            <g id="Grupo_1102008" data-name="Grupo 1102008" clip-path="url(#clip-path-10)">
              <rect id="Rectángulo_402712" data-name="Rectángulo 402712" width="7.479" height="5.534" transform="translate(-1.351 0)" fill="#e3dcd9"/>
            </g>
          </g>
          <g id="Grupo_1102017" data-name="Grupo 1102017" transform="translate(0 0)">
            <g id="Grupo_1102016" data-name="Grupo 1102016" clip-path="url(#clip-path-3)">
              <path id="Trazado_893480" data-name="Trazado 893480" d="M1870.236,633.491a81.389,81.389,0,0,1-3.8,20.266c-2,6.68-4.4,13.23-6.262,19.955a71.687,71.687,0,0,0-2.405,11.343c-.069.643,1.015.792,1.135.154.644-3.418,1.3-6.811,2.191-10.177s1.9-6.671,2.918-9.985a190.451,190.451,0,0,0,5.414-20.1,62.492,62.492,0,0,0,1.142-11.455.167.167,0,0,0-.333,0" transform="translate(-1617.591 -551.453)" fill="#9ab6cc"/>
              <path id="Trazado_893481" data-name="Trazado 893481" d="M1955.585,695.7a1.163,1.163,0,0,0-.216,1.046.734.734,0,0,0,.709.494c.773-.044,1.084-1.142,1.138-1.757a.884.884,0,0,0-1.111-1.037,1.492,1.492,0,0,0-.925,1.737.248.248,0,0,0,.448.059c.147-.3.117-.649.278-.944.142-.262.641-.513.727-.075a1.831,1.831,0,0,1-.29,1.1c-.089.156-.265.4-.429.2-.1-.131.01-.514.046-.657a.207.207,0,0,0-.376-.159" transform="translate(-1702.379 -604.64)" fill="#9ab6cc"/>
              <path id="Trazado_893482" data-name="Trazado 893482" d="M1939.141,784.785a2.608,2.608,0,0,0-.084,1.2.24.24,0,0,0,.351.143,2.385,2.385,0,0,0,1.057-2.4.256.256,0,0,0-.315-.179c-.573.239-1.268.955-.951,1.625a.219.219,0,0,0,.376,0c.1-.192.107-.4.2-.6a1.232,1.232,0,0,1,.568-.559l-.376-.153a1.873,1.873,0,0,1-.8,1.849l.351.143a2.067,2.067,0,0,1,.055-.955.224.224,0,0,0-.432-.119" transform="translate(-1688.343 -682.243)" fill="#9ab6cc"/>
              <path id="Trazado_893483" data-name="Trazado 893483" d="M1909.912,889.858a1.239,1.239,0,0,0-.154,1.019.593.593,0,0,0,.794.331,2.049,2.049,0,0,0,1.055-1.988.238.238,0,0,0-.229-.229,1.512,1.512,0,0,0-1.315.45,1.171,1.171,0,0,0-.354,1.273.253.253,0,0,0,.434,0c.141-.282.141-.586.357-.836a1.171,1.171,0,0,1,.878-.429l-.229-.229a1.752,1.752,0,0,1-.281,1.161c-.134.2-.306.414-.553.421-.433.012-.219-.549-.12-.779.082-.189-.19-.357-.282-.165" transform="translate(-1662.745 -774.05)" fill="#9ab6cc"/>
              <path id="Trazado_893484" data-name="Trazado 893484" d="M2157.462,542.376a29.652,29.652,0,0,0,2.989,3.131q.76.682,1.562,1.316a5.563,5.563,0,0,0,1.912,1.272.69.69,0,0,0,.769-1,6.206,6.206,0,0,0-1.7-1.406q-.807-.607-1.572-1.267c-1.072-.923-2.089-1.918-3.088-2.918-.571-.572-1.373.272-.873.873" transform="translate(-1878.405 -471.331)" fill="#e5eef2"/>
              <path id="Trazado_893485" data-name="Trazado 893485" d="M1917.254,473.456s.956-10.212,4.5-17.862,20.653-8.564,20.653-8.564Z" transform="translate(-1669.388 -389.237)" fill="#e9f5ff"/>
              <path id="Trazado_893486" data-name="Trazado 893486" d="M1653.653,119.663c1.136,4.384,4.882,15.51,9.462,23.194.28.47,1.477,2.321,1.6,2.5,1.709,2.464,3.468,4.324,5.163,5.1,14.067,6.422,19.8-12.411,21.444-4.35,3.183,15.587,4.075,20.019,9.335,15.843,2.24-1.779,15.8-11.28,15.8-11.28s-5.852-19.277-8.011-28.24c-5.072-21.061-9.281-20.84-17.271-26.172-11.013-7.349-42.673,3.548-37.525,23.4" transform="translate(-1439.377 -81.81)" fill="#f3a68f"/>
              <path id="Trazado_893487" data-name="Trazado 893487" d="M1800.631,320.623c1.444-.633,3.842,3.659,2.428,4.086s-3.249-3.726-2.428-4.086" transform="translate(-1567.665 -279.117)" fill="#282827"/>
              <path id="Trazado_893488" data-name="Trazado 893488" d="M1701.7,366.342c.666-.6,3.842,3.659,2.428,4.086s-3.095-3.487-2.428-4.086" transform="translate(-1481.572 -318.931)" fill="#282827"/>
              <path id="Trazado_893489" data-name="Trazado 893489" d="M1756.827,257.893c-.171.753.282,2.543,1.459,2.021s5.175-2.816,7.046-2.3,2.052-1.232,1.623-2.012-3.232-1.022-5.426-.319a19.381,19.381,0,0,0-4.7,2.612" transform="translate(-1529.671 -221.916)" fill="#503f3b"/>
              <path id="Trazado_893490" data-name="Trazado 893490" d="M1676.333,304.746c.186.585.723,1.265,1.394.516s1.392-.851,2.336-1.4c1.427-.825,2.3-1.681,1.845-2.3-.868-1.186-3.178-.057-4.542,1.149s-1.033,2.035-1.033,2.035" transform="translate(-1459.583 -262.139)" fill="#503f3b"/>
              <g id="Grupo_1102012" data-name="Grupo 1102012" transform="translate(239.652 43.697)" opacity="0.4">
                <g id="Grupo_1102011" data-name="Grupo 1102011">
                  <g id="Grupo_1102010" data-name="Grupo 1102010" clip-path="url(#clip-path-12)">
                    <path id="Trazado_893491" data-name="Trazado 893491" d="M1853.737,341.374a3.085,3.085,0,1,1,3.365,2.776,3.084,3.084,0,0,1-3.365-2.776" transform="translate(-1853.722 -337.996)" fill="#e18675"/>
                  </g>
                </g>
              </g>
              <g id="Grupo_1102015" data-name="Grupo 1102015" transform="translate(220.092 53.944)" opacity="0.4">
                <g id="Grupo_1102014" data-name="Grupo 1102014">
                  <g id="Grupo_1102013" data-name="Grupo 1102013" clip-path="url(#clip-path-13)">
                    <path id="Trazado_893492" data-name="Trazado 893492" d="M1702.421,417.28c1.648-.2,2.685.98,2.937,2.633a2.327,2.327,0,0,1-.541,2.261c-.074.053-2.428-4.89-2.4-4.894" transform="translate(-1702.42 -417.258)" fill="#e18675"/>
                  </g>
                </g>
              </g>
              <path id="Trazado_893493" data-name="Trazado 893493" d="M1737.678,328.6s4.657,8.171,6.665,10.961c0,0-5.1,3.231-5.437,1.222-.177-1.066-1.957-3.728-2.232-6.651a13.5,13.5,0,0,1,1-5.532" transform="translate(-1512.126 -286.122)" fill="#dc8e80"/>
              <path id="Trazado_893494" data-name="Trazado 893494" d="M1773.832,460.985s6-.8,7.237-1.825.629,1.672-2.527,2.677-4.71-.852-4.71-.852" transform="translate(-1544.508 -399.599)" fill="#dc8e80"/>
              <path id="Trazado_893495" data-name="Trazado 893495" d="M1991.958,256.332c.062,1.93-2.695,4.708-.066,4.218s1.8-2.541.958-5.41-2.78-3.834-3.694-1.263,2.761,1.2,2.8,2.455" transform="translate(-1731.869 -219.756)" fill="#dc8e80"/>
              <path id="Trazado_893496" data-name="Trazado 893496" d="M1613.2,30.766c-3.187.726-2.085,3.926-.829,8.346s-2.086,4.93-3.034,2.272c-.438-1.23-.8-2.269-.9-2.677-.339-1.289-3.8-1.089-5.244-2.942s-2.9-10.768-6.044-10.818-1.17-.377-18.2,8.381c-6.49,3.338-9.954,3.319-12.237,3.544-1.514.149-4.984-.257-8.14-3.845s-1.394-4.991,1.33-3.905,4.65-4.282,17.513-17.353c8.953-9.1,26.656-17.344,34.312-6.876.3.416.68,1.018,1.277,1.075,15.152,1.461,15.364,35.184,15.364,35.184s-8.316,7.953-9.083.053c-1.164-11.983-6.087-10.44-6.087-10.44" transform="translate(-1355.614 -0.001)" fill="#503f3b"/>
              <path id="Trazado_893497" data-name="Trazado 893497" d="M1783.437,411.608c0,1.123.266,2.111,3.617.888s4.986-1.977,6.091-3a2.388,2.388,0,0,0-.509-3.926,8.618,8.618,0,0,0-1.249-.61s2.877,1.7.814,2.979c-.773.481-8.762.663-8.764,3.666" transform="translate(-1552.871 -352.609)" fill="#503f3b"/>
              <path id="Trazado_893498" data-name="Trazado 893498" d="M1728.377,441.763c.524.976.811,1.958-1.927,2.443s-4.147.585-5.335.21a2.768,2.768,0,0,1-1.5-3.648,7.529,7.529,0,0,1,.524-1.108s-1.072,2.8.86,2.966c.724.061,5.977-3.473,7.377-.863" transform="translate(-1497.126 -382.82)" fill="#503f3b"/>
              <path id="Trazado_893499" data-name="Trazado 893499" d="M1985.647,436.272s1.275,2.134-9.044,12.411c-6.336,6.311-10.117,8.362-10.117,8.362l2.408,10.24s10.922-6.082,17.318-12.616,7.518-9.952,6.421-11.922-6.984-6.475-6.984-6.475" transform="translate(-1712.255 -379.87)" fill="#e9f5ff"/>
              <path id="Trazado_893500" data-name="Trazado 893500" d="M313.557,1755.43l401.2,1.545.071,86.329s-321.233-2.579-344.017-6.5-57.256-61.639-57.256-81.379" transform="translate(-273.02 -1528.485)" fill="#a6826d"/>
              <path id="Trazado_893501" data-name="Trazado 893501" d="M446.4,1843.842l166.753-79.6,4.718-2.146s-2.706-.075-8.871-.208-278.266-3.138-278.266-3.138c1.978,17.439,33.156,77.4,55.94,81.314,6.361,1.093,29.623,2.363,59.726,3.774" transform="translate(-287.98 -1531.379)" fill="#664131"/>
              <path id="Trazado_893502" data-name="Trazado 893502" d="M158.424,1840.948l166.753-81.507,5.366.076s-1.508-2.47-7.673-2.6S.283,1755.43.283,1755.43L0,1840.948s147.888-.494,158.424,0" transform="translate(0 -1528.485)" fill="#565763"/>
              <path id="Trazado_893503" data-name="Trazado 893503" d="M485.757,1936.65l144.231-59.189-42.394-10.691-95.545,34.774,65.431-34.774H504.5s-28.818,33.49-53.287,29.441a341.332,341.332,0,0,1-40.69-9.052s23.466,45.136,44.177,47.49a276.645,276.645,0,0,0,31.058,2" transform="translate(-357.449 -1625.43)" fill="#e5e4db"/>
              <path id="Trazado_893504" data-name="Trazado 893504" d="M2337.406,2066.75s58.209-12.085,66.47-14.066c4.65-1.115-3.455-3.892-3.455-3.892s-67.058,15.643-63.015,17.958" transform="translate(-2035.069 -1783.921)" fill="#fff"/>
              <path id="Trazado_893505" data-name="Trazado 893505" d="M2321.953,2100.7s33.978-2.723,53.749-3.54,21.951.876,21.951.876v3.431s-13.911-.23-31.809.262c-20.1.553-44.421,1.7-43.891-1.029" transform="translate(-2021.759 -1825.842)" fill="#fff"/>
              <path id="Trazado_893506" data-name="Trazado 893506" d="M2603.572,2114.749c.03.222-.818.519-1.894.665s-1.972.083-2-.138.818-.519,1.894-.665,1.972-.083,2,.138" transform="translate(-2263.585 -1841.162)" fill="#8892b9"/>
              <path id="Trazado_893507" data-name="Trazado 893507" d="M2788.9,2003.065c-4.646.179-13.135-.1-19.836,1.96s-4.7,4.338-4.7,4.338l-7.24,1.715,7.307,2.921-.661.144.385.09a10.807,10.807,0,0,0,1.68-.192c2.317-.545,17.478-4.125,22.177-5.527,5.093-1.519,5.54-5.629.894-5.45m-14.952,6.821c-3.337.6-6.331-1.35-5.659-2.378.715-1.094,3.714-1.462,8.757-1.97,5.457-.55,12.151-.93,12.152-.3,0,1.478-11.912,4.048-15.249,4.647" transform="translate(-2400.677 -1744.101)" fill="#231f20"/>
              <path id="Trazado_893508" data-name="Trazado 893508" d="M2873.93,2084.826c-5.183-.6-12.724,1.358-15.386,1.468s-6.361-.245-6.716.258l-2.976,4.218s-.471.893,2.326,1.034,6.848.736,8.635,1.808,14.234.06,16.8-2.68,2.5-5.509-2.681-6.105m1.966,3.68c-.491,1.251-5.54,2.5-7.908,2.77s-6.434.044-7.193-.4-1.474-2.278.536-3.261c1.186-.58,8.4-1.474,11.08-1.3s3.976.938,3.485,2.189" transform="translate(-2480.521 -1815.198)" fill="#231f20"/>
              <path id="Trazado_893509" data-name="Trazado 893509" d="M2063.432,2350.06a1.709,1.709,0,1,1,1.507-.9,1.7,1.7,0,0,1-1.507.9m0-3.061a1.366,1.366,0,0,0-.389.057,1.342,1.342,0,1,0,.389-.057" transform="translate(-1795.182 -2043.264)" fill="#aaa5a0"/>
              <path id="Trazado_893510" data-name="Trazado 893510" d="M2077.756,2339.051l-.073-.349c.03-.006,3.014-.633,7.071-1.79a79.556,79.556,0,0,0,8.056-2.851l.14.329a79.984,79.984,0,0,1-8.1,2.865c-4.07,1.161-7.067,1.79-7.1,1.8" transform="translate(-1809.077 -2032.31)" fill="#dfe0e2"/>
              <path id="Trazado_893511" data-name="Trazado 893511" d="M2069.735,2318.433l-.192-.3a32.859,32.859,0,0,1,6.556-3.006,28.841,28.841,0,0,1,7.062-1.4l.014.357a28.484,28.484,0,0,0-6.964,1.385,32.465,32.465,0,0,0-6.477,2.968" transform="translate(-1801.989 -2014.601)" fill="#dfe0e2"/>
              <path id="Trazado_893512" data-name="Trazado 893512" d="M2164.5,2306.019c.3.762-.679,1.334-1.25,1.1s-.734-.358-1.057-.261-1.567.468-1.611.908a5.718,5.718,0,0,0,.769,1.778s3.715-1.135,4.442-1.98a2.217,2.217,0,0,0-1.409-3.5,8.594,8.594,0,0,0-4.852,1.285c.074.079.02,1.514.848,1.579a3.82,3.82,0,0,0,1.844-.552c.232-.144.293-.845,1.047-1.018a.9.9,0,0,1,1.228.663" transform="translate(-1880.345 -2006.155)" fill="#dfe0e2"/>
              <path id="Trazado_893513" data-name="Trazado 893513" d="M3272.042,1953.491l.416-4.7,1.351.119a.668.668,0,0,1,.606.724l-.3,3.374a.668.668,0,0,1-.724.607Z" transform="translate(-2849.027 -1696.844)" fill="#aaa5a0"/>
              <path id="Trazado_893514" data-name="Trazado 893514" d="M3107.9,1939.338l.416-4.705-1.351-.119a.668.668,0,0,0-.724.607l-.3,3.374a.668.668,0,0,0,.607.724Z" transform="translate(-2704.397 -1684.414)" fill="#aaa5a0"/>
            </g>
          </g>
          <g id="Grupo_1102019" data-name="Grupo 1102019" transform="translate(403.187 247.291)">
            <g id="Grupo_1102018" data-name="Grupo 1102018" clip-path="url(#clip-path-14)">
              <rect id="Rectángulo_402716" data-name="Rectángulo 402716" width="20.587" height="24.081" transform="translate(-5.182 9.684) rotate(-62.238)" fill="#727aa6"/>
            </g>
          </g>
          <g id="Grupo_1102021" data-name="Grupo 1102021" transform="translate(0 0)">
            <g id="Grupo_1102020" data-name="Grupo 1102020" clip-path="url(#clip-path-3)">
              <path id="Trazado_893516" data-name="Trazado 893516" d="M3250.572,1929.283q-.406,2.477-.81,4.955a19.834,19.834,0,0,1-1.06,4.541h.138c-.366-2.01-.718-4.02-1.162-6.013,0-.011-.019-.006-.017,0,.29,2.026.673,4.034,1.041,6.047.014.078.114.057.138,0a19.846,19.846,0,0,0,1.052-4.543q.4-2.479.8-4.957c.013-.079-.108-.113-.121-.033" transform="translate(-2827.797 -1679.823)" fill="#66668e"/>
              <path id="Trazado_893517" data-name="Trazado 893517" d="M3147.619,1922.483a8.612,8.612,0,0,0-.389-1.8.056.056,0,0,0-.109.015c-.136,1.608-.332,3.222-.583,4.815a14.416,14.416,0,0,1-1.166,4.234l.171.022a49.849,49.849,0,0,0-1.332-5.77c-.287-.923-.606-1.83-.948-2.734-.159-.421-.261-1.017-.775-1.117a.113.113,0,0,0-.125.051c-.6,1.4-1.087,2.837-1.574,4.282-.509,1.508-1.145,2.944-1.74,4.417l.14-.018a10.444,10.444,0,0,1-1.137-4.588,25.571,25.571,0,0,0-.9-4.249.135.135,0,0,0-.244-.032,17.321,17.321,0,0,0-1.281,4.063c-.4,1.589-.8,3.175-1.157,4.773h.174c-.487-1.519-.281-3.148-.443-4.718a24.273,24.273,0,0,0-.86-4.354.148.148,0,0,0-.285.078,27.165,27.165,0,0,1,.913,4.762,31.206,31.206,0,0,0,.5,4.279.091.091,0,0,0,.174,0c.412-1.495.781-3,1.158-4.5a17.729,17.729,0,0,1,1.337-4.245l-.244-.032a27.291,27.291,0,0,1,.963,4.893,8.723,8.723,0,0,0,.321,1.955c.234.692.59,1.325.873,2,.024.057.1.043.132,0a18.569,18.569,0,0,0,1.771-4.185c.241-.709.473-1.421.719-2.129.131-.375.263-.751.4-1.124.106-.29.357-1.272.756-.739a3.394,3.394,0,0,1,.3.891c.125.38.247.761.372,1.141.252.769.5,1.539.721,2.316a34.728,34.728,0,0,1,1.133,4.69c.011.081.136.089.171.022a15.512,15.512,0,0,0,1.317-5.015c.129-.875.232-1.752.3-2.634.021-.25.035-.5.046-.747,0-.091-.016-.5,0-.517-.038.05.146.487.162.552a8.219,8.219,0,0,1,.184,1.007c.006.045.077.046.072,0" transform="translate(-2728.008 -1671.489)" fill="#66668e"/>
              <path id="Trazado_893518" data-name="Trazado 893518" d="M1987.16,2178.057l12.362-11.47-.5-.514Z" transform="translate(-1730.257 -1886.04)" fill="#f7fbff"/>
            </g>
          </g>
          <g id="Grupo_1102023" data-name="Grupo 1102023" transform="translate(267.916 278.54)">
            <g id="Grupo_1102022" data-name="Grupo 1102022" clip-path="url(#clip-path-16)">
              <rect id="Rectángulo_402718" data-name="Rectángulo 402718" width="3.155" height="3.008" transform="translate(-0.147)" fill="#cbdee5"/>
            </g>
          </g>
          <g id="Grupo_1102025" data-name="Grupo 1102025" transform="translate(0 0)">
            <g id="Grupo_1102024" data-name="Grupo 1102024" clip-path="url(#clip-path-3)">
              <path id="Trazado_893520" data-name="Trazado 893520" d="M1808.413,2173.838l-11.2-12.611-.525.486Z" transform="translate(-1564.413 -1881.82)" fill="#f7fbff"/>
              <path id="Trazado_893521" data-name="Trazado 893521" d="M1787.718,2149.89a1.43,1.43,0,1,1-2.022-.077,1.43,1.43,0,0,1,2.022.077" transform="translate(-1554.44 -1871.55)" fill="#4c6873"/>
              <path id="Trazado_893522" data-name="Trazado 893522" d="M1971.638,2129.3l6.349-15.624-.668-.255Z" transform="translate(-1716.742 -1840.193)" fill="#f7fbff"/>
            </g>
          </g>
          <g id="Grupo_1102027" data-name="Grupo 1102027" transform="translate(259.644 271.493)">
            <g id="Grupo_1102026" data-name="Grupo 1102026" clip-path="url(#clip-path-18)">
              <rect id="Rectángulo_402720" data-name="Rectángulo 402720" width="3.237" height="3.049" transform="translate(-0.187)" fill="#cbdee5"/>
            </g>
          </g>
          <g id="Grupo_1102029" data-name="Grupo 1102029" transform="translate(0 0)">
            <g id="Grupo_1102028" data-name="Grupo 1102028" clip-path="url(#clip-path-19)">
              <path id="Trazado_893524" data-name="Trazado 893524" d="M1840.683,2163.01l-8.892-14.329-.6.39Z" transform="translate(-1594.452 -1870.896)" fill="#e5eef2"/>
              <path id="Trazado_893525" data-name="Trazado 893525" d="M1823.135,2136.791a1.431,1.431,0,1,1-1.979-.419,1.431,1.431,0,0,1,1.979.419" transform="translate(-1585.147 -1859.977)" fill="#e5eef2"/>
              <path id="Trazado_893526" data-name="Trazado 893526" d="M1919.781,2129l-.352-16.86-.715.03Z" transform="translate(-1670.66 -1839.076)" fill="#e5eef2"/>
              <path id="Trazado_893527" data-name="Trazado 893527" d="M1908.976,2096.255a.964.964,0,0,0,.276-.73,1.032,1.032,0,0,0-2.058-.047h-.018a1.032,1.032,0,0,0-2.047.219.869.869,0,0,0,.311.7l1.854,1.673Z" transform="translate(-1658.83 -1823.752)" fill="#e5eef2"/>
              <path id="Trazado_893528" data-name="Trazado 893528" d="M1958.934,2132.514l2.465-16.683-.709-.09Z" transform="translate(-1705.68 -1842.215)" fill="#e5eef2"/>
            </g>
          </g>
          <g id="Grupo_1102031" data-name="Grupo 1102031" transform="translate(253.992 271.684)">
            <g id="Grupo_1102030" data-name="Grupo 1102030" clip-path="url(#clip-path-20)">
              <rect id="Rectángulo_402722" data-name="Rectángulo 402722" width="3.649" height="3.585" transform="translate(-0.766 0.166) rotate(-13.71)" fill="#cbdee5"/>
            </g>
          </g>
          <g id="Grupo_1102033" data-name="Grupo 1102033" transform="translate(0 0)">
            <g id="Grupo_1102032" data-name="Grupo 1102032" clip-path="url(#clip-path-3)">
              <path id="Trazado_893530" data-name="Trazado 893530" d="M1883.186,2152.437l-4.337-16.3-.687.2Z" transform="translate(-1635.35 -1859.976)" fill="#f7fbff"/>
              <path id="Trazado_893531" data-name="Trazado 893531" d="M1866.469,2119.191a.965.965,0,0,0,.1-.774,1.032,1.032,0,0,0-2.011.442l-.017.005a1.032,1.032,0,0,0-1.937.7.869.869,0,0,0,.469.611l2.2,1.186Z" transform="translate(-1621.764 -1843.895)" fill="#4c6873"/>
              <path id="Trazado_893532" data-name="Trazado 893532" d="M1865.969,2133.7l-4.465-16.262-.686.2Z" transform="translate(-1620.248 -1843.688)" fill="#f7fbff"/>
            </g>
          </g>
          <g id="Grupo_1102035" data-name="Grupo 1102035" transform="translate(238.544 271.355)">
            <g id="Grupo_1102034" data-name="Grupo 1102034" clip-path="url(#clip-path-22)">
              <rect id="Rectángulo_402724" data-name="Rectángulo 402724" width="4.198" height="3.69" transform="translate(-0.119 0)" fill="#e5eef2"/>
            </g>
          </g>
          <g id="Grupo_1102037" data-name="Grupo 1102037" transform="translate(235.567 282.816)">
            <g id="Grupo_1102036" data-name="Grupo 1102036" clip-path="url(#clip-path-23)">
              <rect id="Rectángulo_402725" data-name="Rectángulo 402725" width="29.708" height="9.81" fill="#453028"/>
            </g>
          </g>
          <g id="Grupo_1102039" data-name="Grupo 1102039" transform="translate(0 0)">
            <g id="Grupo_1102038" data-name="Grupo 1102038" clip-path="url(#clip-path-3)">
              <path id="Trazado_893535" data-name="Trazado 893535" d="M1840.1,2265.72h-31.888a.814.814,0,0,1-.814-.814v-1.21a.224.224,0,0,1,.224-.224h33.068a.224.224,0,0,1,.224.224v1.21a.814.814,0,0,1-.814.814" transform="translate(-1573.73 -1970.847)" fill="#c3c2c0"/>
              <path id="Trazado_893536" data-name="Trazado 893536" d="M1744.416,583.091c-24.1,6.394-17.6,75.234-21.354,99.339-23.625,25.379-44.646,48.952-54.193,60.382-4.083,4.889,20.537,12.716,20.537,12.716,18.191-9.519,38.55-11.785,64.029-41.749,1.151-1.106,7.435-10.554,8.044-13.7,14.515-38.939,4.915-122.817-17.062-116.986" transform="translate(-1452.717 -507.457)" fill="#7eadbf"/>
              <path id="Trazado_893537" data-name="Trazado 893537" d="M1614.986,1892.472c5.2-1.057,4.84-6.772,9.59-9.771s-.909-5.75-6.466-2.891-8.321,13.719-3.125,12.662" transform="translate(-1403.795 -1635.737)" fill="#dc8e80"/>
              <path id="Trazado_893538" data-name="Trazado 893538" d="M1549.431,1883.694c2.362-.562,1.141-6.195,4.485-12.134s10-6.262,14.394-9.115-3.366-4.868-6.781-3.607-10.97,6.989-12.9,11.28-2.859,14.447.8,13.577" transform="translate(-1346.946 -1618.19)" fill="#f3a68f"/>
              <path id="Trazado_893539" data-name="Trazado 893539" d="M1600.814,1887.678c2.363-.562,1.141-6.195,4.485-12.134s5.548-4.146,9.947-7,1.081-6.984-2.334-5.724-10.97,6.989-12.9,11.28-2.859,14.447.8,13.577" transform="translate(-1391.686 -1621.791)" fill="#f3a68f"/>
              <path id="Trazado_893540" data-name="Trazado 893540" d="M1665.623,1886.815c2.362-.562,1.209-6.438,2.879-13.047,1.108-4.384,4.46-6.15,4.941-8.358,1.116-5.123-1.33-2.9-4.745-1.636s-2.4,3.5-4.328,7.791-2.406,16.12,1.252,15.25" transform="translate(-1447.911 -1621.447)" fill="#f3a68f"/>
              <path id="Trazado_893541" data-name="Trazado 893541" d="M1640.648,1844.55c3.846-.049.494-5.494,2.084-10.857s7.138-3.545,8.6-7.953c2.414-7.288-13.535-15.851-25.226-1.176-3.152,3.957,12.17,1.893,11.588,4.6-1.3,6.026-.172,15.424,2.957,15.385" transform="translate(-1415.506 -1581.694)" fill="#f3a68f"/>
              <path id="Trazado_893542" data-name="Trazado 893542" d="M2098.619,1357.6c1.2.859,2.423,1.688,3.58,2.6.351.277,1.014-.093.689-.532-.7-.946-1.234-1.945-1.839-2.947,0-.007-.129-.27-.176-.209.034-.045.323.084.366.1.281.11.553.244.829.366a4.167,4.167,0,0,0,1.7.527.291.291,0,0,0,.2-.491,6.441,6.441,0,0,0-2.355-1.244c-.518-.216-1.277-.331-1.552.311s.378,1.473.674,1.983a17.46,17.46,0,0,0,1.456,2.134l.532-.689c-1.281-.792-2.508-1.677-3.752-2.527-.383-.262-.729.352-.36.616" transform="translate(-1827.169 -1180.349)" fill="#9ab6cc"/>
              <path id="Trazado_893543" data-name="Trazado 893543" d="M2330.11,1493.589a16.809,16.809,0,0,0-.374,4.3.4.4,0,0,0,.5.382,6.268,6.268,0,0,0,3.968-5.057,2.218,2.218,0,0,0-.222-1.568,1.359,1.359,0,0,0-1.2-.511,1.8,1.8,0,0,0-1.278.682,2.558,2.558,0,0,0-.643,1.507.324.324,0,0,0,.547.227c.487-.51.595-1.74,1.569-1.608.822.112.385,1.617.231,2.117a5.446,5.446,0,0,1-3.18,3.447l.5.382a16.994,16.994,0,0,1,.229-4.12c.079-.421-.558-.6-.648-.179" transform="translate(-2028.527 -1298.355)" fill="#9ab6cc"/>
              <path id="Trazado_893544" data-name="Trazado 893544" d="M1731.819,1782.132a31.536,31.536,0,0,1,10.575.779,27.1,27.1,0,0,1,4.967,1.7,5.132,5.132,0,0,1,2.962,3.2,14.052,14.052,0,0,1,.338,4.883c-.031.586.891.588.914,0,.113-2.974-.006-6.469-2.817-8.229a18.883,18.883,0,0,0-5.071-1.951,31.192,31.192,0,0,0-5.606-.971,29.078,29.078,0,0,0-6.3.267c-.181.025-.14.34.043.321" transform="translate(-1507.787 -1551.16)" fill="#9ab6cc"/>
              <path id="Trazado_893545" data-name="Trazado 893545" d="M1841.706,1855.525a1.61,1.61,0,0,0-.588,2.344.4.4,0,0,0,.516.135c.716-.3,1.529-.8,1.6-1.661.049-.618-.342-1.429-1.058-1.35-.287.031-.5.46-.167.614a.666.666,0,0,1,.423.844c-.169.473-.755.717-1.177.9l.516.135a.936.936,0,0,1,.256-1.414c.361-.2.043-.726-.321-.549" transform="translate(-1602.844 -1615.172)" fill="#9ab6cc"/>
              <path id="Trazado_893546" data-name="Trazado 893546" d="M1066.088,1196.077c9.022-10.966,27.641-61.458,44.024-78.976,2.789-2.983,22.38,39.888,22.38,39.888-13.549,14.959-39.512,57.216-49.34,59.629-4.847,1.19-27.618-7.713-17.064-20.541" transform="translate(-925.859 -972.551)" fill="#7eadbf"/>
              <path id="Trazado_893547" data-name="Trazado 893547" d="M919.3,1867.173c-1.2,4.487-1.387,15.226,1.363,14.8s1.289-6.535,2.687-10.308c2.1-5.671,7.38-7.2,10.662-9.585s2.881-8.422-2.327-5.322-11.122,5.707-12.386,10.416" transform="translate(-799.727 -1615.958)" fill="#f3a68f"/>
              <path id="Trazado_893548" data-name="Trazado 893548" d="M962.394,1880c-1.2,4.487-4.137,15.653-1.387,15.226s2.222-5.612,5.437-10.735,7.38-7.2,10.662-9.585.815-6.225-4.392-3.125-9.056,3.51-10.32,8.219" transform="translate(-835.773 -1628.789)" fill="#f3a68f"/>
              <path id="Trazado_893549" data-name="Trazado 893549" d="M997.549,1869.164c-1.2,4.487-4.137,15.653-1.387,15.226s2.222-5.613,5.437-10.735,7.38-7.2,10.662-9.585.815-6.225-4.392-3.125-9.056,3.51-10.32,8.219" transform="translate(-866.383 -1619.351)" fill="#f3a68f"/>
              <path id="Trazado_893550" data-name="Trazado 893550" d="M1039.13,1861.316c-1.558,4.377-5.374,15.241-2.6,15.067,3.376-.212,2.949-4.754,5.221-9.592,2.57-5.475,8.985-7.266,12.447-9.38s1.309-6.14-4.129-3.465-9.307,2.777-10.943,7.37" transform="translate(-901.672 -1613.493)" fill="#f3a68f"/>
              <path id="Trazado_893551" data-name="Trazado 893551" d="M953.476,1795.046s9.746-5.209,18.472-11.2c6.021-4.134,1.4-5.9-3.281-9.222s-9.981-7.827-12.066-5.652c-8.1,8.449-14.026,14.476-17.356,18.847-1.394,1.831,14.231,7.227,14.231,7.227" transform="translate(-817.741 -1539.779)" fill="#f3a68f"/>
              <path id="Trazado_893552" data-name="Trazado 893552" d="M934.25,1955.757c1.333-1.728,4.811-3.519,7.244-2.415s5.069,6.091,3.789,7.7-6.283,5.252-8.291,7.541-5.909,1.887-7.754-.11,1.731-8.46,5.011-12.713" transform="translate(-808.667 -1700.515)" fill="#fff"/>
              <path id="Trazado_893553" data-name="Trazado 893553" d="M970.581,1934.822c1.928.547,3.535-1.652,7.973-7.615s6.213-8.611-.222-8.341-5.33.733-7.7,7.724c-2.192,6.458-2.272,7.6-.047,8.232" transform="translate(-843.681 -1670.776)" fill="#f3a68f"/>
              <path id="Trazado_893554" data-name="Trazado 893554" d="M1473.729,1279.432a3.84,3.84,0,0,1,3.077,1.794.367.367,0,0,0,.571.073,6.653,6.653,0,0,0,1.415-5.242l-.745.205a7.312,7.312,0,0,0,3.443,3.828c.682.344,1.649.634,2.232-.046a1.006,1.006,0,0,0-.353-1.645c-.4-.148-.772.465-.43.738.124.1.062.238-.069.318-.22.134-.69-.107-.892-.2a6.273,6.273,0,0,1-1.308-.825,6.975,6.975,0,0,1-1.918-2.464c-.2-.422-.781-.1-.706.3a5.616,5.616,0,0,1-1.184,4.522l.571.073a4.429,4.429,0,0,0-3.7-1.851.212.212,0,0,0,0,.423" transform="translate(-1283.025 -1110.834)" fill="#9ab6cc"/>
              <path id="Trazado_893555" data-name="Trazado 893555" d="M1098.2,1732.9c1.674-1.044,3.424.346,4.6,1.482a18.336,18.336,0,0,0,3.9,2.972c2.893,1.6,6.109,2.46,9.138,3.747,1.359.578,3.353,1.453,3.384,3.188a.475.475,0,0,0,.95,0c-.009-1.619-1.328-2.727-2.659-3.418a38.976,38.976,0,0,0-4.987-1.957,40.9,40.9,0,0,1-5.056-2.053,16.939,16.939,0,0,1-2.271-1.383c-.789-.577-1.462-1.275-2.2-1.909-1.328-1.139-3.333-2.163-4.964-.967-.175.128-.018.418.174.3" transform="translate(-956.002 -1508.144)" fill="#9ab6cc"/>
            </g>
          </g>
        </g>
      </g>
    </g>
  </g>
</svg>
