<svg xmlns="http://www.w3.org/2000/svg" width="104" height="104" viewBox="0 0 104 104">
  <g id="Grupo_1102304" data-name="Grupo 1102304" transform="translate(-357.782 -12567.736)">
    <g id="Grupo_1101664" data-name="Grupo 1101664" transform="translate(-762.551 12441.519)">
      <g id="Trazado_874818" data-name="Trazado 874818" transform="translate(1120.333 126.218)" fill="#c7b8b4">
        <path d="M 52 103 C 45.11460113525391 103 38.43569946289062 101.6517105102539 32.1488151550293 98.99258422851562 C 26.07588577270508 96.42394256591797 20.62162780761719 92.74652862548828 15.93755722045898 88.06244659423828 C 11.25348567962646 83.37837219238281 7.576056957244873 77.92412567138672 5.007428646087646 71.8511962890625 C 2.348285675048828 65.56430053710938 1 58.88539886474609 1 52 C 1 45.11460113525391 2.348285675048828 38.43569946289062 5.007428646087646 32.1488151550293 C 7.576056957244873 26.07588577270508 11.25348567962646 20.62162780761719 15.93755722045898 15.93755722045898 C 20.62162780761719 11.25348567962646 26.07588577270508 7.576056957244873 32.1488151550293 5.007428646087646 C 38.43569946289062 2.348285675048828 45.11460113525391 1 52 1 C 58.88539886474609 1 65.56430053710938 2.348285675048828 71.8511962890625 5.007428646087646 C 77.92412567138672 7.576056957244873 83.37837219238281 11.25348567962646 88.06244659423828 15.93755722045898 C 92.74652862548828 20.62162780761719 96.42394256591797 26.07588577270508 98.99258422851562 32.1488151550293 C 101.6517105102539 38.43569946289062 103 45.11460113525391 103 52 C 103 58.88539886474609 101.6517105102539 65.56430053710938 98.99258422851562 71.8511962890625 C 96.42394256591797 77.92412567138672 92.74652862548828 83.37837219238281 88.06244659423828 88.06244659423828 C 83.37837219238281 92.74652862548828 77.92412567138672 96.42394256591797 71.8511962890625 98.99258422851562 C 65.56430053710938 101.6517105102539 58.88539886474609 103 52 103 Z" stroke="none"/>
        <path d="M 52 2 C 45.24916839599609 2 38.70132446289062 3.321708679199219 32.53835296630859 5.928428649902344 C 26.58463287353516 8.446647644042969 21.23721313476562 12.05210876464844 16.64466094970703 16.64466094970703 C 12.05210876464844 21.23721313476562 8.446647644042969 26.58463287353516 5.928428649902344 32.53835296630859 C 3.321708679199219 38.70132446289062 2 45.24916839599609 2 52 C 2 58.75084686279297 3.321708679199219 65.29867553710938 5.928428649902344 71.46164703369141 C 8.446647644042969 77.41536712646484 12.05210876464844 82.76278686523438 16.64466094970703 87.35533905029297 C 21.23721313476562 91.94789123535156 26.58463287353516 95.55335235595703 32.53835296630859 98.07157135009766 C 38.70132446289062 100.6782913208008 45.24916839599609 102 52 102 C 58.75084686279297 102 65.29867553710938 100.6782913208008 71.46164703369141 98.07157135009766 C 77.41536712646484 95.55335235595703 82.76278686523438 91.94789123535156 87.35533905029297 87.35533905029297 C 91.94789123535156 82.76278686523438 95.55335235595703 77.41536712646484 98.07157135009766 71.46164703369141 C 100.6782913208008 65.29867553710938 102 58.75084686279297 102 52 C 102 45.24916839599609 100.6782913208008 38.70132446289062 98.07157135009766 32.53835296630859 C 95.55335235595703 26.58463287353516 91.94789123535156 21.23721313476562 87.35533905029297 16.64466094970703 C 82.76278686523438 12.05210876464844 77.41536712646484 8.446647644042969 71.46164703369141 5.928428649902344 C 65.29867553710938 3.321708679199219 58.75084686279297 2 52 2 M 52 0 C 80.71881103515625 0 104 23.28119659423828 104 52 C 104 80.71881103515625 80.71881103515625 104 52 104 C 23.28119659423828 104 0 80.71881103515625 0 52 C 0 23.28119659423828 23.28119659423828 0 52 0 Z" stroke="none" fill="#fff"/>
      </g>
    </g>
    <path id="Trazado_893425" data-name="Trazado 893425" d="M-8267.046,355.888v30.27h31.29s-.769-16.633-10.681-23.783A34.9,34.9,0,0,0-8267.046,355.888Z" transform="translate(8654.051 12257.893)" fill="#fff"/>
    <g id="Grupo_1101963" data-name="Grupo 1101963" transform="translate(385.5 12590.217)">
      <path id="Trazado_893400" data-name="Trazado 893400" d="M50.825,27.349a.8.8,0,0,0-.637-.194,19.943,19.943,0,0,1-2.548.164A19.628,19.628,0,0,1,29.17,1.08.807.807,0,0,0,28.41,0H1.307A.807.807,0,0,0,.5.807V11.95a.807.807,0,0,0,1.614,0V7.094H21.171a.807.807,0,1,0,0-1.614H2.114V1.615H27.3a21.229,21.229,0,0,0,4.864,20.6.851.851,0,0,0,.1.12.79.79,0,0,0,.081.07,21.172,21.172,0,0,0,15.3,6.528c.614,0,1.231-.027,1.844-.08V39.148a.807.807,0,0,0,1.615,0V27.955A.806.806,0,0,0,50.825,27.349Zm0,0" stroke="#000" stroke-width="1"/>
      <path id="Trazado_893401" data-name="Trazado 893401" d="M50.292,160.886a.807.807,0,0,0-.807.807v11.049H46.213V153.685a.807.807,0,0,0-1.614,0v19.057H33.907a.806.806,0,0,0-1.6,0H2.114V142.958a.806.806,0,0,0,0-1.61v-6.854a.807.807,0,1,0-1.614,0v39.055c0,.012,0,.024,0,.037s0,.028,0,.042,0,.032.007.047,0,.021,0,.031.008.032.012.048,0,.019.007.028.011.031.016.047l.01.027c.007.016.014.031.022.047s.007.016.011.024.02.035.031.052l.01.016a.816.816,0,0,0,.226.226l.023.014.044.026.03.014.042.019.03.011.045.016.027.007.05.012.022,0,.056.008h.006c.024,0,.047,0,.071,0H50.292a.808.808,0,0,0,.808-.808V161.693A.807.807,0,0,0,50.292,160.886Zm0,0" transform="translate(0 -119.316)" stroke="#000" stroke-width="1"/>
      <path id="Trazado_893402" data-name="Trazado 893402" d="M200.48,279.717a.807.807,0,1,0-.537-.2A.808.808,0,0,0,200.48,279.717Zm0,0" transform="translate(-177.762 -248.207)" stroke="#000" stroke-width="1"/>
      <path id="Trazado_893403" data-name="Trazado 893403" d="M125.384,229.545a.807.807,0,1,0,.412,1.064A.807.807,0,0,0,125.384,229.545Zm0,0" transform="translate(-110.448 -204.807)" stroke="#000" stroke-width="1"/>
      <path id="Trazado_893404" data-name="Trazado 893404" d="M177.069,260.92a.807.807,0,0,0,.474-1.461h0a.807.807,0,1,0-.472,1.461Zm0,0" transform="translate(-156.868 -231.43)" stroke="#000" stroke-width="1"/>
      <path id="Trazado_893405" data-name="Trazado 893405" d="M151.443,244.539a.8.8,0,0,0,.4.107.807.807,0,1,0-.4-.107Zm0,0" transform="translate(-134.355 -216.905)" stroke="#000" stroke-width="1"/>
      <path id="Trazado_893406" data-name="Trazado 893406" d="M38.422,206.467a.807.807,0,1,0-.166,1.606.7.7,0,0,0,.084,0,.807.807,0,0,0,.082-1.61Zm0,0" transform="translate(-33.05 -184.268)" stroke="#000" stroke-width="1"/>
      <path id="Trazado_893407" data-name="Trazado 893407" d="M67.994,212.7a.807.807,0,1,0-.167-.017A.787.787,0,0,0,67.994,212.7Zm0,0" transform="translate(-59.517 -188.396)" stroke="#000" stroke-width="1"/>
      <path id="Trazado_893408" data-name="Trazado 893408" d="M97.253,218.825a.807.807,0,0,0-.5,1.537.819.819,0,0,0,.248.039.807.807,0,0,0,.247-1.576Zm0,0" transform="translate(-85.411 -195.266)" stroke="#000" stroke-width="1"/>
      <path id="Trazado_893409" data-name="Trazado 893409" d="M257,347.556a.807.807,0,0,0,.41,1.5.808.808,0,0,0,.7-1.217A.807.807,0,0,0,257,347.556Zm0,0" transform="translate(-228.575 -310.094)" stroke="#000" stroke-width="1"/>
      <path id="Trazado_893410" data-name="Trazado 893410" d="M270.533,375.207a.807.807,0,0,0,1.469-.67h0a.807.807,0,0,0-1.468.67Zm0,0" transform="translate(-240.939 -333.853)" stroke="#000" stroke-width="1"/>
      <path id="Trazado_893411" data-name="Trazado 893411" d="M282.013,402.027a.807.807,0,0,0,.256,1.572.793.793,0,0,0,.256-.042.807.807,0,0,0-.512-1.53Zm0,0" transform="translate(-250.758 -358.772)" stroke="#000" stroke-width="1"/>
      <path id="Trazado_893412" data-name="Trazado 893412" d="M240.392,322.564a.807.807,0,1,0,1.128.17A.806.806,0,0,0,240.392,322.564Zm0,0" transform="translate(-213.811 -287.748)" stroke="#000" stroke-width="1"/>
      <path id="Trazado_893413" data-name="Trazado 893413" d="M290.113,430.929a.807.807,0,1,0,.962.613A.806.806,0,0,0,290.113,430.929Zm0,0" transform="translate(-257.915 -384.587)" stroke="#000" stroke-width="1"/>
      <path id="Trazado_893414" data-name="Trazado 893414" d="M295.154,460.514a.807.807,0,0,0,.091,1.609.638.638,0,0,0,.094-.005.807.807,0,0,0-.184-1.6Zm0,0" transform="translate(-262.34 -411.004)" stroke="#000" stroke-width="1"/>
      <path id="Trazado_893415" data-name="Trazado 893415" d="M222.365,300.612a.81.81,0,1,0-.544.21A.808.808,0,0,0,222.365,300.612Zm0,0" transform="translate(-196.808 -267.043)" stroke="#000" stroke-width="1"/>
      <path id="Trazado_893416" data-name="Trazado 893416" d="M128.169,369.786a.807.807,0,1,0,1.141,0A.808.808,0,0,0,128.169,369.786Zm0,0" transform="translate(-113.734 -329.823)" stroke="#000" stroke-width="1"/>
      <path id="Trazado_893417" data-name="Trazado 893417" d="M43.213,454.739a.807.807,0,1,0,1.142,0A.809.809,0,0,0,43.213,454.739Zm0,0" transform="translate(-37.911 -405.644)" stroke="#000" stroke-width="1"/>
      <path id="Trazado_893418" data-name="Trazado 893418" d="M64.454,434.646a.807.807,0,1,0,0-1.141A.8.8,0,0,0,64.454,434.646Zm0,0" transform="translate(-56.868 -386.692)" stroke="#000" stroke-width="1"/>
      <path id="Trazado_893419" data-name="Trazado 893419" d="M106.923,392.163a.808.808,0,1,0,0-1.142A.81.81,0,0,0,106.923,392.163Zm0,0" transform="translate(-94.771 -348.775)" stroke="#000" stroke-width="1"/>
      <path id="Trazado_893420" data-name="Trazado 893420" d="M22.541,477.36a.808.808,0,1,0-.571-.237A.8.8,0,0,0,22.541,477.36Zm0,0" transform="translate(-18.951 -424.603)" stroke="#000" stroke-width="1"/>
      <path id="Trazado_893421" data-name="Trazado 893421" d="M149.4,349.693a.807.807,0,1,0,0-1.141A.8.8,0,0,0,149.4,349.693Zm0,0" transform="translate(-132.685 -310.871)" stroke="#000" stroke-width="1"/>
      <path id="Trazado_893422" data-name="Trazado 893422" d="M85.689,412.264a.807.807,0,1,0,1.142,0A.807.807,0,0,0,85.689,412.264Zm0,0" transform="translate(-75.82 -367.735)" stroke="#000" stroke-width="1"/>
      <path id="Trazado_893423" data-name="Trazado 893423" d="M251.486,237.669a.807.807,0,1,0,1.142,0A.806.806,0,0,0,251.486,237.669Zm0,0" transform="translate(-223.793 -211.909)" stroke="#000" stroke-width="1"/>
      <path id="Trazado_893424" data-name="Trazado 893424" d="M272.72,216.423a.808.808,0,1,0,1.142,0A.808.808,0,0,0,272.72,216.423Zm0,0" transform="translate(-242.745 -192.946)" stroke="#000" stroke-width="1"/>
    </g>
  </g>
</svg>
