<svg xmlns="http://www.w3.org/2000/svg" width="104" height="104" viewBox="0 0 104 104">
  <g id="Grupo_1101393" data-name="Grupo 1101393" transform="translate(-1120.333 -126.218)">
    <g id="Trazado_874818" data-name="Trazado 874818" transform="translate(1120.333 126.218)" fill="#c7b8b4">
      <path d="M 52 103 C 45.11460113525391 103 38.43569946289062 101.6517105102539 32.1488151550293 98.99258422851562 C 26.07588577270508 96.42394256591797 20.62162780761719 92.74652862548828 15.93755722045898 88.06244659423828 C 11.25348567962646 83.37837219238281 7.576056957244873 77.92412567138672 5.007428646087646 71.8511962890625 C 2.348285675048828 65.56430053710938 1 58.88539886474609 1 52 C 1 45.11460113525391 2.348285675048828 38.43569946289062 5.007428646087646 32.1488151550293 C 7.576056957244873 26.07588577270508 11.25348567962646 20.62162780761719 15.93755722045898 15.93755722045898 C 20.62162780761719 11.25348567962646 26.07588577270508 7.576056957244873 32.1488151550293 5.007428646087646 C 38.43569946289062 2.348285675048828 45.11460113525391 1 52 1 C 58.88539886474609 1 65.56430053710938 2.348285675048828 71.8511962890625 5.007428646087646 C 77.92412567138672 7.576056957244873 83.37837219238281 11.25348567962646 88.06244659423828 15.93755722045898 C 92.74652862548828 20.62162780761719 96.42394256591797 26.07588577270508 98.99258422851562 32.1488151550293 C 101.6517105102539 38.43569946289062 103 45.11460113525391 103 52 C 103 58.88539886474609 101.6517105102539 65.56430053710938 98.99258422851562 71.8511962890625 C 96.42394256591797 77.92412567138672 92.74652862548828 83.37837219238281 88.06244659423828 88.06244659423828 C 83.37837219238281 92.74652862548828 77.92412567138672 96.42394256591797 71.8511962890625 98.99258422851562 C 65.56430053710938 101.6517105102539 58.88539886474609 103 52 103 Z" stroke="none"/>
      <path d="M 52 2 C 45.24916839599609 2 38.70132446289062 3.321708679199219 32.53835296630859 5.928428649902344 C 26.58463287353516 8.446647644042969 21.23721313476562 12.05210876464844 16.64466094970703 16.64466094970703 C 12.05210876464844 21.23721313476562 8.446647644042969 26.58463287353516 5.928428649902344 32.53835296630859 C 3.321708679199219 38.70132446289062 2 45.24916839599609 2 52 C 2 58.75084686279297 3.321708679199219 65.29867553710938 5.928428649902344 71.46164703369141 C 8.446647644042969 77.41536712646484 12.05210876464844 82.76278686523438 16.64466094970703 87.35533905029297 C 21.23721313476562 91.94789123535156 26.58463287353516 95.55335235595703 32.53835296630859 98.07157135009766 C 38.70132446289062 100.6782913208008 45.24916839599609 102 52 102 C 58.75084686279297 102 65.29867553710938 100.6782913208008 71.46164703369141 98.07157135009766 C 77.41536712646484 95.55335235595703 82.76278686523438 91.94789123535156 87.35533905029297 87.35533905029297 C 91.94789123535156 82.76278686523438 95.55335235595703 77.41536712646484 98.07157135009766 71.46164703369141 C 100.6782913208008 65.29867553710938 102 58.75084686279297 102 52 C 102 45.24916839599609 100.6782913208008 38.70132446289062 98.07157135009766 32.53835296630859 C 95.55335235595703 26.58463287353516 91.94789123535156 21.23721313476562 87.35533905029297 16.64466094970703 C 82.76278686523438 12.05210876464844 77.41536712646484 8.446647644042969 71.46164703369141 5.928428649902344 C 65.29867553710938 3.321708679199219 58.75084686279297 2 52 2 M 52 0 C 80.71881103515625 0 104 23.28119659423828 104 52 C 104 80.71881103515625 80.71881103515625 104 52 104 C 23.28119659423828 104 0 80.71881103515625 0 52 C 0 23.28119659423828 23.28119659423828 0 52 0 Z" stroke="none" fill="#fff"/>
    </g>
    <path id="Trazado_893381" data-name="Trazado 893381" d="M1167.347,162.4l-18.823,31.714H1186.3a43.86,43.86,0,0,0-6.994-20.567C1172.748,163.917,1167.347,162.4,1167.347,162.4Z" fill="#fff"/>
    <path id="Trazado_893382" data-name="Trazado 893382" d="M30.04,6.237,24.965,15.26A38.615,38.615,0,0,1,29.33,18.47,1.336,1.336,0,0,1,27.6,20.5a36.54,36.54,0,0,0-3.949-2.911L7.677,45.987h32.56c-.064-1.168-.162-2.333-.337-3.477a1.336,1.336,0,1,1,2.64-.4,38.786,38.786,0,0,1,.369,3.879h9.423a2,2,0,0,1,0,4.007H4.254a2,2,0,0,1-1.747-2.986L26.547,4.271A2,2,0,0,1,30.04,6.238Zm8.721,31.256a1.336,1.336,0,0,0,2.556-.777,38.686,38.686,0,0,0-1.984-5.159,1.336,1.336,0,1,0-2.418,1.132A36.04,36.04,0,0,1,38.761,37.493ZM33.274,22.338a1.336,1.336,0,0,0-2,1.768A36.411,36.411,0,0,1,34.4,28.2a1.336,1.336,0,0,0,2.233-1.466,38.9,38.9,0,0,0-3.36-4.393Z" transform="translate(1144.041 146.502)"/>
  </g>
</svg>
