<svg xmlns="http://www.w3.org/2000/svg" width="104" height="104" viewBox="0 0 104 104">
  <g id="Grupo_1101394" data-name="Grupo 1101394" transform="translate(-1120.333 -126.218)">
    <g id="Trazado_874818" data-name="Trazado 874818" transform="translate(1120.333 126.218)" fill="#c7b8b4">
      <path d="M 52 103 C 45.11460113525391 103 38.43569946289062 101.6517105102539 32.1488151550293 98.99258422851562 C 26.07588577270508 96.42394256591797 20.62162780761719 92.74652862548828 15.93755722045898 88.06244659423828 C 11.25348567962646 83.37837219238281 7.576056957244873 77.92412567138672 5.007428646087646 71.8511962890625 C 2.348285675048828 65.56430053710938 1 58.88539886474609 1 52 C 1 45.11460113525391 2.348285675048828 38.43569946289062 5.007428646087646 32.1488151550293 C 7.576056957244873 26.07588577270508 11.25348567962646 20.62162780761719 15.93755722045898 15.93755722045898 C 20.62162780761719 11.25348567962646 26.07588577270508 7.576056957244873 32.1488151550293 5.007428646087646 C 38.43569946289062 2.348285675048828 45.11460113525391 1 52 1 C 58.88539886474609 1 65.56430053710938 2.348285675048828 71.8511962890625 5.007428646087646 C 77.92412567138672 7.576056957244873 83.37837219238281 11.25348567962646 88.06244659423828 15.93755722045898 C 92.74652862548828 20.62162780761719 96.42394256591797 26.07588577270508 98.99258422851562 32.1488151550293 C 101.6517105102539 38.43569946289062 103 45.11460113525391 103 52 C 103 58.88539886474609 101.6517105102539 65.56430053710938 98.99258422851562 71.8511962890625 C 96.42394256591797 77.92412567138672 92.74652862548828 83.37837219238281 88.06244659423828 88.06244659423828 C 83.37837219238281 92.74652862548828 77.92412567138672 96.42394256591797 71.8511962890625 98.99258422851562 C 65.56430053710938 101.6517105102539 58.88539886474609 103 52 103 Z" stroke="none"/>
      <path d="M 52 2 C 45.24916839599609 2 38.70132446289062 3.321708679199219 32.53835296630859 5.928428649902344 C 26.58463287353516 8.446647644042969 21.23721313476562 12.05210876464844 16.64466094970703 16.64466094970703 C 12.05210876464844 21.23721313476562 8.446647644042969 26.58463287353516 5.928428649902344 32.53835296630859 C 3.321708679199219 38.70132446289062 2 45.24916839599609 2 52 C 2 58.75084686279297 3.321708679199219 65.29867553710938 5.928428649902344 71.46164703369141 C 8.446647644042969 77.41536712646484 12.05210876464844 82.76278686523438 16.64466094970703 87.35533905029297 C 21.23721313476562 91.94789123535156 26.58463287353516 95.55335235595703 32.53835296630859 98.07157135009766 C 38.70132446289062 100.6782913208008 45.24916839599609 102 52 102 C 58.75084686279297 102 65.29867553710938 100.6782913208008 71.46164703369141 98.07157135009766 C 77.41536712646484 95.55335235595703 82.76278686523438 91.94789123535156 87.35533905029297 87.35533905029297 C 91.94789123535156 82.76278686523438 95.55335235595703 77.41536712646484 98.07157135009766 71.46164703369141 C 100.6782913208008 65.29867553710938 102 58.75084686279297 102 52 C 102 45.24916839599609 100.6782913208008 38.70132446289062 98.07157135009766 32.53835296630859 C 95.55335235595703 26.58463287353516 91.94789123535156 21.23721313476562 87.35533905029297 16.64466094970703 C 82.76278686523438 12.05210876464844 77.41536712646484 8.446647644042969 71.46164703369141 5.928428649902344 C 65.29867553710938 3.321708679199219 58.75084686279297 2 52 2 M 52 0 C 80.71881103515625 0 104 23.28119659423828 104 52 C 104 80.71881103515625 80.71881103515625 104 52 104 C 23.28119659423828 104 0 80.71881103515625 0 52 C 0 23.28119659423828 23.28119659423828 0 52 0 Z" stroke="none" fill="#fff"/>
    </g>
    <rect id="Rectángulo_402703" data-name="Rectángulo 402703" width="32" height="32" transform="translate(1156.332 162.374)" fill="#fff"/>
    <g id="Grupo_1101962" data-name="Grupo 1101962" transform="translate(1148.189 154.073)">
      <path id="Trazado_893383" data-name="Trazado 893383" d="M43.1,0H5.187A5.193,5.193,0,0,0,0,5.187V43.1a5.193,5.193,0,0,0,5.187,5.187H43.1A5.193,5.193,0,0,0,48.287,43.1V5.187A5.193,5.193,0,0,0,43.1,0Zm2.358,43.1A2.36,2.36,0,0,1,43.1,45.458H5.187A2.36,2.36,0,0,1,2.829,43.1V5.187A2.36,2.36,0,0,1,5.187,2.829H43.1a2.36,2.36,0,0,1,2.358,2.358Z"/>
      <path id="Trazado_893384" data-name="Trazado 893384" d="M385.244,381a1.415,1.415,0,0,0-1.415,1.415v1.415h-1.415a1.415,1.415,0,0,0,0,2.829H384.3a2.36,2.36,0,0,0,2.358-2.358v-1.886A1.415,1.415,0,0,0,385.244,381Z" transform="translate(-345.067 -345.067)"/>
      <path id="Trazado_893385" data-name="Trazado 893385" d="M311.358,411h-1.415a1.415,1.415,0,0,0,0,2.829h1.415a1.415,1.415,0,1,0,0-2.829Z" transform="translate(-279.431 -372.238)"/>
      <path id="Trazado_893386" data-name="Trazado 893386" d="M234.587,411h-1.82a1.415,1.415,0,0,0,0,2.829h1.82a1.415,1.415,0,1,0,0-2.829Z" transform="translate(-209.534 -372.238)"/>
      <path id="Trazado_893387" data-name="Trazado 893387" d="M161.3,411h-1.415a1.415,1.415,0,0,0,0,2.829H161.3a1.415,1.415,0,0,0,0-2.829Z" transform="translate(-143.525 -372.238)"/>
      <path id="Trazado_893388" data-name="Trazado 893388" d="M75.244,383.829H73.829v-1.415a1.415,1.415,0,0,0-2.829,0V384.3a2.36,2.36,0,0,0,2.358,2.358h1.886a1.415,1.415,0,0,0,0-2.829Z" transform="translate(-64.304 -345.067)"/>
      <path id="Trazado_893389" data-name="Trazado 893389" d="M72.415,312.773a1.415,1.415,0,0,0,1.415-1.415v-1.415a1.415,1.415,0,0,0-2.829,0v1.415A1.415,1.415,0,0,0,72.415,312.773Z" transform="translate(-64.304 -279.431)"/>
      <path id="Trazado_893390" data-name="Trazado 893390" d="M72.415,236a1.415,1.415,0,0,0,1.415-1.415v-1.82a1.415,1.415,0,0,0-2.829,0v1.82A1.415,1.415,0,0,0,72.415,236Z" transform="translate(-64.304 -209.534)"/>
      <path id="Trazado_893391" data-name="Trazado 893391" d="M72.415,162.715a1.415,1.415,0,0,0,1.415-1.415v-1.415a1.415,1.415,0,0,0-2.829,0V161.3A1.415,1.415,0,0,0,72.415,162.715Z" transform="translate(-64.304 -143.525)"/>
      <path id="Trazado_893392" data-name="Trazado 893392" d="M75.244,71H73.358A2.36,2.36,0,0,0,71,73.358v1.886a1.415,1.415,0,0,0,2.829,0V73.829h1.415a1.415,1.415,0,0,0,0-2.829Z" transform="translate(-64.304 -64.304)"/>
      <path id="Trazado_893393" data-name="Trazado 893393" d="M161.3,71h-1.415a1.415,1.415,0,0,0,0,2.829H161.3a1.415,1.415,0,0,0,0-2.829Z" transform="translate(-143.525 -64.304)"/>
      <path id="Trazado_893394" data-name="Trazado 893394" d="M234.587,71h-1.82a1.415,1.415,0,0,0,0,2.829h1.82a1.415,1.415,0,1,0,0-2.829Z" transform="translate(-209.534 -64.304)"/>
      <path id="Trazado_893395" data-name="Trazado 893395" d="M311.358,71h-1.415a1.415,1.415,0,1,0,0,2.829h1.415a1.415,1.415,0,0,0,0-2.829Z" transform="translate(-279.431 -64.304)"/>
      <path id="Trazado_893396" data-name="Trazado 893396" d="M384.3,71h-1.886a1.415,1.415,0,0,0,0,2.829h1.415v1.415a1.415,1.415,0,0,0,2.829,0V73.358A2.36,2.36,0,0,0,384.3,71Z" transform="translate(-345.067 -64.304)"/>
      <path id="Trazado_893397" data-name="Trazado 893397" d="M412.415,158.471A1.415,1.415,0,0,0,411,159.886V161.3a1.415,1.415,0,0,0,2.829,0v-1.415A1.415,1.415,0,0,0,412.415,158.471Z" transform="translate(-372.238 -143.525)"/>
      <path id="Trazado_893398" data-name="Trazado 893398" d="M412.415,231.353A1.415,1.415,0,0,0,411,232.768v1.82a1.415,1.415,0,1,0,2.829,0v-1.82A1.415,1.415,0,0,0,412.415,231.353Z" transform="translate(-372.238 -209.534)"/>
      <path id="Trazado_893399" data-name="Trazado 893399" d="M412.415,308.529A1.415,1.415,0,0,0,411,309.944v1.415a1.415,1.415,0,0,0,2.829,0v-1.415A1.415,1.415,0,0,0,412.415,308.529Z" transform="translate(-372.238 -279.431)"/>
    </g>
  </g>
</svg>
