<svg xmlns="http://www.w3.org/2000/svg" width="70.685" height="71.526" viewBox="0 0 70.685 71.526">
  <g id="Grupo_1102432" data-name="Grupo 1102432" transform="translate(-1020.27 -408)">
    <g id="Grupo_1101397" data-name="Grupo 1101397" transform="translate(0.27 -2690)">
      <path id="Trazado_875099" data-name="Trazado 875099" d="M35.342,0A35.555,35.555,0,0,1,70.685,35.763,35.555,35.555,0,0,1,35.342,71.526,35.555,35.555,0,0,1,0,35.763,35.555,35.555,0,0,1,35.342,0Z" transform="translate(1020 3098)" fill="#c7b8b4"/>
      <g id="Grupo_1101396" data-name="Grupo 1101396" transform="translate(1015.613 3112.807)">
        <g id="Grupo_1101331" data-name="Grupo 1101331" transform="translate(21.063 0.616)">
          <path id="Trazado_874788" data-name="Trazado 874788" d="M135.359,13.357a1.317,1.317,0,0,1-1.317-1.317v-3.2a1.317,1.317,0,1,1,2.634,0v3.2A1.317,1.317,0,0,1,135.359,13.357Z" transform="translate(-125.359 -7.525)" fill="#fff"/>
          <path id="Trazado_874789" data-name="Trazado 874789" d="M211.616,13.357A1.317,1.317,0,0,1,210.3,12.04v-3.2a1.317,1.317,0,1,1,2.634,0v3.2A1.317,1.317,0,0,1,211.616,13.357Z" transform="translate(-195.373 -7.525)" fill="#fff"/>
          <path id="Trazado_874790" data-name="Trazado 874790" d="M287.872,13.357a1.317,1.317,0,0,1-1.317-1.317v-3.2a1.317,1.317,0,0,1,2.634,0v3.2A1.317,1.317,0,0,1,287.872,13.357Z" transform="translate(-265.386 -7.525)" fill="#fff"/>
          <path id="Trazado_874791" data-name="Trazado 874791" d="M353.563,108.891a1.317,1.317,0,0,1,1.317-1.317h3.2a1.317,1.317,0,0,1,0,2.634h-3.2A1.317,1.317,0,0,1,353.563,108.891Z" transform="translate(-326.909 -99.384)" fill="#fff"/>
          <path id="Trazado_874792" data-name="Trazado 874792" d="M27.973,108.891a1.317,1.317,0,0,1,1.317-1.317h3.2a1.317,1.317,0,1,1,0,2.634h-3.2A1.317,1.317,0,0,1,27.973,108.891Z" transform="translate(-27.973 -99.384)" fill="#fff"/>
          <path id="Trazado_874793" data-name="Trazado 874793" d="M27.973,185.147a1.317,1.317,0,0,1,1.317-1.317h3.2a1.317,1.317,0,0,1,0,2.634h-3.2A1.317,1.317,0,0,1,27.973,185.147Z" transform="translate(-27.973 -169.397)" fill="#fff"/>
          <path id="Trazado_874794" data-name="Trazado 874794" d="M27.973,261.4a1.317,1.317,0,0,1,1.317-1.317h3.2a1.317,1.317,0,1,1,0,2.634h-3.2A1.317,1.317,0,0,1,27.973,261.4Z" transform="translate(-27.973 -239.411)" fill="#fff"/>
        </g>
        <path id="Trazado_874795" data-name="Trazado 874795" d="M124.566,154.712l-19.757-6.722a2.355,2.355,0,0,1-1.466-2.979l6.722-19.757a2.355,2.355,0,0,1,2.979-1.466L132.8,130.51a2.355,2.355,0,0,1,1.466,2.979l-6.722,19.757A2.355,2.355,0,0,1,124.566,154.712Z" transform="translate(-75.995 -113.539)" fill="#fff"/>
        <path id="Trazado_874797" data-name="Trazado 874797" d="M97.2,132.2a.616.616,0,0,0-.782.385l-4.606,13.539a1.739,1.739,0,0,1-2.2,1.082l-19.757-6.722a1.739,1.739,0,0,1-1.082-2.2L75.5,118.532a1.739,1.739,0,0,1,2.2-1.082l1.057.36a.616.616,0,0,0,.4-1.166l-1.057-.36a2.971,2.971,0,0,0-3.761,1.851l-5.79,17.017h-.825a1.732,1.732,0,0,1-1.6-1.068.616.616,0,1,0-1.136.477,2.962,2.962,0,0,0,2.734,1.823h.406l-.513,1.508a2.971,2.971,0,0,0,1.851,3.761l19.757,6.722a2.971,2.971,0,0,0,3.761-1.851l4.606-13.539a.616.616,0,0,0-.385-.782Z" transform="translate(-40.847 -106.619)"/>
        <path id="Trazado_874798" data-name="Trazado 874798" d="M57,16.387l-6.3-2.143V12.057h1.527a1.933,1.933,0,0,0,0-3.866H50.7V5.932a2.967,2.967,0,0,0-2.964-2.964H45.482V1.933a1.933,1.933,0,1,0-3.866,0V2.968H39.239V1.933a1.933,1.933,0,0,0-3.866,0V2.968H33V1.933a1.933,1.933,0,0,0-3.866,0V2.968H26.872a2.967,2.967,0,0,0-2.964,2.964V8.19H22.38a1.933,1.933,0,1,0,0,3.866h1.527v2.376H22.38a1.933,1.933,0,1,0,0,3.866h1.527v2.376H22.38a1.933,1.933,0,1,0,0,3.866h1.527v.323a.616.616,0,0,0,1.232,0v-.323h.438a1.933,1.933,0,1,0,0-3.866H25.14V18.3h.438a1.933,1.933,0,1,0,0-3.866H25.14V12.057h.438a1.933,1.933,0,1,0,0-3.866H25.14V5.932A1.734,1.734,0,0,1,26.872,4.2H29.13v.931a1.933,1.933,0,0,0,3.866,0V4.2h2.376v.931a1.933,1.933,0,0,0,3.866,0V4.2h2.376v.931a1.933,1.933,0,1,0,3.866,0V4.2h2.259a1.734,1.734,0,0,1,1.732,1.732V8.19h-.438a1.933,1.933,0,0,0,0,3.866h.438v1.768l-8.435-2.87a.616.616,0,0,0-.4,1.166l15.967,5.433a1.734,1.734,0,0,1,1.082,2.2l-1.181,3.47a.616.616,0,1,0,1.166.4l1.181-3.47A2.968,2.968,0,0,0,57,16.387ZM25.578,21.908a.7.7,0,0,1,0,1.4h-3.2a.7.7,0,0,1,0-1.4Zm0-6.243a.7.7,0,1,1,0,1.4h-3.2a.7.7,0,1,1,0-1.4Zm0-6.243a.7.7,0,1,1,0,1.4h-3.2a.7.7,0,1,1,0-1.4Zm6.187-4.292a.7.7,0,1,1-1.4,0v-3.2a.7.7,0,1,1,1.4,0Zm6.243,0a.7.7,0,0,1-1.4,0v-3.2a.7.7,0,1,1,1.4,0Zm6.243,0a.7.7,0,0,1-1.4,0v-3.2a.7.7,0,1,1,1.4,0Zm4.784,5.694a.7.7,0,0,1,0-1.4h3.2a.7.7,0,1,1,0,1.4Z"/>
        <path id="Trazado_874799" data-name="Trazado 874799" d="M172.646,248.028a.616.616,0,0,0,.583-.418l.4-1.166a.616.616,0,1,0-1.166-.4l-.4,1.166a.616.616,0,0,0,.583.815Z" transform="translate(-139.174 -225.521)"/>
        <path id="Trazado_874800" data-name="Trazado 874800" d="M157.788,292.988a.616.616,0,1,0-1.166-.4l-.4,1.166a.616.616,0,1,0,1.166.4Z" transform="translate(-124.632 -268.255)"/>
        <path id="Trazado_874801" data-name="Trazado 874801" d="M206.054,159.042a.616.616,0,1,0-.413-1.161,2.484,2.484,0,0,0-1.261,1,.616.616,0,1,0,1.04.66A1.246,1.246,0,0,1,206.054,159.042Z" transform="translate(-168.788 -144.923)"/>
        <path id="Trazado_874802" data-name="Trazado 874802" d="M188.483,201.483a.617.617,0,0,0,.583-.418l.4-1.166a.616.616,0,1,0-1.166-.4l-.4,1.166a.616.616,0,0,0,.583.815Z" transform="translate(-153.714 -182.787)"/>
        <path id="Trazado_874803" data-name="Trazado 874803" d="M188.066,404.177l1.166.4a.616.616,0,0,0,.4-1.166l-1.166-.4a.616.616,0,0,0-.4,1.167Z" transform="translate(-153.513 -369.988)"/>
        <path id="Trazado_874804" data-name="Trazado 874804" d="M234.226,419.231a.616.616,0,0,0,.385.782l1.166.4a.616.616,0,1,0,.4-1.166l-1.166-.4A.616.616,0,0,0,234.226,419.231Z" transform="translate(-196.248 -384.527)"/>
        <path id="Trazado_874805" data-name="Trazado 874805" d="M250.251,165.461a.616.616,0,1,0,.4-1.166l-1.166-.4a.616.616,0,1,0-.4,1.166Z" transform="translate(-209.537 -150.45)"/>
        <path id="Trazado_874806" data-name="Trazado 874806" d="M143.5,386.507l.323.11a.616.616,0,1,0,.4-1.166l-.323-.11a1.209,1.209,0,0,1-.493-.316.616.616,0,0,0-.895.847A2.462,2.462,0,0,0,143.5,386.507Z" transform="translate(-111.911 -353.328)"/>
        <path id="Trazado_874807" data-name="Trazado 874807" d="M140.972,341.116a.617.617,0,0,0,.583-.418l.4-1.166a.616.616,0,1,0-1.166-.4l-.4,1.166a.616.616,0,0,0,.583.815Z" transform="translate(-110.092 -310.989)"/>
        <path id="Trazado_874808" data-name="Trazado 874808" d="M327.316,450.9a.616.616,0,0,0,.385.782l1.167.4a2.448,2.448,0,0,0,.789.131h0a2.45,2.45,0,0,0,.406-.034.616.616,0,0,0-.2-1.215,1.217,1.217,0,0,1-.2.017h0a1.219,1.219,0,0,1-.393-.065l-1.166-.4A.616.616,0,0,0,327.316,450.9Z" transform="translate(-281.717 -413.608)"/>
        <path id="Trazado_874809" data-name="Trazado 874809" d="M390.284,211.8l-1.166-.4a.616.616,0,0,0-.4,1.166l1.166.4a.616.616,0,1,0,.4-1.166Z" transform="translate(-337.742 -194.071)"/>
        <path id="Trazado_874810" data-name="Trazado 874810" d="M389.6,371.63l-.4,1.166a.616.616,0,1,0,1.167.4l.4-1.166a.616.616,0,1,0-1.166-.4Z" transform="translate(-338.541 -340.823)"/>
        <path id="Trazado_874811" data-name="Trazado 874811" d="M373.767,418.174l-.4,1.166a.616.616,0,1,0,1.166.4l.4-1.166a.616.616,0,1,0-1.166-.4Z" transform="translate(-324.001 -383.557)"/>
        <path id="Trazado_874812" data-name="Trazado 874812" d="M405.44,325.083l-.4,1.166a.616.616,0,1,0,1.166.4l.4-1.166a.616.616,0,0,0-1.167-.4Z" transform="translate(-353.081 -298.087)"/>
        <path id="Trazado_874813" data-name="Trazado 874813" d="M433.189,233.757l.05,0a.616.616,0,0,0,.613-.567c.005-.065.008-.131.008-.2a2.47,2.47,0,0,0-.411-1.364.616.616,0,0,0-1.028.679,1.242,1.242,0,0,1,.207.685c0,.032,0,.065,0,.1A.616.616,0,0,0,433.189,233.757Z" transform="translate(-378.155 -212.416)"/>
        <path id="Trazado_874814" data-name="Trazado 874814" d="M296.8,181.3a.616.616,0,0,0,.4-1.166l-1.167-.4a.616.616,0,0,0-.4,1.166Z" transform="translate(-252.272 -164.99)"/>
        <path id="Trazado_874815" data-name="Trazado 874815" d="M343.342,197.136a.616.616,0,1,0,.4-1.166l-1.167-.4a.616.616,0,0,0-.4,1.166Z" transform="translate(-295.007 -179.532)"/>
        <path id="Trazado_874816" data-name="Trazado 874816" d="M421.277,278.539l-.4,1.167a.616.616,0,1,0,1.166.4l.4-1.166a.616.616,0,1,0-1.166-.4Z" transform="translate(-367.621 -255.353)"/>
        <path id="Trazado_874817" data-name="Trazado 874817" d="M280.771,435.067a.616.616,0,0,0,.385.782l1.166.4a.616.616,0,1,0,.4-1.166l-1.167-.4A.616.616,0,0,0,280.771,435.067Z" transform="translate(-238.982 -399.067)"/>
      </g>
    </g>
  </g>
</svg>
