<svg xmlns="http://www.w3.org/2000/svg" xmlns:xlink="http://www.w3.org/1999/xlink" width="400" height="313" viewBox="0 0 400 313">
  <defs>
    <clipPath id="clip-path">
      <rect id="Rectángulo_402176" data-name="Rectángulo 402176" width="263.93" height="262.631" fill="#7eadbf"/>
    </clipPath>
    <clipPath id="clip-path-2">
      <rect id="Rectángulo_402450" data-name="Rectángulo 402450" width="400" height="313" transform="translate(179.73 2356)" fill="#e5eef2"/>
    </clipPath>
    <clipPath id="clip-path-3">
      <rect id="Rectángulo_402702" data-name="Rectángulo 402702" width="290.072" height="455.959" fill="none"/>
    </clipPath>
  </defs>
  <g id="Grupo_1102433" data-name="Grupo 1102433" transform="translate(-180.051 -3350)">
    <g id="Grupo_1101613" data-name="Grupo 1101613" transform="translate(14615.051 7903)">
      <rect id="Rectángulo_402102" data-name="Rectángulo 402102" width="400" height="313" transform="translate(-14435 -4553)" fill="#e5eef2"/>
      <g id="Grupo_1101288" data-name="Grupo 1101288" transform="translate(-14359.526 -4527.916)">
        <g id="Grupo_1101287" data-name="Grupo 1101287" clip-path="url(#clip-path)">
          <path id="Trazado_874703" data-name="Trazado 874703" d="M78.441,10.9C12.6,41.171-16.86,97.579,9.757,184.877s108.893,89.155,188.211,63.152S275.914,92.006,241.693,54.858,143.08-18.819,78.441,10.9" transform="translate(0 0)" fill="#c6e6f2"/>
          <path id="Trazado_874704" data-name="Trazado 874704" d="M81.19,28.44a4.4,4.4,0,1,1-4.4-4.3,4.352,4.352,0,0,1,4.4,4.3" transform="translate(5.095 1.105)" fill="#7eadbf"/>
          <path id="Trazado_874705" data-name="Trazado 874705" d="M65.233,36.664a4.4,4.4,0,1,1-4.4-4.3,4.352,4.352,0,0,1,4.4,4.3" transform="translate(3.972 1.481)" fill="#7eadbf"/>
          <path id="Trazado_874706" data-name="Trazado 874706" d="M52.4,47.071a4.4,4.4,0,1,1-4.4-4.3,4.352,4.352,0,0,1,4.4,4.3" transform="translate(3.068 1.958)" fill="#7eadbf"/>
          <path id="Trazado_874707" data-name="Trazado 874707" d="M40.841,58.656a4.4,4.4,0,1,1-4.4-4.3,4.352,4.352,0,0,1,4.4,4.3" transform="translate(2.255 2.488)" fill="#7eadbf"/>
          <path id="Trazado_874708" data-name="Trazado 874708" d="M32.115,72.7a4.4,4.4,0,1,1-4.4-4.3,4.352,4.352,0,0,1,4.4,4.3" transform="translate(1.641 3.131)" fill="#7eadbf"/>
          <path id="Trazado_874709" data-name="Trazado 874709" d="M25.355,88.121a4.4,4.4,0,1,1-4.4-4.3,4.352,4.352,0,0,1,4.4,4.3" transform="translate(1.165 3.837)" fill="#7eadbf"/>
          <path id="Trazado_874710" data-name="Trazado 874710" d="M21.655,103.547a4.4,4.4,0,1,1-4.4-4.3,4.352,4.352,0,0,1,4.4,4.3" transform="translate(0.905 4.543)" fill="#7eadbf"/>
          <path id="Trazado_874711" data-name="Trazado 874711" d="M19.6,120.4a4.4,4.4,0,1,1-4.4-4.3,4.352,4.352,0,0,1,4.4,4.3" transform="translate(0.76 5.315)" fill="#7eadbf"/>
          <path id="Trazado_874712" data-name="Trazado 874712" d="M20.961,136.365a4.4,4.4,0,1,1-4.4-4.3,4.352,4.352,0,0,1,4.4,4.3" transform="translate(0.856 6.045)" fill="#7eadbf"/>
          <path id="Trazado_874713" data-name="Trazado 874713" d="M23.715,152.327a4.4,4.4,0,1,1-4.4-4.3,4.352,4.352,0,0,1,4.4,4.3" transform="translate(1.05 6.776)" fill="#7eadbf"/>
          <path id="Trazado_874714" data-name="Trazado 874714" d="M26.469,168.289a4.4,4.4,0,1,1-4.4-4.3,4.352,4.352,0,0,1,4.4,4.3" transform="translate(1.244 7.507)" fill="#7eadbf"/>
          <path id="Trazado_874715" data-name="Trazado 874715" d="M32.982,184.6a4.4,4.4,0,1,1-4.4-4.3,4.352,4.352,0,0,1,4.4,4.3" transform="translate(1.702 8.253)" fill="#7eadbf"/>
          <path id="Trazado_874716" data-name="Trazado 874716" d="M32.982,184.6a4.4,4.4,0,1,1-4.4-4.3,4.352,4.352,0,0,1,4.4,4.3" transform="translate(1.702 8.253)" fill="#7eadbf"/>
          <path id="Trazado_874717" data-name="Trazado 874717" d="M41.206,198.764a4.4,4.4,0,1,1-4.4-4.3,4.352,4.352,0,0,1,4.4,4.3" transform="translate(2.281 8.902)" fill="#7eadbf"/>
          <path id="Trazado_874718" data-name="Trazado 874718" d="M51.613,211.252a4.4,4.4,0,1,1-4.4-4.3,4.352,4.352,0,0,1,4.4,4.3" transform="translate(3.013 9.473)" fill="#7eadbf"/>
          <path id="Trazado_874719" data-name="Trazado 874719" d="M63.581,222.873a4.4,4.4,0,1,1-4.4-4.3,4.352,4.352,0,0,1,4.4,4.3" transform="translate(3.856 10.005)" fill="#7eadbf"/>
          <path id="Trazado_874720" data-name="Trazado 874720" d="M78.961,229.349a4.4,4.4,0,1,1-4.4-4.3,4.352,4.352,0,0,1,4.4,4.3" transform="translate(4.938 10.302)" fill="#7eadbf"/>
          <path id="Trazado_874721" data-name="Trazado 874721" d="M94.762,233.461a4.4,4.4,0,1,1-4.4-4.3,4.352,4.352,0,0,1,4.4,4.3" transform="translate(6.05 10.49)" fill="#7eadbf"/>
          <path id="Trazado_874722" data-name="Trazado 874722" d="M110.563,235.823a4.4,4.4,0,1,1-4.4-4.3,4.352,4.352,0,0,1,4.4,4.3" transform="translate(7.163 10.598)" fill="#7eadbf"/>
          <path id="Trazado_874723" data-name="Trazado 874723" d="M127.978,235.823a4.4,4.4,0,1,1-4.4-4.3,4.352,4.352,0,0,1,4.4,4.3" transform="translate(8.388 10.598)" fill="#7eadbf"/>
          <path id="Trazado_874724" data-name="Trazado 874724" d="M143.464,233.461a4.4,4.4,0,1,1-4.4-4.3,4.352,4.352,0,0,1,4.4,4.3" transform="translate(9.478 10.49)" fill="#7eadbf"/>
          <path id="Trazado_874725" data-name="Trazado 874725" d="M159.872,229.349a4.4,4.4,0,1,1-4.4-4.3,4.352,4.352,0,0,1,4.4,4.3" transform="translate(10.633 10.302)" fill="#7eadbf"/>
          <path id="Trazado_874726" data-name="Trazado 874726" d="M176.056,224.626a4.4,4.4,0,1,1-4.4-4.3,4.352,4.352,0,0,1,4.4,4.3" transform="translate(11.773 10.086)" fill="#7eadbf"/>
          <path id="Trazado_874727" data-name="Trazado 874727" d="M190.733,218.762a4.4,4.4,0,1,1-4.4-4.3,4.352,4.352,0,0,1,4.4,4.3" transform="translate(12.806 9.817)" fill="#7eadbf"/>
          <path id="Trazado_874728" data-name="Trazado 874728" d="M205.41,209.444a4.4,4.4,0,1,1-4.4-4.3,4.352,4.352,0,0,1,4.4,4.3" transform="translate(13.839 9.391)" fill="#7eadbf"/>
          <path id="Trazado_874729" data-name="Trazado 874729" d="M216.785,195.982a4.4,4.4,0,1,1-4.4-4.3,4.352,4.352,0,0,1,4.4,4.3" transform="translate(14.639 8.774)" fill="#7eadbf"/>
          <path id="Trazado_874730" data-name="Trazado 874730" d="M222.721,180.781a4.4,4.4,0,1,1-4.4-4.3,4.352,4.352,0,0,1,4.4,4.3" transform="translate(15.057 8.079)" fill="#7eadbf"/>
          <path id="Trazado_874731" data-name="Trazado 874731" d="M228.656,165.58a4.4,4.4,0,1,1-4.4-4.3,4.352,4.352,0,0,1,4.4,4.3" transform="translate(15.475 7.383)" fill="#7eadbf"/>
          <path id="Trazado_874732" data-name="Trazado 874732" d="M232.768,150.379a4.4,4.4,0,1,1-4.4-4.3,4.352,4.352,0,0,1,4.4,4.3" transform="translate(15.764 6.687)" fill="#7eadbf"/>
          <path id="Trazado_874733" data-name="Trazado 874733" d="M233.209,133.963a4.4,4.4,0,1,1-4.4-4.3,4.352,4.352,0,0,1,4.4,4.3" transform="translate(15.795 5.935)" fill="#7eadbf"/>
          <path id="Trazado_874734" data-name="Trazado 874734" d="M233.209,115.866a4.4,4.4,0,1,1-4.4-4.3,4.352,4.352,0,0,1,4.4,4.3" transform="translate(15.795 5.107)" fill="#7eadbf"/>
          <path id="Trazado_874735" data-name="Trazado 874735" d="M230.944,100.665a4.4,4.4,0,1,1-4.4-4.3,4.352,4.352,0,0,1,4.4,4.3" transform="translate(15.636 4.411)" fill="#7eadbf"/>
          <path id="Trazado_874736" data-name="Trazado 874736" d="M226.832,85.464a4.4,4.4,0,1,1-4.4-4.3,4.352,4.352,0,0,1,4.4,4.3" transform="translate(15.346 3.715)" fill="#7eadbf"/>
          <path id="Trazado_874737" data-name="Trazado 874737" d="M222.721,70.264a4.4,4.4,0,1,1-4.4-4.3,4.352,4.352,0,0,1,4.4,4.3" transform="translate(15.057 3.02)" fill="#7eadbf"/>
          <path id="Trazado_874738" data-name="Trazado 874738" d="M210.385,56.951a4.4,4.4,0,1,1-4.4-4.3,4.352,4.352,0,0,1,4.4,4.3" transform="translate(14.189 2.41)" fill="#7eadbf"/>
          <path id="Trazado_874739" data-name="Trazado 874739" d="M198.049,45.875a4.4,4.4,0,1,1-4.4-4.3,4.352,4.352,0,0,1,4.4,4.3" transform="translate(13.321 1.903)" fill="#7eadbf"/>
          <path id="Trazado_874740" data-name="Trazado 874740" d="M184.387,36.664a4.4,4.4,0,1,1-4.4-4.3,4.352,4.352,0,0,1,4.4,4.3" transform="translate(12.359 1.481)" fill="#7eadbf"/>
          <path id="Trazado_874741" data-name="Trazado 874741" d="M169.4,29.032a4.4,4.4,0,1,1-4.4-4.3,4.352,4.352,0,0,1,4.4,4.3" transform="translate(11.304 1.132)" fill="#7eadbf"/>
          <path id="Trazado_874742" data-name="Trazado 874742" d="M154.057,22.69a4.4,4.4,0,1,1-4.4-4.3,4.352,4.352,0,0,1,4.4,4.3" transform="translate(10.224 0.842)" fill="#7eadbf"/>
          <path id="Trazado_874743" data-name="Trazado 874743" d="M137.439,18.578a4.4,4.4,0,1,1-4.4-4.3,4.352,4.352,0,0,1,4.4,4.3" transform="translate(9.054 0.654)" fill="#7eadbf"/>
          <path id="Trazado_874744" data-name="Trazado 874744" d="M120.01,18.578a4.4,4.4,0,1,1-4.4-4.3,4.352,4.352,0,0,1,4.4,4.3" transform="translate(7.828 0.654)" fill="#7eadbf"/>
          <path id="Trazado_874745" data-name="Trazado 874745" d="M102.581,20.808a4.4,4.4,0,1,1-4.4-4.3,4.352,4.352,0,0,1,4.4,4.3" transform="translate(6.601 0.756)" fill="#7eadbf"/>
        </g>
      </g>
    </g>
    <g id="Enmascarar_grupo_1098719" data-name="Enmascarar grupo 1098719" transform="translate(0.32 994)" clip-path="url(#clip-path-2)">
      <g id="Grupo_1101961" data-name="Grupo 1101961" transform="translate(244.822 2381.889)">
        <g id="Grupo_1101960" data-name="Grupo 1101960" clip-path="url(#clip-path-3)">
          <path id="Trazado_893274" data-name="Trazado 893274" d="M297.279,220.029s2.821,27.527-10.048,39.481,13.609,9.519,17.87-.676,4.731.044,4.731.044-17.321,22.084-28.982,14.52,12.077-20.3,12.077-38.354a49.886,49.886,0,0,1,4.352-15.014" transform="translate(-151.758 -120.273)" fill="#5c3f36"/>
          <path id="Trazado_893275" data-name="Trazado 893275" d="M619.9,569.526s.3.608.913-11.794-2.587-19.859-3.12-20.62-12.542,3.87-12.5,3.855,5.174,24.982,7.846,23.841a9.968,9.968,0,0,0,4.117-3.424Z" transform="translate(-330.814 -293.553)" fill="#ffbd99"/>
          <path id="Trazado_893276" data-name="Trazado 893276" d="M607.618,545.718s.85,6.29,3.367,6.848c-1.084,5.783-.171,14.913.285,14.863s5.07-8.826,4.893-8.674,2.259,15.674,1.346,15.522-2.79-5.834-2.79-5.834-.2,9.334-1.116,9.131-2.029-6.34-2.029-6.34-.812,5.174-1.319,4.717S608.226,569,608.226,569s-1.37,3.4-2.13,2.435-3.248-13.239-2.943-14.1-2.731-7.436-2.282-9.232,6.746-2.384,6.746-2.384" transform="translate(-328.426 -298.303)" fill="#de9985"/>
          <path id="Trazado_893277" data-name="Trazado 893277" d="M274.853,556.421c0,.2,1.471,20.087.355,22.674-1.521,1.015-4.312-9.08-4.312-9.282s-8.42,16.486-9.688,16.232c-1.268-.3,1.116-10.449,1.116-10.449s-7.406,10.043-7.862,8.877,2.612-11.007,2.612-11.007-3.677,8.674-4.185,7.254,1.167-11.971,1.167-11.971-2.79,4.261-2.993,3.247,5.229-21.057,7.408-22.88,16.382,7.307,16.382,7.307" transform="translate(-137.234 -300.028)" fill="#ffbd99"/>
          <path id="Trazado_893278" data-name="Trazado 893278" d="M327.8,959.571c-.152.152-9.536,17.956-8.471,19.58s30.181,1.927,30.435,0-6.29-19.022-6.29-19.022Z" transform="translate(-174.507 -524.525)" fill="#2e2e2e"/>
          <path id="Trazado_893279" data-name="Trazado 893279" d="M470.138,954.917c-.076.228-1.522,15.75,0,17.119.228.3,15.369,0,15.369,0s-.608-2.663,0-2.739,2.663,2.511,2.663,2.511,33.935,1.031,33.935.364-19.934-17.559-27.7-19.309-24.272,2.054-24.272,2.054" transform="translate(-256.61 -520.607)" fill="#2e2e2e"/>
          <path id="Trazado_893280" data-name="Trazado 893280" d="M351.321,490.129S339.161,592.847,338.1,596.651s3.2,4.565,1.218,7.913-3.8,4.261-2.13,7.456-8.522,70.609-8.066,72.435-1.826,8.088-1.37,9.294,28,1.989,28.3,0,0-8.128.761-10.841,14-69.822,15.065-72.866,4.717-12.935,3.652-21c1.978-17.2,18.717-77.3,18.717-77.3s.609,83.848,0,85.37-1.826,3.044-.608,5.022-.913,85.674-1.674,87.5-1.217,4.737,0,5.336,30.13-3.206,30.892-5.031-1.37-4.718-1.37-4.718a6.244,6.244,0,0,0,1.37-3.2c0-1.522-1.826-4.109-1.826-4.109s4.87-78.674,4.108-83.391,1.979-6.848,1.522-11.565a97.457,97.457,0,0,0-2.283-11.717c-.152-.761,5.022-85.522,1.674-94.2s-72.04-9.494-74.731,13.087" transform="translate(-179.122 -257.678)" fill="#4c6873"/>
          <path id="Trazado_893281" data-name="Trazado 893281" d="M452.723,478.845a3.673,3.673,0,0,0-1.481-1.606L406.688,474.7c-14.73,2.371-27.563,7.73-28.7,17.237,0,0-.587,4.957-1.514,12.732,9.574,1.3,27.365,3.727,35.23,4.92,11.036,1.674,15.048-20.239,16.77-22.065s4.855,26.478,9.832,26.935c3.1.284,10.279-3.35,15.408-6.293.3-14.416.152-26.341-1-29.316" transform="translate(-205.792 -259.48)" fill="#345a6e"/>
          <path id="Trazado_893282" data-name="Trazado 893282" d="M393.608,181.309s4.413-6.924,4.794-7.533,30.207-.989,32.147-.456,7.571,6.429,7.571,6.429,20.163,132.239,17.272,136.043-51.283-1.217-51.283-1.217Z" transform="translate(-215.156 -94.602)" fill="#f2f6ff"/>
          <path id="Trazado_893283" data-name="Trazado 893283" d="M393.608,193.681c.152,0,20.62,5.859,21.609,8.978s-12.859-1.141-14.457.989,5.783,6.163,5.783,6.163,10.522,6.392,10.642,5.7,4.1-11.936,4.466-12.735,5.691,12.691,6.169,11.741,6.723-7.9,7.484-9.2,6.239-7.381,6.239-7.381-2.739,14.229-2.511,16.892-18.413,14.609-17.424,17.043,14.3-3.044,13.239-.685-14,13.087-9.282,16.739,15.293-2.815,15.293-2.815,7.457,82.326,6.772,83.315-18.794-.608-19.022-.457-35-134.293-35-134.293" transform="translate(-215.156 -105.871)" fill="#d5dae6"/>
          <path id="Trazado_893284" data-name="Trazado 893284" d="M442.785,186.176c-1.14,4.293-2.513,7.609-5.843,10.71a24.8,24.8,0,0,0-5.126,7.36,66.706,66.706,0,0,1-4.093-8.586c-.992-2.887-1.334-5.91-2.166-8.824v-.007c2.189-1.269,9.691-9.328,9.52-10.422-.19-1.217-3.614-1.255-3.614-1.255l-26.517-.266s-2.587.608-2.511,1.407c.073.763,19.786,9.369,22.342,10.567q.08.377.138.744.056.807.155,1.611c.107,2.941-.807,5.448-1.946,8.369a38.571,38.571,0,0,0-1.944,7.658c-2.92-1.915-5.877-3.725-8.942-5.415-1.684-.929-3.387-1.827-5.114-2.675-1.823-.895-4.245-1.568-5.674-3.019-.276-.28-.694.294-.466.561,2.007,2.354,5.629,3.453,8.308,4.875,4.036,2.141,8.018,4.427,11.917,6.809.309.189.608-.057.664-.378a55.1,55.1,0,0,1,3.165-11.083,9.994,9.994,0,0,0,.608-2.411,33.867,33.867,0,0,0,5.815,12.646.317.317,0,0,0,.574.082c1.293-1.72,2.194-3.686,3.421-5.449,1.262-1.813,3.121-3.04,4.5-4.765a15.09,15.09,0,0,0,3.527-8.709c.009-.436-.57-.6-.695-.134" transform="translate(-219.152 -95.596)" fill="#8a91a1"/>
          <path id="Trazado_893285" data-name="Trazado 893285" d="M467.419,273.723c-1.572-10.2-4.754-20.085-6.918-30.16-1.084-5.046-2.1-10.107-3.081-15.172-1.063-5.468-2.821-11.328-2.3-16.929.055-.585-.708-.567-.778-.027-.644,4.974.787,9.992,1.713,14.853.966,5.07,1.942,10.138,3.026,15.184,2.2,10.255,5.417,20.382,7.057,30.739,1.658,10.477,2.46,21.139,3.094,31.721a333.342,333.342,0,0,1,.678,33.658c-.036.871,1.054.692,1.041-.117-.345-21.252-.286-42.677-3.536-63.749" transform="translate(-248.269 -115.352)" fill="#8a91a1"/>
          <path id="Trazado_893286" data-name="Trazado 893286" d="M388.237,109.5s5.8,18.36,8.946,17.878,4.825-16.328,4.369-17.878-13.315,0-13.315,0" transform="translate(-212.22 -59.481)" fill="#664a44"/>
          <path id="Trazado_893287" data-name="Trazado 893287" d="M405.424,143.827s1.263,14.994,1.186,15.754,19.554,9.435,21.152,9.131,7.913-7.33,7.913-7.888-1.065-6.15-1.065-6.15Z" transform="translate(-221.615 -78.619)" fill="#ffbd99"/>
          <path id="Trazado_893288" data-name="Trazado 893288" d="M401.412,112.931l1.9,13.163s1.864,6.011,10.956,10.044,18.147.228,18.147.228-.875-11.147-.723-12.022-23.4-21.038-30.283-11.413" transform="translate(-219.422 -60.311)" fill="#de9985"/>
          <path id="Trazado_893289" data-name="Trazado 893289" d="M380.072,50.924s-1.826,3.005,1.446,9.473,6.353,11.3,9.549,4.87c2.055,10.081,5.748,14.647,9.741,16.549s22.253,3.88,26.819-2.435,3.855-21.533,2.84-33.25S427.6,28.4,426.4,26.652s-34-5.706-38.717-1.522-7.609,25.793-7.609,25.793" transform="translate(-207.479 -12.723)" fill="#ffbd99"/>
          <path id="Trazado_893290" data-name="Trazado 893290" d="M383.52,39.875c0,.355,1.75,4.439,3.424,5,1.116-1.217-1.015-16.283-1.015-16.283s2.13,3.247,2.689,2.384-.862-10.8-.862-10.8,1.623,1.268,2.08.558a4.855,4.855,0,0,0,.254-2.384s10.5,6.087,21.964,3.3c1.065-.253,0-1.319,0-1.319s10.7-.608,11.514-3.2c0-.254-.659-1.065-.659-1.065s3.246-.1,3.348.558,3.4,16.841,3.551,16.79.913-12.478.253-15.826a5.013,5.013,0,0,0-3.094-4.058s1.065-6.746-8.141-9.105c-7.989-7.685-32.717-5.326-34.467,6.924-4.108.609-7.913,18.565-4.946,26.859,1.9-2.587,4.109,1.674,4.109,1.674" transform="translate(-206.818 0)" fill="#664a44"/>
          <path id="Trazado_893291" data-name="Trazado 893291" d="M416.879,65.783s-.418,1.94,0,2.549,11.3-1.065,11.565-2.13-.152-3.082-1.1-3.614-9.891,1.446-10.462,3.2" transform="translate(-227.775 -34.164)" fill="#664a44"/>
          <path id="Trazado_893292" data-name="Trazado 893292" d="M466.679,56.711s-.609,2.815.19,3.424,9.4-1.483,9.473-1.921a3.728,3.728,0,0,0-.989-2.606c-.685-.418-7.837-.076-8.674,1.1" transform="translate(-254.977 -30.303)" fill="#664a44"/>
          <path id="Trazado_893293" data-name="Trazado 893293" d="M456.406,58.754c-.271-.553-.975-.054-.783.445a60.425,60.425,0,0,1,3.555,12.055c.3,1.866.748,4.281.036,6.089-1.178,2.993-3.287,1.321-5.424,1.533-.223.022-.386.4-.118.494,1.493.507,3.615,1.675,5.135.588,1.225-.876,1.5-3.078,1.623-4.424.511-5.5-1.645-11.928-4.025-16.781" transform="translate(-247.913 -31.984)" fill="#b8675e"/>
          <path id="Trazado_893294" data-name="Trazado 893294" d="M449.064,122.129c-4.26,3.847-8.411,4.932-13.673,2.123-.273-.146-.46.35-.261.522,4.178,3.605,11.625,2.942,14.537-2.012.25-.425-.151-1.041-.6-.633" transform="translate(-237.808 -66.686)" fill="#b8675e"/>
          <path id="Trazado_893295" data-name="Trazado 893295" d="M428.47,93.25a17.135,17.135,0,0,0-.47-2.261c-.133-.529-.54-1.186-1.14-.716-.5.4-.446,1.137-.426,1.715a7.685,7.685,0,0,0,.279,1.981c.366,1.192,1.861.248,1.757-.718" transform="translate(-233.093 -49.257)"/>
          <path id="Trazado_893296" data-name="Trazado 893296" d="M480.383,83.511a17.13,17.13,0,0,0-.47-2.261c-.133-.529-.54-1.186-1.14-.716-.5.4-.446,1.137-.426,1.714a7.684,7.684,0,0,0,.279,1.982c.366,1.192,1.861.248,1.757-.718" transform="translate(-261.469 -43.933)"/>
          <path id="Trazado_893297" data-name="Trazado 893297" d="M395.852,31.487a7.3,7.3,0,0,0-1.033-1.654,9.731,9.731,0,0,1-.883-1.863.583.583,0,0,0-.522-.4.541.541,0,0,0-.421.135c-.671.684-.064,1.811.3,2.525.384.748.992,1.864,1.869,2.092.491.127.819-.4.688-.838" transform="translate(-214.655 -15.072)" fill="#523b36"/>
          <path id="Trazado_893298" data-name="Trazado 893298" d="M432.373,24.031c-2.7-2.849-7.356-3.956-11.175-4.082-5.248-.174-11.151,3.129-15.894-.212-.365-.257-.728.368-.413.631,3.335,2.777,7.206,1.9,11.136,1.266a21.344,21.344,0,0,1,8.727.115c2.593.637,4.686,2.064,7.115,3.06.393.161.784-.482.5-.778" transform="translate(-221.258 -10.756)" fill="#523b36"/>
          <path id="Trazado_893299" data-name="Trazado 893299" d="M449.056,19.915c-4.237-6.011-13.13-10.972-20.532-9.249-.355.083-.334.718.073.647,8.275-1.451,14.053,4.611,20.065,9.077.277.206.564-.235.4-.476" transform="translate(-234.105 -5.641)" fill="#523b36"/>
          <path id="Trazado_893300" data-name="Trazado 893300" d="M431.326,37.525c-1.492-.2-3.026.012-4.535-.165a19.379,19.379,0,0,1-4.931-1.285c-.463-.184-.766.649-.306.84,2.836,1.179,6.755,2.261,9.768,1.192.26-.092.334-.538,0-.582" transform="translate(-230.307 -19.705)" fill="#523b36"/>
          <path id="Trazado_893301" data-name="Trazado 893301" d="M382.579,55.673a.418.418,0,0,0-.821-.159,12.327,12.327,0,0,0,.551,8.227c.156.333.6.1.548-.224a24.044,24.044,0,0,1-.277-7.845" transform="translate(-208.433 -30.166)" fill="#523b36"/>
          <path id="Trazado_893302" data-name="Trazado 893302" d="M387.417,66.965c-.6,1.731-.963,4.06.058,5.7.2.32.545-.06.535-.3-.074-1.8-.379-3.341.2-5.111a.423.423,0,1,0-.79-.287" transform="translate(-211.452 -36.427)" fill="#523b36"/>
          <path id="Trazado_893303" data-name="Trazado 893303" d="M450.516,162.879a3.858,3.858,0,0,0-.064-3.644c-.229-.379-.763-.12-.869.217a6.775,6.775,0,0,0-.209,2.084c-.054,1.587-.7,2.513-1.108,3.909a8.506,8.506,0,0,0,.228,5.2c.21.618,1.006.061.828-.471a7.382,7.382,0,0,1-.2-4.486,24.686,24.686,0,0,1,1.39-2.8" transform="translate(-244.866 -86.939)" fill="#b8675e"/>
          <path id="Trazado_893304" data-name="Trazado 893304" d="M422.887,162.284c-1.769-5.12-4.9-10.019-7.445-14.8-.217-.408-.808.115-.637.476,2.317,4.874,4.373,10.349,7.453,14.795.277.4.752-.118.63-.47" transform="translate(-226.726 -80.537)" fill="#b8675e"/>
          <path id="Trazado_893305" data-name="Trazado 893305" d="M392.644,103.54c-1.452.6-1.943-1.36-1.761-2.367a.362.362,0,0,0-.207-.387c-1.744-.861-2.655-2.25-3.967-3.577-.236-.238-.5.2-.43.41a6.031,6.031,0,0,0,2.48,2.961c-.16.046-.318.12-.476.174a3.117,3.117,0,0,1-1.327.157c-.231-.02-.284.368-.049.412.719.134,1.962.457,2.476-.225a.315.315,0,0,0,.041-.093c.246.145.492.283.735.406-.156,1.59.769,3.583,2.64,2.551.007,0,.01-.01.016-.013a.1.1,0,0,0,.045-.038c.147-.161.035-.475-.218-.371" transform="translate(-211.144 -53.099)" fill="#b8675e"/>
          <path id="Trazado_893306" data-name="Trazado 893306" d="M265.114,540.669s-.761,2.46-.786,2.891,17.373,11.464,19.91,9.511a26.96,26.96,0,0,1,.888-2.891s-16.689-9.917-20.011-9.511" transform="translate(-144.488 -295.537)" fill="#d5dae6"/>
          <path id="Trazado_893307" data-name="Trazado 893307" d="M596.674,537.224a17.36,17.36,0,0,1,1.116,2.891c.051.634,17.3-5.326,17.449-6.8a44.142,44.142,0,0,0-2.232-4.438Z" transform="translate(-326.157 -289.099)" fill="#d5dae6"/>
          <path id="Trazado_893308" data-name="Trazado 893308" d="M323.7,186.645s34.544,61.985,41.087,82.833c2.739-38.348,2.739-82.7,1.826-84.261,4.717,2.087,22.827,5.178,25.261,8.5s21.456,83.064,20.7,84.738,1.978,1.826,1.826,4.717,16.891,56.457,17.652,58.283-16.739,8.674-17.348,8.674-20.848-55.087-22.218-57.065c0,10.044,2.13,44.739,3.957,50.37-5.935,3.652-19.326,3.8-20.239,3.044s-7.456-39.413-7.761-41.543-10.348,38.8-13.7,40.782S310,342.978,310,339.63s5.935-22.674,3.957-24.956,2.435-6.239,2.13-7.3-2.435-37.283-2.739-38.5-14.609,60.87-19.174,66.653-7,20.848-8.522,21.3-21.609-9.587-21.609-10.043,15.065-53.718,14.457-59.957,3.858-10.652,4.9-13.848-.788-3.348.734-6.391,12.326-50.549,13.239-54.644.152-12.16,1.826-14.747,24.5-10.551,24.5-10.551" transform="translate(-144.335 -101.244)" fill="#4c6873"/>
          <path id="Trazado_893309" data-name="Trazado 893309" d="M572.571,371.737c-2.232-.2-8.217.406-8.522-6.7s-11.159-25.565-12.58-28.609,9.029-12.174,10.754-16.029-1.116-2.739-3.211-2.447,2.1-3.539,1.994-5.669-10.246-.2-11.362-2.739-3.348-16.13-3.348-21.71,3.044-15.116,2.84-20.16-2.232-.13-3.246-.637.406-11.464-1.358-9.84-2.294,14.3-2.193,16.942.731,53-1.049,58.182,1.556,12.63,2.733,23.587c.835,7.776,1.455,20.713,1.723,27.767a13.923,13.923,0,0,0,1.97-.985c-1.826-5.63-3.957-40.326-3.957-50.37,1.37,1.978,21.609,57.065,22.218,57.065a55.068,55.068,0,0,0,5.3-1.993c-1.939-3.987-5.2-9.187-5.2-10.383,0-1.826,8.725-5.072,6.493-5.275" transform="translate(-295.603 -140.502)" fill="#345a6e"/>
          <path id="Trazado_893310" data-name="Trazado 893310" d="M333.8,358.579c-.2-5.072,5.977-5.81,6.447-8.161s-6.853-.969-3.911-4.374-3.145-28.856-.2-36.059-3.855-.1-6.189-5.681-9.841-41.9-13.8-43.725-1.015,14.2-1.015,14.2-2.13-2.029-2.631.3,3.139,10.246,2.631,11.891-2.536,28.587-1.318,33.355-1.42,7.913-6.29,9.719,1.116,1.035,2.84,3.6-8.217,43.7-9.942,45.018S282.467,373.29,285,376.029s12.986,3.55,12.127,7.507a57.171,57.171,0,0,0-1.02,13.779c-.057.15-.11.3-.166.45a2.454,2.454,0,0,0,1.03.177c1.522-.457,3.957-15.522,8.522-21.3s18.869-67.869,19.174-66.652,2.435,37.435,2.739,38.5-4.109,5.022-2.13,7.3-3.957,21.609-3.957,24.957c0,.928,3.187,1.962,7.861,2.929,2.18-8.672,4.752-21.713,4.617-25.1" transform="translate(-155.643 -142.36)" fill="#345a6e"/>
          <path id="Trazado_893311" data-name="Trazado 893311" d="M299.812,302.323c3.1-1.315-2.7-2.743-2.494-3.909s13.189-1.066,14.2-3.907-6.29,2.029-6.969-9.225,7.578-38.862,6.563-49.164c-.759-7.706,1.888-21.733,3.27-28.312a7.852,7.852,0,0,0-2.509,1.737c-1.674,2.587-.913,10.652-1.826,14.747s-11.717,51.6-13.239,54.644.3,3.2-.734,6.391-5.505,7.609-4.9,13.848c.218,2.233-1.573,10.491-3.961,20.195,4.639-6.781,10.37-16.1,12.593-17.046" transform="translate(-157.001 -113.592)" fill="#345a6e"/>
          <path id="Trazado_893312" data-name="Trazado 893312" d="M357.638,296.433c-1.211-6.806-2.595-14.307-5.306-20.677-.4-.933-1.647-.261-1.492.61.861,4.837,2.266,9.66,3.616,14.454-.341-.5-.678-1.011-1.023-1.512a10.74,10.74,0,0,0-2.58-3.092c-.362-.239-.685.219-.583.557a11.826,11.826,0,0,0,2.155,3.5c.893,1.192,1.806,2.37,2.711,3.554a.485.485,0,0,0,.2.158q.339,1.253.659,2.5c1.87,7.358,3.063,14.748,4.245,22.241.108.686.987.366.919-.238-.837-7.383-2.216-14.742-3.517-22.054" transform="translate(-191.455 -150.489)" fill="#2e4d5e"/>
          <path id="Trazado_893313" data-name="Trazado 893313" d="M543.98,282.894c1.376-1.237,3.162-2.977,3.371-4.906a.426.426,0,0,0-.714-.392,11.35,11.35,0,0,0-1.49,2.124,15.526,15.526,0,0,1-1.755,2.206,30.331,30.331,0,0,1,1.053-8.735c.278-.957-.926-1.425-1.276-.464-1.653,4.537-1.338,9.354-1.053,14.088q.543,9.026.927,18.062c.254,6.023.412,12.035.549,18.062.136,6-.132,12.063.322,18.043.033.44.626.311.656-.073.84-11.011.085-22.326-.106-33.359q-.145-8.453-.627-16.9c-.144-2.556-.363-5.109-.427-7.651a.459.459,0,0,0,.571-.105" transform="translate(-296.209 -148.791)" fill="#2e4d5e"/>
          <path id="Trazado_893314" data-name="Trazado 893314" d="M428.65,309.909c-.376-6.194-1.284-12.4-1.974-18.566-.595-5.311-.564-11.363-2.072-16.544-.007.1-.014.2-.021.307-.323-1.03-.717-2.163-1.17-3.381a43.376,43.376,0,0,0-12.253-10.886c-2.636-1.672-5.345-3.228-8.034-4.811-1.3-.768-3.965-1.742-4.92-2.9-1.5-1.815-1.07-4.6-1.06-6.762,0-.491-.181-.911-.72-.981a40.908,40.908,0,0,1-4.755-.6c-2.2-.564-2.754-1.225-3.453-3.323a75.977,75.977,0,0,1-2.231-8.724c-1.036-5.04-2.109-10.056-3.486-15.016a163.837,163.837,0,0,0-7.863-22.209q-.617.235-1.247.477a171.441,171.441,0,0,1,8.961,26.145c1.487,5.964,2.277,12.087,3.861,18.022.446,1.669.8,4.59,2.248,5.732,1.574,1.244,4.811,1.168,7,1.331-.112,2.326-.637,5.4,1.054,7.069,1.158,1.145,3.2,1.914,4.6,2.736q2.609,1.527,5.217,3.058c6.3,3.718,12.535,7.7,16.624,13.928a.6.6,0,0,0,.491.307c-.032.079-.067.157-.1.236a.445.445,0,0,0,.2.569c-.285,5.421,1.005,11.274,1.579,16.623.661,6.164,1.114,12.415,2.092,18.536.083.519.427.667.758.581.146-.355.237-.473.262-.3.006.04.015.1.025.165a.939.939,0,0,0,.39-.818" transform="translate(-204.105 -106.872)" fill="#2e4d5e"/>
          <path id="Trazado_893315" data-name="Trazado 893315" d="M501.52,240.2c.121-2.173-1.949-4.669-3.262-6.6,1.893-1.478,4.572-1.062,5.247-4.085.466-2.086.188-4.573.224-6.711.041-2.451.019-4.9-.042-7.352a209.167,209.167,0,0,0-1.7-22.3q-.894-.241-1.8-.475c.849,6.108,1.5,12.23,1.8,18.415.227,4.672.29,9.354.226,14.031-.038,2.755-.077,5.053-3.034,6.1a5.388,5.388,0,0,0-2.543,1.6,1.087,1.087,0,0,0-.173,1.321c.8,1.337,1.607,2.675,2.423,4,1.186,1.931.775,2.828-.068,4.781q-2.222,5.147-4.557,10.243c-2.479,5.426-5.172,10.793-7.575,16.264q-.095,1.444-.195,2.878c3.941-7.046,7.188-14.561,10.533-21.894q1.348-2.955,2.7-5.907c.6-1.321,1.708-2.839,1.791-4.32" transform="translate(-265.93 -105.324)" fill="#2e4d5e"/>
          <path id="Trazado_893316" data-name="Trazado 893316" d="M404.6,442.567c-.013-.629-.839-.406-.91.1-.206,1.485-.358,2.963-.467,4.458-.165,2.256-.24,2.968-2.585,3.444-2.73.554-6.172,0-8.942-.148-2.849-.154-6.141-.084-8.906-.827-2.132-.573-1.843-.836-1.659-3.009.127-1.5.217-2.994.268-4.5.015-.433-.51-.418-.573-.02-.419,2.61-.622,5.238-1,7.852-.029.2.078.537.314.586a90.3,90.3,0,0,0,20.331,1.459c1.414-.035,2.9.314,3.635-.985.537-.951.333-2.738.4-3.807.1-1.543.126-3.06.094-4.6" transform="translate(-207.617 -241.481)" fill="#2e4d5e"/>
          <path id="Trazado_893317" data-name="Trazado 893317" d="M531.875,445.518c-2.731.44-5.487.721-8.227,1.1-1.9.263-2.747-.282-3.019-2.195-.21-1.475-.386-2.951-.7-4.41-.054-.712-1.006-.381-.95.246a51.479,51.479,0,0,0,.928,6.389c.155.7.171,1.216.847,1.545,1.015.493,3.21-.25,4.333-.375,2.26-.253,4.51-.594,6.776-.8.939-.084,1.032-1.67.007-1.505" transform="translate(-283.688 -240.304)" fill="#2e4d5e"/>
          <path id="Trazado_893318" data-name="Trazado 893318" d="M525.9,311.5c-.578-1.275-2.643-.792-3.768-.788-2.2.006-4.852-.275-6.927.556-.348.139-.37.793,0,.76a41.685,41.685,0,0,0,4.914.04c.856-.011,4.577-.6,4.93.068.292.549,1.07-.154.852-.636" transform="translate(-281.476 -169.793)" fill="#2e4d5e"/>
          <path id="Trazado_893319" data-name="Trazado 893319" d="M526.289,317.993c-.406-.92-2.621-.43-3.357-.428-2.522.006-5.053.112-7.561.365-.469.047-.66.878-.107.9.838.031,10.2.015,10.153-.478.068.734,1.154.28.873-.357" transform="translate(-281.471 -173.516)" fill="#2e4d5e"/>
          <path id="Trazado_893320" data-name="Trazado 893320" d="M324.237,416.733a19.245,19.245,0,0,0-3.406-2.5,1.172,1.172,0,0,0-1.543.1.639.639,0,0,0-.1.8q.967,1.624,1.941,3.243-1.184-.931-2.369-1.861a10.306,10.306,0,0,0-3.767-2.318c-.475-.113-.788.676-.306.84,1.544.526,2.774,1.8,4.029,2.806l4.065,3.241c.5.4.943-.422.7-.839q-1.424-2.406-2.858-4.807c1.037.612,2.792,1.991,3.063,2.156.51.311.986-.49.557-.851" transform="translate(-171.882 -226.297)" fill="#2e4d5e"/>
          <path id="Trazado_893321" data-name="Trazado 893321" d="M571.189,386.416c-1.5-.65-2.966,0-4.483.133a27.769,27.769,0,0,1,2.855-3.1c.441-.42.08-1.524-.559-1.062a14.008,14.008,0,0,0-3.9,4.445c-.218.383-.135.921.367.987a19.886,19.886,0,0,0,3.432-.247,26.074,26.074,0,0,0-5.692,5.127c-.455.557.288,1.489.848.89a30.587,30.587,0,0,1,7.114-5.779.8.8,0,0,0,.015-1.4" transform="translate(-307.789 -208.962)" fill="#2e4d5e"/>
          <path id="Trazado_893322" data-name="Trazado 893322" d="M294.542,518.167a84.447,84.447,0,0,1-11.088-4.263c-3.564-1.761-7.145-3.8-11.048-4.7a.589.589,0,0,0-.587.906l.527.662c.2.253.491.116.616-.114,3.557,1.466,7,3.078,10.481,4.737,3.35,1.6,7.151,3.426,10.929,3.488.345.006.534-.592.17-.713" transform="translate(-148.523 -278.335)" fill="#2e4d5e"/>
          <path id="Trazado_893323" data-name="Trazado 893323" d="M603.816,500.655c-5.493,1.657-10.679,5.986-15,9.656-.321.273.008.826.379.531.181-.144.365-.283.546-.426a8.609,8.609,0,0,1,.7,1.426c.444.855.914,1.7,1.375,2.542a44.172,44.172,0,0,0,2.87,4.971c.276.378.762-.11.622-.465a54.738,54.738,0,0,0-3.233-6.2c-.317-.577-.865-2.261-1.625-2.834,1.879-1.452,3.8-2.841,5.8-4.133,2.211-1.433,5.023-3.655,7.687-4.005.6-.08.524-1.261-.121-1.066" transform="translate(-321.79 -273.659)" fill="#2e4d5e"/>
          <path id="Trazado_893324" data-name="Trazado 893324" d="M451.167,600.251c5.069-20.1,10.572-39.866,10.572-39.866-5.081.194-8.651,23.218-10.572,39.866" transform="translate(-246.619 -306.32)" fill="#345a6e"/>
          <path id="Trazado_893325" data-name="Trazado 893325" d="M370.07,856.5c-.2,2.435,7.913-1.623,5.884,5.072-1.19,3.926-8.656,11.417-14.631,16.945,6.636.057,12.964-.261,13.109-1.209.3-1.99,0-8.128.761-10.841.559-1.992,7.845-38.7,12.1-59.276C380.15,824.2,370.225,854.641,370.07,856.5" transform="translate(-197.508 -441.228)" fill="#345a6e"/>
          <path id="Trazado_893326" data-name="Trazado 893326" d="M473.11,730.455c-2.638-.812,15.218-2.638,17.043-5.884s-15.014,1.826-16.841-1.624-.405-58.029,1.015-59.246,9.131,21.507,8.927,12.783-6.7-21.507-7.1-26.377,16.232,6.9,15.952,3.45-11.082-5.073-15.343-10.348.608-10.754.608-16.435-2.84,1.826-3.044,0,7.1-50.725,9.333-54.073-7.71-.913-5.782-5.58,13.594-9.942,14.2-12.073-10.348,0-10.348,0,9.84-12.174,5.884-8.014-16.79,5.58-16.79,5.58.609,83.848,0,85.37-1.826,3.043-.608,5.022-.913,85.674-1.674,87.5-1.218,4.737,0,5.336c.769.379,12.588-1,21.383-2.528-7.65-1.207-15.529-2.462-16.818-2.859" transform="translate(-255.707 -298.549)" fill="#345a6e"/>
          <path id="Trazado_893327" data-name="Trazado 893327" d="M396.042,723.8a.558.558,0,0,0-1.048-.209c-1.027,2.021-1.49,4.285-2.322,6.4a39.666,39.666,0,0,1-3.538,6.9c-2.887,4.5-6.977,7.445-10.39,11.41-.54.628.009,1.76.782,1.1,4.276-3.665,8.324-6.88,11.411-11.7,2.469-3.854,5.379-9.185,5.105-13.892" transform="translate(-206.912 -395.372)" fill="#345a6e"/>
          <path id="Trazado_893328" data-name="Trazado 893328" d="M407.357,747.993c-5.284,3.748-8.8,10.756-11.069,16.645a.671.671,0,1,0,1.254.457,47.381,47.381,0,0,1,4.6-9.02c1.724-2.62,3.924-4.851,5.7-7.415.214-.309-.064-.959-.476-.666" transform="translate(-216.586 -408.831)" fill="#345a6e"/>
          <path id="Trazado_893329" data-name="Trazado 893329" d="M518.674,728.523c-1.075,1.974-1.783,4.11-2.925,6.065a31.522,31.522,0,0,1-4.454,5.863c-.619.65.1,1.894.822,1.152,3.279-3.353,6.825-7.95,7.568-12.712a.544.544,0,0,0-1.011-.368" transform="translate(-279.358 -398.071)" fill="#345a6e"/>
          <path id="Trazado_893330" data-name="Trazado 893330" d="M351.767,947.267c-4.162-.036-8.283.579-12.468.437-.72-.024-.933,1.255-.156,1.309,4.1.288,8.631.483,12.619-.684.464-.136.614-1.056.005-1.062" transform="translate(-185.115 -517.799)" fill="#345a6e"/>
          <path id="Trazado_893331" data-name="Trazado 893331" d="M428.146,565.817c-5.056-4.327-11.2-5.72-17.1-8.5-.7-.328-1.15.953-.471,1.3,4.881,2.47,11.189,3.634,15.343,7.4a.669.669,0,0,0,.048.123c.48.908.462.849,1.392,1.254.859.374,1.406-1.05.789-1.578" transform="translate(-224.247 -304.615)" fill="#345a6e"/>
          <path id="Trazado_893332" data-name="Trazado 893332" d="M442.144,563.674a48.01,48.01,0,0,0-6.663-2.989q-3.757-1.644-7.436-3.462c-.6-.3-.987.814-.41,1.126,4.315,2.331,9.315,5.372,14.212,6.143.38.06.617-.617.3-.819" transform="translate(-233.6 -304.565)" fill="#345a6e"/>
          <path id="Trazado_893333" data-name="Trazado 893333" d="M445.931,448.8a137.108,137.108,0,0,1-15.456,7.283,96.837,96.837,0,0,0-14.231,6.194c-.462.262-.232,1.137.313.844,5.225-2.812,10.846-4.658,16.38-6.743,4.567-1.721,9.711-3.534,13.387-6.835.333-.3.089-.993-.392-.744" transform="translate(-227.394 -245.297)" fill="#345a6e"/>
          <path id="Trazado_893334" data-name="Trazado 893334" d="M460.6,457.422c-4.116,3.258-7.927,6.419-12.727,8.667-.566.265-.287,1.282.366.985,4.637-2.111,9.55-4.986,12.873-8.935.35-.416.012-1.131-.511-.717" transform="translate(-244.65 -249.97)" fill="#345a6e"/>
          <path id="Trazado_893335" data-name="Trazado 893335" d="M429.683,377.728c-3.116-3.477-6.586-6.592-9.6-10.177a101.646,101.646,0,0,1-8.216-11.317c-.333-.529-1.006.215-.718.683,4.73,7.68,10.67,16.033,18.08,21.358.307.22.69-.283.454-.547" transform="translate(-224.706 -194.627)" fill="#345a6e"/>
          <path id="Trazado_893336" data-name="Trazado 893336" d="M461.1,404.246a90.267,90.267,0,0,0-7.31-8.524c-.4-.445-1.033.251-.684.651a88.309,88.309,0,0,0,7.575,8.378c.278.247.588-.258.419-.5" transform="translate(-247.626 -216.233)" fill="#345a6e"/>
          <path id="Trazado_893337" data-name="Trazado 893337" d="M518.6,351.759c-2.344,9.179-3.022,18.944-3.311,28.386a.444.444,0,1,0,.885.031c.41-9.541,1.889-18.841,3.034-28.3a.31.31,0,0,0-.608-.118" transform="translate(-281.672 -192.147)" fill="#345a6e"/>
          <path id="Trazado_893338" data-name="Trazado 893338" d="M528.447,383.673a15.392,15.392,0,0,0-1.615,5.426c-.126.707.834.682.95.034a26.593,26.593,0,0,1,.665-2.864,20.225,20.225,0,0,0,.711-2.337.383.383,0,0,0-.711-.258" transform="translate(-287.973 -209.619)" fill="#345a6e"/>
          <path id="Trazado_893339" data-name="Trazado 893339" d="M321.643,208.425s71.546,3.321,102.729-2.158c.292.3,2.225,5.935,2.225,5.935s-68.424,11.4-105.558-1.148c-.316.259.6-2.63.6-2.63" transform="translate(-175.451 -112.751)" fill="#a6826d"/>
          <path id="Trazado_893340" data-name="Trazado 893340" d="M329.9,219.012s14.828,61.139-1.755,90.737c.684,2.344,5.025,3.6,5.025,3.6a211.755,211.755,0,0,0,6.239-53.589c-.457-29.366-8.214-43.035-8.214-43.035s-2.739-.26-1.295,2.292" transform="translate(-179.374 -118.46)" fill="#a6826d"/>
          <path id="Trazado_893341" data-name="Trazado 893341" d="M272.775,216.374s4.261-9.891,6.29-11.667,19.731.016,19.351,1.58-21.456,17.137-21.456,17.137Z" transform="translate(-149.106 -111.495)" fill="#de9985"/>
          <path id="Trazado_893342" data-name="Trazado 893342" d="M278.593,219.386s5.2-16.46,10.069-16.308,14.279,2.409,14.735,3.982-2.536,1.877-2.536,1.877,3.348-.253,3.247.862-2.333,2.536-2.333,2.536,2.389.2,2.336.812-3.35,3.551-3.35,3.551,1.978-.155,1.978.785-4.819,5.455-4.819,5.455-4.971,9.384-10.906,11.007-8.42-14.558-8.42-14.558" transform="translate(-152.286 -111.007)" fill="#ffbd99"/>
          <path id="Trazado_893343" data-name="Trazado 893343" d="M37.013,962.318c-.647.1-2.929,10.386-.19,15.294,1.179.646,12.212,0,12.212,0s3.462-14.875,3.386-15.294-10.081-.837-15.408,0" transform="translate(-19.409 -525.763)" fill="#1f1f1f"/>
          <path id="Trazado_893344" data-name="Trazado 893344" d="M58.368,961.291s-4.87,7.837-2.207,15.674c2.815.837,11.185,1.065,11.565.989s.533-1.75.533-1.75,29.674,2.739,30.283,1.294c-2.13-2.663-21.72-16.663-21.588-17.652s-18.586,1.446-18.586,1.446" transform="translate(-30.264 -524.546)" fill="#2e2e2e"/>
          <path id="Trazado_893345" data-name="Trazado 893345" d="M18.69,556.683s12.935,82.1,14.3,83.772c-1.826,1.75-.837,4.793-.837,5.1a11.485,11.485,0,0,0-.685,5.63c.457,3.272-4.108,59.8-5.022,69.163a125.31,125.31,0,0,0-.076,18.489c-.076.837-1.217,2.85,0,3.023s16.511-1.2,16.511-1.2,6.7-101.348,6.391-108.8S18.69,556.683,18.69,556.683" transform="translate(-10.216 -304.297)" fill="#2e2e2e"/>
          <path id="Trazado_893346" data-name="Trazado 893346" d="M1.413,437.879s-5.478,33.161,6.544,50.5c-1.37,1.821,1.065,4.992,1.065,4.992L26.877,576.74s-1.623.1,0,3.652a8.569,8.569,0,0,0-1.42,6.9s-1.725,83.7.3,85.826c-1.522,1.116-2.13,1.928,1.116,3.044s24.043-1.42,24.043-1.42a39.065,39.065,0,0,1-1.927-5.377c1.217-1.623-.913-4.464-.913-4.464s5.072-70.974,8.319-73.733,1.015-11.54,0-14.961,2.029-82.947,3.247-87.822,5.58-38.861,3.7-49.158c-6.949-4.007-61.935-1.346-61.935-1.346" transform="translate(-0.092 -238.882)" fill="#453028"/>
          <path id="Trazado_893347" data-name="Trazado 893347" d="M128.415,181.318l23.263,34.7s.375-.507,1.288,0,23.536-7.1,25.87-7.812,10.124-5.985,10.337-5.985.724,1.621.724,1.621-11.264,15.422-14.815,17.35S140.691,232.753,136.429,229s-15.5-32.712-15.826-33.884,7.812-13.8,7.812-13.8" transform="translate(-65.92 -99.113)" fill="#d5dae6"/>
          <path id="Trazado_893348" data-name="Trazado 893348" d="M129.078,199.89c0,.228,9.054,17.652,10.272,21.3s-.38-5.706,1.142-2.967,8.044,9.739,8.549,10.8-.712-9.587.886-6.391,2.587,9.151,2.587,9.151.532-4.891,1.369-4.358.457,4.454,1.6,4.358,10.8-2.988,15.065-6.108,13.619-6.619,15.369-7.152,6.391-5.022,6.391-5.022l4.109,8.522s-34.7,19.1-46.185,17.956-24.8-21.228-24.8-21.228Z" transform="translate(-68.561 -109.265)" fill="#bdc2cc"/>
          <path id="Trazado_893349" data-name="Trazado 893349" d="M137.45,213.333s-3.574-29.52-5.9-33.021c6.1,2.079,7.417,31.6,7.417,31.6Z" transform="translate(-71.911 -98.563)" fill="#5c3f36"/>
          <path id="Trazado_893350" data-name="Trazado 893350" d="M3.452,247.732s-4.565,20.716-3.2,25.409,15.826,3.781,15.826,3.781,44.283,1.674,47.174-2.435,1.522-94.044,0-106.217c0,0,5.554,2.739,5.25,1.674s-3.957-3.529-5.174-11.085-1.366-6.965-3.954-9.011-17.4-10.592-19.6-13.484-3.91,3.811-3.91,3.811-3.437-.59-5.523,6.866a7.184,7.184,0,0,0,1.338,2.587s-25.337,66.935-28.228,98.1" transform="translate(0 -74.144)" fill="#f2f6ff"/>
          <path id="Trazado_893351" data-name="Trazado 893351" d="M68.442,166.493s11.794,12.478,18.109,16.131,9.208,8.293,9.854,8.293.57-13.163.57-13.467,1.3,7.015,7.747,9.575c-3.563-.407-4.7-1.891-4.7-1.891s2.587,23.587,1.268,27.949S85.46,188.837,81.706,186.91,81,184.272,76.33,179.3s-7.5-1.782-9.077-9.616c-.053.144,1.189-3.192,1.189-3.192" transform="translate(-36.761 -91.009)" fill="#d5dae6"/>
          <path id="Trazado_893352" data-name="Trazado 893352" d="M153.62,41.6s2.092-.457,3.12,2.207c.342.875-.723,2.016-.723,2.016Z" transform="translate(-83.973 -22.722)" fill="#5e3936"/>
          <path id="Trazado_893353" data-name="Trazado 893353" d="M81.767,71.928s-1.446,5.808-2.511,6.873C81.615,89.377,96.6,97.061,96.985,96.529s4.032-9.207,4.945-9.739,14.99,1.141,18.337-3.576,5.554-14.817,3.348-25.783c.508.036,2.967-2.521,2.511-5.26s-12.174-11.946-12.174-11.946A20.439,20.439,0,0,0,103.224,27.9c-8.75-4.261-24.348,9.131-28.38,19.25s6.924,24.779,6.924,24.779" transform="translate(-40.424 -14.806)" fill="#ffbd99"/>
          <path id="Trazado_893354" data-name="Trazado 893354" d="M103.08,126.356c-4.794-4.946-7.758-13.533-7.758-13.533A5.97,5.97,0,0,0,93.8,120.5c2.961,13.734,9.728,22.607,14.042,22.059,1.078-2.305,3.759-8.451,4.523-8.9.724-.422,9.7.538,15.069-1.388-8.389-.153-19.917-1.341-24.351-5.916" transform="translate(-50.857 -61.672)" fill="#de9985"/>
          <path id="Trazado_893355" data-name="Trazado 893355" d="M166.976,94.462S161.5,93.283,158,96.631s-4.033,7.038-3.5,7.57,11.984-.989,13.429-3.881c.418,1.218,3.5,2.436,4.223,1.332s-.913-9.662-5.174-7.19" transform="translate(-84.355 -51.392)" fill="#5e3936"/>
          <path id="Trazado_893356" data-name="Trazado 893356" d="M138.085,47.757s-7.114,6.125-7.951,5.06-.647-4.679,3.005-7.342,8.522-1.065,4.946,2.283" transform="translate(-70.91 -24.126)" fill="#5e3936"/>
          <path id="Trazado_893357" data-name="Trazado 893357" d="M146.441,76.068c-.386-.856-.607-1.755-.953-2.623-.224-.563-.839-.107-.825.337a7.567,7.567,0,0,0,.807,2.838c.319.693,1.244.053.971-.552" transform="translate(-79.077 -40.004)"/>
          <path id="Trazado_893358" data-name="Trazado 893358" d="M167.677,120.731a9.281,9.281,0,0,1-9.116.278c-.207-.1-.377.28-.2.4a8.783,8.783,0,0,0,5.726,1.657c1.392-.093,3.451-.424,4.067-1.847.127-.292-.161-.681-.475-.491" transform="translate(-86.523 -65.967)" fill="#b8675e"/>
          <path id="Trazado_893359" data-name="Trazado 893359" d="M70.448,41.144s2.965,5.063,4.182,3.186-1.522-12.986-1.522-12.986,2.181,2.486,3.044.863-.051-8.37,0-8.37,7.405,1.522,7.862,0-1.674-3.145-1.674-3.145,14.2-2.181,14.863-4.667c.253-1.015-4.464-2.942-4.464-2.942s4.737-.2,4.474-1.674S89.7,5.323,76.152,9.331,53.275,28.961,55.76,34.693c-5.022,3.7-4.971,7.2-4.007,7.355a15.771,15.771,0,0,0,3.551-.406s-1.572.913-.051,6.34a11.845,11.845,0,0,0,5.478,7.355s3.906,11.007,10.4,11.109c1.979-.862,1.319-11.616,1.319-11.616s-6.442.3-7.812-7.051,3.274-8.715,5.81-6.636" transform="translate(-28.011 -4.227)" fill="#804d49"/>
          <path id="Trazado_893360" data-name="Trazado 893360" d="M91.955,94.5c-.522-.267-1.858-.936-2.095-1.56-.284-.75.2-.874.523-1.255a.529.529,0,0,0,.13-.53,17.833,17.833,0,0,0-2.06-3.228c-.865-1.3-1.759-2.585-2.582-3.911-.332-.534-1.079.23-.738.7.972,1.339,1.873,2.732,2.8,4.1.028.041.067.091.1.139-.131-.01-.266-.019-.4-.038-.657-.093-1.307-.208-1.97-.246a.271.271,0,0,0-.12.5,10.943,10.943,0,0,0,1.893.57,2.253,2.253,0,0,0,1.343.14,3.08,3.08,0,0,1,.635,1.1c.108.651.058,0-.317.649-.979,1.7,1.376,2.9,2.672,3.365.288.1.444-.371.184-.505" transform="translate(-46.488 -45.828)" fill="#b8675e"/>
          <path id="Trazado_893361" data-name="Trazado 893361" d="M7.614,275.726s14.152-79.31,34.544-82.506c14.152-2.283,15.522,111.848,15.369,112.608s2.587.609,3.652,0-1.814-86.523-9.048-107.4c-4.648-11.293-6.93-14.793-16.365-8.4s-27.239,58.946-28.152,85.7" transform="translate(-4.162 -102.138)" fill="#5c3f36"/>
          <path id="Trazado_893362" data-name="Trazado 893362" d="M52.474,271.047s-4.87,18.709-3.8,18.409,4.717-7.3,4.717-5.322-6.7,29.978-4.87,29.826,13.239-25.413,13.391-22.37-3.652,41.7-1.522,39.87,9.891-38.944,10.348-38.722,3.044,10.57,3.957,9.5,4.565-14.153,2.435-18.261-24.652-12.935-24.652-12.935" transform="translate(-26.348 -148.161)" fill="#d5dae6"/>
          <path id="Trazado_893363" data-name="Trazado 893363" d="M65.68,205.726s.761-2.891,8.826,0,30.9,26.022,32.8,28.3,3.705.3,5.085,1.674,1.379,4.565,1.988,4.565,1.522-3.5,3.044-3.5.608-.3,1.522,0,34.544-16.587,37.131-17.5c1.979-1.826,11.109,15.522,10.044,17.043s-51.739,36.37-61.174,36.674-46.261-34.7-48.087-38.348,0-22.218,8.826-28.913" transform="translate(-30.728 -111.752)" fill="#f2f6ff"/>
          <path id="Trazado_893364" data-name="Trazado 893364" d="M253.29,246.881c-.913,0,5.63,12.022,5.174,15.033s-13.122,14.121-13.447,14.333c12.7-8.229,23.76-16.032,24.251-16.735.281-.4-.151-1.909-.971-3.87a28.093,28.093,0,0,1-5.572,3.87c-2.587,1.065-8.522-12.631-9.435-12.631" transform="translate(-133.932 -134.951)" fill="#d5dae6"/>
          <path id="Trazado_893365" data-name="Trazado 893365" d="M96.356,297.049c-7.336-3.733-21.085-10.787-29.1-14.9,10.434,10.663,36.031,33.562,43.67,33.315,5.08-.164,22.112-10.341,36.922-19.939-.321.208,1.274-2.735.665-6.387s-16.587,11.413-17.348,10.652,4.413-7,3.5-11.224-13.543,20.506-19.783,20.354S101.643,289.593,97.991,288s9.131,14.533-1.635,9.054" transform="translate(-36.763 -154.229)" fill="#d5dae6"/>
          <path id="Trazado_893366" data-name="Trazado 893366" d="M113.957,247.145c-2.837-6.713-7.123-13.016-10.581-19.438-.348-.647-1.278.183-1.009.753,3.054,6.481,6.151,13.774,10.617,19.411.446.563,1.213-.16.973-.727" transform="translate(-55.93 -124.342)" fill="#d5dae6"/>
          <path id="Trazado_893367" data-name="Trazado 893367" d="M107.837,268.19c-1.146-2.093-2.966-3.844-4.335-5.807a52.761,52.761,0,0,1-4-6.782c-.446-.9-1.663-.062-1.281.729a53.413,53.413,0,0,0,3.876,6.811c1.393,2.05,2.945,4.51,5.062,5.867.52.334.916-.383.678-.816" transform="translate(-53.65 -139.505)" fill="#d5dae6"/>
          <path id="Trazado_893368" data-name="Trazado 893368" d="M24.413,332.626c-3.128,6.008-4.752,13.225-6.343,19.775-1.682,6.93-3.419,14.251-3.621,21.4-.013.464.588.835.85.309a8.839,8.839,0,0,1,.89-1.574c.224-.351-.121-.732-.413-.558,1.309-6.579,2.176-13.218,3.826-19.747,1.641-6.494,4.251-12.761,5.792-19.252a.528.528,0,0,0-.982-.357" transform="translate(-7.898 -181.671)" fill="#d5dae6"/>
          <path id="Trazado_893369" data-name="Trazado 893369" d="M50.721,375.537c-2.392,3.669-3.987,7.982-5.823,11.947-.333.72.661,1.062,1,.362,1.863-3.9,4.134-7.843,5.426-11.977.125-.4-.338-.73-.6-.332" transform="translate(-24.505 -205.179)" fill="#d5dae6"/>
          <path id="Trazado_893370" data-name="Trazado 893370" d="M86.373,353.252c-1.917,5.974-3.175,12.03-5.572,17.87a90.255,90.255,0,0,1-9.341,17.2c-.393.567.344,1.207.775.605a94.182,94.182,0,0,0,9.72-16.83c2.539-5.757,5.074-12.289,5.586-18.617a.6.6,0,0,0-1.168-.226" transform="translate(-39.001 -192.841)" fill="#d5dae6"/>
          <path id="Trazado_893371" data-name="Trazado 893371" d="M178.658,296.347c-.159-.594-.847-.407-1.124-.054-.531.678-1.032,1.39-1.5,2.124.063-.2.127-.408.188-.612.194-.656-.668-.984-.874-.318-.647,2.107-1.307,4.227-2.128,6.277-.2.457-.389.914-.57,1.372-.322.716.685,1.34,1.091.606,1.347-2.437,2.52-4.928,3.964-7.3a35.493,35.493,0,0,1,.234,5.468c0,.984,1.128.943,1.3.046a17.318,17.318,0,0,0-.579-7.611" transform="translate(-94.338 -161.781)" fill="#d5dae6"/>
          <path id="Trazado_893372" data-name="Trazado 893372" d="M76.937,476.744c-3.463,4.874-6.656,9.837-10.6,14.357a119.683,119.683,0,0,1-12.244,11.944c-.443.381-.06,1.407.519.986,9.358-6.795,18.294-16.214,23.335-26.729a.575.575,0,0,0-1.006-.558" transform="translate(-29.461 -260.449)" fill="#2e2e2e"/>
          <path id="Trazado_893373" data-name="Trazado 893373" d="M78.956,742.315c.443-.115.687-.978.139-1.128-3.053-.835-6.778-.281-9.926-.25A.842.842,0,0,0,68.8,742.5a26.451,26.451,0,0,1,7.693,5.263,48.024,48.024,0,0,1-8.955-1.086c-.689-.139-1.138,1.045-.439,1.207a82.858,82.858,0,0,0,11.172,1.482.9.9,0,0,0,.684-1.38,25.947,25.947,0,0,0-6.279-5.3,21.593,21.593,0,0,0,6.285-.377" transform="translate(-36.484 -404.9)" fill="#383838"/>
          <path id="Trazado_893374" data-name="Trazado 893374" d="M81.719,953.749c-3.084.487-5.992,1.5-9.137,1.724A35.174,35.174,0,0,1,64.149,955c-.535-.092-.816.975-.262,1.1,5.659,1.249,12.85,1.482,18-1.615.322-.194.275-.8-.172-.73" transform="translate(-34.758 -521.34)" fill="#383838"/>
          <path id="Trazado_893375" data-name="Trazado 893375" d="M76.557,937.947c-4.043,1.279-7.784,3.243-11.913,4.359-.59.159-.558,1.254.123,1.093,4.014-.948,8.589-2.139,12-4.556.328-.232.359-1.075-.211-.9" transform="translate(-35.108 -512.691)" fill="#383838"/>
          <path id="Trazado_893376" data-name="Trazado 893376" d="M39.13,555.383c-3.917-2.29-8.88-3.484-13.143-5.02-.634-.228-1.044.9-.413,1.135,4.239,1.6,8.787,3.917,13.252,4.721.383.069.637-.641.3-.836" transform="translate(-13.807 -300.825)" fill="#383838"/>
          <path id="Trazado_893377" data-name="Trazado 893377" d="M32.088,563.023c-2.366-1.538-4.964-2.636-7.277-4.3-.463-.333-.959.5-.531.812,2.187,1.614,4.772,3.517,7.425,4.256.4.11.751-.526.383-.765" transform="translate(-13.183 -305.368)" fill="#383838"/>
          <path id="Trazado_893378" data-name="Trazado 893378" d="M90.825,523.259c-2.533,6.056-2.253,12.684-1.842,19.1.473,7.385.977,14.768,1.464,22.153,1.006,15.259,1.142,30.669-1.907,45.724-.114.561.644.531.754.027,3.046-14.035,2.657-28.256,2.2-42.519q-.343-10.637-.858-21.271c-.367-7.682-.646-15.266,1.539-22.724.3-1.016-.932-1.477-1.345-.489" transform="translate(-48.391 -285.727)" fill="#383838"/>
          <path id="Trazado_893379" data-name="Trazado 893379" d="M85.074,783.643c-.01-.256-.361-.14-.345.089.411,5.556.519,11.124.468,16.694-.05,5.464.178,11.231-.6,16.642-.71,4.96-.823,10.026-1.316,15.017-.254,2.581-.526,5.164-.858,7.736-.307,2.384-1.085,4.923-.654,7.306.127.7.871.6,1.13.046,1.048-2.237.958-4.857,1.218-7.291.3-2.777.578-5.553.812-8.336.455-5.4.645-10.732.661-16.138.031-10.616-.1-21.151-.52-31.766" transform="translate(-44.629 -428.279)" fill="#383838"/>
        </g>
      </g>
    </g>
  </g>
</svg>
