<svg xmlns="http://www.w3.org/2000/svg" xmlns:xlink="http://www.w3.org/1999/xlink" width="400" height="373.629" viewBox="0 0 400 373.629">
  <defs>
    <clipPath id="clip-path">
      <rect id="Rectángulo_402811" data-name="Rectángulo 402811" width="173.387" height="373.629" fill="none"/>
    </clipPath>
    <clipPath id="clip-path-3">
      <rect id="Rectángulo_402808" data-name="Rectángulo 402808" width="173.387" height="28.616" fill="none"/>
    </clipPath>
  </defs>
  <g id="Grupo_1102391" data-name="Grupo 1102391" transform="translate(-810 -6144.702)">
    <g id="Grupo_1102389" data-name="Grupo 1102389" transform="translate(-210 660.723)">
      <g id="Grupo_1102385" data-name="Grupo 1102385" transform="translate(209.81 653.794)">
        <g id="Grupo_1101522" data-name="Grupo 1101522" transform="translate(0.409 3695)">
          <circle id="Elipse_11498" data-name="Elipse 11498" cx="110" cy="110" r="110" transform="translate(809.781 1271)" fill="#a6826d"/>
          <circle id="retrato-de-una-persona-reparando-ropa-y-materiales-de-fijacion" cx="158" cy="158" r="158" transform="translate(850.781 1161)" fill="#e3dcd9"/>
          <g id="Elipse_11500" data-name="Elipse 11500" transform="translate(850.781 1153)" fill="none" stroke="#727aa6" stroke-width="2" stroke-dasharray="6">
            <circle cx="162.5" cy="162.5" r="162.5" stroke="none"/>
            <circle cx="162.5" cy="162.5" r="161.5" fill="none"/>
          </g>
          <circle id="Elipse_11499" data-name="Elipse 11499" cx="33" cy="33" r="33" transform="translate(1143.781 1348)" fill="#cbdee5"/>
        </g>
      </g>
    </g>
    <g id="Grupo_1102388" data-name="Grupo 1102388">
      <g id="Grupo_1102247" data-name="Grupo 1102247" transform="translate(931.613 6144.702)">
        <g id="Grupo_1102244" data-name="Grupo 1102244" clip-path="url(#clip-path)">
          <g id="Grupo_1102241" data-name="Grupo 1102241">
            <g id="Grupo_1102240" data-name="Grupo 1102240" clip-path="url(#clip-path)">
              <g id="Grupo_1102239" data-name="Grupo 1102239" transform="translate(0 345.013)" opacity="0.1">
                <g id="Grupo_1102238" data-name="Grupo 1102238">
                  <g id="Grupo_1102237" data-name="Grupo 1102237" clip-path="url(#clip-path-3)">
                    <path id="Trazado_894221" data-name="Trazado 894221" d="M173.387,249.549c0,7.9-38.813,14.307-86.693,14.307S0,257.451,0,249.549,38.813,235.24,86.693,235.24s86.693,6.406,86.693,14.309" transform="translate(0 -235.24)" fill="#606060"/>
                  </g>
                </g>
              </g>
            </g>
          </g>
          <path id="Trazado_894222" data-name="Trazado 894222" d="M65.052,127.353l-2.229,22.865L49.358,289.608l-.777,8.052H40.119l.132-194.433,7.436,7.245Z" transform="translate(18.721 48.17)" fill="#fea094"/>
          <g id="Grupo_1102243" data-name="Grupo 1102243">
            <g id="Grupo_1102242" data-name="Grupo 1102242" clip-path="url(#clip-path)">
              <path id="Trazado_894223" data-name="Trazado 894223" d="M48.486,244.785c-3.03,1.5-9.065,4.954-9.065,4.954a13.348,13.348,0,0,1-2.272.956,4.734,4.734,0,0,1-.795.15,1.4,1.4,0,0,1-1.118-.409c-1.465.373-2.012-.2-2.012-.2-.559.15-1.552-.659-1.552-.659a2.873,2.873,0,0,1-.895-.3c-.175-.3.012-.943.62-1.429s3.3-3.128,5.526-5.091c2.3-2.049,6.93-6.346,7.6-6.967H52.97a27.783,27.783,0,0,1,.682,2.869c.92,5.985-2.135,4.618-5.166,6.122" transform="translate(14.333 110.032)" fill="#fea094"/>
              <path id="Trazado_894224" data-name="Trazado 894224" d="M33.879,246.466s-1.019-1.393,1.031-2.149" transform="translate(15.691 114.009)" fill="none" stroke="#f08c7f" stroke-linecap="round" stroke-linejoin="round" stroke-width="0.226"/>
              <path id="Trazado_894225" data-name="Trazado 894225" d="M32.583,246.212s-1.021-1.109.5-1.671" transform="translate(15.049 114.113)" fill="none" stroke="#f08c7f" stroke-linecap="round" stroke-linejoin="round" stroke-width="0.226"/>
              <path id="Trazado_894226" data-name="Trazado 894226" d="M31.7,245.871s-1.021-1.109.5-1.671" transform="translate(14.636 113.954)" fill="none" stroke="#f08c7f" stroke-linecap="round" stroke-linejoin="round" stroke-width="0.226"/>
              <path id="Trazado_894227" data-name="Trazado 894227" d="M31.227,245.674s-1.019-1.107.5-1.671" transform="translate(14.416 113.862)" fill="none" stroke="#f08c7f" stroke-linecap="round" stroke-linejoin="round" stroke-width="0.226"/>
              <path id="Trazado_894228" data-name="Trazado 894228" d="M46.9,173.545a8.4,8.4,0,0,0,6.016-3.467c.619,1.877-.942,3.687-2.185,5.224a43.7,43.7,0,0,0-3.9,6.091c-.989.326-1.807-.8-2.215-1.76-1.162-2.728-2.687-6.205-2.671-9.189a5.683,5.683,0,0,0,4.954,3.1" transform="translate(19.573 79.366)" fill="#f08783"/>
              <path id="Trazado_894229" data-name="Trazado 894229" d="M62.644,125.048l-2.229,22.865L46.951,287.3l-.895,8.052-.117,1s.029-.337.073-1c.631-8.873,5.324-74.667,6.835-87.339,1.613-13.6.689-6,2.068-43.325,1.1-29.406-6.395-49.367-9.636-56.524Z" transform="translate(21.129 50.475)" fill="#f08783"/>
              <path id="Trazado_894230" data-name="Trazado 894230" d="M61.1,127.052l1.519,23.114L76.082,289.557l.777,8.052h8.463l-.669-194.272-6.9,7.084Z" transform="translate(28.511 48.222)" fill="#fea094"/>
              <path id="Trazado_894231" data-name="Trazado 894231" d="M76.6,244.785c3.03,1.5,9.065,4.954,9.065,4.954a13.348,13.348,0,0,0,2.272.956,4.734,4.734,0,0,0,.795.15,1.4,1.4,0,0,0,1.118-.409c1.465.373,2.012-.2,2.012-.2.559.15,1.552-.659,1.552-.659a2.873,2.873,0,0,0,.895-.3c.175-.3-.012-.943-.62-1.429s-3.3-3.128-5.526-5.091c-2.3-2.049-6.93-6.346-7.6-6.967H72.114a27.784,27.784,0,0,0-.682,2.869c-.92,5.985,2.135,4.618,5.166,6.122" transform="translate(33.256 110.032)" fill="#fea094"/>
              <path id="Trazado_894232" data-name="Trazado 894232" d="M84.263,246.466s1.019-1.393-1.031-2.149" transform="translate(38.84 114.009)" fill="none" stroke="#f08c7f" stroke-linecap="round" stroke-linejoin="round" stroke-width="0.226"/>
              <path id="Trazado_894233" data-name="Trazado 894233" d="M85.416,246.212s1.021-1.109-.5-1.671" transform="translate(39.624 114.113)" fill="none" stroke="#f08c7f" stroke-linecap="round" stroke-linejoin="round" stroke-width="0.226"/>
              <path id="Trazado_894234" data-name="Trazado 894234" d="M86.3,245.871s1.019-1.109-.5-1.671" transform="translate(40.037 113.954)" fill="none" stroke="#f08c7f" stroke-linecap="round" stroke-linejoin="round" stroke-width="0.226"/>
              <path id="Trazado_894235" data-name="Trazado 894235" d="M86.772,245.674s1.021-1.107-.5-1.671" transform="translate(40.257 113.862)" fill="none" stroke="#f08c7f" stroke-linecap="round" stroke-linejoin="round" stroke-width="0.226"/>
              <path id="Trazado_894236" data-name="Trazado 894236" d="M74.371,173.545a8.4,8.4,0,0,1-6.016-3.467c-.619,1.877.942,3.687,2.185,5.224a43.7,43.7,0,0,1,3.9,6.091c.989.326,1.807-.8,2.215-1.76,1.16-2.728,2.687-6.205,2.671-9.189a5.683,5.683,0,0,1-4.954,3.1" transform="translate(31.832 79.366)" fill="#f08783"/>
              <path id="Trazado_894237" data-name="Trazado 894237" d="M61.1,124.978l1.519,22.935L76.082,287.3l.895,8.052.117,1s-.029-.337-.073-1c-.631-8.873-5.324-74.667-6.835-87.339-1.613-13.6-.689-6-2.068-43.325-1.1-29.406,6.395-49.367,9.636-56.524Z" transform="translate(28.511 50.475)" fill="#f08783"/>
              <path id="Trazado_894238" data-name="Trazado 894238" d="M132.814,96.353,130.57,92.7q-2.794-4.51-5.559-9.02-3.542-5.742-7.084-11.513-3.41-5.566-6.835-11.117c-.865-1.393-1.745-2.772-2.581-4.18-.821-1.379-1.525-2.831-2.479-4.121-2.42-3.241-6.541-3.505-10.105-4.62-2.728-.851-5.485-1.569-8.2-2.449-3.329-1.071-4.121-3.3-4.195-6.6a29.862,29.862,0,0,1,.176-3.608c.029-.249.059-.484.088-.733a45.857,45.857,0,0,1,1.833-8.052l-4.429.425a.014.014,0,0,1-.015.015l-4.107.4H69.411a49.852,49.852,0,0,1,1.745,7.363V34.9c.044.249.088.513.117.777.557,4.239.337,8.727-2.8,9.621-4.84,1.379-9.753,2.552-14.608,3.916A15.614,15.614,0,0,0,49.553,50.9a8.423,8.423,0,0,0-2.743,3.212s.015,0,0,.015c-.1.176-.205.352-.293.528-.748,1.437-1.657,2.8-2.508,4.18-2.141,3.461-4.268,6.937-6.409,10.4q-3.52,5.742-7.055,11.469-1.914,3.08-3.784,6.16C26,88.081,25.25,89.3,24.5,90.515q-1.694,2.728-3.359,5.456a3.316,3.316,0,0,0-.235.381l29.509,41.521.249-2.669,19.3,9.914,7.113,1.6,26.326-7.612-.059-1.32ZM50.565,112.544l-.557,9.049L33.889,96.543,50.579,72.08l1.467,16.705Zm51.89,5.749-1.379-30.125,1.364-12.921.381-3.608,17,24.9-17.145,26.649Z" transform="translate(9.757 12.453)" fill="#fea094"/>
              <path id="Trazado_894239" data-name="Trazado 894239" d="M66.889,34.158c0,3.507-2.457,6.349-5.487,6.349s-5.487-2.842-5.487-6.349,2.457-6.349,5.487-6.349,5.487,2.842,5.487,6.349" transform="translate(26.093 12.977)" fill="#f08783"/>
              <path id="Trazado_894240" data-name="Trazado 894240" d="M49.7,65.864a1.1,1.1,0,1,1-1.1-1.1,1.1,1.1,0,0,1,1.1,1.1" transform="translate(22.171 30.224)" fill="#f08783"/>
              <path id="Trazado_894241" data-name="Trazado 894241" d="M73.113,65.864a1.1,1.1,0,1,1-1.1-1.1,1.1,1.1,0,0,1,1.1,1.1" transform="translate(33.094 30.224)" fill="#f08783"/>
              <path id="Trazado_894242" data-name="Trazado 894242" d="M81.43,23.425c0,15.743-10.728,23.928-16.841,23.928-6.657-.566-16.841-9.445-16.841-23.928,0-16.863,7.54-18.577,16.841-18.577s16.841,0,16.841,18.577" transform="translate(22.281 2.262)" fill="#fea094"/>
              <path id="Trazado_894243" data-name="Trazado 894243" d="M69.126,20.449c-3.914-1.408-8.889-3.117-11.714-6.169-.884,5.388-3.686,8.741-8.611,11.1.129-6.285,1.712-11.3,4.026-17.141a3.161,3.161,0,0,1,.559-1.012,2.813,2.813,0,0,1,1.86-.719c2.91-.264,5.782.773,8.4,2.066a83.469,83.469,0,0,1,7.967,4.7,24.5,24.5,0,0,1,6.314,5.126,12.6,12.6,0,0,1,2.35,3.97c.459,1.813-.823,1.147-2.109.777-3.023-.87-6.076-1.64-9.039-2.706" transform="translate(22.773 3.019)" fill="#f08783"/>
              <path id="Trazado_894244" data-name="Trazado 894244" d="M66.142,20.469H63.615a.407.407,0,0,1,0-.814h2.527a.407.407,0,1,1,0,.814" transform="translate(29.496 9.172)"/>
              <path id="Trazado_894245" data-name="Trazado 894245" d="M56.466,20.469H53.939a.407.407,0,0,1,0-.814h2.527a.407.407,0,0,1,0,.814" transform="translate(24.981 9.172)"/>
              <path id="Trazado_894246" data-name="Trazado 894246" d="M71.408,17.421s3.269-1.69,2.646,1.429-2.184,7.018-4.211,5.77,1.565-7.2,1.565-7.2" transform="translate(32.303 7.916)" fill="#fea094"/>
              <path id="Trazado_894247" data-name="Trazado 894247" d="M48.618,17.421s-3.269-1.69-2.646,1.429,2.185,7.018,4.212,5.77-1.566-7.2-1.566-7.2" transform="translate(21.416 7.916)" fill="#fea094"/>
              <path id="Trazado_894248" data-name="Trazado 894248" d="M57.26,27.136a6.08,6.08,0,0,0,2.361.855,5.746,5.746,0,0,0,4.67-1.041" transform="translate(26.72 12.576)" fill="none" stroke="#000" stroke-linecap="round" stroke-linejoin="round" stroke-width="0.291"/>
              <path id="Trazado_894249" data-name="Trazado 894249" d="M57.238,17.921c0,.44-.7.309-1.77.309s-2.125.131-2.125-.309.873-.8,1.948-.8,1.948.356,1.948.8" transform="translate(24.892 7.991)"/>
              <path id="Trazado_894250" data-name="Trazado 894250" d="M66.915,17.921c0,.44-.7.309-1.77.309s-2.125.131-2.125-.309.873-.8,1.948-.8,1.948.356,1.948.8" transform="translate(29.408 7.991)"/>
              <path id="Trazado_894251" data-name="Trazado 894251" d="M58.929,18.337s1.085,4.3.026,6.329c-2.21,4.221,1.723,2.113,2.477,2.593" transform="translate(27.2 8.557)" fill="none" stroke="#000" stroke-linecap="round" stroke-linejoin="round" stroke-width="0.362"/>
              <path id="Trazado_894252" data-name="Trazado 894252" d="M62.91,51.671s6.255-4.827,12.893-6.4" transform="translate(29.357 21.124)" fill="none" stroke="#f08783" stroke-miterlimit="10" stroke-width="1"/>
              <path id="Trazado_894253" data-name="Trazado 894253" d="M60.217,51.671s-6.255-4.827-12.893-6.4" transform="translate(22.083 21.124)" fill="none" stroke="#f08783" stroke-miterlimit="10" stroke-width="1"/>
              <path id="Trazado_894254" data-name="Trazado 894254" d="M93.8,74.313l-16.525,41.33-.616-14.675Z" transform="translate(35.774 34.678)" fill="#f08783"/>
              <path id="Trazado_894255" data-name="Trazado 894255" d="M29.761,74.313l16.525,41.33.616-14.675Z" transform="translate(13.888 34.678)" fill="#f08783"/>
              <path id="Trazado_894256" data-name="Trazado 894256" d="M45.962,81.089,44.426,93.133,40.2,120.317,41.562,98.1l1.481-23.76L41.577,57.637l5,17.262,18.641-.777Z" transform="translate(18.759 26.896)" fill="#f08783"/>
              <path id="Trazado_894257" data-name="Trazado 894257" d="M84.036,103.851l.956,16.162H81.635l-2-38.925L60.379,74.122,79.02,74.9l5-17.262V60.8L82.657,73.726Z" transform="translate(28.175 26.896)" fill="#f08783"/>
              <path id="Trazado_894258" data-name="Trazado 894258" d="M41.589,55.854c.557-2.127,1.188-4.209,1.863-6.292a21.7,21.7,0,0,0,1.5-4.165c-.1.176-.205.352-.293.528-.748,1.437-1.657,2.8-2.508,4.18-2.141,3.461-4.268,6.937-6.409,10.4q-3.52,5.742-7.055,11.469-1.914,3.08-3.784,6.16l7.744-3.916c2.405-1.232,4.825-2.449,7.172-3.8,2.523-1.437,4.887-1.591,6.705-3.85s3.168-3.945,3.033-6.754c0,0-8.351.373-8.448-.87a10.436,10.436,0,0,1,.484-3.09" transform="translate(11.619 21.184)" fill="#f08783"/>
              <path id="Trazado_894259" data-name="Trazado 894259" d="M84.373,55.854c-.557-2.127-1.188-4.209-1.863-6.292a21.6,21.6,0,0,1-1.5-4.165c.1.176.205.352.293.528.748,1.437,1.657,2.8,2.508,4.18,2.141,3.461,4.268,6.937,6.409,10.4q3.52,5.742,7.055,11.469,1.914,3.08,3.782,6.16l-7.742-3.916c-2.405-1.232-4.825-2.449-7.172-3.8-2.523-1.437-4.887-1.591-6.705-3.85s-3.169-3.945-3.033-6.754c0,0,8.351.373,8.448-.87a10.436,10.436,0,0,0-.484-3.09" transform="translate(35.651 21.184)" fill="#f08783"/>
              <path id="Trazado_894260" data-name="Trazado 894260" d="M40.2,100.456l54.209-.29v4.651L70.976,129H65.008l-24.8-24.34Z" transform="translate(18.759 46.742)" fill="#5c3f36"/>
              <path id="Trazado_894261" data-name="Trazado 894261" d="M55.141,3.18l.082-.051c.6-.38,1.808-1.011,1.979-1.767q-.394,1.753-.789,3.508a3.976,3.976,0,0,1,2.458-2.042A49.142,49.142,0,0,1,67.79,0a2.978,2.978,0,0,0-1.471,1.836,18.634,18.634,0,0,1,8.944.032,12.444,12.444,0,0,1,7.216,5.088,20.49,20.49,0,0,1,2.756,7.788c.535,4.472-1.119,8.247-3.125,12.279-9.994-3.4-18.11-6.1-25.449-13.69.986,5.71-2.435,11.1-6.661,15.067a16.223,16.223,0,0,1-.722-19.842,3.451,3.451,0,0,1,2.19-1.319,14.422,14.422,0,0,1,1.671-2.5,8.279,8.279,0,0,1,2-1.563" transform="translate(21.576)"/>
            </g>
          </g>
        </g>
      </g>
      <rect id="Rectángulo_402814" data-name="Rectángulo 402814" width="52" height="9" transform="translate(964.131 6252.346) rotate(-57)" fill="#14e95b"/>
    </g>
  </g>
</svg>
