<svg xmlns="http://www.w3.org/2000/svg" xmlns:xlink="http://www.w3.org/1999/xlink" width="295.093" height="230" viewBox="0 0 295.093 230">
  <defs>
    <clipPath id="clip-path">
      <rect id="Rectángulo_402417" data-name="Rectángulo 402417" width="295" height="36.333" fill="#e3dcd9"/>
    </clipPath>
    <clipPath id="clip-path-2">
      <rect id="Rectángulo_402424" data-name="Rectángulo 402424" width="103.809" height="64.867" transform="translate(0 0.001)" fill="#454964"/>
    </clipPath>
    <clipPath id="clip-path-3">
      <rect id="Rectángulo_402823" data-name="Rectángulo 402823" width="84.089" height="220.098" fill="none"/>
    </clipPath>
  </defs>
  <g id="Grupo_1102412" data-name="Grupo 1102412" transform="translate(-390.098 -9925)">
    <g id="Grupo_1102321" data-name="Grupo 1102321" transform="translate(-524.903 694.198)">
      <g id="Grupo_1101572" data-name="Grupo 1101572" transform="translate(19556.73 11380.939)">
        <path id="retrato-de-una-persona-reparando-ropa-y-materiales-de-fijacion" d="M0,0H215a80,80,0,0,1,80,80v75.167a0,0,0,0,1,0,0H0a0,0,0,0,1,0,0V0A0,0,0,0,1,0,0Z" transform="translate(-18641.73 -2075.631)" fill="#727aa6"/>
        <g id="Grupo_1101548" data-name="Grupo 1101548" transform="translate(-18641.73 -1956.797)">
          <g id="Grupo_1101547" data-name="Grupo 1101547" clip-path="url(#clip-path)">
            <path id="Trazado_892350" data-name="Trazado 892350" d="M.522,1.557c29.44-.195,29.51,16.009,58.95,15.814S88.842.974,118.282.779s29.51,16.009,58.951,15.815S206.605.2,236.047,0,265.558,16.011,295,15.816l-.034-.713-.556,21.23H0L.557,1.221" transform="translate(0 0)" fill="#e3dcd9"/>
          </g>
        </g>
        <g id="Grupo_1101571" data-name="Grupo 1101571" transform="translate(-18632 -2094)">
          <g id="Grupo_1101570" data-name="Grupo 1101570" clip-path="url(#clip-path-2)">
            <path id="Trazado_892357" data-name="Trazado 892357" d="M5.117,2.559A2.559,2.559,0,1,1,2.558,0,2.559,2.559,0,0,1,5.117,2.559" fill="#454964"/>
            <path id="Trazado_892358" data-name="Trazado 892358" d="M24.856,2.559A2.559,2.559,0,1,1,22.3,0a2.559,2.559,0,0,1,2.559,2.559" fill="#454964"/>
            <path id="Trazado_892359" data-name="Trazado 892359" d="M44.594,2.559A2.559,2.559,0,1,1,42.035,0a2.559,2.559,0,0,1,2.559,2.559" fill="#454964"/>
            <path id="Trazado_892360" data-name="Trazado 892360" d="M64.332,2.559A2.559,2.559,0,1,1,61.773,0a2.559,2.559,0,0,1,2.559,2.559" fill="#454964"/>
            <path id="Trazado_892361" data-name="Trazado 892361" d="M84.071,2.559A2.558,2.558,0,1,1,81.512,0a2.559,2.559,0,0,1,2.559,2.559" fill="#454964"/>
            <path id="Trazado_892362" data-name="Trazado 892362" d="M103.809,2.559A2.558,2.558,0,1,1,101.25,0a2.559,2.559,0,0,1,2.559,2.559" fill="#454964"/>
            <path id="Trazado_892363" data-name="Trazado 892363" d="M5.117,22.3a2.559,2.559,0,1,1-2.559-2.559A2.559,2.559,0,0,1,5.117,22.3" fill="#454964"/>
            <path id="Trazado_892364" data-name="Trazado 892364" d="M24.856,22.3A2.559,2.559,0,1,1,22.3,19.738,2.559,2.559,0,0,1,24.856,22.3" fill="#454964"/>
            <path id="Trazado_892365" data-name="Trazado 892365" d="M44.594,22.3a2.559,2.559,0,1,1-2.559-2.559A2.559,2.559,0,0,1,44.594,22.3" fill="#454964"/>
            <path id="Trazado_892366" data-name="Trazado 892366" d="M64.332,22.3a2.559,2.559,0,1,1-2.559-2.559A2.559,2.559,0,0,1,64.332,22.3" fill="#454964"/>
            <path id="Trazado_892367" data-name="Trazado 892367" d="M84.071,22.3a2.558,2.558,0,1,1-2.559-2.559A2.559,2.559,0,0,1,84.071,22.3" fill="#454964"/>
            <path id="Trazado_892368" data-name="Trazado 892368" d="M103.809,22.3a2.558,2.558,0,1,1-2.559-2.559,2.559,2.559,0,0,1,2.559,2.559" fill="#454964"/>
            <path id="Trazado_892369" data-name="Trazado 892369" d="M5.117,42.3a2.559,2.559,0,1,1-2.559-2.559A2.559,2.559,0,0,1,5.117,42.3" fill="#454964"/>
            <path id="Trazado_892370" data-name="Trazado 892370" d="M24.856,42.3A2.559,2.559,0,1,1,22.3,39.744,2.559,2.559,0,0,1,24.856,42.3" fill="#454964"/>
            <path id="Trazado_892371" data-name="Trazado 892371" d="M44.594,42.3a2.559,2.559,0,1,1-2.559-2.559A2.559,2.559,0,0,1,44.594,42.3" fill="#454964"/>
            <path id="Trazado_892372" data-name="Trazado 892372" d="M64.332,42.3a2.559,2.559,0,1,1-2.559-2.559A2.559,2.559,0,0,1,64.332,42.3" fill="#454964"/>
            <path id="Trazado_892373" data-name="Trazado 892373" d="M84.071,42.3a2.558,2.558,0,1,1-2.559-2.559A2.559,2.559,0,0,1,84.071,42.3" fill="#454964"/>
            <path id="Trazado_892374" data-name="Trazado 892374" d="M103.809,42.3a2.558,2.558,0,1,1-2.559-2.559,2.559,2.559,0,0,1,2.559,2.559" fill="#454964"/>
            <path id="Trazado_892375" data-name="Trazado 892375" d="M5.117,62.309A2.559,2.559,0,1,1,2.558,59.75a2.559,2.559,0,0,1,2.559,2.559" fill="#454964"/>
            <path id="Trazado_892376" data-name="Trazado 892376" d="M24.856,62.309A2.559,2.559,0,1,1,22.3,59.75a2.559,2.559,0,0,1,2.559,2.559" fill="#454964"/>
            <path id="Trazado_892377" data-name="Trazado 892377" d="M44.594,62.309a2.559,2.559,0,1,1-2.559-2.559,2.559,2.559,0,0,1,2.559,2.559" fill="#454964"/>
            <path id="Trazado_892378" data-name="Trazado 892378" d="M64.332,62.309a2.559,2.559,0,1,1-2.559-2.559,2.559,2.559,0,0,1,2.559,2.559" fill="#454964"/>
            <path id="Trazado_892379" data-name="Trazado 892379" d="M84.071,62.309a2.558,2.558,0,1,1-2.559-2.559,2.559,2.559,0,0,1,2.559,2.559" fill="#454964"/>
            <path id="Trazado_892380" data-name="Trazado 892380" d="M103.809,62.309a2.558,2.558,0,1,1-2.559-2.559,2.559,2.559,0,0,1,2.559,2.559" fill="#454964"/>
          </g>
        </g>
      </g>
    </g>
    <g id="Grupo_1102407" data-name="Grupo 1102407" transform="translate(116.545 31.952)">
      <g id="Grupo_1102265" data-name="Grupo 1102265" transform="translate(378.455 9902.624)">
        <path id="Trazado_894341" data-name="Trazado 894341" d="M334.2,2802.183l-.216,13.766-7.23-.385-2.374-16.365Z" transform="translate(-301.772 -2604.094)" fill="#febda9"/>
        <path id="Trazado_894342" data-name="Trazado 894342" d="M820.665,2802.183l3.519,13.766,7.137-.385-1.552-16.366Z" transform="translate(-763.464 -2604.094)" fill="#febda9"/>
        <g id="Grupo_1102262" data-name="Grupo 1102262" transform="translate(0 0)">
          <g id="Grupo_1102261" data-name="Grupo 1102261" transform="translate(0 0)" clip-path="url(#clip-path-3)">
            <path id="Trazado_894343" data-name="Trazado 894343" d="M233.509,1675.055c-1.466,14.01,2.444,68.423,6.028,83.411,4.724,1.955,10.915,1.3,10.915,1.3l3.421-64.84,2.118.163,17.649,64.912s10.183-1.114,10.614-3.1c-1.3-21.668-11.483-79.4-11.483-79.4Z" transform="translate(-216.939 -1558.304)" fill="#a6826d"/>
            <path id="Trazado_894344" data-name="Trazado 894344" d="M466.025,1950.17a26.844,26.844,0,0,0-11.9-1.669l-.03-.337a27.149,27.149,0,0,1,12.07,1.7Z" transform="translate(-422.441 -1812.279)" fill="#5c3f36"/>
            <path id="Trazado_894345" data-name="Trazado 894345" d="M511.548,1918.63a15.247,15.247,0,0,0-7.342-2.307l.024-.338a15.579,15.579,0,0,1,7.518,2.372Z" transform="translate(-469.063 -1782.44)" fill="#5c3f36"/>
            <path id="Trazado_894346" data-name="Trazado 894346" d="M873.967,1111.367c-.156,4.345-12.135,27.207-13.136,28-.582.453-1.956-1.672-2.951-4a10.566,10.566,0,0,1-1.11-4.528c.054-.352.23-1.1.494-2.1,1.469-5.529,5.543-18.99,5.543-18.99l-1.2-5.692-1.069-5.035,10.815-3.032s.237.941.562,2.382c.805,3.485,2.166,9.915,2.057,12.994" transform="translate(-797.03 -1019.6)" fill="#febda9"/>
            <path id="Trazado_894347" data-name="Trazado 894347" d="M922.47,1098.373c-3.194,3.912-7.979,5.252-10.307,5.685l-1.069-5.035,10.815-3.032s.237.941.562,2.382" transform="translate(-847.59 -1019.6)" fill="#ca6c90"/>
            <path id="Trazado_894348" data-name="Trazado 894348" d="M861.535,1573.8c-.095,1.428-2.146-.041-3.655-1.32a10.565,10.565,0,0,1-1.11-4.528c.054-.352.23-1.1.494-2.1,4.379,2.924,4.413,5.827,4.271,7.945" transform="translate(-797.03 -1456.715)" fill="#ca6c90"/>
            <path id="Trazado_894349" data-name="Trazado 894349" d="M11.452,1127.834C10.5,1126.989-.107,1103.45,0,1099.105a57.94,57.94,0,0,1,2.024-10.571c.528-2,.947-3.418.947-3.418l11.444,4.453-1.875,5.049-1.306,3.533s4.561,19.085,4.771,21.413-3.6,9.116-4.555,8.27" transform="translate(0 -1009.483)" fill="#febda9"/>
            <path id="Trazado_894350" data-name="Trazado 894350" d="M41.436,1089.569l-1.875,5.049c-2.944-.751-7.654-2.47-10.517-6.084.528-2,.948-3.418.948-3.418Z" transform="translate(-27.02 -1009.483)" fill="#ca6c90"/>
            <path id="Trazado_894351" data-name="Trazado 894351" d="M68.744,604.28l-2.822,52.457s-4.825,4.474-20.818,4-21.055-6.47-21.055-6.47,1.645-13.644,2.47-22.226.941-26.7.941-26.7L23.129,617.8c-2.971-.386-11.045-2.8-13.989-5.726,2.924-10.456,9.421-22.929,11.614-25.2,2.172-2.247,10.246-6.321,15.519-8.846a79.656,79.656,0,0,1,7.525-2.876l6.289.316s6.246,1.688,8.7,2.371c5.252,1.455,13.935,4.223,16.662,7.269,2.572,2.876,7.45,15.634,9.488,26.436-1.969,2.707-8.522,6.412-14.1,5.194Z" transform="translate(-8.503 -535.063)" fill="#e3e4ed"/>
            <path id="Trazado_894352" data-name="Trazado 894352" d="M420.92,577.838a18.263,18.263,0,0,1-22.51.19,79.657,79.657,0,0,1,7.525-2.876l6.289.315s6.246,1.688,8.7,2.371" transform="translate(-370.641 -535.063)" fill="#febda9"/>
            <path id="Trazado_894353" data-name="Trazado 894353" d="M120.219,1540.009l-5.408,6.666c-1.569.222-3.352-1.992-3.845-3.7a2.277,2.277,0,0,1,.258-1.662,11,11,0,0,1,5.259-4.846,5.073,5.073,0,0,1,2.213-.332c1.509.129,1.523,3.749,1.523,3.878" transform="translate(-103.17 -1429.048)" fill="#452963"/>
            <path id="Trazado_894354" data-name="Trazado 894354" d="M123.092,1544.2a14.527,14.527,0,0,1-3.817,4.541c-.636.3-2.579-1.286-3.716-2.8a11,11,0,0,1,5.259-4.846c1.184,1.083,2.4,2.585,2.274,3.106" transform="translate(-107.505 -1433.679)" fill="#1f0f30"/>
            <path id="Trazado_894355" data-name="Trazado 894355" d="M115.868,1539.734c-.527,1.054,2.78,4.3,3.567,3.934a11.565,11.565,0,0,0,3.042-3.619c.157-.629-2.151-3.042-3.095-3.409s-3.2,2.465-3.514,3.095" transform="translate(-107.74 -1429.505)" fill="#452963"/>
            <path id="Trazado_894356" data-name="Trazado 894356" d="M128.135,1545.929l-5.326.995c-.217-.406-.21-.6-.19-.636.338-.677,2.227-2.863,2.9-2.863a8.914,8.914,0,0,1,2.612,2.5" transform="translate(-114.064 -1435.848)" fill="#9161a8"/>
            <path id="Trazado_894357" data-name="Trazado 894357" d="M153.008,1568.951c.116,4.28,4.241,3.589,4.241,3.589l4.208,2.717a1.287,1.287,0,0,0,1.607-1.991l-3.6-3.6,6.3,2.222a1.765,1.765,0,0,0,2.166-.875l.9-1.793a1.764,1.764,0,0,0-.977-2.448l-6.423-2.326,6.03.416a1.627,1.627,0,0,0,.26-3.244l-5.684-.521a8.042,8.042,0,0,0-8.14,4.587,7.938,7.938,0,0,0-.884,3.264" transform="translate(-142.342 -1452.248)" fill="#febda9"/>
            <path id="Trazado_894358" data-name="Trazado 894358" d="M196.779,1578.74c-.058-.182-1.384-4.521,2.774-9.1l.5.455c-3.883,4.28-2.643,8.4-2.631,8.442Z" transform="translate(-182.834 -1460.233)" fill="#fed0bc"/>
            <path id="Trazado_894359" data-name="Trazado 894359" d="M258.685,1646.048l-8.51-3.374,8.746,2.739Z" transform="translate(-232.738 -1528.18)" fill="#ca6c90"/>
            <path id="Trazado_894360" data-name="Trazado 894360" d="M707.762,1579.358c-.116,4.28-4.241,3.589-4.241,3.589l-4.208,2.717a1.287,1.287,0,0,1-1.607-1.991l3.6-3.6-6.3,2.222a1.764,1.764,0,0,1-2.166-.875l-.9-1.793a1.765,1.765,0,0,1,.977-2.448l6.423-2.327-6.03.416a1.628,1.628,0,0,1-.26-3.244l5.684-.521a8.043,8.043,0,0,1,8.14,4.587,7.938,7.938,0,0,1,.884,3.264" transform="translate(-643.372 -1461.929)" fill="#febda9"/>
            <path id="Trazado_894361" data-name="Trazado 894361" d="M833.053,1589.148c.058-.182,1.384-4.521-2.774-9.1l-.5.455c3.883,4.28,2.643,8.4,2.63,8.442Z" transform="translate(-771.942 -1469.916)" fill="#fed0bc"/>
            <path id="Trazado_894362" data-name="Trazado 894362" d="M701.411,1656.95l8.281-3.337-8.517,2.7Z" transform="translate(-652.303 -1538.356)" fill="#ca6c90"/>
            <path id="Trazado_894363" data-name="Trazado 894363" d="M366.08,313.108c-2.915-1.364-3.935-.51-4.362,1.782s1.825,5.682,2.982,6.237,2.051-1.388,2.051-1.388Z" transform="translate(-336.457 -290.676)" fill="#fe9e9b"/>
            <path id="Trazado_894364" data-name="Trazado 894364" d="M682.336,302.628c2.82-1.55,3.894-.764,4.469,1.5s-1.453,5.789-2.572,6.417-2.137-1.252-2.137-1.252Z" transform="translate(-634.554 -280.785)" fill="#fe9e9b"/>
            <path id="Trazado_894365" data-name="Trazado 894365" d="M473.587,472.432l-14.2-.237s.122-1.949.257-4.061c.156-2.463.338-5.15.379-5.279l12.845-1.117.25,3.749Z" transform="translate(-427.369 -429.556)" fill="#febda9"/>
            <path id="Trazado_894366" data-name="Trazado 894366" d="M476.553,465.488a10.184,10.184,0,0,1-13.475,2.646c.156-2.463.338-5.15.379-5.279l12.845-1.117Z" transform="translate(-430.801 -429.556)" fill="#ca6c90"/>
            <path id="Trazado_894367" data-name="Trazado 894367" d="M427.731,103.7c-.155-2.428-1.954-9.97-9.941-10.142a3.306,3.306,0,0,0-.354-.009c-.062,0-.12.008-.181.011s-.119,0-.181,0a3.3,3.3,0,0,0-.353.032c-7.959.689-9.266,8.332-9.263,10.764,0,2.5.566,10.232.95,12.41.37,2.1,3.794,8.678,9.431,8.976a1.416,1.416,0,0,0,.279.021c.061,0,.12-.009.181-.013s.12,0,.181,0a1.413,1.413,0,0,0,.277-.039c5.606-.662,8.6-7.448,8.829-9.568.242-2.2.3-9.947.144-12.446" transform="translate(-379.058 -87.026)" fill="#febda9"/>
            <path id="Trazado_894368" data-name="Trazado 894368" d="M382.341,342.31c-.424-.269-.624-.565-.595-.878.04-.427.506-.744.728-.871-.118-.746-.524-2.464-1.241-2.919a.6.6,0,0,0-.4-.1l-.049-.325a1.051,1.051,0,0,1,.7.167c1.036.658,1.391,3.134,1.405,3.239l.015.107-.115.055c-.169.081-.614.359-.642.671-.018.2.131.4.444.6Z" transform="translate(-354.241 -313.705)" fill="#ca6c90"/>
            <path id="Trazado_894369" data-name="Trazado 894369" d="M429.024,208.009a16.483,16.483,0,0,1,6.612-1.262,2.278,2.278,0,0,0-.958-1.427c-2.772.227-5.654,2.69-5.654,2.69" transform="translate(-399.121 -191.008)" fill="#452963"/>
            <path id="Trazado_894370" data-name="Trazado 894370" d="M472.382,277.261a1.419,1.419,0,0,1-1.133,1.607c-.654.021-1.206-.664-1.234-1.531a1.419,1.419,0,0,1,1.133-1.607c.654-.021,1.206.664,1.234,1.531" transform="translate(-437.254 -256.512)" fill="#0f0546"/>
            <path id="Trazado_894371" data-name="Trazado 894371" d="M704.232,331.133c.405-.3.586-.6.537-.915-.067-.424-.553-.709-.783-.822.069-.752.363-2.492,1.049-2.993a.6.6,0,0,1,.4-.128l.028-.328a1.051,1.051,0,0,0-.689.212c-.991.724-1.185,3.217-1.193,3.323l-.008.108.118.047c.174.07.636.318.684.628.031.2-.105.405-.4.624Z" transform="translate(-654.531 -303.228)" fill="#ca6c90"/>
            <path id="Trazado_894372" data-name="Trazado 894372" d="M587.328,204.949a16.484,16.484,0,0,0-6.68-.831,2.279,2.279,0,0,1,.863-1.486c2.781.047,5.817,2.318,5.817,2.318" transform="translate(-540.177 -188.508)" fill="#452963"/>
            <path id="Trazado_894373" data-name="Trazado 894373" d="M605.146,272.956c.028.867.581,1.552,1.234,1.531a1.419,1.419,0,0,0,1.133-1.608c-.028-.867-.581-1.552-1.234-1.531a1.419,1.419,0,0,0-1.133,1.607" transform="translate(-562.966 -252.435)" fill="#0f0546"/>
            <path id="Trazado_894374" data-name="Trazado 894374" d="M507.851,426a7.508,7.508,0,0,1-3.966-.868l.2-.347c2.953,1.693,7.108.34,7.521-.168l.311.252a7.2,7.2,0,0,1-4.065,1.13" transform="translate(-468.764 -395.021)" fill="#ca6c90"/>
            <path id="Trazado_894375" data-name="Trazado 894375" d="M373.863,87.28a17.6,17.6,0,0,0,1.806,3.133s-1.048-7.8.5-10.906c2.961-1.136,3.585-4.521,3.542-5.865s.4-2.644-2.4-2.186-4.683,4.618-4.833,5.663.864,2.113.738,3.892a17.514,17.514,0,0,0,.64,6.27" transform="translate(-346.509 -66.388)" fill="#452963"/>
            <path id="Trazado_894376" data-name="Trazado 894376" d="M636.617,96.634c-.006.056-.008.116-.014.173-.03.325-.062.671-.1,1.032-.221,2.065-.581,4.555-.632,6.077a6.8,6.8,0,0,1-1.538,3.557s.647-5.59-1.167-9.946a11.4,11.4,0,0,0-.511-1.068s0,0,0,0a7.563,7.563,0,0,0-2.868-3.026s1.616-2.867,4.09-2.15,2.916,3.148,2.744,5.355" transform="translate(-585.888 -84.81)" fill="#452963"/>
            <path id="Trazado_894377" data-name="Trazado 894377" d="M527.974,371.726c1.162,1.294,4.172.773,4.57-.027a4.674,4.674,0,0,0-4.57.027" transform="translate(-491.174 -345.253)" fill="#ca6c90"/>
            <path id="Trazado_894378" data-name="Trazado 894378" d="M527.749,292.45l-.353-.187a14.026,14.026,0,0,0,1.115-6.461l.4-.013a14.129,14.129,0,0,1-1.161,6.661" transform="translate(-490.636 -265.87)" fill="#ca6c90"/>
            <path id="Trazado_894379" data-name="Trazado 894379" d="M452.063,6.471s-1.6,3.6-8.567,3.7c-6.866.1-12.132-3.41-7.226-9.882L436.5,0a2.646,2.646,0,0,0,.182.3,5.654,5.654,0,0,0,4.738,2.416c3.585.068,6.407-1.048,7.911-.216a.164.164,0,0,1,.037.019,3.3,3.3,0,0,1,.749.624,12.592,12.592,0,0,1,1.949,3.328" transform="translate(-404.077 -0.002)" fill="#452963"/>
            <path id="Trazado_894380" data-name="Trazado 894380" d="M475.282,3.143c-1.42-.691-2.14.17-3.146,1.363a8.381,8.381,0,0,1-2.89,2.484,6.083,6.083,0,0,1-2.34.556,5.269,5.269,0,0,1-3.2-.905c-1.188-.838-2.527-2.616-2.267-6.348L461.665,0a2.658,2.658,0,0,0,.182.3c-.261,3.559.982,5.232,2.089,6.013a5.248,5.248,0,0,0,5.142.314,8.122,8.122,0,0,0,2.753-2.379c.81-.963,1.546-1.84,2.666-1.748a.157.157,0,0,1,.037.019,3.3,3.3,0,0,1,.749.624" transform="translate(-429.246 -0.002)" fill="#9161a8"/>
            <path id="Trazado_894381" data-name="Trazado 894381" d="M435.239,80.251a6.27,6.27,0,0,1-2.716-3.625l.389-.1a5.879,5.879,0,0,0,2.552,3.39Z" transform="translate(-402.376 -71.196)" fill="#1f0f30"/>
            <path id="Trazado_894382" data-name="Trazado 894382" d="M674.943,167.474c-.03.325-.062.671-.1,1.032a1.721,1.721,0,0,1-.768.517,1.8,1.8,0,0,1-.486.084,3.183,3.183,0,0,1-2.083-.913,11.382,11.382,0,0,0-.511-1.068c1.076,1.222,2.147,1.78,2.956,1.517a1.663,1.663,0,0,0,.991-1.169" transform="translate(-624.227 -155.477)" fill="#1f0f30"/>
            <path id="Trazado_894383" data-name="Trazado 894383" d="M309.774,2851.664l12.562,1.256-.168,2.429-11.892-1.089Z" transform="translate(-288.183 -2652.903)" fill="#5c3f36"/>
            <path id="Trazado_894384" data-name="Trazado 894384" d="M797.174,2842.431l.921,2.094,11.625-2.311-.06-2.394Z" transform="translate(-741.61 -2641.884)" fill="#5c3f36"/>
            <path id="Trazado_894385" data-name="Trazado 894385" d="M828.76,2989.684a45.527,45.527,0,0,0,4.732.331c.224.007.448.014.678.014,1.919.034,4.015.014,6.1-.034h.007l.587-.02c6.876-.2,13.494-.724,13.494-.724-.209-.893-1.828-2.132-3.966-3.425-.332-.2-.685-.4-1.045-.6-.554-.311-1.129-.63-1.716-.934-.358-.19-.723-.379-1.081-.562-.686-.345-1.378-.684-2.041-1.009-.37-.176-.733-.345-1.089-.514-.469-.216-.931-.426-1.357-.616-.391-.183-.767-.345-1.108-.494a20.754,20.754,0,0,0-2.521-1c-.283.074-2.092,2.254-4.182,2.4s-2.115-1.448-3.429-1.523c-.545-.034-1.021,1.232-1.376,2.822-.052.217-.1.44-.14.67a26.077,26.077,0,0,0-.549,5.225" transform="translate(-770.981 -2772.38)" fill="#453028"/>
            <path id="Trazado_894386" data-name="Trazado 894386" d="M1008.648,3034.237l.475.528c.025-.021,1.872-1.577,5.873-1.956-.358-.19-.723-.379-1.081-.562a10.629,10.629,0,0,0-5.267,1.99" transform="translate(-938.345 -2820.899)" fill="#f2e7da"/>
            <path id="Trazado_894387" data-name="Trazado 894387" d="M975.839,3012.241l.482.528a10.462,10.462,0,0,1,5.03-1.854c-.37-.176-.733-.345-1.089-.514a9.925,9.925,0,0,0-4.423,1.841" transform="translate(-907.823 -2800.575)" fill="#f2e7da"/>
            <path id="Trazado_894388" data-name="Trazado 894388" d="M943.89,2996.262l.475.528a10.43,10.43,0,0,1,4.817-1.821c-.392-.183-.767-.345-1.108-.494a9.8,9.8,0,0,0-4.185,1.787" transform="translate(-878.101 -2785.76)" fill="#f2e7da"/>
            <path id="Trazado_894389" data-name="Trazado 894389" d="M991.156,3058.322l.206.156h.007l.359.264c.006-.007.077-.108.227-.284.79-.92,3.733-3.837,9.527-4.149-.332-.2-.685-.4-1.044-.6-6.491.643-9.165,4.44-9.282,4.616" transform="translate(-922.072 -2840.862)" fill="#913d3d"/>
            <path id="Trazado_894390" data-name="Trazado 894390" d="M841.013,3039.348a1.238,1.238,0,0,1,0,.2l.682.115a2,2,0,0,0,0-.3c-.057-.927-.573-3.79-4.722-6.24-.052.217-.1.44-.14.67,3.752,2.281,4.148,4.839,4.183,5.557" transform="translate(-778.503 -2821.712)" fill="#913d3d"/>
            <path id="Trazado_894391" data-name="Trazado 894391" d="M846.384,3107.4h-25.9a.364.364,0,0,0-.369.412l.282,2.687a.47.47,0,0,0,.456.413H846.67a.364.364,0,0,0,.37-.4l-.2-2.687a.469.469,0,0,0-.457-.425" transform="translate(-762.952 -2890.811)" fill="#f2e7da"/>
            <path id="Trazado_894392" data-name="Trazado 894392" d="M146.021,2989.684a45.533,45.533,0,0,1-4.732.331c-.224.007-.448.014-.678.014-1.919.034-4.015.014-6.1-.034H134.5l-.587-.02c-6.876-.2-13.494-.724-13.494-.724.209-.893,1.828-2.132,3.966-3.425.332-.2.685-.4,1.045-.6.554-.311,1.129-.63,1.715-.934.358-.19.723-.379,1.081-.562.686-.345,1.378-.684,2.041-1.009.37-.176.733-.345,1.089-.514.469-.216.931-.426,1.357-.616.391-.183.767-.345,1.108-.494a20.738,20.738,0,0,1,2.521-1c.283.074,2.092,2.254,4.182,2.4s3.009-1.193,3.693-1.281c.542-.07.757.99,1.112,2.581.052.217.1.44.14.67a26.078,26.078,0,0,1,.549,5.225" transform="translate(-112.029 -2772.38)" fill="#453028"/>
            <path id="Trazado_894393" data-name="Trazado 894393" d="M223.273,3034.237l-.475.528c-.025-.021-1.872-1.577-5.872-1.956.358-.19.723-.379,1.081-.562a10.629,10.629,0,0,1,5.266,1.99" transform="translate(-201.806 -2820.899)" fill="#f2e7da"/>
            <path id="Trazado_894394" data-name="Trazado 894394" d="M267.233,3012.241l-.482.528a10.462,10.462,0,0,0-5.03-1.854c.37-.176.733-.345,1.089-.514a9.925,9.925,0,0,1,4.423,1.841" transform="translate(-243.479 -2800.575)" fill="#f2e7da"/>
            <path id="Trazado_894395" data-name="Trazado 894395" d="M302.115,2996.262l-.475.528a10.43,10.43,0,0,0-4.817-1.821c.391-.183.767-.345,1.108-.494a9.8,9.8,0,0,1,4.185,1.787" transform="translate(-276.134 -2785.76)" fill="#f2e7da"/>
            <path id="Trazado_894396" data-name="Trazado 894396" d="M187.656,3058.322l-.206.156h-.007l-.359.264c-.006-.007-.077-.108-.227-.284-.79-.92-3.733-3.837-9.527-4.149.332-.2.685-.4,1.044-.6,6.491.643,9.165,4.44,9.282,4.616" transform="translate(-164.969 -2840.862)" fill="#913d3d"/>
            <path id="Trazado_894397" data-name="Trazado 894397" d="M410.64,3039.348a1.246,1.246,0,0,0,0,.2l-.682.115a1.988,1.988,0,0,1,0-.3c.057-.927.573-3.79,4.722-6.24.052.217.1.44.14.67-3.752,2.281-4.148,4.839-4.183,5.557" transform="translate(-381.381 -2821.712)" fill="#913d3d"/>
            <path id="Trazado_894398" data-name="Trazado 894398" d="M110.856,3107.4h25.9a.364.364,0,0,1,.369.412l-.282,2.687a.469.469,0,0,1-.456.413H110.571a.364.364,0,0,1-.37-.4l.2-2.687a.469.469,0,0,1,.457-.425" transform="translate(-102.519 -2890.811)" fill="#f2e7da"/>
          </g>
        </g>
      </g>
      <rect id="Rectángulo_402826" data-name="Rectángulo 402826" width="18.313" height="5.35" transform="translate(415.037 10105.946) rotate(-180)" fill="#14e95b"/>
    </g>
    <rect id="Rectángulo_402908" data-name="Rectángulo 402908" width="295" height="230" transform="translate(390.19 9925)" fill="none"/>
  </g>
</svg>
