<svg xmlns="http://www.w3.org/2000/svg" xmlns:xlink="http://www.w3.org/1999/xlink" width="295.093" height="230" viewBox="0 0 295.093 230">
  <defs>
    <clipPath id="clip-path">
      <rect id="Rectángulo_402417" data-name="Rectángulo 402417" width="295" height="36.333" fill="#e3dcd9"/>
    </clipPath>
    <clipPath id="clip-path-2">
      <rect id="Rectángulo_402424" data-name="Rectángulo 402424" width="103.809" height="64.867" transform="translate(0 0.001)" fill="#454964"/>
    </clipPath>
    <clipPath id="clip-path-3">
      <rect id="Rectángulo_402821" data-name="Rectángulo 402821" width="201.091" height="224.06" fill="none"/>
    </clipPath>
    <clipPath id="clip-path-5">
      <rect id="Rectángulo_402818" data-name="Rectángulo 402818" width="66.684" height="67.478" fill="#7eadbf"/>
    </clipPath>
    <clipPath id="clip-path-6">
      <rect id="Rectángulo_402819" data-name="Rectángulo 402819" width="20.33" height="6.736" fill="none"/>
    </clipPath>
  </defs>
  <g id="Grupo_1102409" data-name="Grupo 1102409" transform="translate(-915.098 -8895)">
    <g id="Grupo_1102404" data-name="Grupo 1102404">
      <g id="Grupo_1102317" data-name="Grupo 1102317" transform="translate(0.097 -336.193)">
        <g id="Grupo_1101572" data-name="Grupo 1101572" transform="translate(19556.73 11380.939)">
          <path id="retrato-de-una-persona-reparando-ropa-y-materiales-de-fijacion" d="M0,0H215a80,80,0,0,1,80,80v75.167a0,0,0,0,1,0,0H0a0,0,0,0,1,0,0V0A0,0,0,0,1,0,0Z" transform="translate(-18641.73 -2075.631)" fill="#727aa6"/>
          <g id="Grupo_1101548" data-name="Grupo 1101548" transform="translate(-18641.73 -1956.797)">
            <g id="Grupo_1101547" data-name="Grupo 1101547" clip-path="url(#clip-path)">
              <path id="Trazado_892350" data-name="Trazado 892350" d="M.522,1.557c29.44-.195,29.51,16.009,58.95,15.814S88.842.974,118.282.779s29.51,16.009,58.951,15.815S206.605.2,236.047,0,265.558,16.011,295,15.816l-.034-.713-.556,21.23H0L.557,1.221" transform="translate(0 0)" fill="#e3dcd9"/>
            </g>
          </g>
          <g id="Grupo_1101571" data-name="Grupo 1101571" transform="translate(-18632 -2094)">
            <g id="Grupo_1101570" data-name="Grupo 1101570" clip-path="url(#clip-path-2)">
              <path id="Trazado_892357" data-name="Trazado 892357" d="M5.117,2.559A2.559,2.559,0,1,1,2.558,0,2.559,2.559,0,0,1,5.117,2.559" fill="#454964"/>
              <path id="Trazado_892358" data-name="Trazado 892358" d="M24.856,2.559A2.559,2.559,0,1,1,22.3,0a2.559,2.559,0,0,1,2.559,2.559" fill="#454964"/>
              <path id="Trazado_892359" data-name="Trazado 892359" d="M44.594,2.559A2.559,2.559,0,1,1,42.035,0a2.559,2.559,0,0,1,2.559,2.559" fill="#454964"/>
              <path id="Trazado_892360" data-name="Trazado 892360" d="M64.332,2.559A2.559,2.559,0,1,1,61.773,0a2.559,2.559,0,0,1,2.559,2.559" fill="#454964"/>
              <path id="Trazado_892361" data-name="Trazado 892361" d="M84.071,2.559A2.558,2.558,0,1,1,81.512,0a2.559,2.559,0,0,1,2.559,2.559" fill="#454964"/>
              <path id="Trazado_892362" data-name="Trazado 892362" d="M103.809,2.559A2.558,2.558,0,1,1,101.25,0a2.559,2.559,0,0,1,2.559,2.559" fill="#454964"/>
              <path id="Trazado_892363" data-name="Trazado 892363" d="M5.117,22.3a2.559,2.559,0,1,1-2.559-2.559A2.559,2.559,0,0,1,5.117,22.3" fill="#454964"/>
              <path id="Trazado_892364" data-name="Trazado 892364" d="M24.856,22.3A2.559,2.559,0,1,1,22.3,19.738,2.559,2.559,0,0,1,24.856,22.3" fill="#454964"/>
              <path id="Trazado_892365" data-name="Trazado 892365" d="M44.594,22.3a2.559,2.559,0,1,1-2.559-2.559A2.559,2.559,0,0,1,44.594,22.3" fill="#454964"/>
              <path id="Trazado_892366" data-name="Trazado 892366" d="M64.332,22.3a2.559,2.559,0,1,1-2.559-2.559A2.559,2.559,0,0,1,64.332,22.3" fill="#454964"/>
              <path id="Trazado_892367" data-name="Trazado 892367" d="M84.071,22.3a2.558,2.558,0,1,1-2.559-2.559A2.559,2.559,0,0,1,84.071,22.3" fill="#454964"/>
              <path id="Trazado_892368" data-name="Trazado 892368" d="M103.809,22.3a2.558,2.558,0,1,1-2.559-2.559,2.559,2.559,0,0,1,2.559,2.559" fill="#454964"/>
              <path id="Trazado_892369" data-name="Trazado 892369" d="M5.117,42.3a2.559,2.559,0,1,1-2.559-2.559A2.559,2.559,0,0,1,5.117,42.3" fill="#454964"/>
              <path id="Trazado_892370" data-name="Trazado 892370" d="M24.856,42.3A2.559,2.559,0,1,1,22.3,39.744,2.559,2.559,0,0,1,24.856,42.3" fill="#454964"/>
              <path id="Trazado_892371" data-name="Trazado 892371" d="M44.594,42.3a2.559,2.559,0,1,1-2.559-2.559A2.559,2.559,0,0,1,44.594,42.3" fill="#454964"/>
              <path id="Trazado_892372" data-name="Trazado 892372" d="M64.332,42.3a2.559,2.559,0,1,1-2.559-2.559A2.559,2.559,0,0,1,64.332,42.3" fill="#454964"/>
              <path id="Trazado_892373" data-name="Trazado 892373" d="M84.071,42.3a2.558,2.558,0,1,1-2.559-2.559A2.559,2.559,0,0,1,84.071,42.3" fill="#454964"/>
              <path id="Trazado_892374" data-name="Trazado 892374" d="M103.809,42.3a2.558,2.558,0,1,1-2.559-2.559,2.559,2.559,0,0,1,2.559,2.559" fill="#454964"/>
              <path id="Trazado_892375" data-name="Trazado 892375" d="M5.117,62.309A2.559,2.559,0,1,1,2.558,59.75a2.559,2.559,0,0,1,2.559,2.559" fill="#454964"/>
              <path id="Trazado_892376" data-name="Trazado 892376" d="M24.856,62.309A2.559,2.559,0,1,1,22.3,59.75a2.559,2.559,0,0,1,2.559,2.559" fill="#454964"/>
              <path id="Trazado_892377" data-name="Trazado 892377" d="M44.594,62.309a2.559,2.559,0,1,1-2.559-2.559,2.559,2.559,0,0,1,2.559,2.559" fill="#454964"/>
              <path id="Trazado_892378" data-name="Trazado 892378" d="M64.332,62.309a2.559,2.559,0,1,1-2.559-2.559,2.559,2.559,0,0,1,2.559,2.559" fill="#454964"/>
              <path id="Trazado_892379" data-name="Trazado 892379" d="M84.071,62.309a2.558,2.558,0,1,1-2.559-2.559,2.559,2.559,0,0,1,2.559,2.559" fill="#454964"/>
              <path id="Trazado_892380" data-name="Trazado 892380" d="M103.809,62.309a2.558,2.558,0,1,1-2.559-2.559,2.559,2.559,0,0,1,2.559,2.559" fill="#454964"/>
            </g>
          </g>
        </g>
      </g>
      <g id="Grupo_1102403" data-name="Grupo 1102403">
        <g id="Grupo_1102401" data-name="Grupo 1102401" transform="translate(962.396 8900.167)">
          <g id="Grupo_1102259" data-name="Grupo 1102259" clip-path="url(#clip-path-3)">
            <g id="Grupo_1102258" data-name="Grupo 1102258" transform="translate(0 0)">
              <g id="Grupo_1102257" data-name="Grupo 1102257" clip-path="url(#clip-path-3)">
                <path id="Trazado_894262" data-name="Trazado 894262" d="M201.091,1075.317c0,3.127-45.016,5.663-100.546,5.663S0,1078.444,0,1075.317s45.016-5.663,100.546-5.663,100.546,2.535,100.546,5.663" transform="translate(0 -856.919)" fill="#727aa6" opacity="0.294"/>
                <path id="Trazado_894263" data-name="Trazado 894263" d="M760.958,681.058l22.013,82.473h-2.632l-24.686-80.874Z" transform="translate(-605.367 -545.608)" fill="#d9a9a9"/>
                <path id="Trazado_894264" data-name="Trazado 894264" d="M565.718,701.5l13.733,82.473h-2.633L560.253,703.1Z" transform="translate(-448.828 -561.983)" fill="#d9a9a9"/>
                <path id="Trazado_894265" data-name="Trazado 894265" d="M182.065,681.058l-22.013,82.473h2.632l24.686-80.874Z" transform="translate(-128.22 -545.608)" fill="#d9a9a9"/>
                <path id="Trazado_894266" data-name="Trazado 894266" d="M437.052,681.058l-13.733,82.473h2.633l16.567-80.874Z" transform="translate(-339.128 -545.608)" fill="#d9a9a9"/>
                <path id="Trazado_894267" data-name="Trazado 894267" d="M229.968,394.34a469.786,469.786,0,0,0,66.574,2.105c1.416-.071,2.844-.141,4.26-.232,3.685-.232,7.37-.524,11.012-.907a.881.881,0,0,0,.16-.02c10.863-1.128,21.311-2.972,30.246-5.862,1.278-2.81,6.443-19.974,9.479-36.835.053-.3.107-.615.16-.917,2.151-12.309,3.1-24.3.5-30.3-2.961-6.839-35.475-10.123-55.242-7.413-6.624.906-11.811,2.488-13.984,4.835-8.659,9.357.735,21.757-12.365,34.377s-37.094,3.979-42.281,16.378,1.48,24.788,1.48,24.788" transform="translate(-181.46 -250.759)" fill="#4c6873"/>
                <path id="Trazado_894268" data-name="Trazado 894268" d="M229.968,396.122S265.582,400.182,300.8,398c3.685-.232,7.37-.524,11.012-.907a.881.881,0,0,0,.16-.02,143.063,143.063,0,0,0,26.316-5.419,167.38,167.38,0,0,0,5.463-18.453c1.427-5.651,2.875-12.037,4.015-18.382,2.258-12.621,3.323-25.071.66-31.215-2.567-5.933-27.392-9.2-46.839-8.179-1.523.081-3.025.191-4.473.322-6.624.907-11.811,2.488-13.984,4.835-8.659,9.357.735,21.757-12.365,34.377s-37.094,3.979-42.281,16.378,1.48,24.788,1.48,24.788" transform="translate(-181.46 -252.542)" fill="#658b99"/>
                <g id="Grupo_1102253" data-name="Grupo 1102253" transform="translate(101.855 62.695)" opacity="0.5">
                  <g id="Grupo_1102252" data-name="Grupo 1102252">
                    <g id="Grupo_1102251" data-name="Grupo 1102251" clip-path="url(#clip-path-5)">
                      <path id="Trazado_894269" data-name="Trazado 894269" d="M512.138,380.369c0,.514,42.93,2.347,42.93,2.347l17.509-9.519c1.427-5.651,2.875-12.037,4.015-18.382,2.258-12.621,3.323-25.07.66-31.215-2.567-5.933-27.392-9.2-46.839-8.179-3.813,33.461-18.094,64.464-18.275,64.947" transform="translate(-512.138 -315.237)" fill="#7eadbf"/>
                    </g>
                  </g>
                </g>
                <path id="Trazado_894270" data-name="Trazado 894270" d="M228.094,392.6c1.587,0,3.578-.02,5.847-.06,15.751-.262,45.178-1.732,48.266-8.874,3.941-9.1,6.922-53.283,17.647-66.922a.184.184,0,0,1,.053-.071c-.49.02-1.448.091-2.79.222-6.624.906-11.811,2.488-13.984,4.835-8.659,9.357.735,21.757-12.365,34.378s-37.094,3.979-42.281,16.378c-3.227,7.685-1.874,15.381-.394,20.115" transform="translate(-181.46 -253.69)" fill="#439694"/>
                <path id="Trazado_894271" data-name="Trazado 894271" d="M228.094,392.55a29.864,29.864,0,0,0,1.874,4.674h5.74a30.392,30.392,0,0,1-1.768-4.734c-1.385-4.734-2.62-12.4.383-20.054,4.846-12.4,27.253-3.747,39.5-16.378s3.461-25.02,11.555-34.378c2.023-2.347,6.869-3.928,13.068-4.835q.958-.091,1.406-.151c.554-.071.543-.1.053-.071s-1.448.091-2.79.222c-6.624.906-11.811,2.488-13.984,4.835-8.659,9.357.735,21.757-12.365,34.378s-37.094,3.979-42.281,16.378c-3.227,7.685-1.874,15.381-.394,20.115" transform="translate(-181.46 -253.643)" fill="#7eadbf"/>
                <path id="Trazado_894272" data-name="Trazado 894272" d="M265.457,656.361c1.278,2.135,53.57,3.918,62.676,1.249.415-.121.873-.272,1.374-.433,10.458-3.545,38.351-16.8,38.351-16.8s-51.035-.141-55.423-.292-47.744,7.424-48.522,9.357.266,4.784,1.544,6.92" transform="translate(-211.208 -512.781)" fill="#7eadbf"/>
                <path id="Trazado_894273" data-name="Trazado 894273" d="M434.531,488.227c-1.015,8.455,10.1,13.54,16.522,13.371s6.257-10.146,6.257-10.146l-14.256-3.977Z" transform="translate(-348.059 -390.525)" fill="#fe9e9b"/>
                <path id="Trazado_894274" data-name="Trazado 894274" d="M493.691,410.682l-1.51,19.068s13.054,2.735,13.076,2.476,2.276-22.533,2.276-22.533Z" transform="translate(-394.295 -328.212)" fill="#fe9e9b"/>
                <path id="Trazado_894275" data-name="Trazado 894275" d="M253.968,948.279c0,.254-2.452,21.646-2.452,21.646l8.794.507,5.58-17.672Z" transform="translate(-201.494 -759.683)" fill="#febda9"/>
                <path id="Trazado_894276" data-name="Trazado 894276" d="M506.428,310.623c-.43.3-.859.561-1.272.807-3.569,2.079-6.551,2.192-8.823,1.614a10.12,10.12,0,0,1-5.043-3.07s.9-22.3,4.788-28.257c2.078-3.175,12.839,3.052,13.094,8.989s3.824,15.409-2.745,19.916" transform="translate(-393.582 -225.001)" fill="#e3e4ed"/>
                <path id="Trazado_894277" data-name="Trazado 894277" d="M525.469,374.517c-3.569,2.079-6.551,2.192-8.823,1.614,2.333-3.815,5.7-10.4,5.56-16.523Z" transform="translate(-413.895 -288.088)" fill="#e6b9b1"/>
                <path id="Trazado_894278" data-name="Trazado 894278" d="M519.876,167.127a117.033,117.033,0,0,0-17.2-3.447,62.7,62.7,0,0,0-8.638.21c-2.578.228-4.4.5-4.4.5l-5.648-14.812-10.927,11.813,2.473,8.279s-1.263.421-3,1.122c-3.14,1.28-7.805,3.482-9.165,5.753-2.114,3.525.7,11.1,5.815,14.8.175,18.5-6.341,31.73-16.917,34.72s28.38,27.318,37.544,24.5,21.144-13.225,22.206-31.73-1.828-30.014-1.828-30.014l7.783,2.143a7.465,7.465,0,0,1-1.236-4.236,16.306,16.306,0,0,1,2.07-10.05c4.424-7.583,10.05-6.884,10.05-6.884-2.894-.982-5.972-1.877-8.98-2.675" transform="translate(-360.874 -119.829)" fill="#e3e4ed"/>
                <path id="Trazado_894279" data-name="Trazado 894279" d="M233.237,537.093c-1.587.587-8.665.745-17.365.675-13.9-.114-31.966-.824-38.456-1.289-2.6-.193-5.306-.36-7.928-.605-7.349-.693-14.049-1.947-16.084-5.665a8.476,8.476,0,0,1,4.894-12.541c5.507-1.833,32.87-.982,57.2,1.833a23.8,23.8,0,0,1,13.725,6.49,18.781,18.781,0,0,1,4.666,6.709c.807,2.192.64,3.92-.649,4.394" transform="translate(-121.934 -413.936)" fill="#4c6873"/>
                <path id="Trazado_894280" data-name="Trazado 894280" d="M773.869,314.529c5.108,3.781,10.958-2.25,8.74-7.825s-12.214-1.679-12.651-.013,1.182,5.818,3.911,7.838" transform="translate(-616.77 -243.387)" fill="#e6a296"/>
                <path id="Trazado_894281" data-name="Trazado 894281" d="M777.711,262.4l-3.99-.447-2.57-.289-2.122-.237c-3.718-10.62,3.85-16.4,9.033-18.32,1.763.509,3.517,1.052,5.209,1.622,6.271,2.122,11.646,4.6,13.471,7.095,4.762,6.525-19.031,10.577-19.031,10.577" transform="translate(-615.288 -194.756)" fill="#febda9"/>
                <path id="Trazado_894282" data-name="Trazado 894282" d="M773.72,261.953l-2.57-.289-2.122-.237c-3.718-10.62,3.85-16.4,9.033-18.32-9.629,5.052-7.5,13.216-4.341,18.847" transform="translate(-615.288 -194.756)" fill="#ca6c90"/>
                <path id="Trazado_894283" data-name="Trazado 894283" d="M582.952,163.891c-3.973,8.945-19.557,18.908-21.5,6.9,1.736-.7,3-1.122,3-1.122l-.026-.1-2.447-8.182L572.9,149.578l.474,1.237,5.174,13.576s1.824-.272,4.4-.5" transform="translate(-449.786 -119.829)" fill="#febda9"/>
                <path id="Trazado_894284" data-name="Trazado 894284" d="M566.54,169.574l-2.447-8.182,10.927-11.813.474,1.236.395,1.1c.3,9.173-2.535,15.847-9.349,17.654" transform="translate(-451.905 -119.83)" fill="#ca6c90"/>
                <path id="Trazado_894285" data-name="Trazado 894285" d="M436.632,484.239c-1.1,2.728-7.165,5.341-10.927.719a8.849,8.849,0,0,1-.912-1.351c1.57-1.184,6.727-3.026,10.892-.123a8.291,8.291,0,0,1,.947.754" transform="translate(-340.309 -386.085)" fill="#febda9"/>
                <path id="Trazado_894286" data-name="Trazado 894286" d="M435.685,483.484a4.783,4.783,0,0,1-.675,1.044,2.97,2.97,0,0,1-.228.246,3.524,3.524,0,0,1-4.841.088,3.6,3.6,0,0,1-1.491.175,4.173,4.173,0,0,1-1.675-.535,2.938,2.938,0,0,1-.851.412,1.95,1.95,0,0,1-.219.044,8.852,8.852,0,0,1-.912-1.351c1.57-1.184,6.727-3.026,10.892-.123" transform="translate(-340.309 -386.084)" fill="#ca6c90"/>
                <path id="Trazado_894287" data-name="Trazado 894287" d="M417.836,471.44a2.643,2.643,0,0,1-1.812,1.585c-2.247.6-5.22-1.385-2.787-4.581a2.471,2.471,0,0,1,2.339-.835,2.665,2.665,0,0,1,2.259,3.831" transform="translate(-330.324 -374.587)" fill="#febda9"/>
                <path id="Trazado_894288" data-name="Trazado 894288" d="M426.93,471.555a2.642,2.642,0,0,1-1.812,1.585,3.177,3.177,0,0,1-1.437-2.553,4,4,0,0,1,.989-2.863,2.665,2.665,0,0,1,2.259,3.831" transform="translate(-339.417 -374.702)" fill="#ca6c90"/>
                <path id="Trazado_894289" data-name="Trazado 894289" d="M431.825,465.08a3.452,3.452,0,0,1-2.938,1.122c-3.026-.281-5.771-4.06-1.342-6.876a.365.365,0,0,1,.079-.044,3,3,0,0,1,2.517-.184,3.158,3.158,0,0,1,.649.263c1.885.982,3.131,3.438,1.035,5.718" transform="translate(-340.656 -367.64)" fill="#febda9"/>
                <path id="Trazado_894290" data-name="Trazado 894290" d="M440.215,460.01l-1.491,1.728a3.173,3.173,0,0,1-1.438-2.456,3,3,0,0,1,2.517-.184Z" transform="translate(-350.318 -367.64)" fill="#ca6c90"/>
                <path id="Trazado_894291" data-name="Trazado 894291" d="M443.267,466.9a3.452,3.452,0,0,1-2.938,1.122,4.15,4.15,0,0,1-.605-3.78,6.4,6.4,0,0,1,2.508-3.061c1.885.982,3.131,3.438,1.035,5.718" transform="translate(-352.098 -369.464)" fill="#ca6c90"/>
                <path id="Trazado_894292" data-name="Trazado 894292" d="M450.016,465.562a3.033,3.033,0,0,1-.228.246c-2.657,2.719-7.367-.509-6.192-4a5.4,5.4,0,0,1,2.131-2.6c2.736-1.921,7.533,2.438,4.288,6.35" transform="translate(-355.225 -367.508)" fill="#febda9"/>
                <path id="Trazado_894293" data-name="Trazado 894293" d="M450.761,465.562a3.033,3.033,0,0,1-.228.246c-1.342-1.131-1.947-3.683-2.561-4.122-.43-.307-1.631-.14-2.71.1a2.342,2.342,0,0,1-.921.026,5.4,5.4,0,0,1,2.131-2.6c2.736-1.921,7.533,2.438,4.289,6.35" transform="translate(-355.97 -367.508)" fill="#ca6c90"/>
                <path id="Trazado_894294" data-name="Trazado 894294" d="M450.574,451.7l4.807-2.125a2.2,2.2,0,1,1,1.739,4.039c-2.376.989-6.386,2.542-8.245,2.592-2.733.074-2.807-5.023-3.545-5.835-.375-.412-1.585-.444-2.686-.376a2.166,2.166,0,0,1-.327-4.319c1.733-.143,4.036-.187,5.23.411,2.068,1.034,3.028,5.614,3.028,5.614" transform="translate(-352.756 -356.962)" fill="#febda9"/>
                <path id="Trazado_894295" data-name="Trazado 894295" d="M302.254,530.722c5.006-.2,33.187,1.071,39.152,6.27s4.381,15.483-3.774,18.906-18.4,2.352-18.4,2.352l-30.587,9.482-14.835,51.387L260.5,614.531s7.341-56.434,11.012-62.4S312.348,537.3,312.348,537.3s-13.917-6.423-10.094-6.576" transform="translate(-208.693 -425.155)" fill="#4c6873"/>
                <path id="Trazado_894296" data-name="Trazado 894296" d="M375.761,572.841l-.3-.446c.981-.282,24.07-6.925,28.042-7.737l.234.463c-3.938.806-27.735,7.652-27.975,7.721" transform="translate(-300.788 -452.357)" fill="#5c3f36"/>
                <path id="Trazado_894297" data-name="Trazado 894297" d="M253.554,939.351c-.085.254-.338,3.72-.338,3.72l15.473,5.665.846-3.8Z" transform="translate(-202.856 -752.531)" fill="#5c3f36"/>
                <path id="Trazado_894298" data-name="Trazado 894298" d="M187.2,1027.478a58.583,58.583,0,0,1-6.114.43c-.29.009-.58.017-.878.017-2.485.044-5.2.018-7.908-.044h-.009l-.761-.026c-8.92-.254-17.523-.938-17.523-.938.225-1.158,2.259-2.762,4.964-4.438.42-.254.867-.517,1.323-.78.7-.4,1.43-.816,2.175-1.21.455-.245.918-.491,1.372-.728.871-.447,1.75-.886,2.593-1.307.471-.228.932-.447,1.385-.667.6-.281,1.185-.552,1.727-.8.5-.237.976-.447,1.41-.64a25.719,25.719,0,0,1,3.215-1.3c.371.1,2.826,2.92,5.542,3.1s3.838-1.546,4.719-1.661c.7-.091,1.032,1.283,1.573,3.344.078.281.147.57.215.868a34.26,34.26,0,0,1,.979,6.77" transform="translate(-123.378 -813.175)" fill="#734f43"/>
                <path id="Trazado_894299" data-name="Trazado 894299" d="M204.851,1041.313l-.588.684c-.033-.026-2.507-2.044-7.71-2.534.454-.246.918-.491,1.372-.728,4.621.675,6.819,2.482,6.927,2.578" transform="translate(-157.462 -832.149)" fill="#f2e7da"/>
                <path id="Trazado_894300" data-name="Trazado 894300" d="M223.7,1031.2l-.6.684a14.123,14.123,0,0,0-6.614-2.4c.471-.228.932-.447,1.385-.666a13.444,13.444,0,0,1,5.825,2.385" transform="translate(-173.435 -824.201)" fill="#f2e7da"/>
                <path id="Trazado_894301" data-name="Trazado 894301" d="M239.063,1023.9l-.588.684a14.083,14.083,0,0,0-6.336-2.359c.5-.237.976-.447,1.41-.64a13.278,13.278,0,0,1,5.514,2.315" transform="translate(-185.971 -818.407)" fill="#f2e7da"/>
                <path id="Trazado_894302" data-name="Trazado 894302" d="M192.554,1054.46l-.259.2h-.009l-.452.342c-.008-.009-.1-.141-.309-.368-1.071-1.193-5.034-4.973-12.559-5.376.42-.254.867-.517,1.323-.781,8.444.833,12.1,5.753,12.265,5.981" transform="translate(-143.374 -839.955)" fill="#913d3d"/>
                <path id="Trazado_894303" data-name="Trazado 894303" d="M286.617,1047.2a1.642,1.642,0,0,0,.01.254l-.878.149a2.621,2.621,0,0,1-.01-.386c.026-1.2.548-4.911,5.8-8.086.078.281.147.57.215.868-4.744,2.956-5.127,6.271-5.135,7.2" transform="translate(-228.909 -832.467)" fill="#913d3d"/>
                <path id="Trazado_894304" data-name="Trazado 894304" d="M150.791,1072.863h33.561a.494.494,0,0,1,.5.534l-.227,3.482a.579.579,0,0,1-.569.534H150.6a.494.494,0,0,1-.5-.518l.12-3.482a.578.578,0,0,1,.57-.551" transform="translate(-120.248 -859.49)" fill="#f2e7da"/>
                <path id="Trazado_894305" data-name="Trazado 894305" d="M153.457,533.4c3.961,5.518,18.363,7.47,18.363,7.47s-2.945-8.092,8.589-8.348c-3.717-3.46-10.355-10.836-18.294-11.756-9.325-1.079-11.549,8.608-8.658,12.634" transform="translate(-121.989 -417.13)" fill="#4c6873"/>
                <path id="Trazado_894306" data-name="Trazado 894306" d="M238.1,538.2c-.023-.056-2.44-5.712-12.262-9.586l.161-.408c10.012,3.95,12.41,9.59,12.506,9.828Z" transform="translate(-180.92 -423.156)" fill="#5c3f36"/>
                <path id="Trazado_894307" data-name="Trazado 894307" d="M234.378,581.309c-8.263,0-5.014-11.393,3.218-11.587,6.211-.147,6.735,5.06,5.238,7.481s-3.592,4.107-8.456,4.107" transform="translate(-183.912 -456.412)" fill="#5c3f36"/>
                <path id="Trazado_894308" data-name="Trazado 894308" d="M244.333,579.28c-11.549,9.69,19.921,12.252,19.921,12.252l1.11-6.874s-14.225-11.089-21.031-5.378" transform="translate(-193.699 -462.762)" fill="#febda9"/>
                <path id="Trazado_894309" data-name="Trazado 894309" d="M487.089,57.28c-1.52,2.389-.42,3.21-.112,4.68s-.124,5.2,1.05,6.593,5.3-11.418,4.092-12.655-5.03,1.382-5.03,1.382" transform="translate(-389.587 -44.515)" fill="#452963"/>
                <path id="Trazado_894310" data-name="Trazado 894310" d="M495.424,47.313c-4.175,5.177-4.6,9.276-3.828,11.979,1.211,4.241.343,7.2,1.3,11.267.745,3.159,5.21,12.528,10.5,13.1,7.766.846,13.417-6.683,14.3-15.3s-4.794-23.7-8.923-25.124-13.351,4.071-13.351,4.071" transform="translate(-393.574 -34.454)" fill="#febda9"/>
                <path id="Trazado_894311" data-name="Trazado 894311" d="M540.575,89.485a22.2,22.2,0,0,0-9.023.889,3.068,3.068,0,0,1,.693-2.209c3.668-.764,8.33,1.32,8.33,1.32" transform="translate(-425.828 -70.496)" fill="#452963"/>
                <path id="Trazado_894312" data-name="Trazado 894312" d="M486.678,101.449a7.4,7.4,0,0,1,4.462-2.618,4.094,4.094,0,0,0-1.154-1.728c-1.966.7-3.308,4.346-3.308,4.346" transform="translate(-389.887 -77.791)" fill="#452963"/>
                <path id="Trazado_894313" data-name="Trazado 894313" d="M550.233,119.949c.438,1,1.384,1.65,2.112,1.461s.964-1.15.526-2.147-1.384-1.65-2.112-1.461-.964,1.151-.526,2.147" transform="translate(-440.625 -94.347)" fill="#0f0546"/>
                <path id="Trazado_894314" data-name="Trazado 894314" d="M503.469,132.241c.438,1,1.328,1.664,1.989,1.493s.841-1.118.4-2.115-1.329-1.664-1.989-1.493-.841,1.119-.4,2.115" transform="translate(-403.147 -104.225)" fill="#0f0546"/>
                <path id="Trazado_894315" data-name="Trazado 894315" d="M530.723,186.73a9.091,9.091,0,0,1-5.152.415l.1-.521c4.269,1.033,8.733-2.3,9.021-3.11l.48.2c-.237.667-2.063,2.163-4.446,3.013" transform="translate(-421.045 -147.015)" fill="#ca6c90"/>
                <path id="Trazado_894316" data-name="Trazado 894316" d="M519.989,170.31c1.552,1.709,4.727,1.009,4.987-.051a4.362,4.362,0,0,0-4.987.051" transform="translate(-416.573 -135.789)" fill="#ca6c90"/>
                <path id="Trazado_894317" data-name="Trazado 894317" d="M520.266,143.087l-.388-.214a17.163,17.163,0,0,0,1.077-7.512l.434-.019a17.283,17.283,0,0,1-1.124,7.745" transform="translate(-416.484 -108.425)" fill="#ca6c90"/>
                <path id="Trazado_894318" data-name="Trazado 894318" d="M497.857,4.428l-.007,0a6.433,6.433,0,0,0-2.365.136,8.417,8.417,0,0,0-1.582.556,28.272,28.272,0,0,0-5.235,3.466c-.339.261-.688.524-1.037.788-.134.107-.274.21-.414.314-2.6,1.945-5.461,3.82-8.951,4.444-.154.029-.314.054-.47.078q-.7.1-1.352.134a9.91,9.91,0,0,1-3.809-.452c-3.878-1.358-5.026-5.537-1.686-11.5.071-.135.152-.273.233-.411a4.023,4.023,0,0,0,.3.333,6.7,6.7,0,0,0,8.039,1c2.838-1.7,7.647-4.043,11.019-2.96.085.028.177.06.264.093a3.585,3.585,0,0,1,1.382-.426c1.925-.2,4.376.917,5.568,4.132.035.091.07.182.1.275" transform="translate(-375.711 0.001)" fill="#452963"/>
                <path id="Trazado_894319" data-name="Trazado 894319" d="M568.555,22.607c.083.318.144.62.2.9.007.026.007.048.014.074.429,2.4-.594,2.532-.287,3.973s1.16,1.419,1.787,3.829a5.406,5.406,0,0,1,.128,1.565c-.009.2-.026.413-.049.625a23.219,23.219,0,0,1-1.207,4.908s-5.81,2.307-6.236,1.159-1.782-.856-2.727-7.683c-.089-.64-.194-1.3-.318-1.972-.075-.376-.154-.762-.246-1.139a19.329,19.329,0,0,0-1.372-4.076c-.127-.251-.258-.5-.4-.737-1.112-1.921-2.713-3.259-5-3.243a1.328,1.328,0,0,0-.161,0,5.742,5.742,0,0,0-.718.064,7.177,7.177,0,0,0-.9.189c-4.323,1.169,3.554-6.142,6.851-6.932a4.28,4.28,0,0,1,4.482,1.218,1.519,1.519,0,0,1,.2.266l.006,0c.3.112.583.227.85.358a9.438,9.438,0,0,1,5.108,6.646" transform="translate(-440.45 -11.174)" fill="#452963"/>
                <path id="Trazado_894320" data-name="Trazado 894320" d="M613.451,115.133c-1.847,2.581-.4,8.534,1,9.647,2.287,1.812,5.906-2.086,6.4-4.234a7.792,7.792,0,0,0-1.48-5.978c-1.365-1.916-4.069-2.015-5.916.565" transform="translate(-490.747 -90.654)" fill="#febda9"/>
                <path id="Trazado_894321" data-name="Trazado 894321" d="M624.3,132.6l-.459-.282c.328-.534.434-.944.3-1.156-.194-.3-.878-.283-1.1-.254l-.322.042.018-.325c.009-.17.258-4.174,2.485-5.762l.313.439c-1.684,1.2-2.13,4.1-2.233,5.05a1.515,1.515,0,0,1,1.294.515c.265.407.167.99-.29,1.732" transform="translate(-498.863 -100.031)" fill="#ca6c90"/>
                <path id="Trazado_894322" data-name="Trazado 894322" d="M500.109.112A21.254,21.254,0,0,0,495.8,3.226,34.846,34.846,0,0,1,489.046,8a10.194,10.194,0,0,1-2.027.772,6.421,6.421,0,0,1-5.207-.645,7.154,7.154,0,0,1-2.943-5.644c.071-.135.152-.273.233-.411a4.057,4.057,0,0,0,.3.333,6.653,6.653,0,0,0,2.7,5.274c1.769,1.149,4.216,1.092,6.7-.161a34.471,34.471,0,0,0,6.651-4.7A36.065,36.065,0,0,1,498.464.445c.085.028.177.06.263.093a3.586,3.586,0,0,1,1.382-.426" transform="translate(-383.631 -0.09)" fill="#9161a8"/>
                <path id="Trazado_894323" data-name="Trazado 894323" d="M572.306,21.516l0,.012c-1.81-.643-7.913,1.607-10.608,4.819-.022.022-.843.072-.843.072a18.538,18.538,0,0,1,6.65-4.573,15.563,15.563,0,0,1,1.582-.556,9.742,9.742,0,0,1,2.167-.4.593.593,0,0,1,.1,0c.035.091.07.182.1.275.3.112.583.227.85.358" transform="translate(-449.31 -16.729)" fill="#1f0f30"/>
                <path id="Trazado_894324" data-name="Trazado 894324" d="M600.962,55.038c.083.318.144.62.2.9-1.588-1.759-3.826-.793-6.178.226-1.522.658-3.079,1.33-4.335,1.038-.127-.251-.258-.5-.4-.737,1.112.68,2.713-.015,4.52-.8,2.1-.909,4.415-1.911,6.2-.631" transform="translate(-472.857 -43.605)" fill="#9161a8"/>
                <path id="Trazado_894325" data-name="Trazado 894325" d="M609.928,92.967c-.009.2-.026.413-.049.625a8.229,8.229,0,0,0-3.691-1.023c-2.277-.321-4.962-.709-6.8-2.564-.076-.376-.154-.762-.246-1.139,1.663,2.391,4.532,2.8,7.116,3.167a10.508,10.508,0,0,1,3.668.934" transform="translate(-479.985 -71.192)" fill="#1f0f30"/>
                <path id="Trazado_894326" data-name="Trazado 894326" d="M242.357,598.153c0-5.639,9.1-9.1,14.1-10.765s10.509-1.41,13.713,2.307c-12.175,8.458-27.811,8.458-27.811,8.458" transform="translate(-194.157 -469.78)" fill="#734f43"/>
                <path id="Trazado_894327" data-name="Trazado 894327" d="M239.657,608.074h0c.078,4.376,3.763,7.563,7.6,6.575l16.925-4.357a8.229,8.229,0,0,0,5.861-7.653c.2-3.34-2.475-6-5.442-5.413l-19.834,3.931a6.747,6.747,0,0,0-5.112,6.918" transform="translate(-191.993 -478.383)" fill="#f2e7da"/>
                <path id="Trazado_894328" data-name="Trazado 894328" d="M243.523,617.65h0a6.2,6.2,0,0,0,7.6,5.92l16.925-3.923a7.591,7.591,0,0,0,5.861-6.891,4.637,4.637,0,0,0-5.442-4.874l-19.834,3.539a6.2,6.2,0,0,0-5.112,6.229" transform="translate(-195.09 -486.926)" fill="#e6b9b1"/>
                <path id="Trazado_894329" data-name="Trazado 894329" d="M264.087,524l-.332,2.024,13.493,8.242,21.225,4.6,17.651-4.96.52-1.729Z" transform="translate(-211.299 -419.782)" fill="#4c6873"/>
                <path id="Trazado_894330" data-name="Trazado 894330" d="M265.423,524l13.386,8.172,20.995,4.65,18.177-4.65-23.672-3.523-10-4.227Z" transform="translate(-212.635 -419.782)" fill="#658b99"/>
                <path id="Trazado_894331" data-name="Trazado 894331" d="M328.576,505.918,327,511.647l-14.257,3.778-19.978-4.633-11.451-6.335,1.586-5.6s13.347.092,17.786.366c1.7.1,4.565.468,6.443,2.186a21.875,21.875,0,0,1,2.263,1.98c8.864-1.527,19.186,2.535,19.186,2.535" transform="translate(-225.364 -399.639)" fill="#f2e7da"/>
                <path id="Trazado_894332" data-name="Trazado 894332" d="M328.576,505.918,327,511.647l-14.257,3.778-17.231-4-2.748-.636-1.44-.8-10.011-5.539,1.586-5.6s10.091,6.014,11.838,9.288c5.992-.877,19.2,1.754,19.2,1.754Z" transform="translate(-225.364 -399.639)" fill="#e6b9b1"/>
                <g id="Grupo_1102256" data-name="Grupo 1102256" transform="translate(63.695 101.764)" opacity="0.5">
                  <g id="Grupo_1102255" data-name="Grupo 1102255">
                    <g id="Grupo_1102254" data-name="Grupo 1102254" clip-path="url(#clip-path-6)">
                      <path id="Trazado_894333" data-name="Trazado 894333" d="M340.6,513.66c-6.292.307-14.651,4.756-14.651,4.756l-5.68-4.69s12.28.717,18.068-2.045c.3.343,1.978,1.534,2.263,1.98" transform="translate(-320.268 -511.68)" fill="#e6b9b1"/>
                    </g>
                  </g>
                </g>
                <path id="Trazado_894334" data-name="Trazado 894334" d="M335.837,550.537l-2.748-.636-1.44-.8a3.919,3.919,0,0,1,2.528-1.432c1.286-.088,1.593,2.024,1.659,2.864" transform="translate(-265.691 -438.748)" fill="#4c6873"/>
                <path id="Trazado_894335" data-name="Trazado 894335" d="M771.762,283.273c6.578,9.384-19.735,39.481-23.965,41.772s-11.28,3.877-10.927-2.291,13.395-27.319,17.272-31.372,15.149-11.635,17.62-8.109" transform="translate(-590.309 -226.206)" fill="#febda9"/>
                <path id="Trazado_894336" data-name="Trazado 894336" d="M736.576,490.91c-.316,1.052-2.5,2.912-4.034,1.7-.246.64-1.78,1.614-4.289-.167-1.289,1.456-3.631-.079-3.876-2.017-.052-.386-.131-1.149-.193-2.175-.246-4.043-.167-12.182,3.508-17.785,0,0,8.735,1.087,10.638,3.885a.576.576,0,0,1,.105.149c1.7,2.912,1.3,12.208,1.3,12.208s1.535-.895,2.1,1.289-2.745,4.122-5.253,2.912" transform="translate(-580.091 -376.9)" fill="#febda9"/>
                <path id="Trazado_894337" data-name="Trazado 894337" d="M737.521,506.481a3.233,3.233,0,0,1-.614-.228,1.963,1.963,0,0,1-.254.509,3.32,3.32,0,0,1-3.043,1.535,1.612,1.612,0,0,1-.737-.342,1.1,1.1,0,0,1-.237.342c-.509.5-1.736.895-3.543-.175-.167-.1-.333-.21-.509-.333a1.9,1.9,0,0,1-.386.333c-1.324.833-3.271-.6-3.491-2.35-.052-.386-.131-1.149-.193-2.175a6.62,6.62,0,0,0,3.412,1.377,7.23,7.23,0,0,0,.868.052,10.755,10.755,0,0,0,2.956-.368c.289-.07.57-.149.851-.237a15.623,15.623,0,0,0,2.587-1.087c.3-.167.561-.325.8-.474a2.885,2.885,0,0,0,1.088-.973c.325-1.044-.482-9.051.246-11.313.272-.851.772-1.1,1.342-.877a.581.581,0,0,1,.105.149c1.7,2.912,1.3,12.208,1.3,12.208s1.535-.895,2.1,1.289c.526,2.008-2.236,3.806-4.639,3.139" transform="translate(-580.422 -392.243)" fill="#fe9e9b"/>
                <path id="Trazado_894338" data-name="Trazado 894338" d="M742.836,569.965c-.167-.1-.333-.21-.509-.333a1.9,1.9,0,0,1-.386.333,19.994,19.994,0,0,1-.272-3.148,7.233,7.233,0,0,0,.868.053,19.165,19.165,0,0,0,.3,3.1" transform="translate(-594.165 -454.087)" fill="#ca6c90"/>
                <path id="Trazado_894339" data-name="Trazado 894339" d="M762.754,567.915a1.614,1.614,0,0,1-.737-.342,1.1,1.1,0,0,1-.237.342,15.413,15.413,0,0,1-.886-3.64c.289-.07.57-.149.851-.237a13.963,13.963,0,0,0,1.009,3.876" transform="translate(-609.567 -451.862)" fill="#ca6c90"/>
                <path id="Trazado_894340" data-name="Trazado 894340" d="M780.513,559.811a3.245,3.245,0,0,1-.614-.228,1.969,1.969,0,0,1-.254.508,10.454,10.454,0,0,1-1.465-3.429c.3-.167.561-.325.8-.474a9.879,9.879,0,0,0,1.535,3.622" transform="translate(-623.414 -445.573)" fill="#ca6c90"/>
              </g>
            </g>
          </g>
        </g>
        <g id="Grupo_1102402" data-name="Grupo 1102402" transform="translate(0 64.931)">
          <path id="Trazado_895546" data-name="Trazado 895546" d="M0,0H36.107V6.249H0Z" transform="translate(1103.921 8929.213) rotate(90)" fill="#14e95b"/>
          <path id="Trazado_895547" data-name="Trazado 895547" d="M2.28,0H0V21.519H2.28Z" transform="translate(1111.556 8928.072) rotate(90)" fill="#fe0e0e"/>
          <path id="Trazado_895548" data-name="Trazado 895548" d="M2.28,0H0V21.519H2.28Z" transform="translate(1111.556 8964.18) rotate(90)" fill="#fe0e0e"/>
        </g>
      </g>
    </g>
    <rect id="Rectángulo_402907" data-name="Rectángulo 402907" width="295" height="230" transform="translate(915.19 8895)" fill="none"/>
  </g>
</svg>
