<svg xmlns="http://www.w3.org/2000/svg" xmlns:xlink="http://www.w3.org/1999/xlink" width="295" height="173.536" viewBox="0 0 295 173.536">
  <defs>
    <clipPath id="clip-path">
      <rect id="Rectángulo_402417" data-name="Rectángulo 402417" width="295" height="36.333" fill="#e3dcd9"/>
    </clipPath>
    <clipPath id="clip-path-2">
      <rect id="Rectángulo_402424" data-name="Rectángulo 402424" width="103.809" height="64.867" transform="translate(0 0.001)" fill="#454964"/>
    </clipPath>
    <clipPath id="clip-path-3">
      <rect id="Rectángulo_402888" data-name="Rectángulo 402888" width="101.831" height="243.013" fill="none"/>
    </clipPath>
    <clipPath id="clip-path-4">
      <rect id="Rectángulo_402887" data-name="Rectángulo 402887" width="101.83" height="243.013" fill="none"/>
    </clipPath>
    <clipPath id="clip-path-5">
      <rect id="Rectángulo_402883" data-name="Rectángulo 402883" width="9.744" height="101.513" fill="none"/>
    </clipPath>
    <clipPath id="clip-path-6">
      <rect id="Rectángulo_402884" data-name="Rectángulo 402884" width="51.429" height="88.269" fill="none"/>
    </clipPath>
    <clipPath id="clip-path-7">
      <rect id="Rectángulo_402885" data-name="Rectángulo 402885" width="35.12" height="115.294" fill="none"/>
    </clipPath>
    <clipPath id="clip-path-8">
      <rect id="Rectángulo_402886" data-name="Rectángulo 402886" width="42.844" height="92.635" fill="none"/>
    </clipPath>
  </defs>
  <g id="Grupo_1102318" data-name="Grupo 1102318" transform="translate(-915 -9286.939)">
    <g id="Grupo_1101572" data-name="Grupo 1101572" transform="translate(19556.73 11380.939)">
      <path id="retrato-de-una-persona-reparando-ropa-y-materiales-de-fijacion" d="M0,0H215a80,80,0,0,1,80,80v75.167a0,0,0,0,1,0,0H0a0,0,0,0,1,0,0V0A0,0,0,0,1,0,0Z" transform="translate(-18641.73 -2075.631)" fill="#727aa6"/>
      <g id="Grupo_1101548" data-name="Grupo 1101548" transform="translate(-18641.73 -1956.797)">
        <g id="Grupo_1101547" data-name="Grupo 1101547" clip-path="url(#clip-path)">
          <path id="Trazado_892350" data-name="Trazado 892350" d="M.522,1.557c29.44-.195,29.51,16.009,58.95,15.814S88.842.974,118.282.779s29.51,16.009,58.951,15.815S206.605.2,236.047,0,265.558,16.011,295,15.816l-.034-.713-.556,21.23H0L.557,1.221" transform="translate(0 0)" fill="#e3dcd9"/>
        </g>
      </g>
      <g id="Grupo_1101571" data-name="Grupo 1101571" transform="translate(-18632 -2094)">
        <g id="Grupo_1101570" data-name="Grupo 1101570" clip-path="url(#clip-path-2)">
          <path id="Trazado_892357" data-name="Trazado 892357" d="M5.117,2.559A2.559,2.559,0,1,1,2.558,0,2.559,2.559,0,0,1,5.117,2.559" fill="#454964"/>
          <path id="Trazado_892358" data-name="Trazado 892358" d="M24.856,2.559A2.559,2.559,0,1,1,22.3,0a2.559,2.559,0,0,1,2.559,2.559" fill="#454964"/>
          <path id="Trazado_892359" data-name="Trazado 892359" d="M44.594,2.559A2.559,2.559,0,1,1,42.035,0a2.559,2.559,0,0,1,2.559,2.559" fill="#454964"/>
          <path id="Trazado_892360" data-name="Trazado 892360" d="M64.332,2.559A2.559,2.559,0,1,1,61.773,0a2.559,2.559,0,0,1,2.559,2.559" fill="#454964"/>
          <path id="Trazado_892361" data-name="Trazado 892361" d="M84.071,2.559A2.558,2.558,0,1,1,81.512,0a2.559,2.559,0,0,1,2.559,2.559" fill="#454964"/>
          <path id="Trazado_892362" data-name="Trazado 892362" d="M103.809,2.559A2.558,2.558,0,1,1,101.25,0a2.559,2.559,0,0,1,2.559,2.559" fill="#454964"/>
          <path id="Trazado_892363" data-name="Trazado 892363" d="M5.117,22.3a2.559,2.559,0,1,1-2.559-2.559A2.559,2.559,0,0,1,5.117,22.3" fill="#454964"/>
          <path id="Trazado_892364" data-name="Trazado 892364" d="M24.856,22.3A2.559,2.559,0,1,1,22.3,19.738,2.559,2.559,0,0,1,24.856,22.3" fill="#454964"/>
          <path id="Trazado_892365" data-name="Trazado 892365" d="M44.594,22.3a2.559,2.559,0,1,1-2.559-2.559A2.559,2.559,0,0,1,44.594,22.3" fill="#454964"/>
          <path id="Trazado_892366" data-name="Trazado 892366" d="M64.332,22.3a2.559,2.559,0,1,1-2.559-2.559A2.559,2.559,0,0,1,64.332,22.3" fill="#454964"/>
          <path id="Trazado_892367" data-name="Trazado 892367" d="M84.071,22.3a2.558,2.558,0,1,1-2.559-2.559A2.559,2.559,0,0,1,84.071,22.3" fill="#454964"/>
          <path id="Trazado_892368" data-name="Trazado 892368" d="M103.809,22.3a2.558,2.558,0,1,1-2.559-2.559,2.559,2.559,0,0,1,2.559,2.559" fill="#454964"/>
          <path id="Trazado_892369" data-name="Trazado 892369" d="M5.117,42.3a2.559,2.559,0,1,1-2.559-2.559A2.559,2.559,0,0,1,5.117,42.3" fill="#454964"/>
          <path id="Trazado_892370" data-name="Trazado 892370" d="M24.856,42.3A2.559,2.559,0,1,1,22.3,39.744,2.559,2.559,0,0,1,24.856,42.3" fill="#454964"/>
          <path id="Trazado_892371" data-name="Trazado 892371" d="M44.594,42.3a2.559,2.559,0,1,1-2.559-2.559A2.559,2.559,0,0,1,44.594,42.3" fill="#454964"/>
          <path id="Trazado_892372" data-name="Trazado 892372" d="M64.332,42.3a2.559,2.559,0,1,1-2.559-2.559A2.559,2.559,0,0,1,64.332,42.3" fill="#454964"/>
          <path id="Trazado_892373" data-name="Trazado 892373" d="M84.071,42.3a2.558,2.558,0,1,1-2.559-2.559A2.559,2.559,0,0,1,84.071,42.3" fill="#454964"/>
          <path id="Trazado_892374" data-name="Trazado 892374" d="M103.809,42.3a2.558,2.558,0,1,1-2.559-2.559,2.559,2.559,0,0,1,2.559,2.559" fill="#454964"/>
          <path id="Trazado_892375" data-name="Trazado 892375" d="M5.117,62.309A2.559,2.559,0,1,1,2.558,59.75a2.559,2.559,0,0,1,2.559,2.559" fill="#454964"/>
          <path id="Trazado_892376" data-name="Trazado 892376" d="M24.856,62.309A2.559,2.559,0,1,1,22.3,59.75a2.559,2.559,0,0,1,2.559,2.559" fill="#454964"/>
          <path id="Trazado_892377" data-name="Trazado 892377" d="M44.594,62.309a2.559,2.559,0,1,1-2.559-2.559,2.559,2.559,0,0,1,2.559,2.559" fill="#454964"/>
          <path id="Trazado_892378" data-name="Trazado 892378" d="M64.332,62.309a2.559,2.559,0,1,1-2.559-2.559,2.559,2.559,0,0,1,2.559,2.559" fill="#454964"/>
          <path id="Trazado_892379" data-name="Trazado 892379" d="M84.071,62.309a2.558,2.558,0,1,1-2.559-2.559,2.559,2.559,0,0,1,2.559,2.559" fill="#454964"/>
          <path id="Trazado_892380" data-name="Trazado 892380" d="M103.809,62.309a2.558,2.558,0,1,1-2.559-2.559,2.559,2.559,0,0,1,2.559,2.559" fill="#454964"/>
        </g>
      </g>
    </g>
    <g id="Grupo_1101834" data-name="Grupo 1101834" transform="translate(935.443 9275.531)">
      <path id="Trazado_894617" data-name="Trazado 894617" d="M11.9,110.109" transform="translate(121.738 42.835)" fill="none" stroke="#3f2d1f" stroke-linecap="round" stroke-width="1.199"/>
      <g id="Grupo_1102353" data-name="Grupo 1102353" transform="translate(-4.629 126.428) rotate(-77)">
        <g id="Grupo_1102352" data-name="Grupo 1102352" clip-path="url(#clip-path-3)">
          <g id="Grupo_1102351" data-name="Grupo 1102351">
            <g id="Grupo_1102350" data-name="Grupo 1102350" clip-path="url(#clip-path-4)">
              <path id="Trazado_894618" data-name="Trazado 894618" d="M47.294,0C40.883,30.893,34.845,80.493,33.055,136.881c-.135,4.241,4.45,9.465,8.659,10.007l2.424.312c5.387.7,9.9-1.881,10.143-7.307C56.757,85.591,58.391,36.1,47.294,0" transform="translate(15.437)" fill="#b2b2b2"/>
              <g id="Grupo_1102340" data-name="Grupo 1102340" transform="translate(59.78 8.739)" opacity="0.75">
                <g id="Grupo_1102339" data-name="Grupo 1102339">
                  <g id="Grupo_1102338" data-name="Grupo 1102338" clip-path="url(#clip-path-5)">
                    <path id="Trazado_894619" data-name="Trazado 894619" d="M50.492,76.134c0-29.5-2.069-52.107-6.47-70.177-1.153,6.188-2.246,12.785-3.274,19.7l9.146,81.815c.356-10.61.6-21.181.6-31.336" transform="translate(-40.748 -5.957)" fill="#fff"/>
                  </g>
                </g>
              </g>
              <path id="Trazado_894620" data-name="Trazado 894620" d="M42.5,165.386c.051,0,.1.018.153.018a4.961,4.961,0,0,0,.111-9.828,29.44,29.44,0,0,0-5.164-13.6,7.628,7.628,0,0,1-.148-8.55l20.379-31.9-7.84-6.185L28.347,129.449a7.932,7.932,0,0,1-6.788,3.6h-.043C9.652,133.045,0,144.941,0,159.564s9.652,26.519,21.516,26.519c10.24,0,18.827-8.865,20.986-20.7m-34.5-5.823c0-10.209,6.06-18.513,13.51-18.513s13.509,8.3,13.509,18.513-6.059,18.513-13.509,18.513-13.51-8.305-13.51-18.513" transform="translate(0 44.529)" fill="#4b677c"/>
              <g id="Grupo_1102343" data-name="Grupo 1102343" transform="translate(1.001 141.343)" opacity="0.5">
                <g id="Grupo_1102342" data-name="Grupo 1102342">
                  <g id="Grupo_1102341" data-name="Grupo 1102341" clip-path="url(#clip-path-6)">
                    <path id="Trazado_894621" data-name="Trazado 894621" d="M31.932,145.329c0-10.759-6.509-19.513-14.511-19.513a10.844,10.844,0,0,0-1.639.133c7.231,1.1,12.871,9.366,12.871,19.38s-5.639,18.281-12.871,19.381a11.041,11.041,0,0,0,1.639.132c8,0,14.511-8.754,14.511-19.513" transform="translate(6.371 -82.579)" fill="#1d1d1b"/>
                    <path id="Trazado_894622" data-name="Trazado 894622" d="M3.961,159.095c0-14.071,9.2-25.518,20.514-25.518a8.937,8.937,0,0,0,7.677-4.059L52.111,98.069l-2.184-1.725L28.873,129.517a8.936,8.936,0,0,1-7.676,4.059C9.885,133.577.682,145.024.682,159.095s9.2,25.518,20.515,25.518a15.874,15.874,0,0,0,1.631-.089c-10.544-1.047-18.868-12.047-18.868-25.429" transform="translate(-0.682 -96.344)" fill="#1d1d1b"/>
                  </g>
                </g>
              </g>
              <path id="Trazado_894623" data-name="Trazado 894623" d="M63.925,147.764l-10.118-.136-12.47-.091-23.207-96.1A63.656,63.656,0,0,1,25.655,1.783l.153-.238Z" transform="translate(7.505 0.722)" fill="#dadada"/>
              <g id="Grupo_1102346" data-name="Grupo 1102346" transform="translate(27.544 7.501)" opacity="0.75">
                <g id="Grupo_1102345" data-name="Grupo 1102345">
                  <g id="Grupo_1102344" data-name="Grupo 1102344" clip-path="url(#clip-path-7)">
                    <path id="Trazado_894624" data-name="Trazado 894624" d="M23.84,5.113a61.107,61.107,0,0,0-5.064,13.262L53.894,120.406Z" transform="translate(-18.775 -5.113)" fill="#fff"/>
                  </g>
                </g>
              </g>
              <path id="Trazado_894625" data-name="Trazado 894625" d="M71.55,194.242c12.024-4.337,16.286-20.52,10.686-41.91C76.619,130.782,67.621,123.055,59,121.406a4.278,4.278,0,0,1-3.308-5.149l.549-2.459a11.457,11.457,0,0,0-.1-5.361l-1.875-7.18-10.118-.138,2.713,9.291a11.449,11.449,0,0,1,.348,4.781l-.087.584a15.261,15.261,0,0,1-5.211,9.658c-3.829,3.2-6.291,8.311-4.674,15.577.062.274.132.546.205.826a73.887,73.887,0,0,0,3.025,9.128,82.494,82.494,0,0,1,3.357,10.243,61.565,61.565,0,0,1,1.832,9.8A66.711,66.711,0,0,0,47.6,181.427c1.609,6.172,4.567,10.434,8.8,12.659,4.194,2.214,9.289,2.259,15.146.156m-11.42-7.228c-2.161-1.138-3.766-3.7-4.788-7.607a59.91,59.91,0,0,1-1.731-9.345,70.185,70.185,0,0,0-2.032-10.875,91.407,91.407,0,0,0-3.641-11.113,68.084,68.084,0,0,1-2.748-8.246c-.053-.194-.094-.378-.133-.555-1.485-6.672,3.062-8.9,5.9-9.647,3.952-1.034,16-4.177,23.536,24.727.235.913.456,1.816.651,2.695,3.376,15.171.841,27.083-6.307,29.658-3.654,1.316-6.583,1.425-8.707.308" transform="translate(17.159 47.229)" fill="#4b677c"/>
              <g id="Grupo_1102349" data-name="Grupo 1102349" transform="translate(54.898 149.369)" opacity="0.5">
                <g id="Grupo_1102348" data-name="Grupo 1102348">
                  <g id="Grupo_1102347" data-name="Grupo 1102347" clip-path="url(#clip-path-8)">
                    <path id="Trazado_894626" data-name="Trazado 894626" d="M65.8,179.093c5.368-1.934,8.446-8.559,8.446-18.177a58.619,58.619,0,0,0-1.5-12.639c-.2-.892-.423-1.806-.659-2.729-3.285-12.589-7.847-20.728-13.564-24.2a12.75,12.75,0,0,0-8.232-1.837,12.866,12.866,0,0,1,5.274,1.837c5.716,3.468,10.278,11.607,13.563,24.2.236.923.461,1.837.66,2.729a58.711,58.711,0,0,1,1.5,12.639c0,9.618-3.079,16.243-8.447,18.177a19.272,19.272,0,0,1-4.048,1.021,14.846,14.846,0,0,0,7.007-1.021" transform="translate(-31.407 -93.587)" fill="#1d1d1b"/>
                    <path id="Trazado_894627" data-name="Trazado 894627" d="M59.511,192.877c-3.973-2.086-6.766-6.134-8.3-12.027a65.384,65.384,0,0,1-1.9-10.173l-.013-.11a63,63,0,0,0-1.859-9.938,82.789,82.789,0,0,0-3.367-10.288,73.872,73.872,0,0,1-3.015-9.08c-.084-.326-.144-.557-.2-.791a19.119,19.119,0,0,1-.481-4.143h0a13.2,13.2,0,0,1,4.819-10.45,16.2,16.2,0,0,0,5.56-10.288l.085-.575a12.241,12.241,0,0,0,.122-1.719,12.611,12.611,0,0,0-.5-3.486l-2.324-7.951-2.971-.041,2.336,7.993a12.611,12.611,0,0,1,.5,3.486,12.241,12.241,0,0,1-.122,1.719l-.084.575a16.212,16.212,0,0,1-5.56,10.288,13.2,13.2,0,0,0-4.819,10.45h0a19.118,19.118,0,0,0,.481,4.143c.051.233.11.465.2.791a73.622,73.622,0,0,0,3.015,9.08,83.038,83.038,0,0,1,3.367,10.288,63.168,63.168,0,0,1,1.859,9.938l.012.11a65.428,65.428,0,0,0,1.9,10.173c1.537,5.893,4.331,9.941,8.3,12.027a14.593,14.593,0,0,0,8.251,1.5,13.722,13.722,0,0,1-5.292-1.5" transform="translate(-37.42 -101.815)" fill="#1d1d1b"/>
                  </g>
                </g>
              </g>
              <path id="Trazado_894628" data-name="Trazado 894628" d="M44.061,94.6a3.674,3.674,0,0,0-6.1-3.882Z" transform="translate(17.728 41.817)" fill="#575756"/>
              <path id="Trazado_894629" data-name="Trazado 894629" d="M43.6,95.026l-6.078-3.864A3.674,3.674,0,0,0,43.6,95.026" transform="translate(17.414 42.578)" fill="#575756"/>
            </g>
          </g>
        </g>
      </g>
    </g>
  </g>
</svg>
