<svg xmlns="http://www.w3.org/2000/svg" xmlns:xlink="http://www.w3.org/1999/xlink" width="295" height="173.537" viewBox="0 0 295 173.537">
  <defs>
    <clipPath id="clip-path">
      <rect id="Rectángulo_402417" data-name="Rectángulo 402417" width="295" height="36.333" fill="#e3dcd9"/>
    </clipPath>
    <clipPath id="clip-path-2">
      <rect id="Rectángulo_402424" data-name="Rectángulo 402424" width="103.809" height="64.867" transform="translate(0 0.001)" fill="#454964"/>
    </clipPath>
    <clipPath id="clip-path-3">
      <rect id="Rectángulo_402882" data-name="Rectángulo 402882" width="41.683" height="253.124" fill="none"/>
    </clipPath>
    <clipPath id="clip-path-5">
      <rect id="Rectángulo_402876" data-name="Rectángulo 402876" width="5.414" height="66.38" fill="none"/>
    </clipPath>
    <clipPath id="clip-path-6">
      <rect id="Rectángulo_402879" data-name="Rectángulo 402879" width="27.079" height="103.366" fill="none"/>
    </clipPath>
    <clipPath id="clip-path-7">
      <rect id="Rectángulo_402880" data-name="Rectángulo 402880" width="17.935" height="98.626" fill="none"/>
    </clipPath>
  </defs>
  <g id="Grupo_1102321" data-name="Grupo 1102321" transform="translate(-915 -9286.938)">
    <g id="Grupo_1101572" data-name="Grupo 1101572" transform="translate(19556.73 11380.939)">
      <path id="retrato-de-una-persona-reparando-ropa-y-materiales-de-fijacion" d="M0,0H215a80,80,0,0,1,80,80v75.167a0,0,0,0,1,0,0H0a0,0,0,0,1,0,0V0A0,0,0,0,1,0,0Z" transform="translate(-18641.73 -2075.631)" fill="#727aa6"/>
      <g id="Grupo_1101548" data-name="Grupo 1101548" transform="translate(-18641.73 -1956.797)">
        <g id="Grupo_1101547" data-name="Grupo 1101547" clip-path="url(#clip-path)">
          <path id="Trazado_892350" data-name="Trazado 892350" d="M.522,1.557c29.44-.195,29.51,16.009,58.95,15.814S88.842.974,118.282.779s29.51,16.009,58.951,15.815S206.605.2,236.047,0,265.558,16.011,295,15.816l-.034-.713-.556,21.23H0L.557,1.221" transform="translate(0 0)" fill="#e3dcd9"/>
        </g>
      </g>
      <g id="Grupo_1101571" data-name="Grupo 1101571" transform="translate(-18632 -2094)">
        <g id="Grupo_1101570" data-name="Grupo 1101570" clip-path="url(#clip-path-2)">
          <path id="Trazado_892357" data-name="Trazado 892357" d="M5.117,2.559A2.559,2.559,0,1,1,2.558,0,2.559,2.559,0,0,1,5.117,2.559" fill="#454964"/>
          <path id="Trazado_892358" data-name="Trazado 892358" d="M24.856,2.559A2.559,2.559,0,1,1,22.3,0a2.559,2.559,0,0,1,2.559,2.559" fill="#454964"/>
          <path id="Trazado_892359" data-name="Trazado 892359" d="M44.594,2.559A2.559,2.559,0,1,1,42.035,0a2.559,2.559,0,0,1,2.559,2.559" fill="#454964"/>
          <path id="Trazado_892360" data-name="Trazado 892360" d="M64.332,2.559A2.559,2.559,0,1,1,61.773,0a2.559,2.559,0,0,1,2.559,2.559" fill="#454964"/>
          <path id="Trazado_892361" data-name="Trazado 892361" d="M84.071,2.559A2.558,2.558,0,1,1,81.512,0a2.559,2.559,0,0,1,2.559,2.559" fill="#454964"/>
          <path id="Trazado_892362" data-name="Trazado 892362" d="M103.809,2.559A2.558,2.558,0,1,1,101.25,0a2.559,2.559,0,0,1,2.559,2.559" fill="#454964"/>
          <path id="Trazado_892363" data-name="Trazado 892363" d="M5.117,22.3a2.559,2.559,0,1,1-2.559-2.559A2.559,2.559,0,0,1,5.117,22.3" fill="#454964"/>
          <path id="Trazado_892364" data-name="Trazado 892364" d="M24.856,22.3A2.559,2.559,0,1,1,22.3,19.738,2.559,2.559,0,0,1,24.856,22.3" fill="#454964"/>
          <path id="Trazado_892365" data-name="Trazado 892365" d="M44.594,22.3a2.559,2.559,0,1,1-2.559-2.559A2.559,2.559,0,0,1,44.594,22.3" fill="#454964"/>
          <path id="Trazado_892366" data-name="Trazado 892366" d="M64.332,22.3a2.559,2.559,0,1,1-2.559-2.559A2.559,2.559,0,0,1,64.332,22.3" fill="#454964"/>
          <path id="Trazado_892367" data-name="Trazado 892367" d="M84.071,22.3a2.558,2.558,0,1,1-2.559-2.559A2.559,2.559,0,0,1,84.071,22.3" fill="#454964"/>
          <path id="Trazado_892368" data-name="Trazado 892368" d="M103.809,22.3a2.558,2.558,0,1,1-2.559-2.559,2.559,2.559,0,0,1,2.559,2.559" fill="#454964"/>
          <path id="Trazado_892369" data-name="Trazado 892369" d="M5.117,42.3a2.559,2.559,0,1,1-2.559-2.559A2.559,2.559,0,0,1,5.117,42.3" fill="#454964"/>
          <path id="Trazado_892370" data-name="Trazado 892370" d="M24.856,42.3A2.559,2.559,0,1,1,22.3,39.744,2.559,2.559,0,0,1,24.856,42.3" fill="#454964"/>
          <path id="Trazado_892371" data-name="Trazado 892371" d="M44.594,42.3a2.559,2.559,0,1,1-2.559-2.559A2.559,2.559,0,0,1,44.594,42.3" fill="#454964"/>
          <path id="Trazado_892372" data-name="Trazado 892372" d="M64.332,42.3a2.559,2.559,0,1,1-2.559-2.559A2.559,2.559,0,0,1,64.332,42.3" fill="#454964"/>
          <path id="Trazado_892373" data-name="Trazado 892373" d="M84.071,42.3a2.558,2.558,0,1,1-2.559-2.559A2.559,2.559,0,0,1,84.071,42.3" fill="#454964"/>
          <path id="Trazado_892374" data-name="Trazado 892374" d="M103.809,42.3a2.558,2.558,0,1,1-2.559-2.559,2.559,2.559,0,0,1,2.559,2.559" fill="#454964"/>
          <path id="Trazado_892375" data-name="Trazado 892375" d="M5.117,62.309A2.559,2.559,0,1,1,2.558,59.75a2.559,2.559,0,0,1,2.559,2.559" fill="#454964"/>
          <path id="Trazado_892376" data-name="Trazado 892376" d="M24.856,62.309A2.559,2.559,0,1,1,22.3,59.75a2.559,2.559,0,0,1,2.559,2.559" fill="#454964"/>
          <path id="Trazado_892377" data-name="Trazado 892377" d="M44.594,62.309a2.559,2.559,0,1,1-2.559-2.559,2.559,2.559,0,0,1,2.559,2.559" fill="#454964"/>
          <path id="Trazado_892378" data-name="Trazado 892378" d="M64.332,62.309a2.559,2.559,0,1,1-2.559-2.559,2.559,2.559,0,0,1,2.559,2.559" fill="#454964"/>
          <path id="Trazado_892379" data-name="Trazado 892379" d="M84.071,62.309a2.558,2.558,0,1,1-2.559-2.559,2.559,2.559,0,0,1,2.559,2.559" fill="#454964"/>
          <path id="Trazado_892380" data-name="Trazado 892380" d="M103.809,62.309a2.558,2.558,0,1,1-2.559-2.559,2.559,2.559,0,0,1,2.559,2.559" fill="#454964"/>
        </g>
      </g>
    </g>
    <g id="Grupo_1102326" data-name="Grupo 1102326" transform="matrix(0.545, -0.839, 0.839, 0.545, 945.005, 9321.896)">
      <g id="Grupo_1102337" data-name="Grupo 1102337" clip-path="url(#clip-path-3)">
        <g id="Grupo_1102336" data-name="Grupo 1102336">
          <g id="Grupo_1102335" data-name="Grupo 1102335" clip-path="url(#clip-path-3)">
            <path id="Trazado_894606" data-name="Trazado 894606" d="M38.276,26.374s-.534-.553-1.091-1.049c-.336-.294-.673-.564-.9-.743a16.076,16.076,0,0,0,.387-2.681c0-.05,0-.1,0-.147.261-.111.653-.281,1.049-.475.679-.326,1.358-.712,1.358-.712l.425-.245c.259-.15.579-.356.9-.575.642-.434,1.276-.928,1.276-.928s-.715-.354-1.427-.65c-.74-.3-1.479-.531-1.479-.531s-.739-.24-1.465-.422c-.417-.111-.845-.2-1.132-.248a15.718,15.718,0,0,0-.965-2.683c.028-.031.055-.062.084-.1.176-.215.4-.507.626-.812.447-.6.863-1.262.863-1.262l.259-.412c.153-.251.359-.595.536-.934.364-.681.693-1.413.693-1.413s-.8.022-1.568.1c-.784.078-1.552.217-1.552.217s-.765.131-1.493.309c-.422.1-.838.22-1.118.308a16.073,16.073,0,0,0-2.1-1.93l.03-.125c.053-.27.12-.636.178-1.009.116-.743.183-1.519.183-1.519s.014-.2.037-.487.042-.689.041-1.071c.006-.774-.041-1.576-.041-1.576s-.7.389-1.346.807c-.662.437-1.276.915-1.276.915s-.618.472-1.18.968c-.328.279-.64.582-.845.79a15.977,15.977,0,0,0-2.758-.728c-.077-.281-.2-.7-.345-1.1-.244-.709-.547-1.424-.547-1.424s-.3-.714-.654-1.429C21.573.682,21.161,0,21.161,0s-.437.675-.814,1.352-.706,1.383-.706,1.383-.328.71-.595,1.418c-.159.411-.3.815-.384,1.085a15.709,15.709,0,0,0-2.781.637c-.2-.214-.5-.526-.82-.831-.543-.511-1.143-1-1.143-1s-.593-.489-1.241-.951c-.326-.237-.653-.451-.9-.606l-.422-.258s-.072.8-.087,1.582c-.011.39-.009.774,0,1.06l.023.487s.042.782.136,1.533c.052.439.12.86.169,1.141A15.855,15.855,0,0,0,9.423,9.895c-.275-.1-.687-.234-1.112-.354-.717-.2-1.474-.354-1.474-.354s-.753-.158-1.543-.269c-.4-.061-.781-.094-1.076-.117l-.492-.034s.308.745.653,1.441c.172.351.348.69.487.942s.248.423.248.423.4.675.831,1.3c.248.364.5.707.676.932a15.865,15.865,0,0,0-1.056,2.653c-.287.042-.715.112-1.151.2-.726.158-1.466.375-1.466.375s-.739.212-1.485.482c-.373.134-.753.28-1.015.4s-.45.2-.45.2.623.515,1.257.971,1.273.863,1.273.863.671.409,1.348.759c.389.2.773.387,1.034.507A15.74,15.74,0,0,0,5.2,24.057c-.233.17-.571.426-.91.706-.609.486-1.143,1.017-1.143,1.017s-.551.528-1.081,1.113c-.265.292-.528.593-.721.826s-.315.39-.315.39.8.166,1.574.273,1.538.17,1.538.17l.473.033c.29.012.679.02,1.06.019.44,0,.867-.02,1.154-.034a16.072,16.072,0,0,0,1.585,2.383c-.125.259-.306.645-.476,1.049-.312.712-.54,1.43-.54,1.43s-.242.725-.44,1.488c-.1.381-.192.77-.256,1.065s-.1.489-.1.489.782-.222,1.521-.486,1.44-.562,1.44-.562L10,35.234c.264-.125.612-.3.949-.475.389-.2.759-.418,1.006-.565a15.751,15.751,0,0,0,2.509,1.377c.009.289.028.714.066,1.151.055.776.187,1.518.187,1.518s.123.753.3,1.521.412,1.546.412,1.546.587-.562,1.118-1.143,1.013-1.171,1.013-1.171.482-.582.912-1.23c.248-.361.475-.721.625-.968.262.028.526.052.792.066a16.016,16.016,0,0,0,2.069-.019c.142.248.358.617.595.987.406.643.873,1.276.873,1.276s.456.6.971,1.2,1.079,1.166,1.079,1.166.272-.734.467-1.513.353-1.521.353-1.521.153-.75.244-1.5c.052-.442.083-.871.1-1.162a15.874,15.874,0,0,0,2.551-1.287c.24.153.6.379.987.595.659.378,1.365.72,1.365.72s.178.089.437.2.617.265.982.408c.725.287,1.494.532,1.494.532s-.1-.776-.292-1.557-.4-1.508-.4-1.508-.211-.734-.481-1.438c-.159-.415-.329-.81-.448-1.076A15.942,15.942,0,0,0,34.5,29.043c.284.023.71.056,1.151.07.759.03,1.544,0,1.544,0s.2,0,.478-.025.671-.052,1.06-.1c.776-.083,1.572-.225,1.572-.225s-.451-.64-.982-1.244c-.515-.6-1.052-1.152-1.052-1.152" fill="#706f6f"/>
            <path id="Trazado_894607" data-name="Trazado 894607" d="M30.025,17.855A12.281,12.281,0,1,1,17.744,5.574,12.28,12.28,0,0,1,30.025,17.855" transform="translate(3.067 3.13)" fill="#b2b2b2"/>
            <path id="Trazado_894608" data-name="Trazado 894608" d="M25.223,16.585a8.749,8.749,0,1,1-8.749-8.749,8.749,8.749,0,0,1,8.749,8.749" transform="translate(4.337 4.4)" fill="#3c3c3b"/>
            <path id="Trazado_894609" data-name="Trazado 894609" d="M22.223,15.791A6.542,6.542,0,1,1,15.68,9.249a6.543,6.543,0,0,1,6.542,6.542" transform="translate(5.131 5.193)" fill="#878787"/>
            <path id="Trazado_894610" data-name="Trazado 894610" d="M19.552,111.14l-1.93-93.6a3.806,3.806,0,1,0-5.295,0l-1.93,93.6Z" transform="translate(5.837 6.177)" fill="#b2b2b2"/>
            <g id="Grupo_1102328" data-name="Grupo 1102328" transform="translate(18.056 18.325)" opacity="0.5">
              <g id="Grupo_1102327" data-name="Grupo 1102327">
                <g id="Grupo_1102326-2" data-name="Grupo 1102326" clip-path="url(#clip-path-5)">
                  <path id="Trazado_894611" data-name="Trazado 894611" d="M15.809,16.647l.359-.348a2.658,2.658,0,1,0-3.7,0l.359.348-1.268,61.47,4.374-55.228Z" transform="translate(-11.563 -11.736)" fill="#fff"/>
                </g>
              </g>
            </g>
            <path id="Trazado_894612" data-name="Trazado 894612" d="M27.624,159.155A10.515,10.515,0,1,0,17.109,169.67a10.515,10.515,0,0,0,10.515-10.515" transform="translate(3.702 83.454)" fill="#805d42"/>
            <path id="Trazado_894613" data-name="Trazado 894613" d="M27.625,79.1V92.666H6.591V79.1a5.2,5.2,0,0,1,5.2-5.192H22.421a5.2,5.2,0,0,1,5.2,5.192" transform="translate(3.701 41.495)" fill="#805d42"/>
            <path id="Trazado_894614" data-name="Trazado 894614" d="M29.467,85.92H8.437a289.373,289.373,0,0,0,0,108.449h21.03a289.373,289.373,0,0,0,0-108.449" transform="translate(1.859 48.24)" fill="#bf915b"/>
            <rect id="Rectángulo_402877" data-name="Rectángulo 402877" width="21.034" height="2.241" transform="translate(10.292 129.394)" fill="#bf915b"/>
            <rect id="Rectángulo_402878" data-name="Rectángulo 402878" width="21.034" height="2.252" transform="translate(10.292 124.775)" fill="#bf915b"/>
            <g id="Grupo_1102331" data-name="Grupo 1102331" transform="translate(9.361 149.758)" opacity="0.2">
              <g id="Grupo_1102330" data-name="Grupo 1102330">
                <g id="Grupo_1102329" data-name="Grupo 1102329" clip-path="url(#clip-path-6)">
                  <path id="Trazado_894615" data-name="Trazado 894615" d="M5.995,183.539c.3,1.743.6,3.484.935,5.221a10.515,10.515,0,1,0,21.03,0,289.381,289.381,0,0,0,2.517-92.852c-2.389,39.548-6.258,76.442-24.482,87.63" transform="translate(-5.995 -95.91)" fill="#1d1d1b"/>
                </g>
              </g>
            </g>
            <g id="Grupo_1102334" data-name="Grupo 1102334" transform="translate(7.454 117.7)" opacity="0.3">
              <g id="Grupo_1102333" data-name="Grupo 1102333">
                <g id="Grupo_1102332" data-name="Grupo 1102332" clip-path="url(#clip-path-7)">
                  <path id="Trazado_894616" data-name="Trazado 894616" d="M12.816,75.379A2.913,2.913,0,0,0,9.91,78.285V89.543l.019.634-.056,2.1A285.747,285.747,0,0,0,6.15,174c.615-32.755,1.955-65.027,6.889-82.44l.356-9.345A5.774,5.774,0,0,1,17.531,76.9l5.176-1.524Z" transform="translate(-4.774 -75.378)" fill="#fff"/>
                </g>
              </g>
            </g>
          </g>
        </g>
      </g>
    </g>
  </g>
</svg>
