<svg xmlns="http://www.w3.org/2000/svg" xmlns:xlink="http://www.w3.org/1999/xlink" width="295.093" height="230.03" viewBox="0 0 295.093 230.03">
  <defs>
    <clipPath id="clip-path">
      <rect id="Rectángulo_402417" data-name="Rectángulo 402417" width="295" height="36.333" fill="#e3dcd9"/>
    </clipPath>
    <clipPath id="clip-path-2">
      <rect id="Rectángulo_402424" data-name="Rectángulo 402424" width="103.809" height="64.867" transform="translate(0 0.001)" fill="#454964"/>
    </clipPath>
    <clipPath id="clip-path-3">
      <rect id="Rectángulo_402823" data-name="Rectángulo 402823" width="84.047" height="219.987" fill="none"/>
    </clipPath>
  </defs>
  <g id="Grupo_1102408" data-name="Grupo 1102408" transform="translate(-390.098 -9172)">
    <g id="Grupo_1102318" data-name="Grupo 1102318" transform="translate(-524.903 -58.445)">
      <g id="Grupo_1101572" data-name="Grupo 1101572" transform="translate(19556.73 11380.939)">
        <path id="retrato-de-una-persona-reparando-ropa-y-materiales-de-fijacion" d="M0,0H215a80,80,0,0,1,80,80v75.167a0,0,0,0,1,0,0H0a0,0,0,0,1,0,0V0A0,0,0,0,1,0,0Z" transform="translate(-18641.73 -2075.631)" fill="#727aa6"/>
        <g id="Grupo_1101548" data-name="Grupo 1101548" transform="translate(-18641.73 -1956.797)">
          <g id="Grupo_1101547" data-name="Grupo 1101547" clip-path="url(#clip-path)">
            <path id="Trazado_892350" data-name="Trazado 892350" d="M.522,1.557c29.44-.195,29.51,16.009,58.95,15.814S88.842.974,118.282.779s29.51,16.009,58.951,15.815S206.605.2,236.047,0,265.558,16.011,295,15.816l-.034-.713-.556,21.23H0L.557,1.221" transform="translate(0 0)" fill="#e3dcd9"/>
          </g>
        </g>
        <g id="Grupo_1101571" data-name="Grupo 1101571" transform="translate(-18632 -2094)">
          <g id="Grupo_1101570" data-name="Grupo 1101570" clip-path="url(#clip-path-2)">
            <path id="Trazado_892357" data-name="Trazado 892357" d="M5.117,2.559A2.559,2.559,0,1,1,2.558,0,2.559,2.559,0,0,1,5.117,2.559" fill="#454964"/>
            <path id="Trazado_892358" data-name="Trazado 892358" d="M24.856,2.559A2.559,2.559,0,1,1,22.3,0a2.559,2.559,0,0,1,2.559,2.559" fill="#454964"/>
            <path id="Trazado_892359" data-name="Trazado 892359" d="M44.594,2.559A2.559,2.559,0,1,1,42.035,0a2.559,2.559,0,0,1,2.559,2.559" fill="#454964"/>
            <path id="Trazado_892360" data-name="Trazado 892360" d="M64.332,2.559A2.559,2.559,0,1,1,61.773,0a2.559,2.559,0,0,1,2.559,2.559" fill="#454964"/>
            <path id="Trazado_892361" data-name="Trazado 892361" d="M84.071,2.559A2.558,2.558,0,1,1,81.512,0a2.559,2.559,0,0,1,2.559,2.559" fill="#454964"/>
            <path id="Trazado_892362" data-name="Trazado 892362" d="M103.809,2.559A2.558,2.558,0,1,1,101.25,0a2.559,2.559,0,0,1,2.559,2.559" fill="#454964"/>
            <path id="Trazado_892363" data-name="Trazado 892363" d="M5.117,22.3a2.559,2.559,0,1,1-2.559-2.559A2.559,2.559,0,0,1,5.117,22.3" fill="#454964"/>
            <path id="Trazado_892364" data-name="Trazado 892364" d="M24.856,22.3A2.559,2.559,0,1,1,22.3,19.738,2.559,2.559,0,0,1,24.856,22.3" fill="#454964"/>
            <path id="Trazado_892365" data-name="Trazado 892365" d="M44.594,22.3a2.559,2.559,0,1,1-2.559-2.559A2.559,2.559,0,0,1,44.594,22.3" fill="#454964"/>
            <path id="Trazado_892366" data-name="Trazado 892366" d="M64.332,22.3a2.559,2.559,0,1,1-2.559-2.559A2.559,2.559,0,0,1,64.332,22.3" fill="#454964"/>
            <path id="Trazado_892367" data-name="Trazado 892367" d="M84.071,22.3a2.558,2.558,0,1,1-2.559-2.559A2.559,2.559,0,0,1,84.071,22.3" fill="#454964"/>
            <path id="Trazado_892368" data-name="Trazado 892368" d="M103.809,22.3a2.558,2.558,0,1,1-2.559-2.559,2.559,2.559,0,0,1,2.559,2.559" fill="#454964"/>
            <path id="Trazado_892369" data-name="Trazado 892369" d="M5.117,42.3a2.559,2.559,0,1,1-2.559-2.559A2.559,2.559,0,0,1,5.117,42.3" fill="#454964"/>
            <path id="Trazado_892370" data-name="Trazado 892370" d="M24.856,42.3A2.559,2.559,0,1,1,22.3,39.744,2.559,2.559,0,0,1,24.856,42.3" fill="#454964"/>
            <path id="Trazado_892371" data-name="Trazado 892371" d="M44.594,42.3a2.559,2.559,0,1,1-2.559-2.559A2.559,2.559,0,0,1,44.594,42.3" fill="#454964"/>
            <path id="Trazado_892372" data-name="Trazado 892372" d="M64.332,42.3a2.559,2.559,0,1,1-2.559-2.559A2.559,2.559,0,0,1,64.332,42.3" fill="#454964"/>
            <path id="Trazado_892373" data-name="Trazado 892373" d="M84.071,42.3a2.558,2.558,0,1,1-2.559-2.559A2.559,2.559,0,0,1,84.071,42.3" fill="#454964"/>
            <path id="Trazado_892374" data-name="Trazado 892374" d="M103.809,42.3a2.558,2.558,0,1,1-2.559-2.559,2.559,2.559,0,0,1,2.559,2.559" fill="#454964"/>
            <path id="Trazado_892375" data-name="Trazado 892375" d="M5.117,62.309A2.559,2.559,0,1,1,2.558,59.75a2.559,2.559,0,0,1,2.559,2.559" fill="#454964"/>
            <path id="Trazado_892376" data-name="Trazado 892376" d="M24.856,62.309A2.559,2.559,0,1,1,22.3,59.75a2.559,2.559,0,0,1,2.559,2.559" fill="#454964"/>
            <path id="Trazado_892377" data-name="Trazado 892377" d="M44.594,62.309a2.559,2.559,0,1,1-2.559-2.559,2.559,2.559,0,0,1,2.559,2.559" fill="#454964"/>
            <path id="Trazado_892378" data-name="Trazado 892378" d="M64.332,62.309a2.559,2.559,0,1,1-2.559-2.559,2.559,2.559,0,0,1,2.559,2.559" fill="#454964"/>
            <path id="Trazado_892379" data-name="Trazado 892379" d="M84.071,62.309a2.558,2.558,0,1,1-2.559-2.559,2.559,2.559,0,0,1,2.559,2.559" fill="#454964"/>
            <path id="Trazado_892380" data-name="Trazado 892380" d="M103.809,62.309a2.558,2.558,0,1,1-2.559-2.559,2.559,2.559,0,0,1,2.559,2.559" fill="#454964"/>
          </g>
        </g>
      </g>
      <g id="Grupo_1101834" data-name="Grupo 1101834" transform="translate(935.443 9275.531)">
        <path id="Trazado_894617" data-name="Trazado 894617" d="M11.9,110.109" transform="translate(121.738 42.835)" fill="none" stroke="#3f2d1f" stroke-linecap="round" stroke-width="1.199"/>
      </g>
    </g>
    <g id="Grupo_1102405" data-name="Grupo 1102405" transform="translate(60.545 165.563)">
      <g id="Grupo_1102263" data-name="Grupo 1102263" transform="translate(434.455 9016.479)">
        <path id="Trazado_894341" data-name="Trazado 894341" d="M334.2,2802.182l-.216,13.759-7.226-.385-2.373-16.357Z" transform="translate(-301.783 -2604.192)" fill="#febda9"/>
        <path id="Trazado_894342" data-name="Trazado 894342" d="M820.665,2802.182l3.517,13.759,7.133-.385-1.552-16.357Z" transform="translate(-763.493 -2604.193)" fill="#febda9"/>
        <g id="Grupo_1102262" data-name="Grupo 1102262" transform="translate(0 0)">
          <g id="Grupo_1102261" data-name="Grupo 1102261" transform="translate(0 0)" clip-path="url(#clip-path-3)">
            <path id="Trazado_894343" data-name="Trazado 894343" d="M233.508,1675.055c-1.465,14,2.442,68.389,6.025,83.37,4.722,1.954,10.91,1.3,10.91,1.3l3.419-64.807,2.117.163,17.64,64.879s10.178-1.114,10.608-3.1c-1.3-21.657-11.477-79.362-11.477-79.362Z" transform="translate(-216.947 -1558.362)" fill="#a6826d"/>
            <path id="Trazado_894344" data-name="Trazado 894344" d="M466.019,1950.169a26.833,26.833,0,0,0-11.9-1.669l-.03-.337a27.138,27.138,0,0,1,12.064,1.7Z" transform="translate(-422.457 -1812.347)" fill="#5c3f36"/>
            <path id="Trazado_894345" data-name="Trazado 894345" d="M511.544,1918.628a15.241,15.241,0,0,0-7.338-2.306l.024-.338a15.57,15.57,0,0,1,7.514,2.371Z" transform="translate(-469.08 -1782.507)" fill="#5c3f36"/>
            <path id="Trazado_894346" data-name="Trazado 894346" d="M873.958,1111.36c-.156,4.343-12.129,27.193-13.13,27.984-.582.453-1.955-1.671-2.949-4a10.561,10.561,0,0,1-1.109-4.525c.054-.352.23-1.1.494-2.1,1.468-5.526,5.54-18.981,5.54-18.981l-1.2-5.689-1.069-5.033,10.81-3.03s.237.94.561,2.381c.8,3.484,2.165,9.91,2.056,12.988" transform="translate(-797.06 -1019.639)" fill="#febda9"/>
            <path id="Trazado_894347" data-name="Trazado 894347" d="M922.464,1098.372c-3.193,3.91-7.975,5.249-10.3,5.682l-1.069-5.033,10.81-3.03s.237.94.561,2.381" transform="translate(-847.622 -1019.639)" fill="#ca6c90"/>
            <path id="Trazado_894348" data-name="Trazado 894348" d="M861.532,1573.8c-.095,1.427-2.144-.041-3.653-1.319a10.561,10.561,0,0,1-1.109-4.525c.054-.352.23-1.1.494-2.1,4.377,2.922,4.411,5.824,4.268,7.941" transform="translate(-797.06 -1456.77)" fill="#ca6c90"/>
            <path id="Trazado_894349" data-name="Trazado 894349" d="M11.446,1127.813C10.493,1126.968-.107,1103.441,0,1099.1a57.913,57.913,0,0,1,2.023-10.566c.528-2,.947-3.416.947-3.416l11.439,4.451-1.874,5.046-1.306,3.531s4.559,19.076,4.769,21.4-3.6,9.112-4.552,8.266" transform="translate(0 -1009.521)" fill="#febda9"/>
            <path id="Trazado_894350" data-name="Trazado 894350" d="M41.43,1089.567l-1.874,5.046c-2.943-.751-7.651-2.469-10.512-6.081.528-2,.947-3.416.947-3.416Z" transform="translate(-27.021 -1009.521)" fill="#ca6c90"/>
            <path id="Trazado_894351" data-name="Trazado 894351" d="M68.714,604.265,65.894,656.7s-4.823,4.471-20.807,4-21.044-6.467-21.044-6.467,1.644-13.637,2.469-22.214.94-26.686.94-26.686l-4.329,12.447c-2.97-.386-11.04-2.794-13.982-5.723,2.922-10.451,9.416-22.918,11.608-25.184,2.171-2.246,10.241-6.318,15.511-8.841a79.606,79.606,0,0,1,7.521-2.875l6.286.315s6.242,1.687,8.691,2.37c5.249,1.454,13.928,4.221,16.654,7.265,2.571,2.875,7.447,15.626,9.483,26.422-1.968,2.706-8.517,6.409-14.091,5.192Z" transform="translate(-8.503 -535.083)" fill="#e3e4ed"/>
            <path id="Trazado_894352" data-name="Trazado 894352" d="M420.909,577.836a18.254,18.254,0,0,1-22.5.189,79.605,79.605,0,0,1,7.521-2.875l6.286.315s6.242,1.687,8.691,2.37" transform="translate(-370.655 -535.083)" fill="#febda9"/>
            <path id="Trazado_894353" data-name="Trazado 894353" d="M120.214,1540.007l-5.4,6.663c-1.568.222-3.351-1.991-3.843-3.7a2.277,2.277,0,0,1,.258-1.662,10.991,10.991,0,0,1,5.256-4.843,5.075,5.075,0,0,1,2.212-.332c1.508.129,1.522,3.748,1.522,3.876" transform="translate(-103.174 -1429.102)" fill="#452963"/>
            <path id="Trazado_894354" data-name="Trazado 894354" d="M123.088,1544.2a14.523,14.523,0,0,1-3.815,4.539c-.636.3-2.577-1.285-3.714-2.8a10.992,10.992,0,0,1,5.256-4.844c1.184,1.082,2.4,2.584,2.273,3.1" transform="translate(-107.509 -1433.733)" fill="#1f0f30"/>
            <path id="Trazado_894355" data-name="Trazado 894355" d="M115.868,1539.733c-.527,1.054,2.779,4.3,3.565,3.932a11.559,11.559,0,0,0,3.041-3.617c.157-.629-2.15-3.041-3.093-3.408s-3.2,2.464-3.513,3.093" transform="translate(-107.744 -1429.559)" fill="#452963"/>
            <path id="Trazado_894356" data-name="Trazado 894356" d="M128.133,1545.928l-5.324.994c-.216-.406-.21-.6-.189-.636.338-.676,2.226-2.861,2.9-2.861a8.912,8.912,0,0,1,2.611,2.5" transform="translate(-114.068 -1435.902)" fill="#9161a8"/>
            <path id="Trazado_894357" data-name="Trazado 894357" d="M153.008,1568.947c.116,4.278,4.239,3.587,4.239,3.587l4.206,2.715a1.286,1.286,0,0,0,1.607-1.99l-3.6-3.6,6.293,2.221a1.764,1.764,0,0,0,2.164-.874l.9-1.792a1.764,1.764,0,0,0-.977-2.447l-6.42-2.325,6.027.416a1.627,1.627,0,0,0,.26-3.243l-5.681-.521a8.038,8.038,0,0,0-8.136,4.585,7.933,7.933,0,0,0-.883,3.263" transform="translate(-142.347 -1452.303)" fill="#febda9"/>
            <path id="Trazado_894358" data-name="Trazado 894358" d="M196.778,1578.735c-.058-.182-1.383-4.518,2.773-9.1l.5.455c-3.881,4.278-2.642,8.4-2.629,8.438Z" transform="translate(-182.841 -1460.288)" fill="#fed0bc"/>
            <path id="Trazado_894359" data-name="Trazado 894359" d="M258.681,1646.046l-8.506-3.372,8.742,2.738Z" transform="translate(-232.746 -1528.237)" fill="#ca6c90"/>
            <path id="Trazado_894360" data-name="Trazado 894360" d="M707.754,1579.354c-.116,4.278-4.239,3.587-4.239,3.587l-4.206,2.715a1.286,1.286,0,0,1-1.607-1.99l3.6-3.6L695,1582.292a1.764,1.764,0,0,1-2.165-.875l-.9-1.792a1.764,1.764,0,0,1,.977-2.447l6.42-2.325-6.027.416a1.627,1.627,0,0,1-.26-3.243l5.681-.521a8.039,8.039,0,0,1,8.136,4.585,7.933,7.933,0,0,1,.883,3.263" transform="translate(-643.397 -1461.984)" fill="#febda9"/>
            <path id="Trazado_894361" data-name="Trazado 894361" d="M833.052,1589.143c.058-.182,1.383-4.518-2.773-9.1l-.5.454c3.881,4.278,2.642,8.4,2.629,8.438Z" transform="translate(-771.971 -1469.971)" fill="#fed0bc"/>
            <path id="Trazado_894362" data-name="Trazado 894362" d="M701.411,1656.948l8.277-3.335-8.513,2.7Z" transform="translate(-652.328 -1538.414)" fill="#ca6c90"/>
            <path id="Trazado_894363" data-name="Trazado 894363" d="M366.078,313.107c-2.913-1.363-3.933-.51-4.36,1.781s1.824,5.68,2.98,6.234,2.05-1.387,2.05-1.387Z" transform="translate(-336.469 -290.687)" fill="#fe9e9b"/>
            <path id="Trazado_894364" data-name="Trazado 894364" d="M682.336,302.628c2.819-1.549,3.892-.764,4.466,1.495s-1.452,5.786-2.57,6.414-2.136-1.252-2.136-1.252Z" transform="translate(-634.578 -280.796)" fill="#fe9e9b"/>
            <path id="Trazado_894365" data-name="Trazado 894365" d="M473.58,472.427l-14.192-.237s.122-1.948.257-4.059c.156-2.462.338-5.148.379-5.276l12.839-1.116.25,3.747Z" transform="translate(-427.385 -429.572)" fill="#febda9"/>
            <path id="Trazado_894366" data-name="Trazado 894366" d="M476.546,465.486a10.179,10.179,0,0,1-13.468,2.645c.156-2.462.338-5.148.379-5.276l12.839-1.116Z" transform="translate(-430.818 -429.572)" fill="#ca6c90"/>
            <path id="Trazado_894367" data-name="Trazado 894367" d="M427.72,103.693c-.155-2.426-1.953-9.965-9.936-10.136a3.3,3.3,0,0,0-.354-.009c-.062,0-.12.008-.181.011s-.119,0-.181,0a3.3,3.3,0,0,0-.352.032c-7.955.688-9.261,8.328-9.258,10.759,0,2.5.566,10.227.95,12.4.37,2.1,3.792,8.674,9.426,8.971a1.415,1.415,0,0,0,.279.021c.061,0,.12-.009.181-.013s.12,0,.181,0a1.413,1.413,0,0,0,.277-.039c5.6-.662,8.592-7.445,8.825-9.563.242-2.2.3-9.942.144-12.439" transform="translate(-379.072 -87.029)" fill="#febda9"/>
            <path id="Trazado_894368" data-name="Trazado 894368" d="M382.341,342.307c-.424-.269-.624-.564-.594-.877.04-.427.506-.743.728-.871-.118-.745-.524-2.462-1.24-2.917a.6.6,0,0,0-.4-.1l-.049-.325a1.05,1.05,0,0,1,.7.166c1.036.658,1.39,3.132,1.4,3.237l.015.107-.115.055c-.169.081-.614.359-.642.67-.018.2.131.4.443.6Z" transform="translate(-354.254 -313.716)" fill="#ca6c90"/>
            <path id="Trazado_894369" data-name="Trazado 894369" d="M429.024,208.007a16.475,16.475,0,0,1,6.609-1.262,2.277,2.277,0,0,0-.957-1.426c-2.771.226-5.651,2.688-5.651,2.688" transform="translate(-399.136 -191.016)" fill="#452963"/>
            <path id="Trazado_894370" data-name="Trazado 894370" d="M472.381,277.261a1.418,1.418,0,0,1-1.132,1.607c-.653.021-1.206-.664-1.234-1.53a1.418,1.418,0,0,1,1.132-1.607c.653-.021,1.206.664,1.234,1.53" transform="translate(-437.271 -256.522)" fill="#0f0546"/>
            <path id="Trazado_894371" data-name="Trazado 894371" d="M704.232,331.13c.405-.3.586-.6.536-.914-.067-.423-.553-.709-.783-.822.069-.752.363-2.491,1.048-2.992a.6.6,0,0,1,.4-.128l.028-.327a1.05,1.05,0,0,0-.688.212c-.991.724-1.184,3.216-1.192,3.321l-.008.108.118.047c.174.07.635.318.684.627.031.2-.105.405-.4.623Z" transform="translate(-654.556 -303.239)" fill="#ca6c90"/>
            <path id="Trazado_894372" data-name="Trazado 894372" d="M587.324,204.947a16.476,16.476,0,0,0-6.676-.831,2.278,2.278,0,0,1,.863-1.485c2.78.047,5.814,2.316,5.814,2.316" transform="translate(-540.197 -188.515)" fill="#452963"/>
            <path id="Trazado_894373" data-name="Trazado 894373" d="M605.146,272.955c.028.866.58,1.551,1.234,1.53a1.418,1.418,0,0,0,1.132-1.607c-.028-.866-.58-1.551-1.234-1.53a1.418,1.418,0,0,0-1.132,1.607" transform="translate(-562.988 -252.445)" fill="#0f0546"/>
            <path id="Trazado_894374" data-name="Trazado 894374" d="M507.849,426a7.5,7.5,0,0,1-3.964-.867l.2-.347c2.951,1.692,7.1.34,7.517-.168l.311.252a7.2,7.2,0,0,1-4.063,1.13" transform="translate(-468.782 -395.036)" fill="#ca6c90"/>
            <path id="Trazado_894375" data-name="Trazado 894375" d="M373.862,87.272a17.585,17.585,0,0,0,1.805,3.131s-1.048-7.793.5-10.9c2.959-1.135,3.583-4.519,3.54-5.863s.4-2.642-2.395-2.185-4.681,4.615-4.83,5.66.863,2.112.738,3.89a17.5,17.5,0,0,0,.64,6.267" transform="translate(-346.522 -66.39)" fill="#452963"/>
            <path id="Trazado_894376" data-name="Trazado 894376" d="M636.614,96.631c-.006.056-.008.116-.014.172-.029.325-.062.67-.1,1.032-.221,2.064-.581,4.552-.631,6.074a6.792,6.792,0,0,1-1.537,3.555s.647-5.587-1.167-9.941a11.418,11.418,0,0,0-.511-1.068s0,0,0,0a7.559,7.559,0,0,0-2.867-3.024s1.616-2.865,4.088-2.149,2.915,3.146,2.742,5.353" transform="translate(-585.91 -84.813)" fill="#452963"/>
            <path id="Trazado_894377" data-name="Trazado 894377" d="M527.974,371.725c1.161,1.294,4.17.772,4.568-.027a4.672,4.672,0,0,0-4.568.027" transform="translate(-491.193 -345.266)" fill="#ca6c90"/>
            <path id="Trazado_894378" data-name="Trazado 894378" d="M527.749,292.446l-.353-.187a14.017,14.017,0,0,0,1.114-6.457l.4-.013a14.121,14.121,0,0,1-1.161,6.657" transform="translate(-490.655 -265.88)" fill="#ca6c90"/>
            <path id="Trazado_894379" data-name="Trazado 894379" d="M452.054,6.468s-1.6,3.6-8.563,3.7c-6.863.1-12.126-3.408-7.222-9.877L436.5,0a2.65,2.65,0,0,0,.182.3,5.651,5.651,0,0,0,4.736,2.415c3.583.068,6.4-1.048,7.907-.216a.162.162,0,0,1,.037.019,3.3,3.3,0,0,1,.748.624,12.586,12.586,0,0,1,1.948,3.326" transform="translate(-404.093 -0.002)" fill="#452963"/>
            <path id="Trazado_894380" data-name="Trazado 894380" d="M475.275,3.142c-1.419-.69-2.139.169-3.145,1.362a8.377,8.377,0,0,1-2.889,2.482,6.08,6.08,0,0,1-2.339.556,5.266,5.266,0,0,1-3.2-.9c-1.187-.838-2.525-2.615-2.266-6.345L461.665,0a2.654,2.654,0,0,0,.182.3c-.261,3.558.982,5.23,2.088,6.01a5.245,5.245,0,0,0,5.14.313,8.119,8.119,0,0,0,2.752-2.378c.809-.962,1.545-1.839,2.664-1.747a.157.157,0,0,1,.037.019,3.3,3.3,0,0,1,.748.624" transform="translate(-429.262 -0.002)" fill="#9161a8"/>
            <path id="Trazado_894381" data-name="Trazado 894381" d="M435.238,80.249a6.267,6.267,0,0,1-2.715-3.623l.388-.1a5.876,5.876,0,0,0,2.551,3.388Z" transform="translate(-402.391 -71.199)" fill="#1f0f30"/>
            <path id="Trazado_894382" data-name="Trazado 894382" d="M674.941,167.474c-.03.325-.062.67-.1,1.032a1.72,1.72,0,0,1-.767.517,1.8,1.8,0,0,1-.485.084,3.181,3.181,0,0,1-2.082-.913,11.417,11.417,0,0,0-.511-1.068c1.076,1.222,2.146,1.779,2.954,1.517a1.662,1.662,0,0,0,.99-1.168" transform="translate(-624.251 -155.483)" fill="#1f0f30"/>
            <path id="Trazado_894383" data-name="Trazado 894383" d="M309.774,2851.664l12.556,1.256-.167,2.427-11.886-1.088Z" transform="translate(-288.193 -2653.003)" fill="#5c3f36"/>
            <path id="Trazado_894384" data-name="Trazado 894384" d="M797.173,2842.43l.921,2.093,11.619-2.309-.06-2.393Z" transform="translate(-741.638 -2641.984)" fill="#5c3f36"/>
            <path id="Trazado_894385" data-name="Trazado 894385" d="M828.76,2989.679a45.551,45.551,0,0,0,4.729.331c.224.007.448.013.678.013,1.918.034,4.013.014,6.1-.034h.007l.586-.02c6.872-.2,13.487-.724,13.487-.724-.209-.893-1.827-2.131-3.964-3.423-.332-.2-.684-.4-1.044-.6-.553-.311-1.128-.629-1.715-.933-.358-.189-.723-.379-1.08-.562-.686-.345-1.377-.683-2.04-1.008-.37-.176-.733-.345-1.089-.514-.469-.216-.931-.426-1.356-.615-.391-.183-.767-.345-1.107-.494a20.771,20.771,0,0,0-2.52-1c-.283.075-2.091,2.253-4.18,2.395s-2.113-1.447-3.427-1.522c-.545-.034-1.021,1.231-1.375,2.821-.052.217-.1.44-.139.67a26.059,26.059,0,0,0-.548,5.222" transform="translate(-771.01 -2772.485)" fill="#453028"/>
            <path id="Trazado_894386" data-name="Trazado 894386" d="M1008.648,3034.236l.475.528a11.114,11.114,0,0,1,5.87-1.955c-.358-.189-.723-.379-1.08-.562a10.629,10.629,0,0,0-5.264,1.989" transform="translate(-938.381 -2821.006)" fill="#f2e7da"/>
            <path id="Trazado_894387" data-name="Trazado 894387" d="M975.839,3012.24l.481.528a10.454,10.454,0,0,1,5.028-1.854c-.37-.176-.733-.345-1.089-.514a9.922,9.922,0,0,0-4.42,1.84" transform="translate(-907.857 -2800.68)" fill="#f2e7da"/>
            <path id="Trazado_894388" data-name="Trazado 894388" d="M943.89,2996.261l.475.528a10.424,10.424,0,0,1,4.815-1.82c-.391-.183-.767-.345-1.107-.494a9.8,9.8,0,0,0-4.182,1.786" transform="translate(-878.134 -2785.865)" fill="#f2e7da"/>
            <path id="Trazado_894389" data-name="Trazado 894389" d="M991.156,3058.32l.206.155h.007l.359.264c.006-.007.077-.108.227-.284.79-.92,3.731-3.836,9.522-4.147-.332-.2-.684-.4-1.044-.6-6.487.643-9.161,4.438-9.277,4.614" transform="translate(-922.107 -2840.969)" fill="#913d3d"/>
            <path id="Trazado_894390" data-name="Trazado 894390" d="M841.011,3039.344a1.274,1.274,0,0,1,0,.2l.682.115a2.009,2.009,0,0,0,0-.3c-.057-.927-.573-3.788-4.719-6.237-.052.216-.1.44-.14.67,3.75,2.28,4.146,4.837,4.181,5.553" transform="translate(-778.532 -2821.819)" fill="#913d3d"/>
            <path id="Trazado_894391" data-name="Trazado 894391" d="M846.371,3107.4H820.485a.364.364,0,0,0-.369.412l.282,2.686a.469.469,0,0,0,.455.412h25.8a.364.364,0,0,0,.37-.4l-.2-2.686a.468.468,0,0,0-.457-.425" transform="translate(-762.981 -2890.92)" fill="#f2e7da"/>
            <path id="Trazado_894392" data-name="Trazado 894392" d="M146.008,2989.679a45.555,45.555,0,0,1-4.729.331c-.224.007-.448.013-.678.013-1.918.034-4.013.014-6.1-.034H134.5l-.586-.02c-6.872-.2-13.487-.724-13.487-.724.209-.893,1.827-2.131,3.964-3.423.332-.2.684-.4,1.044-.6.553-.311,1.128-.629,1.715-.933.358-.189.723-.379,1.08-.562.686-.345,1.377-.683,2.04-1.008.37-.176.733-.345,1.089-.514.469-.216.931-.426,1.357-.615.391-.183.767-.345,1.107-.494a20.762,20.762,0,0,1,2.52-1c.283.075,2.091,2.253,4.18,2.395s3.008-1.192,3.691-1.281c.541-.07.757.99,1.111,2.58.052.217.1.44.139.67a26.062,26.062,0,0,1,.548,5.222" transform="translate(-112.034 -2772.485)" fill="#453028"/>
            <path id="Trazado_894393" data-name="Trazado 894393" d="M223.27,3034.236l-.475.528a11.113,11.113,0,0,0-5.87-1.955c.358-.189.723-.379,1.08-.562a10.629,10.629,0,0,1,5.264,1.989" transform="translate(-201.814 -2821.006)" fill="#f2e7da"/>
            <path id="Trazado_894394" data-name="Trazado 894394" d="M267.23,3012.24l-.481.528a10.454,10.454,0,0,0-5.028-1.854c.37-.176.733-.345,1.089-.514a9.923,9.923,0,0,1,4.42,1.84" transform="translate(-243.488 -2800.68)" fill="#f2e7da"/>
            <path id="Trazado_894395" data-name="Trazado 894395" d="M302.113,2996.261l-.475.528a10.424,10.424,0,0,0-4.815-1.82c.391-.183.767-.345,1.107-.494a9.8,9.8,0,0,1,4.183,1.786" transform="translate(-276.145 -2785.865)" fill="#f2e7da"/>
            <path id="Trazado_894396" data-name="Trazado 894396" d="M187.65,3058.32l-.206.155h-.007l-.359.264c-.006-.007-.077-.108-.227-.284-.79-.92-3.731-3.836-9.522-4.147.332-.2.684-.4,1.044-.6,6.487.643,9.161,4.438,9.277,4.614" transform="translate(-164.975 -2840.969)" fill="#913d3d"/>
            <path id="Trazado_894397" data-name="Trazado 894397" d="M410.64,3039.344a1.261,1.261,0,0,0,0,.2l-.682.115a2,2,0,0,1,0-.3c.057-.927.573-3.788,4.719-6.237.052.216.1.44.14.67-3.75,2.28-4.146,4.837-4.181,5.553" transform="translate(-381.395 -2821.819)" fill="#913d3d"/>
            <path id="Trazado_894398" data-name="Trazado 894398" d="M110.856,3107.4h25.886a.364.364,0,0,1,.369.412l-.282,2.686a.469.469,0,0,1-.455.412h-25.8a.364.364,0,0,1-.37-.4l.2-2.686a.468.468,0,0,1,.457-.425" transform="translate(-102.523 -2890.92)" fill="#f2e7da"/>
          </g>
        </g>
      </g>
      <rect id="Rectángulo_402824" data-name="Rectángulo 402824" width="41.587" height="5.347" transform="translate(491.218 9139.45) rotate(-180)" fill="#14e95b"/>
    </g>
    <rect id="Rectángulo_402906" data-name="Rectángulo 402906" width="295" height="230" transform="translate(390.19 9172)" fill="none"/>
  </g>
</svg>
