<svg xmlns="http://www.w3.org/2000/svg" width="104" height="104" viewBox="0 0 104 104">
  <g id="Grupo_1102305" data-name="Grupo 1102305" transform="translate(-673.782 -12567.736)">
    <g id="Grupo_1101665" data-name="Grupo 1101665" transform="translate(-446.551 12441.519)">
      <g id="Trazado_874818" data-name="Trazado 874818" transform="translate(1120.333 126.218)" fill="#c7b8b4">
        <path d="M 52 103 C 45.11460113525391 103 38.43569946289062 101.6517105102539 32.1488151550293 98.99258422851562 C 26.07588577270508 96.42394256591797 20.62162780761719 92.74652862548828 15.93755722045898 88.06244659423828 C 11.25348567962646 83.37837219238281 7.576056957244873 77.92412567138672 5.007428646087646 71.8511962890625 C 2.348285675048828 65.56430053710938 1 58.88539886474609 1 52 C 1 45.11460113525391 2.348285675048828 38.43569946289062 5.007428646087646 32.1488151550293 C 7.576056957244873 26.07588577270508 11.25348567962646 20.62162780761719 15.93755722045898 15.93755722045898 C 20.62162780761719 11.25348567962646 26.07588577270508 7.576056957244873 32.1488151550293 5.007428646087646 C 38.43569946289062 2.348285675048828 45.11460113525391 1 52 1 C 58.88539886474609 1 65.56430053710938 2.348285675048828 71.8511962890625 5.007428646087646 C 77.92412567138672 7.576056957244873 83.37837219238281 11.25348567962646 88.06244659423828 15.93755722045898 C 92.74652862548828 20.62162780761719 96.42394256591797 26.07588577270508 98.99258422851562 32.1488151550293 C 101.6517105102539 38.43569946289062 103 45.11460113525391 103 52 C 103 58.88539886474609 101.6517105102539 65.56430053710938 98.99258422851562 71.8511962890625 C 96.42394256591797 77.92412567138672 92.74652862548828 83.37837219238281 88.06244659423828 88.06244659423828 C 83.37837219238281 92.74652862548828 77.92412567138672 96.42394256591797 71.8511962890625 98.99258422851562 C 65.56430053710938 101.6517105102539 58.88539886474609 103 52 103 Z" stroke="none"/>
        <path d="M 52 2 C 45.24916839599609 2 38.70132446289062 3.321708679199219 32.53835296630859 5.928428649902344 C 26.58463287353516 8.446647644042969 21.23721313476562 12.05210876464844 16.64466094970703 16.64466094970703 C 12.05210876464844 21.23721313476562 8.446647644042969 26.58463287353516 5.928428649902344 32.53835296630859 C 3.321708679199219 38.70132446289062 2 45.24916839599609 2 52 C 2 58.75084686279297 3.321708679199219 65.29867553710938 5.928428649902344 71.46164703369141 C 8.446647644042969 77.41536712646484 12.05210876464844 82.76278686523438 16.64466094970703 87.35533905029297 C 21.23721313476562 91.94789123535156 26.58463287353516 95.55335235595703 32.53835296630859 98.07157135009766 C 38.70132446289062 100.6782913208008 45.24916839599609 102 52 102 C 58.75084686279297 102 65.29867553710938 100.6782913208008 71.46164703369141 98.07157135009766 C 77.41536712646484 95.55335235595703 82.76278686523438 91.94789123535156 87.35533905029297 87.35533905029297 C 91.94789123535156 82.76278686523438 95.55335235595703 77.41536712646484 98.07157135009766 71.46164703369141 C 100.6782913208008 65.29867553710938 102 58.75084686279297 102 52 C 102 45.24916839599609 100.6782913208008 38.70132446289062 98.07157135009766 32.53835296630859 C 95.55335235595703 26.58463287353516 91.94789123535156 21.23721313476562 87.35533905029297 16.64466094970703 C 82.76278686523438 12.05210876464844 77.41536712646484 8.446647644042969 71.46164703369141 5.928428649902344 C 65.29867553710938 3.321708679199219 58.75084686279297 2 52 2 M 52 0 C 80.71881103515625 0 104 23.28119659423828 104 52 C 104 80.71881103515625 80.71881103515625 104 52 104 C 23.28119659423828 104 0 80.71881103515625 0 52 C 0 23.28119659423828 23.28119659423828 0 52 0 Z" stroke="none" fill="#fff"/>
      </g>
      <path id="Trazado_893435" data-name="Trazado 893435" d="M1180.99,186.956v16.816l17.379-16.816Z" fill="#fff"/>
      <g id="Grupo_1101964" data-name="Grupo 1101964" transform="translate(1143.633 149.405)">
        <path id="Trazado_893426" data-name="Trazado 893426" d="M55.038,2H24.276a.9.9,0,0,0-.9.9A20.5,20.5,0,0,1,2.9,23.377a.9.9,0,0,0-.9.9V55.038a.9.9,0,0,0,.9.9H37.814a.9.9,0,0,0,.34-.067h0a.9.9,0,0,0,.293-.2L55.674,38.451a.908.908,0,0,0,.263-.636V2.9a.9.9,0,0,0-.9-.9ZM3.8,25.157A22.307,22.307,0,0,0,25.157,3.8H54.139V36.745H37.814a.9.9,0,0,0-.9.9v16.5H3.8ZM38.713,52.868V38.542H53.039Z" transform="translate(0)"/>
        <path id="Trazado_893427" data-name="Trazado 893427" d="M8.9,52a.9.9,0,0,0-.9.9v1.8a.9.9,0,0,0,1.8,0V52.9A.9.9,0,0,0,8.9,52Z" transform="translate(-0.606 -5.052)"/>
        <path id="Trazado_893428" data-name="Trazado 893428" d="M8.9,36.94a.9.9,0,0,0-.9.9v3.385a.9.9,0,0,0,1.8,0V37.839A.9.9,0,0,0,8.9,36.94Z" transform="translate(-0.606 -3.531)"/>
        <path id="Trazado_893429" data-name="Trazado 893429" d="M8.9,44.471a.9.9,0,0,0-.9.9v3.385a.9.9,0,0,0,1.8,0V45.37A.9.9,0,0,0,8.9,44.471Z" transform="translate(-0.606 -4.292)"/>
        <path id="Trazado_893430" data-name="Trazado 893430" d="M10.406,30.739c-.552.153-1.12.29-1.688.407a.9.9,0,0,0-.718.88v1.8a.9.9,0,0,0,1.8,0V32.749c.367-.085.731-.179,1.09-.279a.9.9,0,0,0-.481-1.732Z" transform="translate(-0.606 -2.901)"/>
        <path id="Trazado_893431" data-name="Trazado 893431" d="M30.28,14.15a.9.9,0,0,0-1.187.456,26.124,26.124,0,0,1-1.8,3.352.9.9,0,1,0,1.517.964,27.715,27.715,0,0,0,1.925-3.585.9.9,0,0,0-.456-1.187Z" transform="translate(-2.542 -1.22)"/>
        <path id="Trazado_893432" data-name="Trazado 893432" d="M24.444,21.757a26.143,26.143,0,0,1-2.691,2.691.9.9,0,0,0,1.175,1.361A28.123,28.123,0,0,0,25.8,22.933a.9.9,0,1,0-1.361-1.176Z" transform="translate(-1.965 -1.965)"/>
        <path id="Trazado_893433" data-name="Trazado 893433" d="M17.954,27.3a25.9,25.9,0,0,1-3.352,1.8.9.9,0,1,0,.731,1.642,27.634,27.634,0,0,0,3.587-1.925.9.9,0,1,0-.965-1.517Z" transform="translate(-1.219 -2.542)"/>
        <path id="Trazado_893434" data-name="Trazado 893434" d="M32.207,8.019a.9.9,0,0,0-1.062.7c-.117.568-.254,1.136-.407,1.688a.9.9,0,1,0,1.732.481c.165-.592.311-1.2.436-1.808a.9.9,0,0,0-.7-1.062Z" transform="translate(-2.901 -0.606)"/>
      </g>
    </g>
  </g>
</svg>
