<svg xmlns="http://www.w3.org/2000/svg" width="104" height="104" viewBox="0 0 104 104">
  <g id="Grupo_1101785" data-name="Grupo 1101785" transform="translate(-1120.333 -126.218)">
    <g id="Trazado_874818" data-name="Trazado 874818" transform="translate(1120.333 126.218)" fill="#a6826d">
      <path d="M 52 103 C 45.11460113525391 103 38.43569946289062 101.6517105102539 32.1488151550293 98.99258422851562 C 26.07588577270508 96.42394256591797 20.62162780761719 92.74652862548828 15.93755722045898 88.06244659423828 C 11.25348567962646 83.37837219238281 7.576056957244873 77.92412567138672 5.007428646087646 71.8511962890625 C 2.348285675048828 65.56430053710938 1 58.88539886474609 1 52 C 1 45.11460113525391 2.348285675048828 38.43569946289062 5.007428646087646 32.1488151550293 C 7.576056957244873 26.07588577270508 11.25348567962646 20.62162780761719 15.93755722045898 15.93755722045898 C 20.62162780761719 11.25348567962646 26.07588577270508 7.576056957244873 32.1488151550293 5.007428646087646 C 38.43569946289062 2.348285675048828 45.11460113525391 1 52 1 C 58.88539886474609 1 65.56430053710938 2.348285675048828 71.8511962890625 5.007428646087646 C 77.92412567138672 7.576056957244873 83.37837219238281 11.25348567962646 88.06244659423828 15.93755722045898 C 92.74652862548828 20.62162780761719 96.42394256591797 26.07588577270508 98.99258422851562 32.1488151550293 C 101.6517105102539 38.43569946289062 103 45.11460113525391 103 52 C 103 58.88539886474609 101.6517105102539 65.56430053710938 98.99258422851562 71.8511962890625 C 96.42394256591797 77.92412567138672 92.74652862548828 83.37837219238281 88.06244659423828 88.06244659423828 C 83.37837219238281 92.74652862548828 77.92412567138672 96.42394256591797 71.8511962890625 98.99258422851562 C 65.56430053710938 101.6517105102539 58.88539886474609 103 52 103 Z" stroke="none"/>
      <path d="M 52 2 C 45.24916839599609 2 38.70132446289062 3.321708679199219 32.53835296630859 5.928428649902344 C 26.58463287353516 8.446647644042969 21.23721313476562 12.05210876464844 16.64466094970703 16.64466094970703 C 12.05210876464844 21.23721313476562 8.446647644042969 26.58463287353516 5.928428649902344 32.53835296630859 C 3.321708679199219 38.70132446289062 2 45.24916839599609 2 52 C 2 58.75084686279297 3.321708679199219 65.29867553710938 5.928428649902344 71.46164703369141 C 8.446647644042969 77.41536712646484 12.05210876464844 82.76278686523438 16.64466094970703 87.35533905029297 C 21.23721313476562 91.94789123535156 26.58463287353516 95.55335235595703 32.53835296630859 98.07157135009766 C 38.70132446289062 100.6782913208008 45.24916839599609 102 52 102 C 58.75084686279297 102 65.29867553710938 100.6782913208008 71.46164703369141 98.07157135009766 C 77.41536712646484 95.55335235595703 82.76278686523438 91.94789123535156 87.35533905029297 87.35533905029297 C 91.94789123535156 82.76278686523438 95.55335235595703 77.41536712646484 98.07157135009766 71.46164703369141 C 100.6782913208008 65.29867553710938 102 58.75084686279297 102 52 C 102 45.24916839599609 100.6782913208008 38.70132446289062 98.07157135009766 32.53835296630859 C 95.55335235595703 26.58463287353516 91.94789123535156 21.23721313476562 87.35533905029297 16.64466094970703 C 82.76278686523438 12.05210876464844 77.41536712646484 8.446647644042969 71.46164703369141 5.928428649902344 C 65.29867553710938 3.321708679199219 58.75084686279297 2 52 2 M 52 0 C 80.71881103515625 0 104 23.28119659423828 104 52 C 104 80.71881103515625 80.71881103515625 104 52 104 C 23.28119659423828 104 0 80.71881103515625 0 52 C 0 23.28119659423828 23.28119659423828 0 52 0 Z" stroke="none" fill="#fff"/>
    </g>
    <rect id="Rectángulo_402705" data-name="Rectángulo 402705" width="72" height="14" transform="translate(1166.802 213.785) rotate(-90)" fill="#fff"/>
    <g id="Grupo_1101994" data-name="Grupo 1101994" transform="translate(1017.492 219.24) rotate(-90)">
      <g id="Grupo_1101965" data-name="Grupo 1101965" transform="translate(4.237 148.35)">
        <path id="Trazado_893436" data-name="Trazado 893436" d="M76.042,239.334H6.131A1.837,1.837,0,0,1,4.3,237.5V225.431A1.837,1.837,0,0,1,6.131,223.6H76.042a1.826,1.826,0,0,1,1.831,1.831V237.5A1.826,1.826,0,0,1,76.042,239.334ZM6.131,225.248a.167.167,0,0,0-.166.167v12.071a.167.167,0,0,0,.166.167H76.042a.167.167,0,0,0,.166-.167V225.415a.167.167,0,0,0-.166-.167Z" transform="translate(-4.3 -223.6)"/>
      </g>
      <g id="Grupo_1101966" data-name="Grupo 1101966" transform="translate(9.765 148.35)">
        <path id="Trazado_893437" data-name="Trazado 893437" d="M38.332,230.16a.824.824,0,0,1-.832-.832v-4.895a.832.832,0,1,1,1.665,0v4.895A.835.835,0,0,1,38.332,230.16Z" transform="translate(-37.5 -223.6)"/>
      </g>
      <g id="Grupo_1101967" data-name="Grupo 1101967" transform="translate(15.293 148.333)">
        <path id="Trazado_893438" data-name="Trazado 893438" d="M71.532,227.612a.824.824,0,0,1-.832-.832v-2.447a.832.832,0,1,1,1.665,0v2.447A.824.824,0,0,1,71.532,227.612Z" transform="translate(-70.7 -223.5)"/>
      </g>
      <g id="Grupo_1101968" data-name="Grupo 1101968" transform="translate(20.82 148.35)">
        <path id="Trazado_893439" data-name="Trazado 893439" d="M104.732,230.16a.824.824,0,0,1-.832-.832v-4.895a.832.832,0,1,1,1.665,0v4.895A.835.835,0,0,1,104.732,230.16Z" transform="translate(-103.9 -223.6)"/>
      </g>
      <g id="Grupo_1101969" data-name="Grupo 1101969" transform="translate(26.364 148.333)">
        <path id="Trazado_893440" data-name="Trazado 893440" d="M138.032,227.612a.824.824,0,0,1-.832-.832v-2.447a.832.832,0,1,1,1.665,0v2.447A.835.835,0,0,1,138.032,227.612Z" transform="translate(-137.2 -223.5)"/>
      </g>
      <g id="Grupo_1101970" data-name="Grupo 1101970" transform="translate(31.892 148.35)">
        <path id="Trazado_893441" data-name="Trazado 893441" d="M171.232,230.16a.824.824,0,0,1-.832-.832v-4.895a.832.832,0,1,1,1.665,0v4.895A.835.835,0,0,1,171.232,230.16Z" transform="translate(-170.4 -223.6)"/>
      </g>
      <g id="Grupo_1101971" data-name="Grupo 1101971" transform="translate(37.42 148.333)">
        <path id="Trazado_893442" data-name="Trazado 893442" d="M204.432,227.612a.824.824,0,0,1-.832-.832v-2.447a.832.832,0,1,1,1.665,0v2.447A.824.824,0,0,1,204.432,227.612Z" transform="translate(-203.6 -223.5)"/>
      </g>
      <g id="Grupo_1101972" data-name="Grupo 1101972" transform="translate(42.964 148.35)">
        <path id="Trazado_893443" data-name="Trazado 893443" d="M237.732,230.16a.824.824,0,0,1-.832-.832v-4.895a.832.832,0,1,1,1.665,0v4.895A.846.846,0,0,1,237.732,230.16Z" transform="translate(-236.9 -223.6)"/>
      </g>
      <g id="Grupo_1101973" data-name="Grupo 1101973" transform="translate(48.491 148.333)">
        <path id="Trazado_893444" data-name="Trazado 893444" d="M270.932,227.612a.824.824,0,0,1-.832-.832v-2.447a.832.832,0,1,1,1.665,0v2.447A.824.824,0,0,1,270.932,227.612Z" transform="translate(-270.1 -223.5)"/>
      </g>
      <g id="Grupo_1101974" data-name="Grupo 1101974" transform="translate(54.019 148.35)">
        <path id="Trazado_893445" data-name="Trazado 893445" d="M304.132,230.16a.824.824,0,0,1-.832-.832v-4.895a.832.832,0,1,1,1.665,0v4.895A.835.835,0,0,1,304.132,230.16Z" transform="translate(-303.3 -223.6)"/>
      </g>
      <g id="Grupo_1101975" data-name="Grupo 1101975" transform="translate(59.563 148.333)">
        <path id="Trazado_893446" data-name="Trazado 893446" d="M337.432,227.612a.824.824,0,0,1-.832-.832v-2.447a.832.832,0,1,1,1.665,0v2.447A.835.835,0,0,1,337.432,227.612Z" transform="translate(-336.6 -223.5)"/>
      </g>
      <g id="Grupo_1101976" data-name="Grupo 1101976" transform="translate(65.091 148.35)">
        <path id="Trazado_893447" data-name="Trazado 893447" d="M370.632,230.16a.824.824,0,0,1-.832-.832v-4.895a.832.832,0,1,1,1.665,0v4.895A.835.835,0,0,1,370.632,230.16Z" transform="translate(-369.8 -223.6)"/>
      </g>
      <g id="Grupo_1101977" data-name="Grupo 1101977" transform="translate(70.618 148.333)">
        <path id="Trazado_893448" data-name="Trazado 893448" d="M403.832,227.612a.824.824,0,0,1-.832-.832v-2.447a.832.832,0,1,1,1.665,0v2.447A.824.824,0,0,1,403.832,227.612Z" transform="translate(-403 -223.5)"/>
      </g>
      <g id="Grupo_1101990" data-name="Grupo 1101990" transform="translate(9.765 160.021)">
        <g id="Grupo_1101978" data-name="Grupo 1101978" transform="translate(0)">
          <path id="Trazado_893449" data-name="Trazado 893449" d="M38.332,297.762a.824.824,0,0,1-.832-.832v-2.4a.832.832,0,0,1,1.665,0v2.4A.824.824,0,0,1,38.332,297.762Z" transform="translate(-37.5 -293.7)"/>
        </g>
        <g id="Grupo_1101979" data-name="Grupo 1101979" transform="translate(5.528)">
          <path id="Trazado_893450" data-name="Trazado 893450" d="M71.532,297.762a.824.824,0,0,1-.832-.832v-2.4a.832.832,0,0,1,1.665,0v2.4A.824.824,0,0,1,71.532,297.762Z" transform="translate(-70.7 -293.7)"/>
        </g>
        <g id="Grupo_1101980" data-name="Grupo 1101980" transform="translate(11.055)">
          <path id="Trazado_893451" data-name="Trazado 893451" d="M104.732,297.762a.824.824,0,0,1-.832-.832v-2.4a.832.832,0,0,1,1.665,0v2.4A.824.824,0,0,1,104.732,297.762Z" transform="translate(-103.9 -293.7)"/>
        </g>
        <g id="Grupo_1101981" data-name="Grupo 1101981" transform="translate(16.599)">
          <path id="Trazado_893452" data-name="Trazado 893452" d="M138.032,297.762a.824.824,0,0,1-.832-.832v-2.4a.832.832,0,0,1,1.665,0v2.4A.835.835,0,0,1,138.032,297.762Z" transform="translate(-137.2 -293.7)"/>
        </g>
        <g id="Grupo_1101982" data-name="Grupo 1101982" transform="translate(22.127)">
          <path id="Trazado_893453" data-name="Trazado 893453" d="M171.232,297.762a.824.824,0,0,1-.832-.832v-2.4a.832.832,0,0,1,1.665,0v2.4A.824.824,0,0,1,171.232,297.762Z" transform="translate(-170.4 -293.7)"/>
        </g>
        <g id="Grupo_1101983" data-name="Grupo 1101983" transform="translate(27.655)">
          <path id="Trazado_893454" data-name="Trazado 893454" d="M204.432,297.762a.824.824,0,0,1-.832-.832v-2.4a.832.832,0,0,1,1.665,0v2.4A.824.824,0,0,1,204.432,297.762Z" transform="translate(-203.6 -293.7)"/>
        </g>
        <g id="Grupo_1101984" data-name="Grupo 1101984" transform="translate(33.199)">
          <path id="Trazado_893455" data-name="Trazado 893455" d="M237.732,297.762a.824.824,0,0,1-.832-.832v-2.4a.832.832,0,0,1,1.665,0v2.4A.835.835,0,0,1,237.732,297.762Z" transform="translate(-236.9 -293.7)"/>
        </g>
        <g id="Grupo_1101985" data-name="Grupo 1101985" transform="translate(38.726)">
          <path id="Trazado_893456" data-name="Trazado 893456" d="M270.932,297.762a.824.824,0,0,1-.832-.832v-2.4a.832.832,0,0,1,1.665,0v2.4A.824.824,0,0,1,270.932,297.762Z" transform="translate(-270.1 -293.7)"/>
        </g>
        <g id="Grupo_1101986" data-name="Grupo 1101986" transform="translate(44.254)">
          <path id="Trazado_893457" data-name="Trazado 893457" d="M304.132,297.762a.824.824,0,0,1-.832-.832v-2.4a.832.832,0,0,1,1.665,0v2.4A.824.824,0,0,1,304.132,297.762Z" transform="translate(-303.3 -293.7)"/>
        </g>
        <g id="Grupo_1101987" data-name="Grupo 1101987" transform="translate(49.798)">
          <path id="Trazado_893458" data-name="Trazado 893458" d="M337.432,297.762a.824.824,0,0,1-.832-.832v-2.4a.832.832,0,0,1,1.665,0v2.4A.835.835,0,0,1,337.432,297.762Z" transform="translate(-336.6 -293.7)"/>
        </g>
        <g id="Grupo_1101988" data-name="Grupo 1101988" transform="translate(55.326)">
          <path id="Trazado_893459" data-name="Trazado 893459" d="M370.632,297.762a.824.824,0,0,1-.832-.832v-2.4a.832.832,0,0,1,1.665,0v2.4A.824.824,0,0,1,370.632,297.762Z" transform="translate(-369.8 -293.7)"/>
        </g>
        <g id="Grupo_1101989" data-name="Grupo 1101989" transform="translate(60.853)">
          <path id="Trazado_893460" data-name="Trazado 893460" d="M403.832,297.762a.824.824,0,0,1-.832-.832v-2.4a.832.832,0,0,1,1.665,0v2.4A.824.824,0,0,1,403.832,297.762Z" transform="translate(-403 -293.7)"/>
        </g>
      </g>
      <g id="Grupo_1101991" data-name="Grupo 1101991" transform="translate(10.997 138.776)">
        <path id="Trazado_893461" data-name="Trazado 893461" d="M104.122,167.765H45.732a.832.832,0,1,1,0-1.665h58.406a.824.824,0,0,1,.832.832.839.839,0,0,1-.849.832Z" transform="translate(-44.9 -166.1)"/>
      </g>
      <g id="Grupo_1101992" data-name="Grupo 1101992" transform="translate(4.225 133.318)">
        <path id="Trazado_893462" data-name="Trazado 893462" d="M10.481,145.886a2.145,2.145,0,0,1-1.515-.633l-4.112-4.112-.05-.05-.067-.083a2.189,2.189,0,0,1,0-2.814l.033-.033.05-.05.033-.033,4.112-4.112a2.16,2.16,0,0,1,3.7,1.515V143.7a2.154,2.154,0,0,1-1.349,2,1.837,1.837,0,0,1-.832.183Zm0-10.889a.459.459,0,0,0-.333.15l-4.112,4.112-.017.017L6,139.292a.525.525,0,0,0,0,.649v.017l.017.017,4.112,4.112a.458.458,0,0,0,.533.1.483.483,0,0,0,.316-.466v-8.208a.506.506,0,0,0-.316-.466A.268.268,0,0,0,10.481,135Z" transform="translate(-4.225 -133.318)"/>
      </g>
      <g id="Grupo_1101993" data-name="Grupo 1101993" transform="translate(69.386 133.335)">
        <path id="Trazado_893463" data-name="Trazado 893463" d="M397.781,145.969a2.066,2.066,0,0,1-.832-.166,2.171,2.171,0,0,1-1.349-2V135.6a2.176,2.176,0,0,1,1.349-2.015,2.133,2.133,0,0,1,2.348.483l4.146,4.146c0,.017.017.017.033.033l.033.033a2.172,2.172,0,0,1,0,2.83l-.033.033-.05.05-.033.033-4.1,4.112A2.116,2.116,0,0,1,397.781,145.969Zm0-10.889a.446.446,0,0,0-.183.033.483.483,0,0,0-.316.466v8.208a.529.529,0,0,0,.316.466.458.458,0,0,0,.533-.1l4.112-4.112.017-.017.017-.017a.525.525,0,0,0,0-.649l-.033-.033-4.1-4.1A.587.587,0,0,0,397.781,135.08Z" transform="translate(-395.6 -133.418)"/>
      </g>
    </g>
  </g>
</svg>
