<svg xmlns="http://www.w3.org/2000/svg" width="104" height="104" viewBox="0 0 104 104">
  <g id="Grupo_1101787" data-name="Grupo 1101787" transform="translate(-1120.333 -126.218)">
    <g id="Trazado_874818" data-name="Trazado 874818" transform="translate(1120.333 126.218)" fill="#a6826d">
      <path d="M 52 103 C 45.11460113525391 103 38.43569946289062 101.6517105102539 32.1488151550293 98.99258422851562 C 26.07588577270508 96.42394256591797 20.62162780761719 92.74652862548828 15.93755722045898 88.06244659423828 C 11.25348567962646 83.37837219238281 7.576056957244873 77.92412567138672 5.007428646087646 71.8511962890625 C 2.348285675048828 65.56430053710938 1 58.88539886474609 1 52 C 1 45.11460113525391 2.348285675048828 38.43569946289062 5.007428646087646 32.1488151550293 C 7.576056957244873 26.07588577270508 11.25348567962646 20.62162780761719 15.93755722045898 15.93755722045898 C 20.62162780761719 11.25348567962646 26.07588577270508 7.576056957244873 32.1488151550293 5.007428646087646 C 38.43569946289062 2.348285675048828 45.11460113525391 1 52 1 C 58.88539886474609 1 65.56430053710938 2.348285675048828 71.8511962890625 5.007428646087646 C 77.92412567138672 7.576056957244873 83.37837219238281 11.25348567962646 88.06244659423828 15.93755722045898 C 92.74652862548828 20.62162780761719 96.42394256591797 26.07588577270508 98.99258422851562 32.1488151550293 C 101.6517105102539 38.43569946289062 103 45.11460113525391 103 52 C 103 58.88539886474609 101.6517105102539 65.56430053710938 98.99258422851562 71.8511962890625 C 96.42394256591797 77.92412567138672 92.74652862548828 83.37837219238281 88.06244659423828 88.06244659423828 C 83.37837219238281 92.74652862548828 77.92412567138672 96.42394256591797 71.8511962890625 98.99258422851562 C 65.56430053710938 101.6517105102539 58.88539886474609 103 52 103 Z" stroke="none"/>
      <path d="M 52 2 C 45.24916839599609 2 38.70132446289062 3.321708679199219 32.53835296630859 5.928428649902344 C 26.58463287353516 8.446647644042969 21.23721313476562 12.05210876464844 16.64466094970703 16.64466094970703 C 12.05210876464844 21.23721313476562 8.446647644042969 26.58463287353516 5.928428649902344 32.53835296630859 C 3.321708679199219 38.70132446289062 2 45.24916839599609 2 52 C 2 58.75084686279297 3.321708679199219 65.29867553710938 5.928428649902344 71.46164703369141 C 8.446647644042969 77.41536712646484 12.05210876464844 82.76278686523438 16.64466094970703 87.35533905029297 C 21.23721313476562 91.94789123535156 26.58463287353516 95.55335235595703 32.53835296630859 98.07157135009766 C 38.70132446289062 100.6782913208008 45.24916839599609 102 52 102 C 58.75084686279297 102 65.29867553710938 100.6782913208008 71.46164703369141 98.07157135009766 C 77.41536712646484 95.55335235595703 82.76278686523438 91.94789123535156 87.35533905029297 87.35533905029297 C 91.94789123535156 82.76278686523438 95.55335235595703 77.41536712646484 98.07157135009766 71.46164703369141 C 100.6782913208008 65.29867553710938 102 58.75084686279297 102 52 C 102 45.24916839599609 100.6782913208008 38.70132446289062 98.07157135009766 32.53835296630859 C 95.55335235595703 26.58463287353516 91.94789123535156 21.23721313476562 87.35533905029297 16.64466094970703 C 82.76278686523438 12.05210876464844 77.41536712646484 8.446647644042969 71.46164703369141 5.928428649902344 C 65.29867553710938 3.321708679199219 58.75084686279297 2 52 2 M 52 0 C 80.71881103515625 0 104 23.28119659423828 104 52 C 104 80.71881103515625 80.71881103515625 104 52 104 C 23.28119659423828 104 0 80.71881103515625 0 52 C 0 23.28119659423828 23.28119659423828 0 52 0 Z" stroke="none" fill="#fff"/>
    </g>
    <path id="Trazado_893468" data-name="Trazado 893468" d="M1140.314,174.472s6.719,5.4,14,6.2,60.314.55,60.314.55v8.98h-57.151s-13.093-1.154-17.158-7S1140.314,174.472,1140.314,174.472Z" fill="#fff"/>
    <g id="Grupo_1101995" data-name="Grupo 1101995" transform="translate(1137.998 14.258)">
      <path id="Trazado_893464" data-name="Trazado 893464" d="M59.312,165.933v2.28h6.843v6.815H63.884v-4.637H61.6v4.637h-2.29v-2.357h-2.28v2.357h-2.29v-4.637h-2.28v4.637h-2.29v-2.357h-2.28v2.357H45.6v-4.637h-2.28v4.637h-2.29v-2.357h-2.28v2.357h-2.29v-4.637h-2.28v4.637h-2.29v-2.357h-2.28v2.357h-2.29v-4.637h-2.28v4.637l-2.232-.015v-2.342h-2.28v2.223q-1.13-.089-2.222-.234v-4.725h-2.28v4.355q-1.183-.228-2.3-.519v-2.7h-2.28v2.012q-1.187-.406-2.254-.883v-4.7H6.912v3.518c-2.889-1.746-4.632-3.927-4.632-6.259V161.1a16.8,16.8,0,0,0,5.029,3.654,38.056,38.056,0,0,0,16.634,3.461H57.031v-2.28H47.886V155.667c0-3.5-2.6-6.727-7.309-9.085a38.056,38.056,0,0,0-16.634-3.461,38.056,38.056,0,0,0-16.634,3.461C2.6,148.939,0,152.165,0,155.667v9.1c0,3.5,2.6,6.727,7.309,9.085a38.056,38.056,0,0,0,16.634,3.461H77.536V165.933H59.312Zm-13.706,0H37.829a27.1,27.1,0,0,0,2.748-1.181,16.812,16.812,0,0,0,5.029-3.654v4.835ZM23.943,145.4c11.742,0,21.663,4.7,21.663,10.266s-9.92,10.266-21.663,10.266S2.28,161.231,2.28,155.667,12.2,145.4,23.943,145.4Zm51.313,29.628H68.434v-6.815h6.821Z"/>
      <path id="Trazado_893465" data-name="Trazado 893465" d="M51.047,192.263a35.158,35.158,0,0,0,11.627,1.767A35.154,35.154,0,0,0,74.3,192.263c4.466-1.629,5.4-3.711,5.4-5.171s-.938-3.541-5.4-5.171a35.158,35.158,0,0,0-11.627-1.767,35.154,35.154,0,0,0-11.627,1.767c-4.466,1.629-5.4,3.711-5.4,5.171s.937,3.541,5.4,5.171Zm11.627-9.828c9.139,0,14.751,2.713,14.751,4.658,0,.674-.675,1.44-1.936,2.153a29.177,29.177,0,0,0-9.279-2.11l-.183,2.273a31.611,31.611,0,0,1,6.318,1.111,34.7,34.7,0,0,1-9.671,1.23A34.694,34.694,0,0,1,53,190.519a31.6,31.6,0,0,1,6.366-1.114l-.181-2.273a29.178,29.178,0,0,0-9.329,2.113c-1.26-.713-1.934-1.479-1.934-2.153,0-1.945,5.612-4.658,14.751-4.658Z" transform="translate(-38.731 -31.426)"/>
      <path id="Trazado_893466" data-name="Trazado 893466" d="M152.856,227.607v-2.28c-.343,0-1.919,0-2.309.015l.057,2.28C150.951,227.612,152.445,227.607,152.856,227.607Z" transform="translate(-127.749 -69.758)"/>
      <path id="Trazado_893467" data-name="Trazado 893467" d="M466.945,323.759h2.28v2.28h-2.28Z" transform="translate(-396.232 -153.283)"/>
    </g>
  </g>
</svg>
