<svg xmlns="http://www.w3.org/2000/svg" xmlns:xlink="http://www.w3.org/1999/xlink" width="295" height="244" viewBox="0 0 295 244">
  <defs>
    <clipPath id="clip-path">
      <rect id="Rectángulo_402176" data-name="Rectángulo 402176" width="210" height="208.967" fill="#7eadbf"/>
    </clipPath>
    <clipPath id="clip-path-2">
      <rect id="Rectángulo_402189" data-name="Rectángulo 402189" width="290" height="227" transform="translate(179.461 2355.752)" fill="#e5eef2"/>
    </clipPath>
    <clipPath id="clip-path-3">
      <rect id="Rectángulo_402597" data-name="Rectángulo 402597" width="253.406" height="345.569" fill="none"/>
    </clipPath>
  </defs>
  <g id="Grupo_1102431" data-name="Grupo 1102431" transform="translate(-705 -408)">
    <g id="Grupo_1101176" data-name="Grupo 1101176" transform="translate(15140 4961)">
      <rect id="Rectángulo_402102" data-name="Rectángulo 402102" width="295" height="244" transform="translate(-14435 -4553)" fill="#e5eef2"/>
    </g>
    <g id="Grupo_1101333" data-name="Grupo 1101333" transform="translate(747.77 425.517)">
      <g id="Grupo_1101287" data-name="Grupo 1101287" clip-path="url(#clip-path)">
        <path id="Trazado_874703" data-name="Trazado 874703" d="M62.413,8.673C10.026,32.758-13.415,77.64,7.763,147.1s86.642,70.938,149.753,50.248,62.019-124.143,34.792-153.7S113.844-14.973,62.413,8.673" transform="translate(0 0)" fill="#c6e6f2"/>
        <path id="Trazado_874704" data-name="Trazado 874704" d="M79.391,27.562a3.5,3.5,0,1,1-3.5-3.422,3.463,3.463,0,0,1,3.5,3.422" transform="translate(-10.737 -4.053)" fill="#7eadbf"/>
        <path id="Trazado_874705" data-name="Trazado 874705" d="M63.434,35.786a3.5,3.5,0,1,1-3.5-3.422,3.463,3.463,0,0,1,3.5,3.422" transform="translate(-8.37 -5.434)" fill="#7eadbf"/>
        <path id="Trazado_874706" data-name="Trazado 874706" d="M50.6,46.193a3.5,3.5,0,1,1-3.5-3.422,3.463,3.463,0,0,1,3.5,3.422" transform="translate(-6.466 -7.182)" fill="#7eadbf"/>
        <path id="Trazado_874707" data-name="Trazado 874707" d="M39.042,57.778a3.5,3.5,0,1,1-3.5-3.422,3.463,3.463,0,0,1,3.5,3.422" transform="translate(-4.752 -9.127)" fill="#7eadbf"/>
        <path id="Trazado_874708" data-name="Trazado 874708" d="M30.316,71.817a3.5,3.5,0,1,1-3.5-3.422,3.463,3.463,0,0,1,3.5,3.422" transform="translate(-3.458 -11.484)" fill="#7eadbf"/>
        <path id="Trazado_874709" data-name="Trazado 874709" d="M23.556,87.243a3.5,3.5,0,1,1-3.5-3.422,3.463,3.463,0,0,1,3.5,3.422" transform="translate(-2.455 -14.074)" fill="#7eadbf"/>
        <path id="Trazado_874710" data-name="Trazado 874710" d="M19.856,102.669a3.5,3.5,0,1,1-3.5-3.422,3.463,3.463,0,0,1,3.5,3.422" transform="translate(-1.906 -16.665)" fill="#7eadbf"/>
        <path id="Trazado_874711" data-name="Trazado 874711" d="M17.8,119.525a3.5,3.5,0,1,1-3.5-3.422,3.463,3.463,0,0,1,3.5,3.422" transform="translate(-1.602 -19.495)" fill="#7eadbf"/>
        <path id="Trazado_874712" data-name="Trazado 874712" d="M19.162,135.487a3.5,3.5,0,1,1-3.5-3.422,3.463,3.463,0,0,1,3.5,3.422" transform="translate(-1.803 -22.175)" fill="#7eadbf"/>
        <path id="Trazado_874713" data-name="Trazado 874713" d="M21.916,151.449a3.5,3.5,0,1,1-3.5-3.422,3.463,3.463,0,0,1,3.5,3.422" transform="translate(-2.212 -24.855)" fill="#7eadbf"/>
        <path id="Trazado_874714" data-name="Trazado 874714" d="M24.67,167.411a3.5,3.5,0,1,1-3.5-3.422,3.463,3.463,0,0,1,3.5,3.422" transform="translate(-2.621 -27.536)" fill="#7eadbf"/>
        <path id="Trazado_874715" data-name="Trazado 874715" d="M31.183,183.72a3.5,3.5,0,1,1-3.5-3.422,3.463,3.463,0,0,1,3.5,3.422" transform="translate(-3.586 -30.274)" fill="#7eadbf"/>
        <path id="Trazado_874716" data-name="Trazado 874716" d="M31.183,183.72a3.5,3.5,0,1,1-3.5-3.422,3.463,3.463,0,0,1,3.5,3.422" transform="translate(-3.586 -30.274)" fill="#7eadbf"/>
        <path id="Trazado_874717" data-name="Trazado 874717" d="M39.407,197.886a3.5,3.5,0,1,1-3.5-3.422,3.462,3.462,0,0,1,3.5,3.422" transform="translate(-4.806 -32.653)" fill="#7eadbf"/>
        <path id="Trazado_874718" data-name="Trazado 874718" d="M49.814,210.374a3.5,3.5,0,1,1-3.5-3.422,3.463,3.463,0,0,1,3.5,3.422" transform="translate(-6.35 -34.75)" fill="#7eadbf"/>
        <path id="Trazado_874719" data-name="Trazado 874719" d="M61.782,221.995a3.5,3.5,0,1,1-3.5-3.422,3.463,3.463,0,0,1,3.5,3.422" transform="translate(-8.125 -36.701)" fill="#7eadbf"/>
        <path id="Trazado_874720" data-name="Trazado 874720" d="M77.162,228.471a3.5,3.5,0,1,1-3.5-3.422,3.463,3.463,0,0,1,3.5,3.422" transform="translate(-10.406 -37.788)" fill="#7eadbf"/>
        <path id="Trazado_874721" data-name="Trazado 874721" d="M92.963,232.583a3.5,3.5,0,1,1-3.5-3.422,3.462,3.462,0,0,1,3.5,3.422" transform="translate(-12.75 -38.479)" fill="#7eadbf"/>
        <path id="Trazado_874722" data-name="Trazado 874722" d="M108.764,234.945a3.5,3.5,0,1,1-3.5-3.422,3.462,3.462,0,0,1,3.5,3.422" transform="translate(-15.094 -38.875)" fill="#7eadbf"/>
        <path id="Trazado_874723" data-name="Trazado 874723" d="M126.179,234.945a3.5,3.5,0,1,1-3.5-3.422,3.463,3.463,0,0,1,3.5,3.422" transform="translate(-17.677 -38.875)" fill="#7eadbf"/>
        <path id="Trazado_874724" data-name="Trazado 874724" d="M141.665,232.583a3.5,3.5,0,1,1-3.5-3.422,3.462,3.462,0,0,1,3.5,3.422" transform="translate(-19.974 -38.479)" fill="#7eadbf"/>
        <path id="Trazado_874725" data-name="Trazado 874725" d="M158.073,228.471a3.5,3.5,0,1,1-3.5-3.422,3.463,3.463,0,0,1,3.5,3.422" transform="translate(-22.408 -37.788)" fill="#7eadbf"/>
        <path id="Trazado_874726" data-name="Trazado 874726" d="M174.257,223.748a3.5,3.5,0,1,1-3.5-3.422,3.463,3.463,0,0,1,3.5,3.422" transform="translate(-24.808 -36.995)" fill="#7eadbf"/>
        <path id="Trazado_874727" data-name="Trazado 874727" d="M188.934,217.884a3.5,3.5,0,1,1-3.5-3.422,3.462,3.462,0,0,1,3.5,3.422" transform="translate(-26.985 -36.011)" fill="#7eadbf"/>
        <path id="Trazado_874728" data-name="Trazado 874728" d="M203.611,208.566a3.5,3.5,0,1,1-3.5-3.422,3.462,3.462,0,0,1,3.5,3.422" transform="translate(-29.162 -34.446)" fill="#7eadbf"/>
        <path id="Trazado_874729" data-name="Trazado 874729" d="M214.986,195.1a3.5,3.5,0,1,1-3.5-3.422,3.462,3.462,0,0,1,3.5,3.422" transform="translate(-30.85 -32.186)" fill="#7eadbf"/>
        <path id="Trazado_874730" data-name="Trazado 874730" d="M220.922,179.9a3.5,3.5,0,1,1-3.5-3.422,3.462,3.462,0,0,1,3.5,3.422" transform="translate(-31.73 -29.633)" fill="#7eadbf"/>
        <path id="Trazado_874731" data-name="Trazado 874731" d="M226.857,164.7a3.5,3.5,0,1,1-3.5-3.422,3.462,3.462,0,0,1,3.5,3.422" transform="translate(-32.611 -27.081)" fill="#7eadbf"/>
        <path id="Trazado_874732" data-name="Trazado 874732" d="M230.969,149.5a3.5,3.5,0,1,1-3.5-3.422,3.462,3.462,0,0,1,3.5,3.422" transform="translate(-33.22 -24.528)" fill="#7eadbf"/>
        <path id="Trazado_874733" data-name="Trazado 874733" d="M231.41,133.085a3.5,3.5,0,1,1-3.5-3.422,3.463,3.463,0,0,1,3.5,3.422" transform="translate(-33.286 -21.772)" fill="#7eadbf"/>
        <path id="Trazado_874734" data-name="Trazado 874734" d="M231.41,114.988a3.5,3.5,0,1,1-3.5-3.422,3.463,3.463,0,0,1,3.5,3.422" transform="translate(-33.286 -18.733)" fill="#7eadbf"/>
        <path id="Trazado_874735" data-name="Trazado 874735" d="M229.145,99.787a3.5,3.5,0,1,1-3.5-3.422,3.463,3.463,0,0,1,3.5,3.422" transform="translate(-32.95 -16.181)" fill="#7eadbf"/>
        <path id="Trazado_874736" data-name="Trazado 874736" d="M225.033,84.586a3.5,3.5,0,1,1-3.5-3.422,3.463,3.463,0,0,1,3.5,3.422" transform="translate(-32.34 -13.628)" fill="#7eadbf"/>
        <path id="Trazado_874737" data-name="Trazado 874737" d="M220.922,69.386a3.5,3.5,0,1,1-3.5-3.422,3.463,3.463,0,0,1,3.5,3.422" transform="translate(-31.73 -11.076)" fill="#7eadbf"/>
        <path id="Trazado_874738" data-name="Trazado 874738" d="M208.586,56.073a3.5,3.5,0,1,1-3.5-3.422,3.463,3.463,0,0,1,3.5,3.422" transform="translate(-29.9 -8.841)" fill="#7eadbf"/>
        <path id="Trazado_874739" data-name="Trazado 874739" d="M196.25,45a3.5,3.5,0,1,1-3.5-3.422A3.463,3.463,0,0,1,196.25,45" transform="translate(-28.071 -6.981)" fill="#7eadbf"/>
        <path id="Trazado_874740" data-name="Trazado 874740" d="M182.588,35.786a3.5,3.5,0,1,1-3.5-3.422,3.462,3.462,0,0,1,3.5,3.422" transform="translate(-26.044 -5.434)" fill="#7eadbf"/>
        <path id="Trazado_874741" data-name="Trazado 874741" d="M167.606,28.154a3.5,3.5,0,1,1-3.5-3.422,3.462,3.462,0,0,1,3.5,3.422" transform="translate(-23.822 -4.153)" fill="#7eadbf"/>
        <path id="Trazado_874742" data-name="Trazado 874742" d="M152.258,21.812a3.5,3.5,0,1,1-3.5-3.422,3.463,3.463,0,0,1,3.5,3.422" transform="translate(-21.545 -3.088)" fill="#7eadbf"/>
        <path id="Trazado_874743" data-name="Trazado 874743" d="M135.64,17.7a3.5,3.5,0,1,1-3.5-3.422,3.462,3.462,0,0,1,3.5,3.422" transform="translate(-19.08 -2.397)" fill="#7eadbf"/>
        <path id="Trazado_874744" data-name="Trazado 874744" d="M118.211,17.7a3.5,3.5,0,1,1-3.5-3.422,3.463,3.463,0,0,1,3.5,3.422" transform="translate(-16.495 -2.397)" fill="#7eadbf"/>
        <path id="Trazado_874745" data-name="Trazado 874745" d="M100.782,19.93a3.5,3.5,0,1,1-3.5-3.422,3.463,3.463,0,0,1,3.5,3.422" transform="translate(-13.91 -2.772)" fill="#7eadbf"/>
      </g>
    </g>
    <g id="Enmascarar_grupo_1098688" data-name="Enmascarar grupo 1098688" transform="translate(525.539 -1930.752)" clip-path="url(#clip-path-2)">
      <g id="Grupo_1101816" data-name="Grupo 1101816" transform="translate(198.758 2378.766)">
        <g id="Grupo_1101815" data-name="Grupo 1101815" transform="translate(0 0.001)" clip-path="url(#clip-path-3)">
          <path id="Trazado_892716" data-name="Trazado 892716" d="M642.79,246.277a2.944,2.944,0,0,0-2.748,1.129c-.866,1.393,1.821,6.851,1.814,6.964s6.768,6.634,6.768,6.479,5.256-8.7,4.856-11.985-10.69-2.587-10.69-2.587" transform="translate(-503.511 -193.745)" fill="#de9985"/>
          <path id="Trazado_892717" data-name="Trazado 892717" d="M265.788,286.9s8.364,2.032,9.015,4.865,35.076,10.622,37,14.688a6.659,6.659,0,0,1,3.727,1.694s22.36-19.538,24.167-18.182,6.889-8.691,7.453-7.566,8.018,6.549,7.679,7.566-7.679,8.627-7.679,8.627-25.861,29.656-31.62,30.221-44.58-11.7-44.58-11.7Z" transform="translate(-209.148 -222.146)" fill="#658b99"/>
          <path id="Trazado_892718" data-name="Trazado 892718" d="M269.2,319.771s4.875-2.193,7.453,1.581c3.84,1.656,15.8,4.622,17.271,5.774s-5.9,17.263-5.9,17.263,17.015-2.409,16.488-1.656-12.874,6.776-13.853,6.776-.226-1.882-.226-1.882l-8.161,1.13-12.844-3.614Z" transform="translate(-211.833 -251.128)" fill="#4c6873"/>
          <path id="Trazado_892719" data-name="Trazado 892719" d="M45.29,204.524s-3.4-1.75-4.805-1.073-4.85,5.76-4.625,6.522c.4.762-2.767,3.473-2.767,3.473L6.5,311.016s-1.017,7.227-.791,7.679,55.109,5.195,55.222,3.388,3.275-65.386,4.179-73.517-6.055-26.017-6.055-26.017.844-3.005.627-3.909a59.936,59.936,0,0,0-3.267-5.872Z" transform="translate(-4.466 -159.972)" fill="#658b99"/>
          <path id="Trazado_892720" data-name="Trazado 892720" d="M38.26,236.386s5.654,14.88,6.708,16.236c1.581-1.054,5.293-7.329,5.293-7.329s2.036,6.743,2.888,7,7.026-7.554,7.4-7.112-.527,5.937,0,6.766c.376.15.909-3.356.909-3.356S67.328,260.9,65.3,272.346s.753,23.941.3,31.394-5.195,29.286-5.872,27.1-1.28-12.272-1.28-12.272-9.862,21.908-10.992,19.875S45.872,314.13,45.8,314.431s-5.27,16.638-3.388,22.887c-5.044,7.679-32.224,4.895-33.616.565s23.076-91.51,23.076-91.51l3.971-7.425Z" transform="translate(-6.874 -186.011)" fill="#4c6873"/>
          <path id="Trazado_892721" data-name="Trazado 892721" d="M13.285,259.14c.308-.2,13.027-11.4,15.738-11.4,10.5,9.373,12.987,32.389,8.018,49.791s-10.389,41.791-5.421,48.681c-9.938,7.568-31.62,0-31.62,0s2.566-59.9,6.967-75.968c4.7,4.411,6.318-11.108,6.318-11.108" transform="translate(0 -194.95)" fill="#454964"/>
          <path id="Trazado_892722" data-name="Trazado 892722" d="M256.154,293.644s3.868,15.017,2.985,29.1-3.557,61.466-2.157,62.558a5.349,5.349,0,0,1,3.232-1.5c.452,0,6.412-43.967,6.97-55.862s-5.153-30.653-11.031-34.3" transform="translate(-201.567 -231.068)" fill="#454964"/>
          <path id="Trazado_892723" data-name="Trazado 892723" d="M88.672,292.656S71.921,322.271,71.7,322.61s-2.259-1.129-2.823,1.017c-1.468-2.372-2.907-1.129-2.907-1.129s-19.34-23.945-19.792-24.79-3.275-6.982-10.841-4.139-9.825,17.411-9.486,25.316c1.242,10.164,8.357,11.18,10.277,4.743C45.835,339.55,72.26,354.569,75.2,352.085s17.73-36.793,17.5-41.264,2.232-6.2,2.866-8.669,2.415-2.929,1.807-4.448-8.7-5.048-8.7-5.048" transform="translate(-20.313 -230.29)" fill="#658b99"/>
          <path id="Trazado_892724" data-name="Trazado 892724" d="M320.781,280.739s1.059,5.213,8.7,5.048c4.031-1.489,3.271-8.275,3.271-8.275Z" transform="translate(-252.421 -218.373)" fill="#de9985"/>
          <path id="Trazado_892725" data-name="Trazado 892725" d="M176.72,171.171c0,.169-1.016,7.849-1.581,8.526.226,2.936,5.59,10.389,6.493,11.349s1.758,7.115,2.46,7.171,10.414-8.47,10.244-9.6-17.617-17.447-17.617-17.447" transform="translate(-137.816 -134.694)" fill="#de9985"/>
          <path id="Trazado_892726" data-name="Trazado 892726" d="M330.8,144.647s2.6-.763,2.315,2.442-1.92,9.529-5.195,8.173,2.88-10.615,2.88-10.615" transform="translate(-257.285 -113.76)" fill="#de9985"/>
          <path id="Trazado_892727" data-name="Trazado 892727" d="M158.307,64.483s-1.581,7.064.339,9.4a6.165,6.165,0,0,0,4.4,2.341s1.355,8.921,4.235,12.648,13.439,6.493,19.311,3.614,10.389-18.859,10.389-18.859,5.7-13.834.452-20.722-40.259-8.018-39.13,11.575" transform="translate(-124.089 -38.057)" fill="#ffbd99"/>
          <path id="Trazado_892728" data-name="Trazado 892728" d="M226.551,198.479s-5.9-.932-9.373,2.033c-.452,1.044,5.534,1.44,5.534,1.44a1.059,1.059,0,0,0,.536,1.158c.706.311,3.134-.226,3.134-.226s-.085,1.327.452,1.383a7.125,7.125,0,0,0,2.174-.875s2.569,2.851,3.5,1.609-2.146-5.9-5.957-6.522" transform="translate(-170.877 -156.074)" fill="#594848"/>
          <path id="Trazado_892729" data-name="Trazado 892729" d="M263.677,148.621a13.076,13.076,0,0,0-.581,5.165,17.512,17.512,0,0,1-.053,3.474c-.132.731-.11,1.15-.821,1.333a9.944,9.944,0,0,1-1.885-.172c-.272-.007-.432.488-.136.57,1.759.489,3.061,1.044,3.484-1,.63-3.048,0-6.171.66-9.239.1-.455-.517-.519-.668-.129" transform="translate(-204.626 -116.748)" fill="#b8675e"/>
          <path id="Trazado_892730" data-name="Trazado 892730" d="M225.473,120.227a8.238,8.238,0,0,0-5.956.265.9.9,0,0,0-.453,1.071.768.768,0,0,0-.148.427c.022,1.422,2.918,1.565,3.874,1.684,1.239.153,3.9.769,4.6-.689.684-1.427-.753-2.375-1.914-2.757" transform="translate(-172.264 -94.265)" fill="#594848"/>
          <path id="Trazado_892731" data-name="Trazado 892731" d="M308.536,138.991c-.4-1.384-2.292-2.331-3.513-2.907a2.852,2.852,0,0,0-3.414.545c-1.784,2.319,4.091,3.466,5.852,3.442.048.017.093.04.142.055.669.2,1.1-.568.933-1.135" transform="translate(-237.073 -106.831)" fill="#594848"/>
          <path id="Trazado_892732" data-name="Trazado 892732" d="M232.435,154.335c-.651.279-.579,1.383-.616,1.971a.777.777,0,0,0,.666.908.926.926,0,0,0,.877-.853c.017-.611.208-2.511-.926-2.026" transform="translate(-182.416 -121.384)"/>
          <path id="Trazado_892733" data-name="Trazado 892733" d="M304.858,169.173c-.651.278-.579,1.383-.616,1.971a.777.777,0,0,0,.666.908.926.926,0,0,0,.876-.853c.017-.611.208-2.511-.926-2.026" transform="translate(-239.405 -133.06)"/>
          <path id="Trazado_892734" data-name="Trazado 892734" d="M160.189,25.529s-.734,4.512,1.581,6.375c.9-.169.734-6.606.734-6.606s1.637,3.388,2.485,2.541,1.468-10.5,1.468-10.5,5.025,4.461,5.646,3.952,1.525-7.114,1.525-6.945,7.679,5.308,8.583,4.065-.6-4.63-.5-4.461,10.547,6.155,11.055,4.8A9.487,9.487,0,0,0,193,15.417c.056.452,2.823,4.178,3.275,3.67a8.269,8.269,0,0,0,.96-1.92s2.428,11.914-.339,18.407c2.823-2.258,2.541-8.215,2.71-7.975s1.412,2.442.9-4.221c2.089-4.969-5.872-19.649-13.326-22.473s-10.954,1.863-10.954,1.863-5.283-1.581-5.578-.734S172.5,4.35,172.5,4.35s-8.3-.791-11.8,6.663-3.614,13.382-2.485,15.415c-.056-2.146,1.976-.9,1.976-.9" transform="translate(-123.996 -0.001)" fill="#594848"/>
          <path id="Trazado_892735" data-name="Trazado 892735" d="M164.406,137.574c-2.222-1.026-.025-2.079-.237-3.2-.09-.475-.966-.876-1.223-1.3-.666-1.1-.36-2.409-.417-3.626-.011-.237-.334-.217-.393-.016a5.708,5.708,0,0,0-.012,3.42c.049.142.109.285.175.426a3.749,3.749,0,0,1-.748-.408c-.2-.148-.393.2-.23.351a4.016,4.016,0,0,0,1.786,1.085.68.68,0,0,1,.224.2.86.86,0,0,0,.044.085.759.759,0,0,0-.03.117c0-.007-.35.426-.373.48a2.252,2.252,0,0,0-.054,1.181,2.075,2.075,0,0,0,1.268,1.815c.332.139.543-.454.22-.6" transform="translate(-126.894 -101.724)" fill="#b8675e"/>
          <path id="Trazado_892736" data-name="Trazado 892736" d="M46.459,410.883s-5.533-5.7-6.437-7.34c-.847,2.6,1.637,5.138,1.637,5.138s-2.71-.339-2.71.056,6.381,6.663,7.51,2.146" transform="translate(-30.649 -317.547)" fill="#4c6873"/>
          <path id="Trazado_892737" data-name="Trazado 892737" d="M217.213,325.64c-.4-4.241-2.1-8.314-1.609-12.61a.331.331,0,0,0-.65-.126c-1.126,3.723.762,7.311,1.4,10.946A62.778,62.778,0,0,1,216.816,338a.208.208,0,1,0,.413.015,72.05,72.05,0,0,0-.016-12.377" transform="translate(-168.87 -246.019)" fill="#454964"/>
          <path id="Trazado_892738" data-name="Trazado 892738" d="M215.723,572.249c-.015-.548-.779-.384-.815.091-.5,6.517-.418,13.112-.589,19.644q-.129,4.912-.269,9.823c-.084,3.038-.047,6.382-1.383,9.175a.613.613,0,1,0,1.144.416c1.631-6.2,1.374-12.555,1.521-18.932.154-6.722.574-13.5.391-20.219" transform="translate(-167.289 -450.03)" fill="#454964"/>
          <path id="Trazado_892739" data-name="Trazado 892739" d="M227.635,454.887c-.546-3.9-.971-7.866-1.759-11.726-.164-.8-1.148-.435-1.083.28.22,2.45.585,4.9.973,7.338-.879-1.859-1.789-3.7-2.791-5.5-.189-.339-.553-.234-.788,0-.2-.426-.895-.032-.811.422q.254,1.378.494,2.752a29.847,29.847,0,0,0,.159,3.105c.189,1.782.751,3.52.937,5.294.02.283.043.565.059.848.055,1,1.347.514,1.32-.342a12.337,12.337,0,0,0-.308-2.223c-.287-2.029-.6-4.056-.99-6.067q-.027-.585-.03-1.17c1.267,2.434,2.4,4.937,3.488,7.456.309.714,1.223.194,1.131-.462" transform="translate(-174.195 -348.365)" fill="#4c6873"/>
          <path id="Trazado_892740" data-name="Trazado 892740" d="M314.214,317.486a41.6,41.6,0,0,1-3.054,6.77,8.071,8.071,0,0,1-1.269-.955,10.444,10.444,0,0,1-2.59-4.01c-.221-.6-.982-.056-.808.46a11.135,11.135,0,0,0,2.515,4.2c1.043,1.089,2.56,2.4,4.136,2.473a.408.408,0,0,0,.254-.7,10.465,10.465,0,0,0-1.337-.924,27.059,27.059,0,0,0,3.31-6.9.619.619,0,1,0-1.156-.421" transform="translate(-241.158 -249.453)" fill="#4c6873"/>
          <path id="Trazado_892741" data-name="Trazado 892741" d="M115.278,318.452c-.142-.429-.751-.195-.753.194-.014,2.348.312,4.663.195,7.023a39.6,39.6,0,0,1-1.214,7.61c-.16.639.635.97.857.312,1.534-4.557,2.46-10.463.916-15.139" transform="translate(-89.3 -250.408)" fill="#4c6873"/>
          <path id="Trazado_892742" data-name="Trazado 892742" d="M129.822,358.309a9.207,9.207,0,0,0-.169-2.829c-.112-.344-.539-.2-.64.067-.675,1.8-.226,4.395-.031,6.259.074.7.941.353.919-.238-.041-1.086-.074-2.173-.079-3.26" transform="translate(-101.237 -279.566)" fill="#4c6873"/>
          <path id="Trazado_892743" data-name="Trazado 892743" d="M500.844,414.083c-.221-.836-.924-3.242-2.219-2.866-.63.183-1.038,1.162-1.347,2.234a33,33,0,0,0-.81-5.078c-.161-.645-.9-.088-.893.365.072,4.538-1.374,8.9-2.746,13.166a.335.335,0,1,0,.626.228,54.5,54.5,0,0,0,2.65-9.693,30.764,30.764,0,0,1,.228,4.324c-.016.614.654.948,1.033.376a8.576,8.576,0,0,0,1.114-2.759c.046-.177.206-1.326.363-1.382.309-.111.871,1.506.943,1.686.319.8,1.235.062,1.059-.6" transform="translate(-387.786 -321.118)" fill="#4c6873"/>
          <path id="Trazado_892744" data-name="Trazado 892744" d="M635.917,307.446a11.772,11.772,0,0,0-2.569,2.44c-.816.847-1.625,1.7-2.423,2.563-.137-.119-.271-.235-.4-.347-.977-.866-2-1.656-3.028-2.455-.433-.335-.9.455-.509.778.954.79,1.874,1.636,2.782,2.478a8.873,8.873,0,0,0,2.6,2.129c.248.085.448-.228.365-.444a4.549,4.549,0,0,0-1.179-1.571q1.187-1.162,2.348-2.349A12.886,12.886,0,0,0,636.313,308c.147-.281-.012-.756-.4-.553" transform="translate(-493.261 -241.89)" fill="#bf8f43"/>
          <path id="Trazado_892745" data-name="Trazado 892745" d="M354.493,251.224s63.528-4.765,66.419-1.534-1.92,30.1,5.421,36.194-7.679,16.149-.565,22.247a7.938,7.938,0,0,0-1.672,1.242s-4.765.3-4.012-7.1,7.83-9.881,5.195-14.775-6.023-7.531-6.324-17.543,1.227-17.823.84-18.736-63.387,1.722-64.6,2.475-4.859,4.842-.7,11.229,9.157,13.467,3.856,18.509-13.175,14.756-1.581,19.424c-.075.452-1.957,1.731-1.957,1.731a8.826,8.826,0,0,1-6.449-9.486c.5-7.83,10.439-12.812,10.213-17.887s-4.85-9.14-6.867-15.314.434-10.823,2.785-10.681" transform="translate(-274.104 -195.596)" fill="#453028"/>
          <path id="Trazado_892746" data-name="Trazado 892746" d="M644.824,230.239c-.28.252-3.011,5.232-2.936,7.077-.151.715,2.3-1.167,2.3-1.167s-1.522,3.335-1.016,3.8,3.011-1.807,3.011-1.807-.414,3.2.188,3.463,3.237-2.372,3.237-2.372-1.092,2.368-.376,2.708,7.491-4.816,6.663-7.753-8.771-6.023-11.067-3.952" transform="translate(-505.094 -180.644)" fill="#ffbd99"/>
          <path id="Trazado_892747" data-name="Trazado 892747" d="M320.776,244.49s-.19-7.53,3.991-8.937,2.85-4.551,5.986-4.055,9.288,7.427,8.433,9.04c-.784.993-2.743-.4-2.743-.4s1.71.993,1.318,1.583-3.349.186-3.242.248,2.28.435,1.746,1.241-4.383.962-4.24.962,2.173.286,1.425.888-12.518,4.346-12.673-.567" transform="translate(-252.416 -182.124)" fill="#ffbd99"/>
          <path id="Trazado_892748" data-name="Trazado 892748" d="M224.134,1533.162s-3.614,16.864-3.313,17.391,34.33.226,33.954-.828-23.113-16.563-23.113-16.563Z" transform="translate(-173.749 -1206.439)" fill="#333"/>
          <path id="Trazado_892749" data-name="Trazado 892749" d="M61.035,1483.349s-7.6,9.938-7.6,10.615,12.121,17.617,12.8,17.843,14.681,0,14.982,0-9.185-9.411-9.185-9.411-1.807-14.455-2.033-14.907-8.959-4.141-8.959-4.141" transform="translate(-42.045 -1167.242)" fill="#333"/>
          <path id="Trazado_892750" data-name="Trazado 892750" d="M2.713,744.813s-2.936,22.811,2.146,28.8c4.856,14.907,17.617,60.078,20.553,62.563a3.811,3.811,0,0,0,0,4.178S16.9,901.294,16.453,902.2c-2.108,1.506,18.069,11.587,18.219,8.956s0-6.4,0-6.4l12.347-47.129s.6,53,1.2,55.711,19.273,2.108,19.273,0-.6-6.926-.6-7.378-.753-75.738-.151-80.255-8.921-72.255-9.2-73.215.648-3.974.422-4.778-55.249-2.9-55.249-2.9" transform="translate(-1.471 -586.091)" fill="#454964"/>
          <path id="Trazado_892751" data-name="Trazado 892751" d="M53.351,788.314c0-.281,1.183-3.552,2.443-6.958l.485-.1c.978-.209,4.618-1.5,5.344-.419.322.478.97-.141.775-.579-.527-1.189-1.7-1.009-2.808-.779-1.13.234-2.256.493-3.381.758,1.3-3.508,2.562-6.829,2.562-6.829l-4.748,4.586s6.254-13.018,5.35-13.771c-.851-.709-6.251,6.459-6.877,7.3.092-2.432-.11-4.924-.186-7.3-.045-1.4-.068-2.8-.1-4.211,2.648-.013,5.3-.079,7.942-.22.852-.046,1.1-1.6.186-1.555-2.729.146-5.452.206-8.171.21-.055-1.726-.142-3.449-.322-5.155-.052-.492-.714-.358-.742.083-.108,1.686-.158,3.378-.177,5.073-14.568-.082-29.023-1.929-43.543-3.322-.381-.037-.479.622-.082.687,14.383,2.342,29.009,4.169,43.619,4.2,0,3.611.1,7.232.1,10.839a43.177,43.177,0,0,0-5.653-2.667c-.9-.1,1.506,6.2,1.506,6.2s-15.358-5.344-17.617-4.591c-1.619.539,6.661,3.554,11.926,7.1-.619.031-1.221.064-1.784.082a72.389,72.389,0,0,0-14.694,2.057c-.362.087-.339.753.075.663a73.429,73.429,0,0,1,11.467-1.563c.551-.031,3.736-.161,6.5-.088a6.609,6.609,0,0,1,2.471,3.191c1.2,5.119,11.594,55.109,10.992,59.927s-5.119,22.887-5.119,22.887l.571,37.5,3.494-9.8s.452,19.424.6,18.671,9.486-62.638,9.486-65.2-11.9-56.314-11.9-56.916" transform="translate(-5.544 -592.513)" fill="#3a323d"/>
          <path id="Trazado_892752" data-name="Trazado 892752" d="M43.817,790.782c-1.376,3-2.373,6.128-3.919,9.072-1.453,2.766-3.234,5.3-4.884,7.941-.258.413.195,1.093.608.638a40.686,40.686,0,0,0,5.643-8.481A36.9,36.9,0,0,0,44.941,791c.173-.793-.843-.832-1.125-.218" transform="translate(-27.492 -621.93)" fill="#3a323d"/>
          <path id="Trazado_892753" data-name="Trazado 892753" d="M117.408,1168.028a10.5,10.5,0,0,1-1.074-.647,8.884,8.884,0,0,0,2.2-.466,2.127,2.127,0,0,0,1.214-1.686.534.534,0,0,0-.456-.622,38.784,38.784,0,0,1-6.013-1.647c-.459-.162-.739.623-.3.816a37.372,37.372,0,0,0,5.361,1.831,3.7,3.7,0,0,1-1.74.456,4.456,4.456,0,0,0-1.8.6.769.769,0,0,0-.156,1.212c1.064.892,2.627,2.11,4.082,2.1a.622.622,0,0,0,.386-1.062,9.7,9.7,0,0,0-1.7-.889" transform="translate(-88.729 -915.112)" fill="#3a323d"/>
          <path id="Trazado_892754" data-name="Trazado 892754" d="M179.488,1168.33c-1.928,3.621-3.415,7.472-5.348,11.1s-4.052,7.166-6.315,10.606c-.359.546.35,1.167.738.576,2.34-3.554,4.523-7.2,6.513-10.966a67.46,67.46,0,0,0,5.064-10.957c.133-.424-.406-.825-.652-.362" transform="translate(-131.983 -919.192)" fill="#3a323d"/>
          <path id="Trazado_892755" data-name="Trazado 892755" d="M200.818,1215.381c-2.048,2.559-3.314,6.056-4.357,9.125a.386.386,0,1,0,.722.263c1.17-3.161,2.9-5.99,4.224-9.061.18-.417-.323-.661-.589-.327" transform="translate(-154.571 -956.256)" fill="#3a323d"/>
          <path id="Trazado_892756" data-name="Trazado 892756" d="M94.3,1476.148a36.443,36.443,0,0,1-12.273-5.194c-.434-.266-.8.4-.467.714a23.612,23.612,0,0,0,12.482,5.56c.527.074.8-.969.258-1.079" transform="translate(-64.075 -1157.439)" fill="#3a323d"/>
          <path id="Trazado_892757" data-name="Trazado 892757" d="M240.941,1516.423c-2.693-.488-5.273.257-7.889.864a21.878,21.878,0,0,1-9.5.2c-.38-.072-.58.693-.186.781a20.3,20.3,0,0,0,7.949.5c3.211-.535,6.161-1.431,9.445-.844.812.145,1.055-1.348.18-1.506" transform="translate(-175.598 -1193.144)" fill="#3a323d"/>
          <path id="Trazado_892758" data-name="Trazado 892758" d="M292.505,1090.677c-.3-.627-1.138-.2-1.037.424.26,1.585.837,3.092,1.072,4.685a18.8,18.8,0,0,1-.15,5.169c-.409,3.169-.814,6.874-2.128,9.787-.176.39.385.737.595.331,1.659-3.206,1.8-6.952,2.646-10.411a14.975,14.975,0,0,0-1-9.984" transform="translate(-228.381 -858.008)" fill="#3a323d"/>
          <path id="Trazado_892759" data-name="Trazado 892759" d="M767.541,1568.738s-15.133,7.115-15.81,9.994c6.663.96,27.893.96,28.232,0s-1.186-9.486-1.186-9.486Z" transform="translate(-591.534 -1234.434)" fill="#333"/>
          <path id="Trazado_892760" data-name="Trazado 892760" d="M1057.123,1568.738s-2.654,10.022-2.2,10.714,22.134.776,22.3,0-7.9-9.754-8.187-10.036-11.914-.678-11.914-.678" transform="translate(-830.072 -1234.434)" fill="#333"/>
          <path id="Trazado_892761" data-name="Trazado 892761" d="M810.69,785.7s-1.581,21.7-1.581,25.087c-.9,14-4.969,59.175-4.517,63.466s-2.484,76.453-3.049,78.034c3.953,2.484,18.633,1.807,19.2,1.355s6.324-75.775,7.114-77.921,8.47-52.85,9.712-54.093a2.025,2.025,0,0,0,0-2.71l5.759.339s-2.146,1.807,0,2.823c2.033,9.147,7.415,57.142,7.265,62.562s2.861,68.259,3.614,69.438,18.972.728,19.424-.778-3.915-70.167-3.463-75.888-1.962-86.277-2.411-88.988S810.69,785.7,810.69,785.7" transform="translate(-630.731 -618.264)" fill="#868f92"/>
          <path id="Trazado_892762" data-name="Trazado 892762" d="M876.585,976.226c.5-1.054-5.316-3.313-5.466-6.926s8.583.753,10.239-.9-4.818-4.517-7.929-7.227-3.514-5.722-4.417-22.285-.753-31.469,0-33.276-4.668-.151-6.023-.6,8.432-5.722,9.034-8.281-14.455,4.367-18.4,3.915-5.695-4.065-9.308-4.065,4.969,6.776,5.571,9.185-5.722,33.126-8.432,42.009S827,957.405,823.689,959.212s12.2.6,10.54,3.614-13.4,4.216-13.1,5.27,10.691.3,12.8,9.185c1.582,6.666,2.994,35.586,3.6,49.61,1.918-21.928,5.157-62.682,5.735-64.253.791-2.146,8.47-52.851,9.712-54.093a2.026,2.026,0,0,0,0-2.711l5.759.339s-2.146,1.807,0,2.823c2.033,9.147,7.416,57.142,7.265,62.563-.078,2.811.694,21.068,1.561,38.156,1.092-10.62,2.882-28.581,2.711-30.478-.245-2.71,5.817-1.957,6.314-3.011" transform="translate(-646.139 -705.181)" fill="#556982"/>
          <path id="Trazado_892763" data-name="Trazado 892763" d="M823.687,1553.056l-.214-.683c-.125-.4-.646-.246-.754.079l-.079.24c-2.457.137-4.928.312-7.387.316-2.843,0-5.221-.974-7.908-1.688-.559-.149-.873.612-.49.981l.411.4a.232.232,0,0,0,.365-.021c4.907,2.238,10.068,1.627,15.359,1.465a.814.814,0,0,0,.7-1.085" transform="translate(-634.779 -1220.712)" fill="#556982"/>
          <path id="Trazado_892764" data-name="Trazado 892764" d="M1067.272,1555.191c-5.586,1.593-10.655,1.139-16.3.454-.411-.05-.563.645-.191.8,5.132,2.159,11.415,1.666,16.655.193.783-.22.721-1.7-.163-1.448" transform="translate(-826.688 -1223.751)" fill="#556982"/>
          <path id="Trazado_892765" data-name="Trazado 892765" d="M1065.315,1355.272c-.047-.626-.81-.3-.809.21.015,11.272.324,22.489-.163,33.762a.418.418,0,1,0,.833.029c.577-11.25.994-22.755.14-34" transform="translate(-837.526 -1066.188)" fill="#556982"/>
          <path id="Trazado_892766" data-name="Trazado 892766" d="M1090.225,1404.109c-.12-.491-.691-.069-.683.279.134,5.851.934,11.624.856,17.5a.448.448,0,1,0,.893.031c.174-5.817.319-12.131-1.066-17.814" transform="translate(-857.356 -1104.712)" fill="#556982"/>
          <path id="Trazado_892767" data-name="Trazado 892767" d="M870.065,1359.166c-.434,3.246-.8,6.5-1.242,9.747-.437,3.21-1.18,6.482-1.315,9.717a.391.391,0,0,0,.767.148,67.664,67.664,0,0,0,1.578-9.385c.469-3.387.919-6.785,1.215-10.192.066-.755-.91-.73-1-.035" transform="translate(-682.638 -1069.109)" fill="#556982"/>
          <path id="Trazado_892768" data-name="Trazado 892768" d="M906.058,924.805c-.044-.589-.889-.436-.894.1-.116,12.306-.916,24.205-3.893,36.2-.15.6.641.91.8.291,3.039-11.762,4.891-24.42,3.986-36.591" transform="translate(-709.192 -727.429)" fill="#556982"/>
          <path id="Trazado_892769" data-name="Trazado 892769" d="M1058.584,933.757a87.31,87.31,0,0,0-2.19,10.15q-1.075,5.457-2.063,10.93c-.1.559.634.519.742.026q1.15-5.235,2.224-10.484a88.771,88.771,0,0,0,1.949-10.494.337.337,0,0,0-.662-.128" transform="translate(-829.641 -734.562)" fill="#556982"/>
          <path id="Trazado_892770" data-name="Trazado 892770" d="M978.371,814.859c-1.012-.1-2.119.137-3.11-.034-1.3-.225-1.272-.357-1.5-1.67a39.179,39.179,0,0,1-.094-6.271c-.02-4.187,0-8.377-.105-12.563-.016-.629-.935-.459-.949.106-.1,3.895-.085,7.792-.106,11.688-.009,1.8,0,3.6-.043,5.395a16.428,16.428,0,0,0,.052,4.469.683.683,0,0,0,.4.416,14.565,14.565,0,0,0,5.448-.015c.751-.115.812-1.441.007-1.521" transform="translate(-765.118 -624.733)" fill="#556982"/>
          <path id="Trazado_892771" data-name="Trazado 892771" d="M861.238,801.388c-2.611,1.825-4.785,4.576-6.784,7.037-1.16,1.429-2.268,2.9-3.3,4.423a10.28,10.28,0,0,0-1.884,3.37.51.51,0,0,0,.291.544l.174.1c.156.087.342-.025.461-.115l.139-.105c.417-.315.087-1.058-.433-.822,1.436-.653,2.149-2.261,3.093-3.531q1.475-1.984,3.089-3.857c1.838-2.134,4.01-3.993,5.784-6.165.328-.4-.1-1.239-.626-.875" transform="translate(-668.276 -630.539)" fill="#556982"/>
          <path id="Trazado_892772" data-name="Trazado 892772" d="M1075.676,821.762c-1.739-6.431-5.952-11.826-8.266-18.03-.246-.659-1.082-.062-.888.505,2.154,6.3,6.151,11.739,8.1,18.124.245.8,1.235.074,1.053-.6" transform="translate(-839.219 -632.226)" fill="#556982"/>
          <path id="Trazado_892773" data-name="Trazado 892773" d="M842.093,1208.471c-2.147.6-3.875,1.478-6.193,1.376-1.955-.086-6.637-1.07-6.3-3.821.077-.63-.736-.6-.833-.03-.482,2.825,2.825,4.36,5.1,4.9,2.748.657,6.4.4,8.5-1.68.243-.24.174-.876-.278-.749" transform="translate(-652.117 -948.652)" fill="#4b5d73"/>
          <path id="Trazado_892774" data-name="Trazado 892774" d="M1055.173,1207.944c-2.087-.4-4.135-.314-6.206-.995a17.555,17.555,0,0,1-5.5-3.044c-.5-.4-1.044.524-.6.912,3.071,2.67,8.118,5.2,12.3,4.1a.5.5,0,0,0,0-.973" transform="translate(-820.499 -947.271)" fill="#4b5d73"/>
          <path id="Trazado_892775" data-name="Trazado 892775" d="M963.374,912.512c-2.78,1.97-5.7,6.173-9.292,5.853a29,29,0,0,1-4.794-.7c-1.707-.462-2.6-2.292-3.743-3.568-.381-.427-.928.2-.651.619.885,1.333,1.976,3.549,3.4,4.43,1.345.833,4.025.743,5.582.971a5.953,5.953,0,0,0,2.031.032q1.358.221,2.721.411a12.267,12.267,0,0,0,3.493.264.655.655,0,0,0,.147-1.192,12.1,12.1,0,0,0-3.466-.533c-.271-.026-.542-.048-.814-.073,2.049-1.7,4.17-3.384,6.041-5.274.488-.493.111-1.78-.652-1.239" transform="translate(-743.474 -717.949)" fill="#4b5d73"/>
          <path id="Trazado_892776" data-name="Trazado 892776" d="M840.974,775.51c-.309.179-.213,6.464-.3,7.756,16.844,5.192,26.612,2.065,26.951,1.879s0-11.141,0-11.141l7.453-.523s.621,10.4,2.258,11.985c2.541,1.638,18.983,1.068,21.688-.962.006.165-.294-7.162-.294-7.162s-26.644-19.863-57.756-1.832" transform="translate(-661.523 -604.293)" fill="#556982"/>
          <path id="Trazado_892777" data-name="Trazado 892777" d="M261.98,267.49c-.554-.395-28.723-6.484-29.333-5.469s5.323,5.244,5.323,5.244-7.1.395-7.153,1.3,9.149,4.285,8.983,4.342-6.987,2.143-6.987,2.763,7.319.62,7.319.62-4.88,3.721-4.492,4.229,9.427-1.184,9.427-1.184,14.306,2.988,16.912,1.692,0-13.532,0-13.532" transform="translate(-181.629 -206.094)" fill="#ffbd99"/>
          <path id="Trazado_892778" data-name="Trazado 892778" d="M261.019,276.864c-.279.3-9.593,1.635-9.316,2.312s14.473,2.706,16.524,1.353c6.71,2.763-4.214,8.4-6.6,8.007s-5.711-6.823-5.711-6.823-6.155-1.579-5.878-2.763,8.1-2.537,8.539-2.876-2.44-2.255-2.44-2.255,6.1,1.748,4.88,3.045" transform="translate(-196.748 -215.467)" fill="#de9985"/>
          <path id="Trazado_892779" data-name="Trazado 892779" d="M872.012,376.035c.287.153,38.85,8.662,45.4,0-.678-26.73-5.538-109.212-5.538-109.212s-28.759-5.207-33.462-1.9-6.4,111.116-6.4,111.116" transform="translate(-686.183 -207.6)" fill="#454964"/>
          <path id="Trazado_892780" data-name="Trazado 892780" d="M981.51,241.578s1.418,8.108.967,11.084-7,36.4-7.34,41.485a103.826,103.826,0,0,0,0,10.954s4.017,52.625,7.429,55.448c2.734.9,23.852.677,24.529-1.92s-2.033-24.108-2.371-25.267-.9-12.281-.9-12.281,14.794.733,15.7-5.929-12.648-64.915-13.777-70.458c-.9-2.607-15.7-5.543-15.7-5.543s-8.922-5.943-13.326-7.15-5.1,8.844,4.793,9.578" transform="translate(-766.154 -182.481)" fill="#a6826d"/>
          <path id="Trazado_892781" data-name="Trazado 892781" d="M480.522,263.92s-1.694,3.764-.847,13.326,6.356,39.073,7.93,55.335,1.725,50.14,1.574,52.549-26.952-.9-27.7-4.065-2.71-82.664-3.463-84.772-4.216-6.173-4.216-6.173-39.149-.15-42.762-1.807S362.248,284.7,361.344,285s-.264-17.617,0-17.843,46.225,0,48.032-.339,1.581-2.371,8.921-1.468,38.4-.376,43.139-1.43,8.47.979,9.034.979,9.938-1.506,10.051-.979" transform="translate(-283.973 -207.439)" fill="#a6826d"/>
          <path id="Trazado_892782" data-name="Trazado 892782" d="M865.787,268.97l-1.242.141s-2.739,6.381-2.061,9.176c.649,1.157,9.674-.26,11.076.336a27.543,27.543,0,0,1,.7-7.38c-.038-.085-8.47-2.273-8.47-2.273" transform="translate(-678.6 -211.652)" fill="#875547"/>
          <path id="Trazado_892783" data-name="Trazado 892783" d="M881.712,238.085s-5.7-.4-7.905,6.211c-.922,3.162-.734,6.211-.339,6.776s5.468-.282,8.522,1.807c.23-4.592,2.094-9.787,3.279-10.747s-3.557-4.047-3.557-4.047" transform="translate(-687.072 -187.345)" fill="#a6826d"/>
          <path id="Trazado_892784" data-name="Trazado 892784" d="M699.336,447.5c-5.267-.292-20.02-2.188-20.02-4.085,0-2.258-2.861-56.615-2.665-57.819s8.086,10.841,7.153,1.807-10.058-34.933-11.564-36.89,2.409,11.293,1.355,11.142-8.131-7.83-11.443-7.529c-3.149.286-31.469,3.028-34.258,3.3,12.194.827,36.016.918,36.016.918s3.463,4.065,4.216,6.173,2.71,81.61,3.463,84.772c.262,1.1,3.671,2.216,8.014,3.1.048-2.19-.056-4.628.555-5.514.877-1.272,13.416,1.1,19.182,2.266,0-.51,0-1.06,0-1.644" transform="translate(-494.087 -275.661)" fill="#875547"/>
          <path id="Trazado_892785" data-name="Trazado 892785" d="M590.983,299.184s-10.239,8.941-10.916,10.87,7.6,3.887,8.206,3.585-3.84-3.99-3.388-4.969,10.013-5.8,10.164-6.927-6.55,1.882-6.4,1.581,4.367-4.593,2.334-4.141" transform="translate(-456.421 -235.401)" fill="#875547"/>
          <path id="Trazado_892786" data-name="Trazado 892786" d="M373.113,289.267q0-2.418-.018-4.836c0-.455.072-3.088-.251-2.758a.647.647,0,0,0,.049-.167l.009-.075a.546.546,0,0,0-1.014-.369c-.32.427-.1.563-.073,1,.116,1.759.128,3.535.139,5.31,0,.58-.011,1.177-.033,1.786-3.351.135-6.54-.991-9.87-.914-.45.01-.75.829-.232.97,3.181.867,6.707,1.836,10.037,1.575a26.048,26.048,0,0,0,.366,7.154c.078.317.541.2.606-.063.66-2.705.286-5.839.284-8.608" transform="translate(-284.5 -220.954)" fill="#875547"/>
          <path id="Trazado_892787" data-name="Trazado 892787" d="M895.449,393.942a29.161,29.161,0,0,0-2.564-9.374q-2.281-5.357-4.193-10.862c-1.325-3.809-2.491-7.667-3.566-11.554-1.175-4.248-2.751-8.724-2.095-13.176.067-.452-.531-.431-.6-.021-.61,3.516.1,6.915,1,10.32,1.019,3.884,2.234,7.72,3.53,11.52q1.808,5.3,3.9,10.5c1.479,3.677,3.4,7.272,3.779,11.272.747,7.892.3,16.108-.047,24.013a238.738,238.738,0,0,1-2.162,24.527c-.133.9,1.128.891,1.21.043,1.5-15.585,3.047-31.54,1.811-47.206" transform="translate(-694.202 -274.346)" fill="#875547"/>
          <path id="Trazado_892788" data-name="Trazado 892788" d="M894.761,471.92c-1.688-4.678-3.173-9.54-5.283-14.049-.332-.71-1.125-.062-.962.547,1.215,4.549,3.06,8.974,4.672,13.394,1.434,3.931,3.582,8.086,3.869,12.3.286,4.19-1.235,8.735-2.079,12.827-.937,4.544-1.9,9.083-2.816,13.631-.1.5.565.465.669.024,1.091-4.67,2.1-9.358,3.08-14.051.858-4.092,2.284-8.509,2.26-12.719-.023-4.027-2.07-8.192-3.408-11.9" transform="translate(-699.152 -360.053)" fill="#875547"/>
          <path id="Trazado_892789" data-name="Trazado 892789" d="M841.371,272.228c-.759,1.914-1.275,3.9-2.134,5.785s-2.169,3.5-2.974,5.372a.524.524,0,0,0,.817.631c2.947-2.4,5.016-7.908,5.069-11.637a.4.4,0,0,0-.779-.151" transform="translate(-658.01 -213.972)" fill="#875547"/>
          <path id="Trazado_892790" data-name="Trazado 892790" d="M801.941,277.966c-1.292.809-2.207,2.373-3.225,3.5-1.169,1.3-2.355,2.59-3.581,3.834-.406.412.02,1.183.529.742a45.072,45.072,0,0,0,3.931-3.782c1-1.1,2.357-2.336,2.864-3.761.112-.313-.164-.759-.519-.537" transform="translate(-625.562 -218.683)" fill="#875547"/>
          <path id="Trazado_892791" data-name="Trazado 892791" d="M915.742,216.643s2.541,9.373,10.446,9.26,9.762-9.26,9.762-9.26-1.857-2.484-2.591-8.357a73.411,73.411,0,0,0,1.073-8.075Z" transform="translate(-720.594 -157.546)" fill="#ffbd99"/>
          <path id="Trazado_892792" data-name="Trazado 892792" d="M911.767,194.548c.057.169.847,7.284.847,7.284.847,1.92,10.446-1.468,12.309-6.719.057.056-1.016,8.7,0,7.961s6.6-17.617,5.248-21.174-18.4,12.648-18.4,12.648" transform="translate(-717.466 -142.735)" fill="#de9985"/>
          <path id="Trazado_892793" data-name="Trazado 892793" d="M857.677,47.985s-3.74,31.767,3.335,35.945a25.014,25.014,0,0,0,18.029-.565c4.4-2.089,7.453-11.067,7.453-11.067s1.92,2.993,2.936,2.372S897,67.613,893.61,57.562s-26.976-24.743-35.932-9.576" transform="translate(-674.126 -32.626)" fill="#ffbd99"/>
          <path id="Trazado_892794" data-name="Trazado 892794" d="M880.57,120.233c-1.183.058-2.046.517-2.54-.97a7.612,7.612,0,0,1,.119-3.121,44.669,44.669,0,0,1,1.879-6.27c.17-.529-.464-.743-.693-.252a21.4,21.4,0,0,0-2.353,9.5c.072,2.409,1.155,3.142,3.582,2.361.521-.168.732-1.283.006-1.247" transform="translate(-690.089 -86.043)" fill="#b8675e"/>
          <path id="Trazado_892795" data-name="Trazado 892795" d="M858,90.228a4.26,4.26,0,0,0-3.659.859c-.737.663-1.2,2.159.067,2.538a5.494,5.494,0,0,0,1.925-.036,6,6,0,0,0,1.933-.466.626.626,0,0,0,.387-.191,1.716,1.716,0,0,0-.653-2.7" transform="translate(-671.708 -70.897)" fill="#473a36"/>
          <path id="Trazado_892796" data-name="Trazado 892796" d="M915.393,90.186c-1.113-.524-2.633-.969-3.372-.183-1.354.384-1.249,2.234-.2,2.981a5.772,5.772,0,0,0,2.93.722c.657.029,2.059.179,2.562-.375,1.124-1.238-1.046-2.734-1.919-3.144" transform="translate(-716.878 -70.488)" fill="#473a36"/>
          <path id="Trazado_892797" data-name="Trazado 892797" d="M862.873,129.887a14.106,14.106,0,0,0-.237-1.627.539.539,0,0,0-.652-.494c-.548.159-.647.681-.653,1.181a10.665,10.665,0,0,0,.045,1.57.731.731,0,0,0,.454.626c.792.229,1.086-.631,1.042-1.256" transform="translate(-677.772 -100.523)"/>
          <path id="Trazado_892798" data-name="Trazado 892798" d="M925.581,130.594a14.179,14.179,0,0,0-.237-1.627.539.539,0,0,0-.652-.494c-.548.159-.647.681-.653,1.182a10.655,10.655,0,0,0,.045,1.569.731.731,0,0,0,.454.626c.792.229,1.086-.631,1.042-1.256" transform="translate(-727.117 -101.079)"/>
          <path id="Trazado_892799" data-name="Trazado 892799" d="M880.105,193.737s8.281-.264,10.314-.414c1.92.753-2.974,4.705-6.587,4.705s-3.8-3.35-3.727-4.291" transform="translate(-692.542 -152.125)" fill="#fff"/>
          <path id="Trazado_892800" data-name="Trazado 892800" d="M884.122,40.877s-1.412,4.54-2.371,4.258,0-5.976,0-5.976-1.468,4.191-2.146,2.994-2.146-9.61,1.073-13.054c-.057.113-3.162,1.3-3.614.508s1.129-3.049,1.129-3.049-4.065,2.88-5.026,2.033,0-4.065,0-4.065-8.018,4.856-8.3,4.065.9-3.5.9-3.5-6.889,3.783-7.114,2.541,2.557-4.4,2.351-4.291-9.184,5.364-9.466,4.065,2.28-5.533,5.4-6.663c-.321.226-3.822-.169-3.766-1.016s13.326-6.719,24.957-4.065,12.479,9.034,12.479,9.034.847-2.372,1.3-1.637.282,5.759,0,6.155c2.993,4.686.113,15.076-1.694,20.214s-7.4,13.1-7.4,13.1-.4-10.559-.4-11.067c2.428,2.315,7.453-3.162,6.776-8.865s-4.025-4.462-5.082-1.717" transform="translate(-670.058 -11.786)" fill="#473a36"/>
          <path id="Trazado_892801" data-name="Trazado 892801" d="M1003.293,140.47c.3-.269.075-.933-.359-.681a8.335,8.335,0,0,0-2.9,3.576,2.866,2.866,0,0,0-.556,1.574c.013.1.064.219.072.309l.249.381q.15,2.058-1.344,1.76c-.307-.032-.473.56-.151.631a1.9,1.9,0,0,0,2.448-1.693,4.208,4.208,0,0,0-.16-.947,3.441,3.441,0,0,1,0-1.24,5.3,5.3,0,0,1,.975-.468c.429-.159.913-.156,1.255-.484.171-.164.243-.541.011-.7-.461-.31-1.046-.053-1.516.157a11.814,11.814,0,0,1,1.972-2.178" transform="translate(-785.424 -109.955)" fill="#b8675e"/>
          <path id="Trazado_892802" data-name="Trazado 892802" d="M982.334,403c-.116-.468-.6-2.027-.295-2.291s4.961.484,5.887.656c6.8-2.651,23.625-.712,23.625-.712s-2.71-2.093-1.581-2.807,8.7.221,10.5,2.577c.678-3.968-7.566-5.06-7.566-5.06s3.275-.15,3.162-1.844-8.131.119-9.373.963c-3.84-7.626-9.6-28.4-9.825-30.325s5.308-7.227,4.066-7.679-6.008,8.7-6.5,11.067-2.07-8.808-2.356-9.26-6.159,24.28-6.949,32.185-.226-9.373-1.13-6.889a114.076,114.076,0,0,0-3.388,17.579c-.188,1.393,1.725,1.839,1.725,1.839" transform="translate(-771.627 -280.5)" fill="#875547"/>
          <path id="Trazado_892803" data-name="Trazado 892803" d="M929.508,546.46c-.113-.489-1.882-5.646-3.877-6.926s-10.653-.113-11.782,2.221c-.263.79,3.463,1.43,3.463,1.43s-3.99,1.092-3.8,2.183,4.479,1.393,4.479,1.393-4.329,1.43-3.8,2.522,5.835,1.355,5.835,1.468-4.028,2.033-3.313,3.124S923,555.607,923,555.607s3.463,7.566,7.039,7.114a65.656,65.656,0,0,0-.527-16.262" transform="translate(-718.832 -424.142)" fill="#ffbd99"/>
          <path id="Trazado_892804" data-name="Trazado 892804" d="M1015,274.935s3.862-2.647,10.751-2.026c.339-4.122-3.423-7.795-3.423-7.795l2.232.592s3.186,5.189,3.45,8.8c-1.732-.151-11.53,1.6-12.936,3.831a13.609,13.609,0,0,0-.073-3.406" transform="translate(-798.697 -208.618)" fill="#875547"/>
          <path id="Trazado_892805" data-name="Trazado 892805" d="M1014.394,650.16s-23.6,1.185-25.07,1.693-1.393-1.713-1.393-1.713l-.852-.041s1.342,15.249,4.447,18.75c1.186-.339.847-7.735,1.355-8.187s5.646,4.743,6.324,2.767a41.3,41.3,0,0,0,1.129-6.437s5.308,6.213,7.4,5.45,6.912-7.816,6.912-7.816Z" transform="translate(-776.729 -511.561)" fill="#875547"/>
          <path id="Trazado_892806" data-name="Trazado 892806" d="M1033.521,801.679a86.958,86.958,0,0,1-23.5.392c-.342-.044-.519.607-.167.7a43.521,43.521,0,0,0,12.525,1.068c3.544-.117,8.061.189,11.317-1.417.357-.176.262-.806-.175-.742" transform="translate(-794.499 -630.835)" fill="#875547"/>
          <path id="Trazado_892807" data-name="Trazado 892807" d="M1138.233,567.719c-1.321-3.218-5.5-5.577-8.645-6.611-.52-.171-.811.677-.331.909a25.762,25.762,0,0,1,4.7,2.837c1.321,1.031,2.35,2.452,3.726,3.389.319.217.678-.206.547-.523" transform="translate(-888.416 -441.516)" fill="#875547"/>
          <path id="Trazado_892808" data-name="Trazado 892808" d="M1090.84,295.223c-1.546.2-2.658,1.987-3.515,3.15a25.932,25.932,0,0,0-1.632,2.494,9.712,9.712,0,0,1-1.7,2.714c-.3.259-.058.939.353.67,1.266-.83,1.812-2.288,2.615-3.522a28.665,28.665,0,0,1,4.144-4.793c.264-.26.153-.766-.265-.713" transform="translate(-852.885 -232.307)" fill="#875547"/>
          <path id="Trazado_892809" data-name="Trazado 892809" d="M1001.211,569.731c-.281-.405-.785.119-.648.484a33.023,33.023,0,0,1,2.238,8.437c.114,1.126.152,2.256.181,3.387-2.424-.014-4.9.084-7.306.3-.479.043-.666.865-.108.909a49.769,49.769,0,0,0,7.448.013c.035,1.2.085,2.393.234,3.583.064.509.689.346.748-.084.732-5.289.351-12.5-2.787-17.031" transform="translate(-783.139 -448.204)" fill="#875547"/>
          <path id="Trazado_892810" data-name="Trazado 892810" d="M1010.51,441.681a3.1,3.1,0,0,0-.805.408q-.017-.244-.034-.488c-.01-.168-.01-.337-.016-.505a.294.294,0,0,0,.015-.2l-.023-.067c0-.091-.008-.182-.008-.273,0-.514.107-1.012-.314-1.376a.259.259,0,0,0-.255-.039c-2.878-8.217-6.7-16.186-9.831-24.3-.335-.868-1.486-.078-1.184.674q.981,2.439,1.944,4.921a17.638,17.638,0,0,1-1.531-1.019c-.408-.31-.814.41-.471.72a16.83,16.83,0,0,0,2.706,2.1,160.209,160.209,0,0,0,7.853,17.757,6.408,6.408,0,0,0-.008.912,5.6,5.6,0,0,0,.261,2.195c0,.007.008.013.011.02a2.535,2.535,0,0,0-.251,1.317,74.728,74.728,0,0,0-11.209.267c-1.945.23-3.9,1.012-5.818,1.175-1.784.152-3.544-.542-5.393-.334-.418.047-.471.909,0,.87,1.926-.16,3.56.813,5.391.742,1.555-.06,3.191-.744,4.748-.965a77.246,77.246,0,0,1,13.082-.315.767.767,0,0,0,.662-1.034l.631-1.839c.686-.244.649-1.585-.148-1.319" transform="translate(-775.734 -326.135)" fill="#73493c"/>
          <path id="Trazado_892811" data-name="Trazado 892811" d="M1056.148,661.013c-.164-.738-1.013-.546-1.125.126a14.961,14.961,0,0,0-.146,2.7,39.545,39.545,0,0,1-7.772.88c-.979.013-2.907.328-3.751-.1-1.263-.644-1.144-2.563-1.3-3.887-.055-.478-.715-.358-.73.082a17.726,17.726,0,0,0,.574,4.57c.041.181.121.395.326.449,4.352,1.149,9.208.573,13.534-.431a1,1,0,0,0,.673-1.055,17.286,17.286,0,0,0-.285-3.327" transform="translate(-819.411 -519.68)" fill="#73493c"/>
          <path id="Trazado_892812" data-name="Trazado 892812" d="M844.424,632.186c-.039-.711-.874-.4-.985.11a38.434,38.434,0,0,0-.606,5.8c-2.69-.706-5.418-.6-8.147-1.178-.794-.168-2.656-.14-3.187-.665-.779-.771-.087-4.381-.03-5.505a.348.348,0,1,0-.693-.025,38.333,38.333,0,0,0-.462,6.511.433.433,0,0,0,.269.37,18.47,18.47,0,0,0,2.611.394c1,.2,1.986.517,3,.66,2.374.334,4.623.253,6.95,1.013a.706.706,0,0,0,.858-.648,46.811,46.811,0,0,0,.418-6.838" transform="translate(-653.336 -496.028)" fill="#73493c"/>
        </g>
      </g>
    </g>
  </g>
</svg>
