<svg xmlns="http://www.w3.org/2000/svg" xmlns:xlink="http://www.w3.org/1999/xlink" width="295" height="332.335" viewBox="0 0 295 332.335">
  <defs>
    <clipPath id="clip-path">
      <rect id="Rect치ngulo_402414" data-name="Rect치ngulo 402414" width="295" height="294.637" fill="#c6cadb"/>
    </clipPath>
    <clipPath id="clip-path-2">
      <rect id="Rect치ngulo_402832" data-name="Rect치ngulo 402832" width="295" height="244.76" transform="translate(0 0)" fill="none"/>
    </clipPath>
  </defs>
  <g id="Grupo_1102419" data-name="Grupo 1102419" transform="translate(-285 -2336.753)">
    <g id="Grupo_1101546" data-name="Grupo 1101546" transform="translate(-754.781 -4736.565)">
      <g id="Grupo_1101542" data-name="Grupo 1101542" transform="translate(1039.781 7073.319)">
        <g id="Grupo_1101541" data-name="Grupo 1101541" clip-path="url(#clip-path)">
          <path id="Trazado_892286" data-name="Trazado 892286" d="M154.325,265a5.216,5.216,0,0,1-5.2-4.722,5.16,5.16,0,0,1,4.67-5.63l.5-.045a5.189,5.189,0,0,1,.96,10.333l-.469.042c-.157.015-.314.022-.469.022m-20.933-.317a5.355,5.355,0,0,1-.569-.032l-.551-.061a5.188,5.188,0,1,1,1.19-10.308l.488.053a5.189,5.189,0,0,1-.557,10.348m41.938-3.514a5.189,5.189,0,0,1-1.4-10.185l.488-.137a5.189,5.189,0,1,1,2.843,9.98l-.518.147a5.169,5.169,0,0,1-1.408.2m-63-.4a5.217,5.217,0,0,1-1.355-.18l-.544-.149a5.189,5.189,0,0,1,2.781-10l.467.127a5.189,5.189,0,0,1-1.349,10.2m83-7.266a5.189,5.189,0,0,1-2.3-9.844l.44-.219a5.189,5.189,0,0,1,4.641,9.282l-.493.244a5.15,5.15,0,0,1-2.29.536m-103.117-.086a5.164,5.164,0,0,1-2.21-.5l-.5-.238a5.189,5.189,0,1,1,4.482-9.359l.445.211a5.189,5.189,0,0,1-2.217,9.882m-18.4-10.947a5.162,5.162,0,0,1-3.06-1l-.458-.338a5.189,5.189,0,0,1,6.206-8.319l.383.284a5.189,5.189,0,0,1-3.071,9.375m139.756-.185a5.189,5.189,0,0,1-3.107-9.348l.39-.294a5.189,5.189,0,1,1,6.259,8.278l-.443.334a5.173,5.173,0,0,1-3.1,1.031M57.931,228.129a5.17,5.17,0,0,1-3.839-1.7l-.375-.414a5.189,5.189,0,0,1,7.724-6.932l.326.363a5.189,5.189,0,0,1-3.837,8.681m171.52-.214a5.189,5.189,0,0,1-3.814-8.707l.339-.368a5.188,5.188,0,0,1,7.659,7l-.369.4a5.178,5.178,0,0,1-3.815,1.671M45.175,210.929a5.187,5.187,0,0,1-4.454-2.519l-.286-.482a5.188,5.188,0,1,1,8.936-5.275l.25.418a5.189,5.189,0,0,1-4.446,7.858m197.264-.047a5.189,5.189,0,0,1-4.387-7.953l.258-.414a5.189,5.189,0,1,1,8.822,5.465l-.3.476a5.188,5.188,0,0,1-4.4,2.425m9.647-19.129a5.192,5.192,0,0,1-4.825-7.095l.18-.461a5.188,5.188,0,1,1,9.674,3.752l-.2.518a5.191,5.191,0,0,1-4.827,3.285m-216.164-.144a5.187,5.187,0,0,1-4.872-3.406l-.182-.5a5.188,5.188,0,1,1,9.748-3.557l.178.486a5.192,5.192,0,0,1-4.873,6.973m222.112-20.434a5.191,5.191,0,0,1-5.1-6.147l.1-.514a5.188,5.188,0,1,1,10.2,1.914l-.1.515a5.188,5.188,0,0,1-5.093,4.232m-227.7-.25a5.188,5.188,0,0,1-5.106-4.3l-.09-.513a5.189,5.189,0,0,1,10.223-1.786l.09.518a5.191,5.191,0,0,1-5.117,6.08m229.748-21.068h-.034a5.189,5.189,0,0,1-5.156-5.222v-.955a5.189,5.189,0,0,1,5.155-5.224h.035a5.188,5.188,0,0,1,5.187,5.155v1.09a5.187,5.187,0,0,1-5.187,5.156m-231.635-.276a5.188,5.188,0,0,1-5.189-5.189v-.523a5.188,5.188,0,1,1,10.377,0v.523a5.188,5.188,0,0,1-5.188,5.189m1.811-21.351a5.242,5.242,0,0,1-.9-.077,5.188,5.188,0,0,1-4.221-6l.09-.518a5.189,5.189,0,0,1,10.223,1.786l-.09.514a5.191,5.191,0,0,1-5.106,4.3m227.868-.2a5.189,5.189,0,0,1-5.093-4.233l-.1-.515a5.188,5.188,0,1,1,10.2-1.914l.1.514a5.2,5.2,0,0,1-5.1,6.148M35.75,107.526a5.194,5.194,0,0,1-4.872-6.974l.182-.5a5.189,5.189,0,1,1,9.741,3.577l-.178.486a5.192,5.192,0,0,1-4.873,3.406m216.536-.1a5.187,5.187,0,0,1-4.835-3.308l-.19-.488a5.188,5.188,0,1,1,9.67-3.764l.19.489a5.189,5.189,0,0,1-4.834,7.071m-9.545-19.168a5.187,5.187,0,0,1-4.422-2.466l-.259-.418a5.188,5.188,0,1,1,8.8-5.495l.291.467a5.188,5.188,0,0,1-4.413,7.912M44.909,88.166a5.189,5.189,0,0,1-4.455-7.841l.282-.473a5.188,5.188,0,1,1,8.889,5.354l-.252.424a5.186,5.186,0,0,1-4.464,2.536m184.924-17A5.173,5.173,0,0,1,226,69.48l-.347-.377a5.189,5.189,0,1,1,7.646-7.017l.36.393a5.188,5.188,0,0,1-3.829,8.689M57.589,70.912a5.189,5.189,0,0,1-3.859-8.655l.375-.415a5.189,5.189,0,1,1,7.675,6.984l-.326.363a5.183,5.183,0,0,1-3.865,1.723m156.425-14.19a5.174,5.174,0,0,1-3.164-1.078l-.364-.275a5.189,5.189,0,0,1,6.226-8.3l.47.356a5.189,5.189,0,0,1-3.169,9.3M73.423,56.5a5.189,5.189,0,0,1-3.1-9.356l.448-.331a5.189,5.189,0,1,1,6.13,8.373l-.393.291A5.166,5.166,0,0,1,73.423,56.5m18.344-11.03a5.189,5.189,0,0,1-2.23-9.877l.485-.231a5.189,5.189,0,0,1,4.429,9.386l-.46.217a5.159,5.159,0,0,1-2.224.5m104.052-.053a5.161,5.161,0,0,1-2.316-.549l-.457-.227a5.189,5.189,0,0,1,4.615-9.295l.483.24a5.19,5.19,0,0,1-2.325,9.831m-83.98-7.383a5.189,5.189,0,0,1-1.373-10.192l.528-.143a5.188,5.188,0,1,1,2.7,10.019l-.482.131a5.205,5.205,0,0,1-1.377.186m64.019-.381a5.175,5.175,0,0,1-1.415-.2l-.5-.141a5.189,5.189,0,0,1,2.811-9.989l.511.144a5.189,5.189,0,0,1-1.411,10.182m-42.98-3.607a5.189,5.189,0,0,1-.572-10.346l.557-.061a5.189,5.189,0,0,1,1.085,10.321l-.485.053a5.365,5.365,0,0,1-.585.033m21.933-.33c-.16,0-.323-.008-.486-.023l-.5-.045a5.189,5.189,0,1,1,.921-10.337l.542.049a5.189,5.189,0,0,1-.475,10.356" transform="translate(3.172 3.177)" fill="#c6cadb"/>
          <path id="Trazado_892287" data-name="Trazado 892287" d="M159.779,294.637a6.363,6.363,0,0,1-6.339-5.757,6.283,6.283,0,0,1,5.688-6.859l.622-.056a6.325,6.325,0,0,1,1.155,12.6l-.553.05c-.192.017-.383.025-.572.025m-25.528-.386a6.273,6.273,0,0,1-.682-.038l-.67-.074a6.324,6.324,0,0,1,1.423-12.569l.6.066a6.325,6.325,0,0,1-.667,12.614m51.118-4.281a6.325,6.325,0,0,1-1.7-12.418l.581-.165a6.325,6.325,0,0,1,3.472,12.164l-.648.183a6.331,6.331,0,0,1-1.706.235m-76.788-.488a6.311,6.311,0,0,1-1.655-.22l-.638-.174a6.325,6.325,0,1,1,3.347-12.2l.592.16a6.326,6.326,0,0,1-1.647,12.432m101.175-8.856a6.326,6.326,0,0,1-2.807-12l.543-.269a6.325,6.325,0,0,1,5.657,11.314l-.6.3a6.313,6.313,0,0,1-2.8.656m-125.7-.106a6.293,6.293,0,0,1-2.7-.611l-.59-.28a6.325,6.325,0,0,1,5.445-11.418l.563.267a6.326,6.326,0,0,1-2.714,12.041M61.634,267.177a6.293,6.293,0,0,1-3.747-1.234l-.534-.4A6.324,6.324,0,1,1,64.9,255.4l.492.363a6.326,6.326,0,0,1-3.758,11.418m170.355-.226a6.325,6.325,0,0,1-3.8-11.382l.481-.363a6.325,6.325,0,1,1,7.654,10.071l-.535.4a6.3,6.3,0,0,1-3.8,1.269M42.271,249.693a6.3,6.3,0,0,1-4.683-2.073l-.452-.5a6.325,6.325,0,0,1,9.412-8.454l.4.448a6.325,6.325,0,0,1-4.679,10.578m209.072-.26a6.325,6.325,0,0,1-4.649-10.612l.406-.444a6.325,6.325,0,1,1,9.349,8.522l-.456.5a6.3,6.3,0,0,1-4.65,2.038M26.72,228.729a6.321,6.321,0,0,1-5.424-3.064l-.328-.549a6.325,6.325,0,0,1,10.838-6.523l.328.549a6.326,6.326,0,0,1-5.414,9.587m240.455-.057a6.327,6.327,0,0,1-5.356-9.681l.322-.519a6.326,6.326,0,0,1,10.754,6.664l-.352.566a6.32,6.32,0,0,1-5.367,2.971m11.758-23.318a6.329,6.329,0,0,1-5.89-8.63l.219-.563A6.325,6.325,0,1,1,285.07,200.7l-.245.631a6.326,6.326,0,0,1-5.891,4.023m-263.49-.175A6.326,6.326,0,0,1,9.5,201.03l-.219-.6a6.325,6.325,0,1,1,11.877-4.355l.219.6a6.327,6.327,0,0,1-5.937,8.5M286.183,180.27a6.328,6.328,0,0,1-6.218-7.515l.111-.592a6.324,6.324,0,1,1,12.436,2.309l-.124.663a6.326,6.326,0,0,1-6.2,5.135m-277.559-.3A6.328,6.328,0,0,1,2.4,174.731l-.11-.631a6.325,6.325,0,0,1,12.461-2.176l.11.625a6.327,6.327,0,0,1-5.14,7.322,6.456,6.456,0,0,1-1.1.1m280.052-25.682h-.034a6.325,6.325,0,0,1-6.291-6.358v-1.18a6.324,6.324,0,0,1,6.29-6.359h.035a6.325,6.325,0,0,1,6.324,6.29v1.315a6.325,6.325,0,0,1-6.324,6.292M6.324,153.949A6.324,6.324,0,0,1,0,147.624v-.638a6.325,6.325,0,1,1,12.649,0v.638a6.325,6.325,0,0,1-6.325,6.324m2.208-26.025a6.4,6.4,0,0,1-1.094-.094,6.325,6.325,0,0,1-5.143-7.32l.11-.628a6.325,6.325,0,0,1,12.461,2.176l-.11.628a6.326,6.326,0,0,1-6.223,5.238m277.758-.245a6.325,6.325,0,0,1-6.21-5.171l-.111-.592a6.325,6.325,0,0,1,12.423-2.38l.124.663a6.327,6.327,0,0,1-6.225,7.48M15.229,102.685a6.33,6.33,0,0,1-5.938-8.5l.223-.6a6.325,6.325,0,0,1,11.872,4.365l-.217.593a6.329,6.329,0,0,1-5.94,4.149m263.949-.122a6.327,6.327,0,0,1-5.9-4.046l-.22-.566a6.325,6.325,0,1,1,11.777-4.617l.243.623a6.326,6.326,0,0,1-5.9,8.606M267.543,79.2a6.32,6.32,0,0,1-5.376-2.986l-.332-.533a6.324,6.324,0,1,1,10.733-6.692l.341.548a6.325,6.325,0,0,1-5.366,9.664M26.4,79.087a6.327,6.327,0,0,1-5.423-9.57l.326-.547A6.325,6.325,0,1,1,32.157,75.46l-.327.547A6.32,6.32,0,0,1,26.4,79.087M251.808,58.366a6.3,6.3,0,0,1-4.683-2.072l-.4-.436a6.325,6.325,0,0,1,9.3-8.574l.461.506a6.324,6.324,0,0,1-4.679,10.577M41.854,58.055A6.325,6.325,0,0,1,37.15,47.5L37.6,47a6.324,6.324,0,1,1,9.362,8.5l-.4.448a6.311,6.311,0,0,1-4.707,2.1m190.669-17.3a6.289,6.289,0,0,1-3.816-1.285l-.489-.368a6.324,6.324,0,1,1,7.6-10.112l.531.4a6.325,6.325,0,0,1-3.825,11.365M61.151,40.481a6.325,6.325,0,0,1-3.768-11.408l.524-.388a6.325,6.325,0,1,1,7.5,10.183l-.5.37a6.3,6.3,0,0,1-3.758,1.242M83.513,27.036A6.325,6.325,0,0,1,80.786,15l.589-.281a6.325,6.325,0,0,1,5.418,11.431l-.563.267a6.3,6.3,0,0,1-2.718.617m126.835-.066a6.31,6.31,0,0,1-2.824-.669l-.547-.272a6.325,6.325,0,0,1,5.6-11.34l.6.3a6.326,6.326,0,0,1-2.833,11.983m-102.369-9a6.326,6.326,0,0,1-1.663-12.428l.632-.172a6.326,6.326,0,0,1,3.3,12.213l-.6.163a6.372,6.372,0,0,1-1.669.224m78.036-.465a6.314,6.314,0,0,1-1.739-.244L183.7,17.1a6.325,6.325,0,0,1,3.391-12.187l.655.184a6.326,6.326,0,0,1-1.733,12.408m-52.389-4.4A6.325,6.325,0,0,1,132.939.5L133.6.427a6.325,6.325,0,0,1,1.343,12.578l-.611.067a6.369,6.369,0,0,1-.7.039m26.734-.4c-.2,0-.4-.009-.6-.028l-.6-.055a6.325,6.325,0,0,1,1.122-12.6l.669.06a6.325,6.325,0,0,1-.586,12.622" transform="translate(0 0)" fill="#c6cadb"/>
          <path id="Trazado_892288" data-name="Trazado 892288" d="M149.5,239.007a4.192,4.192,0,0,1-.357-8.369l.4-.036a4.193,4.193,0,1,1,.761,8.35l-.439.04c-.124.01-.245.015-.367.015m-16.858-.261a4.32,4.32,0,0,1-.451-.024l-.358-.039a4.225,4.225,0,0,1-3.744-4.631,4.159,4.159,0,0,1,4.588-3.713l.407.045a4.192,4.192,0,0,1-.441,8.361m33.883-2.838a4.192,4.192,0,0,1-1.123-8.231l.375-.107a4.192,4.192,0,0,1,2.313,8.059l-.437.124a4.2,4.2,0,0,1-1.127.155m-50.9-.322a4.187,4.187,0,0,1-1.089-.144l-.44-.119a4.193,4.193,0,0,1,2.238-8.081l.375.1a4.193,4.193,0,0,1-1.084,8.242m67.062-5.871a4.193,4.193,0,0,1-1.865-7.949l.363-.182a4.192,4.192,0,0,1,3.749,7.5l-.39.194a4.171,4.171,0,0,1-1.857.438m-83.315-.069a4.191,4.191,0,0,1-1.778-.4l-.408-.194a4.192,4.192,0,1,1,3.616-7.564l.356.168a4.193,4.193,0,0,1-1.785,7.988M84.507,220.8a4.166,4.166,0,0,1-2.49-.823l-.34-.251a4.192,4.192,0,1,1,4.987-6.739l.34.252a4.191,4.191,0,0,1-2.5,7.561m112.914-.151a4.192,4.192,0,0,1-2.508-7.554l.311-.234a4.192,4.192,0,1,1,5.063,6.682l-.365.275a4.173,4.173,0,0,1-2.5.831M71.668,209.215a4.177,4.177,0,0,1-3.11-1.381l-.291-.322a4.192,4.192,0,0,1,6.234-5.607l.275.306a4.192,4.192,0,0,1-3.108,7m138.58-.176a4.191,4.191,0,0,1-3.083-7.03l.278-.3a4.192,4.192,0,1,1,6.186,5.659l-.294.32a4.181,4.181,0,0,1-3.087,1.353M61.364,195.322a4.19,4.19,0,0,1-3.59-2.022l-.236-.4a4.192,4.192,0,1,1,7.208-4.28l.2.332a4.193,4.193,0,0,1-3.581,6.365m159.377-.043a4.192,4.192,0,0,1-3.543-6.425l.209-.336a4.192,4.192,0,0,1,7.125,4.42l-.239.383a4.19,4.19,0,0,1-3.552,1.959m7.794-15.456a4.192,4.192,0,0,1-3.9-5.738l.141-.361a4.192,4.192,0,1,1,7.82,3.023l-.167.428a4.193,4.193,0,0,1-3.9,2.648m-174.648-.11a4.193,4.193,0,0,1-3.932-2.74l-.158-.432a4.192,4.192,0,1,1,7.888-2.839l.134.363a4.2,4.2,0,0,1-3.932,5.648M233.34,163.2a4.192,4.192,0,0,1-4.114-5.021l.065-.345a4.192,4.192,0,0,1,8.246,1.517l-.092.485a4.194,4.194,0,0,1-4.1,3.364M49.368,163a4.193,4.193,0,0,1-4.124-3.466l-.077-.449a4.192,4.192,0,1,1,8.267-1.389l.067.384a4.193,4.193,0,0,1-3.4,4.855,4.13,4.13,0,0,1-.732.065m185.625-17.027h-.034a4.192,4.192,0,0,1-4.159-4.225v-.76a4.192,4.192,0,0,1,4.158-4.226h.035a4.192,4.192,0,0,1,4.19,4.158v.894a4.191,4.191,0,0,1-4.19,4.159m-187.147-.218a4.193,4.193,0,0,1-4.192-4.192v-.423a4.192,4.192,0,0,1,8.384,0v.423a4.193,4.193,0,0,1-4.192,4.192m1.466-17.25a4.109,4.109,0,0,1-.731-.065,4.193,4.193,0,0,1-3.4-4.855l.073-.414a4.193,4.193,0,0,1,8.259,1.447l-.075.42a4.193,4.193,0,0,1-4.124,3.466m184.1-.167a4.193,4.193,0,0,1-4.118-3.434l-.07-.381a4.192,4.192,0,1,1,8.232-1.588l.084.451a4.2,4.2,0,0,1-4.127,4.951M53.753,111.777a4.194,4.194,0,0,1-3.942-5.617l.156-.425a4.192,4.192,0,1,1,7.864,2.907l-.134.367a4.2,4.2,0,0,1-3.943,2.768m174.944-.085a4.192,4.192,0,0,1-3.909-2.676l-.151-.389a4.193,4.193,0,0,1,7.813-3.044l.153.4a4.194,4.194,0,0,1-3.906,5.71m-7.711-15.486a4.189,4.189,0,0,1-3.563-1.975l-.223-.358a4.192,4.192,0,1,1,7.115-4.434l.224.358a4.192,4.192,0,0,1-3.554,6.409m-159.834-.07a4.192,4.192,0,0,1-3.6-6.339l.22-.37a4.192,4.192,0,0,1,7.192,4.309l-.213.355a4.187,4.187,0,0,1-3.6,2.046M210.555,82.4a4.177,4.177,0,0,1-3.11-1.381l-.261-.285a4.192,4.192,0,1,1,6.171-5.676l.309.339a4.192,4.192,0,0,1-3.108,7M71.4,82.194a4.193,4.193,0,0,1-3.116-7l.308-.34a4.192,4.192,0,1,1,6.185,5.659l-.259.288A4.182,4.182,0,0,1,71.4,82.194m126.376-11.47a4.173,4.173,0,0,1-2.529-.851l-.32-.242a4.192,4.192,0,1,1,5.03-6.707l.353.267a4.192,4.192,0,0,1-2.534,7.533m-113.587-.18a4.192,4.192,0,0,1-2.5-7.562l.357-.263A4.192,4.192,0,1,1,87,69.482l-.325.24a4.166,4.166,0,0,1-2.49.823m14.821-8.912A4.193,4.193,0,0,1,97.2,53.658l.394-.188a4.192,4.192,0,1,1,3.591,7.576l-.369.175a4.164,4.164,0,0,1-1.8.411m84.067-.044a4.169,4.169,0,0,1-1.884-.451l-.353-.175a4.192,4.192,0,0,1,3.723-7.513l.406.2a4.193,4.193,0,0,1-1.891,7.937m-67.852-5.965a4.193,4.193,0,0,1-1.107-8.236l.431-.117a4.192,4.192,0,0,1,2.174,8.1l-.385.1a4.228,4.228,0,0,1-1.113.15m51.724-.307a4.205,4.205,0,0,1-1.15-.161l-.4-.114a4.192,4.192,0,0,1,2.281-8.069l.415.118a4.193,4.193,0,0,1-1.146,8.225M132.223,52.4a4.193,4.193,0,0,1-.457-8.359l.436-.048a4.192,4.192,0,0,1,.892,8.337l-.4.044a4.309,4.309,0,0,1-.468.026m17.72-.267a3.953,3.953,0,0,1-.4-.019l-.389-.034a4.192,4.192,0,0,1,.723-8.354l.455.042a4.192,4.192,0,0,1-.39,8.365" transform="translate(5.955 5.963)" fill="#c6cadb"/>
          <path id="Trazado_892289" data-name="Trazado 892289" d="M145.3,215.6a3.3,3.3,0,0,1-.292-6.578l.311-.028a3.295,3.295,0,1,1,.63,6.559l-.35.033c-.1.009-.2.014-.3.014m-13.239-.181a3.338,3.338,0,0,1-.352-.018l-.344-.037a3.295,3.295,0,1,1,.722-6.55l.317.033a3.3,3.3,0,0,1-.342,6.573m26.607-2.269a3.3,3.3,0,0,1-.907-6.464l.319-.091a3.3,3.3,0,1,1,1.816,6.335l-.319.091a3.325,3.325,0,0,1-.909.128m-39.976-.185a3.288,3.288,0,0,1-.864-.115l-.313-.084a3.3,3.3,0,1,1,1.707-6.366l.328.089a3.3,3.3,0,0,1-.859,6.476m-12.772-4.641a3.287,3.287,0,0,1-1.406-.316l-.313-.149a3.3,3.3,0,0,1,2.841-5.947l.286.136a3.3,3.3,0,0,1-1.409,6.275m65.437-.052a3.3,3.3,0,0,1-1.476-6.243l.3-.148a3.3,3.3,0,0,1,2.947,5.9l-.294.147a3.288,3.288,0,0,1-1.472.349M94.237,201.4a3.277,3.277,0,0,1-1.952-.643l-.277-.2a3.3,3.3,0,1,1,3.933-5.289l.255.19a3.295,3.295,0,0,1-1.958,5.947m88.689-.255a3.3,3.3,0,0,1-1.98-5.932l.249-.188a3.3,3.3,0,0,1,3.987,5.249l-.28.211a3.286,3.286,0,0,1-1.976.659m-98.784-8.83a3.29,3.29,0,0,1-2.444-1.084l-.239-.265a3.3,3.3,0,0,1,4.918-4.387l.206.228a3.3,3.3,0,0,1-2.441,5.507m108.852-.3a3.3,3.3,0,0,1-2.434-5.516l.216-.236a3.295,3.295,0,1,1,4.884,4.423l-.231.255a3.285,3.285,0,0,1-2.435,1.075m-116.963-10.6a3.3,3.3,0,0,1-2.819-1.583l-.19-.317a3.3,3.3,0,0,1,5.67-3.362l.152.253a3.3,3.3,0,0,1-2.813,5.008m125.2-.208a3.294,3.294,0,0,1-2.788-5.046l.17-.275a3.3,3.3,0,0,1,5.593,3.487l-.182.29a3.291,3.291,0,0,1-2.794,1.544M70.139,169.165a3.3,3.3,0,0,1-3.085-2.141l-.136-.369a3.3,3.3,0,0,1,6.215-2.194l.093.253a3.3,3.3,0,0,1-3.086,4.451m137.206-.1a3.3,3.3,0,0,1-3.059-4.52l.106-.27a3.3,3.3,0,1,1,6.15,2.368l-.136.35a3.3,3.3,0,0,1-3.06,2.072M66.565,156.048a3.3,3.3,0,0,1-3.238-2.7l-.064-.361a3.295,3.295,0,1,1,6.493-1.122l.051.292a3.294,3.294,0,0,1-2.646,3.837,3.25,3.25,0,0,1-.6.056m144.548-.04a3.359,3.359,0,0,1-.659-.066,3.3,3.3,0,0,1-2.574-3.885l.051-.266a3.295,3.295,0,1,1,6.481,1.19l-.073.387a3.3,3.3,0,0,1-3.226,2.64m-145.775-13.5a3.3,3.3,0,0,1-3.3-3.3v-.332a3.3,3.3,0,1,1,6.59,0v.332a3.3,3.3,0,0,1-3.294,3.3m147.074-.024h-.035a3.294,3.294,0,0,1-3.262-3.327v-.3c0-.06,0-.122,0-.182s-.006-.134-.006-.2l0-.3a3.3,3.3,0,0,1,3.263-3.329h.034A3.294,3.294,0,0,1,215.7,138.1l0,.365c0,.061,0,.123,0,.183s.006.134.006.2v.366a3.294,3.294,0,0,1-3.293,3.263M66.449,128.956A3.3,3.3,0,0,1,63.2,125.1l.057-.331a3.3,3.3,0,0,1,6.495,1.126l-.057.325a3.3,3.3,0,0,1-3.243,2.735M211.1,128.24a3.3,3.3,0,0,1-3.237-2.7l-.057-.3a3.3,3.3,0,1,1,6.47-1.255l.068.355a3.3,3.3,0,0,1-3.244,3.894m-141.2-12.433a3.3,3.3,0,0,1-3.1-4.422l.112-.307a3.3,3.3,0,1,1,6.2,2.242l-.115.316a3.3,3.3,0,0,1-3.1,2.171m137.434-.62a3.3,3.3,0,0,1-3.076-2.111l-.107-.269a3.3,3.3,0,1,1,6.12-2.448l.138.349a3.3,3.3,0,0,1-3.074,4.48M75.657,103.5a3.3,3.3,0,0,1-2.841-4.959L73,98.231a3.295,3.295,0,1,1,5.659,3.375l-.153.26a3.292,3.292,0,0,1-2.848,1.633m125.553-.447a3.291,3.291,0,0,1-2.794-1.544l-.172-.273a3.3,3.3,0,0,1,5.573-3.517l.181.289a3.294,3.294,0,0,1-2.788,5.046M83.659,92.518a3.3,3.3,0,0,1-2.466-5.481l.247-.274a3.3,3.3,0,0,1,4.885,4.423l-.2.222a3.288,3.288,0,0,1-2.468,1.11m109.308-.269a3.285,3.285,0,0,1-2.435-1.075l-.2-.218a3.3,3.3,0,0,1,4.823-4.492l.249.269a3.3,3.3,0,0,1-2.434,5.516m-99.3-8.923a3.3,3.3,0,0,1-1.981-5.931l.278-.207a3.295,3.295,0,1,1,3.932,5.288l-.255.191a3.288,3.288,0,0,1-1.975.659m89.222-.2a3.285,3.285,0,0,1-1.975-.659l-.256-.191a3.3,3.3,0,1,1,3.933-5.288l.277.206a3.3,3.3,0,0,1-1.98,5.932m-77.61-6.847a3.3,3.3,0,0,1-1.435-6.263l.313-.15a3.3,3.3,0,0,1,2.841,5.947l-.286.138a3.286,3.286,0,0,1-1.432.328M171.311,76a3.27,3.27,0,0,1-1.458-.343l-.286-.14A3.295,3.295,0,1,1,172.46,69.6l.314.153A3.3,3.3,0,0,1,171.311,76M118,71.519a3.3,3.3,0,0,1-.875-6.473l.319-.088a3.3,3.3,0,1,1,1.753,6.354l-.319.087a3.3,3.3,0,0,1-.878.119m40.628-.385a3.319,3.319,0,0,1-.886-.122l-.314-.086a3.3,3.3,0,0,1,1.753-6.354l.327.091a3.3,3.3,0,0,1-.881,6.471m-27.284-2.18a3.3,3.3,0,0,1-.376-6.568l.347-.039a3.295,3.295,0,1,1,.727,6.549l-.313.035a3.155,3.155,0,0,1-.385.023m13.916-.263c-.093,0-.187,0-.282-.013l-.334-.028a3.3,3.3,0,0,1,.564-6.566l.327.028a3.3,3.3,0,0,1-.275,6.579" transform="translate(8.463 8.467)" fill="#c6cadb"/>
          <path id="Trazado_892290" data-name="Trazado 892290" d="M142.062,197.924a2.618,2.618,0,0,1-.231-5.225l.249-.023a2.617,2.617,0,0,1,.494,5.212l-.275.025c-.08.007-.159.011-.238.011m-10.515-.117a2.643,2.643,0,0,1-.267-.014l-.278-.03a2.617,2.617,0,1,1,.559-5.2l.248.026a2.618,2.618,0,0,1-.261,5.222m21.13-1.834a2.618,2.618,0,0,1-.711-5.138l.238-.067a2.618,2.618,0,0,1,1.456,5.029l-.268.076a2.594,2.594,0,0,1-.714.1m-31.75-.083a2.617,2.617,0,0,1-.675-.089l-.256-.068a2.618,2.618,0,1,1,1.348-5.059l.255.068a2.618,2.618,0,0,1-.672,5.148m-10.148-3.669a2.612,2.612,0,0,1-1.1-.245l-.265-.125a2.618,2.618,0,0,1,2.261-4.722l.211.1a2.618,2.618,0,0,1-1.106,4.992m51.973-.126a2.617,2.617,0,0,1-1.173-4.958l.235-.117a2.617,2.617,0,1,1,2.341,4.682l-.235.117a2.611,2.611,0,0,1-1.168.276M101.5,186.717a2.611,2.611,0,0,1-1.548-.508l-.224-.165a2.618,2.618,0,0,1,3.121-4.2l.2.15a2.618,2.618,0,0,1-1.551,4.727m70.435-.285a2.619,2.619,0,0,1-1.578-4.709l.2-.15a2.617,2.617,0,1,1,3.172,4.164l-.219.167a2.607,2.607,0,0,1-1.574.528M93.5,179.49a2.61,2.61,0,0,1-1.949-.868l-.169-.187a2.618,2.618,0,0,1,3.879-3.517l.186.207A2.618,2.618,0,0,1,93.5,179.49m86.431-.309a2.617,2.617,0,0,1-1.914-4.4l.153-.167a2.617,2.617,0,0,1,3.88,3.514l-.2.222a2.61,2.61,0,0,1-1.917.833m-92.856-8.361a2.616,2.616,0,0,1-2.243-1.266l-.155-.259a2.618,2.618,0,0,1,4.522-2.64l.116.2a2.618,2.618,0,0,1-2.24,3.969m99.4-.226a2.619,2.619,0,0,1-2.231-3.984l.149-.241a2.618,2.618,0,0,1,4.446,2.766l-.128.207a2.617,2.617,0,0,1-2.235,1.252M82.411,161.086a2.619,2.619,0,0,1-2.461-1.727l-.078-.213a2.618,2.618,0,0,1,4.9-1.852l.1.282a2.621,2.621,0,0,1-2.461,3.51m108.911-.133a2.62,2.62,0,0,1-2.451-3.54l.109-.281a2.618,2.618,0,1,1,4.874,1.91l-.082.212a2.62,2.62,0,0,1-2.45,1.7M79.584,150.665a2.618,2.618,0,0,1-2.574-2.156l-.047-.26a2.618,2.618,0,0,1,5.154-.924l.047.259a2.622,2.622,0,0,1-2.58,3.081m114.73-.082a2.624,2.624,0,0,1-2.574-3.116l.042-.224a2.618,2.618,0,0,1,5.154.925l-.056.293a2.619,2.619,0,0,1-2.566,2.122M78.606,139.912a2.618,2.618,0,0,1-2.618-2.617v-.231a2.617,2.617,0,0,1,2.584-2.65h.034A2.619,2.619,0,0,1,81.223,137v.3a2.617,2.617,0,0,1-2.618,2.617m116.737-.072h-.034a2.617,2.617,0,0,1-2.584-2.65v-.231c0-.067,0-.133.008-.2s-.009-.141-.009-.212v-.231a2.618,2.618,0,0,1,5.235-.066l0,.3c0,.067,0,.133-.008.2s.009.141.009.212v.3a2.619,2.619,0,0,1-2.617,2.584M79.475,129.151a2.7,2.7,0,0,1-.434-.036,2.618,2.618,0,0,1-2.152-3.013l.044-.257a2.617,2.617,0,0,1,5.164.855l-.043.264a2.619,2.619,0,0,1-2.579,2.188m114.8-.723a2.618,2.618,0,0,1-2.567-2.124l-.049-.256a2.618,2.618,0,0,1,5.14-.994l.05.261a2.617,2.617,0,0,1-2.076,3.065,2.654,2.654,0,0,1-.5.048M82.181,118.7a2.618,2.618,0,0,1-2.461-3.509l.078-.219a2.618,2.618,0,0,1,4.943,1.725l-.1.277a2.62,2.62,0,0,1-2.461,1.726m109.088-.633a2.619,2.619,0,0,1-2.425-1.63l-.109-.274a2.617,2.617,0,0,1,4.87-1.921l.088.216a2.619,2.619,0,0,1-1.435,3.413,2.588,2.588,0,0,1-.988.2M86.724,108.912a2.618,2.618,0,0,1-2.255-3.946l.118-.2a2.618,2.618,0,0,1,4.541,2.6l-.147.251a2.615,2.615,0,0,1-2.258,1.291m99.671-.47a2.616,2.616,0,0,1-2.206-1.2l-.118-.188a2.645,2.645,0,0,1,.8-3.637,2.59,2.59,0,0,1,3.593.79l.034.055.1.152a2.619,2.619,0,0,1-2.2,4.032m-93.354-8.275a2.618,2.618,0,0,1-1.969-4.34l.116-.132a2.664,2.664,0,0,1,3.729-.262,2.573,2.573,0,0,1,.265,3.651l-.078.088-.089.1a2.611,2.611,0,0,1-1.973.894m86.795-.294a2.609,2.609,0,0,1-1.924-.842l-.172-.186a2.617,2.617,0,1,1,3.831-3.566l.187.2a2.618,2.618,0,0,1-1.923,4.393m-78.873-7.03a2.619,2.619,0,0,1-1.578-4.709l.227-.169a2.618,2.618,0,0,1,3.121,4.2l-.2.147a2.609,2.609,0,0,1-1.574.528m70.855-.2a2.607,2.607,0,0,1-1.574-.528l-.185-.137a2.617,2.617,0,0,1,3.1-4.22l.239.177a2.618,2.618,0,0,1-1.577,4.708m-61.646-5.414a2.618,2.618,0,0,1-1.147-4.973l.264-.127a2.618,2.618,0,1,1,2.235,4.734l-.211.1a2.612,2.612,0,0,1-1.141.264M162.617,87a2.612,2.612,0,0,1-1.142-.263l-.251-.124a2.618,2.618,0,0,1,2.315-4.7l.225.11A2.618,2.618,0,0,1,162.617,87m-42.347-3.554a2.619,2.619,0,0,1-.7-5.142l.277-.076a2.618,2.618,0,0,1,1.348,5.059l-.231.064a2.661,2.661,0,0,1-.7.1m32.266-.3a2.605,2.605,0,0,1-.7-.1l-.248-.069a2.617,2.617,0,0,1,1.394-5.046l.26.072a2.618,2.618,0,0,1-.7,5.14m-21.668-1.723a2.618,2.618,0,0,1-.292-5.22l.228-.025a2.649,2.649,0,0,1,2.908,2.317,2.6,2.6,0,0,1-2.294,2.883l-.25.027a2.683,2.683,0,0,1-.3.017m11.054-.2c-.077,0-.156,0-.234-.01l-.247-.022a2.617,2.617,0,0,1,.428-5.217l.28.024a2.618,2.618,0,0,1-.227,5.225" transform="translate(10.366 10.362)" fill="#c6cadb"/>
          <path id="Trazado_892291" data-name="Trazado 892291" d="M131.073,181.407c-.056,0-.113,0-.169-.007l-.214-.018a2,2,0,0,1,.359-3.985l.188.016a2,2,0,0,1-.164,3.994m8.048,0a2,2,0,0,1-.161-3.994l.181-.015a2,2,0,1,1,.366,3.983l-.22.019c-.056,0-.111.007-.165.007m-16.186-1.377a2.033,2.033,0,0,1-.509-.066l-.2-.055a2,2,0,1,1,1.033-3.865l.188.05a2,2,0,0,1-.508,3.935m24.321-.009a2,2,0,0,1-.5-3.938l.18-.047a2,2,0,1,1,1.032,3.865l-.21.056a2.007,2.007,0,0,1-.5.064m-32.089-2.775a2,2,0,0,1-.841-.185l-.208-.1a2,2,0,0,1,1.735-3.606l.156.073a2,2,0,0,1-.842,3.816m39.918-.052a2.01,2.01,0,0,1-1.831-1.133,1.961,1.961,0,0,1,.913-2.64l.942,1.768-.76-1.854a2,2,0,0,1,1.709,3.618l-.1.047a2.039,2.039,0,0,1-.872.193m-47.035-4.115a1.992,1.992,0,0,1-1.173-.381l-.164-.118a2,2,0,1,1,2.348-3.241l.164.118a2,2,0,0,1-1.175,3.622m54.088-.02a2,2,0,0,1-1.176-3.622l.153-.111a2,2,0,1,1,2.368,3.225l-.173.127a2,2,0,0,1-1.173.381m-60.256-5.448a2,2,0,0,1-1.472-.645l-.144-.157a2,2,0,0,1,2.959-2.694l.128.14a2,2,0,0,1-1.472,3.357m66.42-.028a2,2,0,0,1-1.486-3.339l.152-.166a2,2,0,1,1,2.942,2.711l-.118.13a2,2,0,0,1-1.49.664M96.9,161a1.963,1.963,0,0,1-1.69-.955l-.025-.041-.068-.115a2,2,0,1,1,3.407-2.1l.092.152A2.01,2.01,0,0,1,96.9,161m76.345-.017a2,2,0,0,1-1.713-3.032l.1-.166a2,2,0,1,1,3.435,2.049l-.106.18a2,2,0,0,1-1.717.969m-79.89-7.4a2,2,0,0,1-1.875-1.3l-.073-.194a2,2,0,0,1,3.756-1.383l.067.184a2,2,0,0,1-1.178,2.572,1.972,1.972,0,0,1-.7.126m83.456-.035a2,2,0,0,1-1.886-2.669l.077-.214a2,2,0,0,1,3.755,1.383l-.06.166a2,2,0,0,1-1.885,1.334M91.187,145.63a2,2,0,0,1-1.966-1.638l-.036-.2a2,2,0,0,1,3.935-.727l.036.2a2,2,0,0,1-1.969,2.364m87.792-.035a1.929,1.929,0,0,1-.331-.028,2,2,0,0,1-1.644-2.3l.041-.233a2,2,0,0,1,3.935.727l-.031.164a2,2,0,0,1-1.971,1.673m-88.667-8.167a2,2,0,0,1-2-1.935l-.007-.2a2,2,0,1,1,4-.134l.007.2a2,2,0,0,1-1.933,2.066h-.068m89.537-.036h-.067a2,2,0,0,1-1.933-2.066l.007-.2v-.006c0-.034-.006-.068-.008-.1l-.009-.235a2,2,0,0,1,1.933-2.065h.068a2,2,0,0,1,2,1.934l.007.167c0,.058,0,.115,0,.172a2.1,2.1,0,0,1,.009.268l-.007.2a2,2,0,0,1-2,1.935M91.1,129.167a1.846,1.846,0,0,1-.325-.027,1.961,1.961,0,0,1-1.643-2.256c0-.006.019-.106.019-.11A2.051,2.051,0,0,1,91.47,125.1a1.956,1.956,0,0,1,1.644,2.249l-.02.122a2.058,2.058,0,0,1-1.992,1.7m87.861-.456a2,2,0,0,1-1.958-1.6l-.044-.233a2,2,0,0,1,3.934-.726l.032.161a2,2,0,0,1-1.964,2.4M93.2,121.241a2,2,0,0,1-1.889-2.664l.081-.224a2,2,0,0,1,3.75,1.393l-.055.156a2,2,0,0,1-1.888,1.339m83.592-.481a2,2,0,0,1-1.868-1.288l-.078-.207a2,2,0,1,1,3.751-1.393l.065.17a2,2,0,0,1-1.155,2.583,1.976,1.976,0,0,1-.715.134m-80.106-6.99a2,2,0,0,1-1.716-3.025l.086-.149a2,2,0,0,1,3.467,2l-.117.2a2,2,0,0,1-1.721.977m76.534-.44a2,2,0,0,1-1.721-.976l-.086-.14a2,2,0,1,1,3.4-2.113l.124.2a2,2,0,0,1-1.715,3.025m-71.656-6.206a2,2,0,0,1-1.478-3.349l.126-.139a2,2,0,0,1,2.977,2.674l-.144.159a2,2,0,0,1-1.481.655m66.693-.378a2,2,0,0,1-1.455-.628l-.106-.112a2.029,2.029,0,0,1,.083-2.85,1.972,1.972,0,0,1,2.8.078l.045.049.084.089a2,2,0,0,1-1.456,3.375m-60.582-5.162a2,2,0,0,1-1.185-3.614l.145-.108a2,2,0,1,1,2.4,3.2l-.178.132a2,2,0,0,1-1.183.389m54.406-.3a1.984,1.984,0,0,1-1.173-.381l-.152-.109a2,2,0,0,1,2.326-3.256l.174.125a2,2,0,0,1-1.175,3.621m-47.334-3.942a2,2,0,0,1-.855-3.81l.168-.081a2,2,0,0,1,1.735,3.606l-.2.093a1.986,1.986,0,0,1-.853.192m40.215-.218a1.989,1.989,0,0,1-.84-.185l-.17-.078a2,2,0,1,1,1.657-3.642l.2.09a2,2,0,0,1-.842,3.816m-32.481-2.647a2,2,0,0,1-.531-3.93l.218-.058a2,2,0,1,1,1.016,3.869l-.17.047a2.005,2.005,0,0,1-.533.072m24.715-.131a1.977,1.977,0,0,1-.517-.068l-.172-.044a2,2,0,1,1,.985-3.877l.218.057a2,2,0,0,1-.515,3.933M130.6,93.014a2,2,0,0,1-.182-3.993L130.64,89a2,2,0,1,1,.326,3.988l-.181.016c-.063.006-.125.009-.185.009m8.456-.045c-.056,0-.11,0-.166-.007l-.188-.016a2,2,0,1,1,.3-3.989l.186.014a2.014,2.014,0,0,1,1.844,2.159,1.99,1.99,0,0,1-1.977,1.839" transform="translate(12.046 12.134)" fill="#c6cadb"/>
        </g>
      </g>
      <ellipse id="Elipse_11501" data-name="Elipse 11501" cx="108.99" cy="108.445" rx="108.99" ry="108.445" transform="translate(1077.928 7112.208)" fill="#c6e6f2"/>
    </g>
    <g id="Grupo_1102418" data-name="Grupo 1102418" transform="translate(78.376 -1.09)">
      <g id="Grupo_1102267" data-name="Grupo 1102267" transform="translate(206.624 2425.418)">
        <g id="Grupo_1102266" data-name="Grupo 1102266" transform="translate(0 0)" clip-path="url(#clip-path-2)">
          <path id="Trazado_894399" data-name="Trazado 894399" d="M1215.1,569.618a18.9,18.9,0,0,1,5.872-10.406c3.054-2.572,6.884-3.983,10.641-5.178a104.1,104.1,0,0,1,14.012-3.408q1.516-.259,3.039-.47c.02-.024.039-.05.059-.074a8.8,8.8,0,0,1,4.976-2.629,30.27,30.27,0,0,1,13.248.616,42.422,42.422,0,0,1,20.223,11.054,33.494,33.494,0,0,1,9.739,20.9,28.727,28.727,0,0,1-1.475,11.744c-.758,2.147-1.86,4.176-2.231,6.444a30.233,30.233,0,0,1-1.246,6.412c-3.02,7.7-11,11.509-18.513,13.486-4.363,1.147-8.83,1.969-13.264,2.786a89.444,89.444,0,0,1-14.479,1.686,26.983,26.983,0,0,1-6.444-.395c-1.931-.439-4,.657-5.122-.95-2.844-4.073-13.189-22.231-15.456-26.4a36.534,36.534,0,0,1-4.12-12.551,35.32,35.32,0,0,1,.541-12.671" transform="translate(-1191.521 -461.592)" fill="#301616"/>
          <path id="Trazado_894400" data-name="Trazado 894400" d="M77.546,921.775,299.434,838.35l-89.511-24.685L5.415,858.893Z" transform="translate(-5.279 -686.664)" fill="#301616"/>
          <path id="Trazado_894401" data-name="Trazado 894401" d="M0,703.9l.736,9.661,72.131,62.884L73,776.4l.244-.091,221.513-83.286-.881-9.623-76.9-53.375Z" transform="translate(0.247 -531.684)" fill="#c7b8b4"/>
          <path id="Trazado_894402" data-name="Trazado 894402" d="M77.655,1055.149l.071-.027L299.614,971.7l-.089-.238-221.817,83.4L5.634,992.025l-.167.191Z" transform="translate(-5.467 -819.829)" fill="#c25a3e"/>
          <path id="Trazado_894403" data-name="Trazado 894403" d="M646.354,243.144c.165-5.835.475-11.667,1-17.482.35-3.865.739-7.762,1.333-11.614.251-1.638.541-3.27.878-4.888q.168-.8.361-1.59a31.963,31.963,0,0,1,1.955-5.782,27.2,27.2,0,0,1,3.981-6.168c3.326-3.953,7.437-7.193,11.357-10.53,4.258-3.623,8.473-7.313,12.8-10.852a49.338,49.338,0,0,1,12.487-7.94c5.02-2.026,10.469-2.029,15.623-3.522,3.748-1.087,8.775-4.883,12.432-1.536a3.778,3.778,0,0,1,.353.373c6.444.962,12.972,2.016,18.985,4.624a33.462,33.462,0,0,1,8.468,5.286,73.065,73.065,0,0,1,7.432,7.688,270.959,270.959,0,0,1,25.533,34.537q2.784,4.464,5.388,9.034c.046.079.089.157.135.234q3.318,5.839,6.35,11.835a.143.143,0,0,1-.084.208q-8.314,1.954-16.624,3.905a45.669,45.669,0,0,0-7.432,2.133,17.636,17.636,0,0,0-1.668.807,3.373,3.373,0,0,1-1.407.561c-.98.048-1.709-.871-2.3-1.529a55.428,55.428,0,0,1-4.327-6.005q-1.295-1.912-2.623-3.8c-.051-.074-.1-.147-.155-.218q-.929-1.322-1.877-2.631-1.58-2.186-3.212-4.334-2.369-3.138-4.84-6.2c-.033.358-.066.716-.1,1.072a218.285,218.285,0,0,0-.835,22.4q.053,3.9.251,7.8c.061,1.211.2,2.435.19,3.649a3.319,3.319,0,0,1-.691,2.273,6.106,6.106,0,0,1-2.465,1.249q-1.84.686-3.677,1.366-3.679,1.364-7.364,2.7-14.74,5.374-29.594,10.436-1.855.632-3.712,1.259a30.915,30.915,0,0,1-3.6,1.181,1.934,1.934,0,0,1-2-.741,28.556,28.556,0,0,1-1.805-2.62c-2.618-3.941-14.29-23.736-15.895-25.589q-.784,6.018-1.564,12.041c-.01.089-.023.175-.033.264l-.358,2.75c-.251,1.935-.4,3.913-.772,5.825-.32,1.66-1.524,2.366-2.928,3.1q-5.3,2.758-10.768,5.172-6.037,2.666-12.249,4.9a.143.143,0,0,1-.18-.137c-.1-4.868-.208-9.735-.269-14.6,0-.089,0-.175,0-.264-.084-6.693-.086-13.389.1-20.082" transform="translate(-599.088 -134.934)" fill="#f7e9e1"/>
          <path id="Trazado_894404" data-name="Trazado 894404" d="M1031.451,621.032l2.4-11.184c.034-.16.279-.092.245.068l-2.4,11.184c-.034.16-.279.092-.245-.067" transform="translate(-900.093 -514.582)" fill="#301616"/>
          <path id="Trazado_894405" data-name="Trazado 894405" d="M980.5,788.852c4.862,2.072,9.8,3.961,14.694,5.959q2.381.975,4.741,1.991c1.221.531,2.427,1.092,3.631,1.663,2.43,1.155,4.842,2.344,7.338,3.354.048.02.1.038.142.058.391-.213.785-.424,1.173-.64q3.866-2.137,7.615-4.482a43.774,43.774,0,0,0,6.371-4.619c6.851-6.239,8.808-16.1,7.34-24.959-1.46-8.808-6.416-17.632-14.5-21.9-1.168-.62-2.4-1.107-3.567-1.734a14.305,14.305,0,0,1-3.2-2.455,26.794,26.794,0,0,0-2.608-2.4,12.93,12.93,0,0,0-3.075-1.63c-2.3-.9-4.819-1.49-6.7-3.179a9,9,0,0,1-1.026-1.087c-.122-.145-.234-.295-.345-.444.074-.02.147-.041.221-.058.244-.064.493-.122.744-.17.18-.033.1-.307-.076-.272-.249.046-.493.1-.734.168-.112.028-.223.058-.333.089a17.375,17.375,0,0,1-1.381-2.435c-.348-.724-.66-1.46-.973-2.189-.071-.168-.315-.023-.244.145.317.747.64,1.5.993,2.229.16.33.325.658.5.98a14.832,14.832,0,0,0,.835,1.351,13.774,13.774,0,0,0-4,2.029,21.52,21.52,0,0,0-6.229,7.6,47.214,47.214,0,0,0-4.489,16.25,119.717,119.717,0,0,0-.338,18.477,28.232,28.232,0,0,1-.553,8.217,11.581,11.581,0,0,1-1.963,4.1" transform="translate(-892.048 -613.869)" fill="#a6826d"/>
          <path id="Trazado_894406" data-name="Trazado 894406" d="M1106.739,662.432a8.9,8.9,0,0,0,1.87-2.2.144.144,0,0,1,.194-.051,27.668,27.668,0,0,0,2.633,1.451.131.131,0,0,1,.161.022l.11.108c.063.03.125.062.189.091a.114.114,0,0,1,.062.155,13.5,13.5,0,0,1,1.4,1.552,3.729,3.729,0,0,1,.931,2.01c-.061,1.513-2.566,1.02-3.389.665a22.287,22.287,0,0,1-2.289-1.265,6.516,6.516,0,0,1-2.081-1.355.834.834,0,0,1,.211-1.186" transform="translate(-991.973 -557.122)" fill="#c25a3e"/>
          <path id="Trazado_894407" data-name="Trazado 894407" d="M1060.995,240.063a19.569,19.569,0,0,0,1.5,4.565,12.863,12.863,0,0,0,3.081,3.858,4.932,4.932,0,0,1,1.271,1.592,6.147,6.147,0,0,1,.41,2.2,10.262,10.262,0,0,0,1.372,5.078,13.363,13.363,0,0,0,4.111,3.785,24.011,24.011,0,0,1,3.672,3.215,9.571,9.571,0,0,0,4.544,2.786,13.5,13.5,0,0,0,5.559.168c1.852-.3,3.564-1.089,5.4-1.433,1.772-.332,3.6-.185,5.283-.919,2.854-1.241,4.713-4.08,5.645-6.951a38.256,38.256,0,0,0,1.03-5.135c.326-1.816,1.078-3.528,1.365-5.345.353-2.23-.309-4.437-.914-6.562a56.319,56.319,0,0,1-1.348-6.295c-.648-3.921-1.362-8.038-3.907-11.22-1.472,1.851-1.546,4.354-1.445,6.64.13,2.959.305,5.9.24,8.862-.058,2.658.01,5.614-.965,8.133A9.921,9.921,0,0,1,1092.1,252a14.587,14.587,0,0,1-7.388,1.985,16.921,16.921,0,0,1-7.364-2.29,30.957,30.957,0,0,1-10.406-9.039,24.03,24.03,0,0,1-3.476-6.871,20.662,20.662,0,0,1-.78-3.634c-.109-.9.012-1.774-.965-2.2-.773-.335-1.561-.64-2.343-.956.434,3.69.832,7.431,1.614,11.066" transform="translate(-975.686 -188.574)" fill="#301616"/>
          <path id="Trazado_894408" data-name="Trazado 894408" d="M691.584,666.375a3.222,3.222,0,0,1,2.039-1.638,43.836,43.836,0,0,1,7.907-1.844c10.893-1.838,22.408-1.521,32.709-5.982,1.239-.538,2.544-1.488,3.9-1.651a2.6,2.6,0,0,1,2.615,1.635c.643,1.348.581,3.006.861,4.448a24.642,24.642,0,0,0,1.536,4.964.139.139,0,0,1,.008.084,86.443,86.443,0,0,0,8.623,15.39,172.064,172.064,0,0,0,16.25,19.523c2.846,3.027,5.708,6.122,7.348,10a34.526,34.526,0,0,1,2.257,12.37c.036,1.081.048,2.166.056,3.25a21.967,21.967,0,0,1-.076,3.169,4.54,4.54,0,0,1-2.994,3.524c-.218.1-.439.19-.663.279-.089.038-.175.071-.264.107-1.638.637-3.362,1.1-5.043,1.579-2.189.627-4.385,1.216-6.543,1.935a28.682,28.682,0,0,0-9.235,4.774c-.069.053-.135.109-.2.167q-.571.48-1.11,1.013a14.711,14.711,0,0,0-3.194,4.575,12.388,12.388,0,0,0-.576,1.653c-.023.084-.046.17-.068.256-.071.282-.135.566-.188.853l-.046.251a19.915,19.915,0,0,0-.251,3.732c.023,1.122-.267,4.053-.15,5.17.01.1-.1.147-.18.137-5.52-.752-16.674-2.811-26.374-4.624l-.246-.046q-1.539-.289-3.014-.564c-.084-.018-.168-.033-.249-.048-6.3-1.181-11.52-2.158-13.4-2.435a2.243,2.243,0,0,1-1.831-1,9.287,9.287,0,0,1-.607-3,41.843,41.843,0,0,1-.429-6.947,2.5,2.5,0,0,1,.063-.452c0-.01.005-.018.008-.025.531-2.3,3.946-7.521,5.253-8.374,1.529-1,3.151-1.843,4.68-2.844,1.864-1.216,2.4-2.88,3.854-4.563a14.993,14.993,0,0,0,3.456-5.888,8.656,8.656,0,0,0-1.468-6.662c-1.165-1.9-2.552-3.672-3.849-5.479s-2.6-3.644-3.882-5.482c-5.1-7.318-9.908-14.91-13.295-23.19-.3-.744-.589-1.493-.868-2.242a35.384,35.384,0,0,1-2.691-6.368c-.33-1.061-.881-2.392-.442-3.494" transform="translate(-590.635 -552.97)" fill="#a6826d"/>
          <path id="Trazado_894409" data-name="Trazado 894409" d="M1092.571,97.207c.542.053,1.083.084,1.624.1.439-1.461.935-2.905,1.466-4.331.065-.175.346-.093.28.083-.523,1.4-1.011,2.823-1.445,4.26,4.867.131,9.676-.931,14.515-1.377a55.982,55.982,0,0,1,15.626.769c2.411.461,7.108,1.826,7.1,1.809-.041-.183.265-.259.283-.072,2.816,28.734,2.446,32.887,1.064,36.908-1.066,3.1-4.248,8.992-6.569,11.386-4.671,4.817-13.478.347-18.538-4.379-5.9-5.512-10.466-13.933-13.42-21.5a32.177,32.177,0,0,1-2.247-13.412,42.821,42.821,0,0,1,1.8-9.852c-.515-.021-1.029-.05-1.544-.1-.186-.018-.182-.31.006-.292" transform="translate(-1009.628 -78.385)" fill="#e37d68"/>
          <path id="Trazado_894410" data-name="Trazado 894410" d="M1127.989,308.172c0,1.626.667,2.944,1.49,2.944s1.49-1.318,1.49-2.944-.667-2.944-1.49-2.944-1.49,1.318-1.49,2.944" transform="translate(-1012.03 -257.586)" fill="#301616"/>
          <path id="Trazado_894411" data-name="Trazado 894411" d="M1225.7,334.985c0,1.626.667,2.944,1.49,2.944s1.49-1.318,1.49-2.944-.667-2.944-1.49-2.944-1.49,1.318-1.49,2.944" transform="translate(-1124.99 -280.214)" fill="#301616"/>
          <path id="Trazado_894412" data-name="Trazado 894412" d="M1109.587,255.934a4.509,4.509,0,0,1,1.517-2.565,5.643,5.643,0,0,1,5.871-.732,1.761,1.761,0,0,1,1.04,1.99c-.192.913-1.066,1.159-1.872,1.287a9.721,9.721,0,0,0-3.5,1.384c-.671.395-1.68,1.159-2.506.737-.729-.372-.681-1.423-.554-2.1" transform="translate(-996.231 -212.791)" fill="#301616"/>
          <path id="Trazado_894413" data-name="Trazado 894413" d="M1192.284,739.451c-.175-.322-.34-.65-.5-.98.074-.063.147-.127.224-.185a6.784,6.784,0,0,1,.942-.635.129.129,0,0,1,.188.076q.248,1.462.584,2.9c.023.091.043.183.066.274.041.168.081.335.125.5.175.7.366,1.389.577,2.074q.411,1.36.909,2.691c.168.444.34.884.518,1.323.091.218.394.632.363.856a.089.089,0,0,1,.01.051.151.151,0,0,1,.015.1.009.009,0,0,0,.007,0,.127.127,0,0,1,.076.185c-.013.018-.025.036-.041.053v0c-.023.076-.1.132-.178.074a58.2,58.2,0,0,1-7.054-5.995c1.214-.879,3.425-2.91,3.169-3.38" transform="translate(-1087.008 -622.5)" fill="#301616"/>
          <path id="Trazado_894414" data-name="Trazado 894414" d="M1225.55,293.276c-.411.831-1.677.82-2.451.9a9.727,9.727,0,0,0-3.632.976c-.723.379-1.571.7-2.27.084a1.761,1.761,0,0,1-.352-2.218,5.642,5.642,0,0,1,5.148-2.916,4.509,4.509,0,0,1,2.748,1.153c.506.468,1.172,1.283.809,2.016" transform="translate(-1120.546 -244.815)" fill="#301616"/>
          <path id="Trazado_894415" data-name="Trazado 894415" d="M1065.951,642.792a19.045,19.045,0,0,1,5.4-4.311c2.278-1.411,4.576-2.791,6.881-4.159,4.535-2.691,24.311-13.373,27.79-15.788,3.547-3.48,13.724-17.37,14.625-18.255a8.27,8.27,0,0,1,2.521-1.947,4.469,4.469,0,0,1,3.422.337c1.231.523,11.781,6.849,12.739,8.188,1.109,1.55,5.025,7.972,5.28,8.751.417,1.273-.636,1.832-1.794,1.649-1.649-.262-3.732-5.323-5.155-6.479-1.184-.962-4.2-1.434-5.57-2.016a1.9,1.9,0,0,1,.221,1.293c-.215,1.128-2.53,1.536-2.809,1.6a2.093,2.093,0,0,1,1.064,2.081c-.26,1.275-2.956,1.75-4.682,1.726,1.277.39,2.471.851,1.549,2.873-.8,1.756-3.866,2.66-6.49,4.682a19.429,19.429,0,0,1-6.975,3.488,50.151,50.151,0,0,1-5.581.638c-3.479,3.776-11.81,11.029-14.665,15.293-3.46,5.166-6.792,10.57-11.983,14.178a61.525,61.525,0,0,1-8.358,4.654c-.018.022-.033.045-.053.066a1.91,1.91,0,0,1-2.153.343,3.925,3.925,0,0,1-1.873-1.963c-.63-1.219-1.149-2.5-1.714-3.754l-1.722-3.809a18.688,18.688,0,0,1-1.3-3.438,6.989,6.989,0,0,1,1.381-5.919" transform="translate(-1015.836 -504.757)" fill="#e37d68"/>
          <path id="Trazado_894416" data-name="Trazado 894416" d="M102.041,517.226a1.433,1.433,0,0,1,.946-1.071,1.379,1.379,0,0,1,1.366.287c2.01,1.788,4.76,3.912,7.921,6.2,4.921,3.432,11.268,7.709,17.246,11.7,3.51,2.286,6.9,4.463,9.889,6.377,5.162,3.311,8.891,5.7,9.933,6.557a1.409,1.409,0,0,1,.411,1.654c-4.088,9.555-9.341,21.291-13.177,29.86-2.952,6.6-5.284,11.805-5.816,13.177a1.415,1.415,0,0,1-1.086.885l-.012,0a1.435,1.435,0,0,1-1.335-.517,1.413,1.413,0,0,1-.213-1.393c3.3-8.513,10.467-23.992,14.751-33.241,1.923-4.151,3.584-7.737,3.745-8.22.041-.124.087-.251.135-.378.027-.074.055-.148.08-.219-.283-.2-2.329-1.554-4.907-3.257-3.7-2.447-8.713-5.756-13.934-9.239-5.824-3.795-11.958-7.886-17.076-11.583-4-2.786-7.095-5.045-8.417-6.221a1.43,1.43,0,0,1-.449-1.354" transform="translate(129.209 -435.53)" fill="#301616"/>
          <path id="Trazado_894417" data-name="Trazado 894417" d="M958.259,608.321c.454-.515.923-.984,1.325-1.543a21.752,21.752,0,0,0,2.065-3.745,12.193,12.193,0,0,1,1.711-3.237,4.128,4.128,0,0,1,3.3-1.151c1.548.014,3.1.113,4.648.19a.158.158,0,0,1,.177.009l.522.026c.182.008.145.289-.036.281l-.49-.021c-.323,1.13-1.25,1.714-2.137,2.452a16.417,16.417,0,0,1-3.457,2.456,6.5,6.5,0,0,0-1.769,1.058,16.263,16.263,0,0,0-1.458,1.746,12.162,12.162,0,0,1-3.008,2.772c-.552.334-1.68.5-1.795-.418a1.161,1.161,0,0,1,.4-.874" transform="translate(-826.63 -505.204)" fill="#e37d68"/>
          <path id="Trazado_894418" data-name="Trazado 894418" d="M920.245,609.895a14.253,14.253,0,0,0,1.941-4.974c.136-.834.213-1.677.3-2.517a3.567,3.567,0,0,1,.576-1.974,4.435,4.435,0,0,1,1.263-.936q1.279-.751,2.62-1.389a5.543,5.543,0,0,1,2.49-.827,3.164,3.164,0,0,1,1.807.9,56.8,56.8,0,0,1,4.234,4.026.119.119,0,0,1-.024.19.107.107,0,0,1-.083.084,1.4,1.4,0,0,0-1.059,1.165.148.148,0,0,1-.121.122c-1.87.432-3.865.212-5.692.842a7.176,7.176,0,0,0-3.865,3.6,16.272,16.272,0,0,1-2.341,3.7c-.539.552-1.811,1.7-2.617,1.025-.986-.83.11-2.243.573-3.035" transform="translate(-783.996 -504.047)" fill="#e37d68"/>
          <path id="Trazado_894419" data-name="Trazado 894419" d="M603.755,635.465a18.38,18.38,0,0,0,1.744-3.691,7.817,7.817,0,0,1,1.136-2.846,4.439,4.439,0,0,1,2.76-.958c1.388-.221,2.775-.464,4.17-.642a12.846,12.846,0,0,1,4.279-.074,5.967,5.967,0,0,1,2.788,2.1c2.07,2.166,9.245,7.81,9.412,7.911.383.231,8.031-.437,10.433-.736a17.209,17.209,0,0,0,3.281-.714c-.717-.782-1.868-2.183-1.909-2.232a105.554,105.554,0,0,1,15.771-3.712c1,1.47,1.112,1.578,2.11,3.048,2.665,3.923,5.769,7.9,7.076,12.533a2.976,2.976,0,0,1-.057,2.38,4.329,4.329,0,0,1-2.32,1.527,34.5,34.5,0,0,1-6.78,1.389,34.965,34.965,0,0,1-14-.491c-4.686-1.271-8.9-3.8-13.511-5.287a4.647,4.647,0,0,1-2.436.841,5.03,5.03,0,0,1-2.613-.839c-2.076-1.268-7.85-10.912-8.3-11.323a3.289,3.289,0,0,0-1.949-.757c-1.348-.145-2.728-.121-4.082-.168-.411-.014-.911-.052-1.107.369-.115.248-.854,2.07-.96,2.326a6.835,6.835,0,0,1-.734,1.319,9.075,9.075,0,0,1-2.329,2.235,3.686,3.686,0,0,1-2.7.938c-2.5-.591.224-3.467.828-4.445" transform="translate(-465.973 -529.217)" fill="#e37d68"/>
          <path id="Trazado_894420" data-name="Trazado 894420" d="M175.441,980.324a19.193,19.193,0,0,1,8.314-2.338c.169-.019,10.333,6.259,10.483,7.368a8.746,8.746,0,0,1-.116,1.892q-.1,1.129-.2,2.258-.2,2.258-.407,4.516-.089.988-.178,1.976c-.032.358.037,1.012-.23,1.313-.3.336-1.018.417-1.422.553l-2.148.721-4.3,1.442a.144.144,0,0,1-.18-.137c-.322-3.477.512-11.159.429-11.9-.11-.979-1.152-1.4-1.92-1.863a62.474,62.474,0,0,1-8.153-5.573.143.143,0,0,1,.029-.223" transform="translate(73.364 -825.336)" fill="#301616"/>
          <path id="Trazado_894421" data-name="Trazado 894421" d="M449.175,556.292a8.431,8.431,0,0,1,3.633-3.572,4.054,4.054,0,0,1,2.262-.709,3.673,3.673,0,0,1,2.056.9,14.39,14.39,0,0,1,3.9,4.934c.988,1.975,1.93,3.974,2.886,5.965V563.8c.027-.147.254-.1.227.051-.018.1-.044.2-.066.294l.158.329c.064.133-.13.261-.194.127l-.051-.1a7.551,7.551,0,0,1-5.679,5.33c-2.95.575-5.841-1.046-7.717-3.395a10.5,10.5,0,0,1-1.415-10.139" transform="translate(-239.243 -465.847)" fill="#f7e9e1"/>
          <path id="Trazado_894422" data-name="Trazado 894422" d="M310.651,469.788c-.071.018,21.362,28.57,21.869,28.359.376-.155,5.688-14.229,10.1-21.323.048-.079.1-.155.145-.231q.183-.289.366-.564c-.03-.036-.061-.071-.092-.109l5.444-4.139a6.4,6.4,0,0,0,1.221-8.971l-.752-.988a6.4,6.4,0,0,0-8.971-1.224l-5.713,4.344-.2.155-.081.061c-4.365,1.1-15.054,2.361-23.337,4.629" transform="translate(-104.503 -387.604)" fill="#301616"/>
          <path id="Trazado_894423" data-name="Trazado 894423" d="M1298.469,283.464a2.359,2.359,0,0,1,1.871-1.66,4.075,4.075,0,0,1,2.858.981q-.4-.851-.805-1.7c-.079-.164.165-.308.245-.143q1.711,3.536,3.2,7.174.382.936.749,1.879a3.67,3.67,0,0,1,.406,1.561,1.016,1.016,0,0,1-1.393.944,15.273,15.273,0,0,1-3.033-1.546,10.92,10.92,0,0,1-2.583-2.068c-1.257-1.423-2.176-3.528-1.514-5.425" transform="translate(-1214.634 -237.032)" fill="#e37d68"/>
          <path id="Trazado_894424" data-name="Trazado 894424" d="M1306.236,304.616c.013-.181.3-.182.284,0-.1,1.435,1.546,1.971,2.5,2.669a9.907,9.907,0,0,1,2.063,2.069c.109.146-.137.288-.245.143a11.078,11.078,0,0,0-3.163-2.733,2.417,2.417,0,0,1-1.436-2.147" transform="translate(-1219.99 -256.954)" fill="#c25a3e"/>
          <path id="Trazado_894425" data-name="Trazado 894425" d="M1276.812,240.24c.3-2.053,1.548-4.634,3.661-5.333a12.319,12.319,0,0,1,4.348-.3,8.093,8.093,0,0,1,3.648.979c.054-.044.1-.091.159-.133.142-.111.345.089.2.2-.063.049-.124.1-.185.151a.143.143,0,0,1-.133.108,10.192,10.192,0,0,0-2.29,2.708,13.841,13.841,0,0,0-1.255,3.473,2.522,2.522,0,0,1-1.4,1.939,4.285,4.285,0,0,1-1.616.077l-2.238-.119c-.93-.049-2.138.1-2.657-.86a4.877,4.877,0,0,1-.238-2.887" transform="translate(-1193.153 -197.94)" fill="#301616"/>
          <path id="Trazado_894426" data-name="Trazado 894426" d="M1086.463,34.433a5.784,5.784,0,0,1,1.627-2.78c.279-.32.574-.625.876-.917L1089,30.7a7.407,7.407,0,0,1-1.095-2.752,5.987,5.987,0,0,1,1.2-4.052c.3-.475.63-.932.945-1.381a11.83,11.83,0,0,0,1.673-2.963,9.55,9.55,0,0,0-.071-4.687,13.892,13.892,0,0,1,.632-7.9,6.765,6.765,0,0,1,2.323-2.686,30.34,30.34,0,0,1,3.593-2.252A15.2,15.2,0,0,1,1105.728,0a11.07,11.07,0,0,1,6.688,2.712c1.1.871,2.158,1.808,3.342,2.572a32.19,32.19,0,0,0,3.722,1.981,23.68,23.68,0,0,1,7.386,4.743,16.377,16.377,0,0,1,3.694,6.218,3.589,3.589,0,0,1,2.519.823,7.294,7.294,0,0,1,1.513,3.651,43.121,43.121,0,0,1,.724,9.735.128.128,0,0,1-.109.132.147.147,0,0,1-.173.109,20.147,20.147,0,0,0-5.357-.368l-.254.015a37.676,37.676,0,0,0-7.584,1.419c-.081.023-.162.046-.244.071-1.082.307-2.146.64-3.184.977-1.564.508-3.108,1.071-4.631,1.678-.079.03-.158.061-.234.094-2.666,1.069-5.274,2.275-7.831,3.58-.079.036-.155.076-.234.117q-.971.495-1.932,1.008c-1.323.706-2.636,1.437-3.936,2.181-.178.1-.482.294-.863.533l-.226.14c-1.643,1.023-4.408,2.653-5.292,2.085-.965-.62-5.281-7.508-5.87-8.636a5.416,5.416,0,0,1-.9-3.138" transform="translate(-1009.893 0.004)" fill="#727aa6"/>
          <path id="Trazado_894427" data-name="Trazado 894427" d="M1139.985,395.771a13.765,13.765,0,0,1,2.534-2.1,5.944,5.944,0,0,1,2.9-.531,3.782,3.782,0,0,1,2.5.553.116.116,0,0,1,.021.165.147.147,0,0,1,0,.051c-.634,3.722-5.214,5.775-8.266,3.281-.686-.56-.227-.94.305-1.421" transform="translate(-1030.802 -331.776)" fill="#c25a3e"/>
          <path id="Trazado_894428" data-name="Trazado 894428" d="M1080.653,304.766c2.237,2.309,5.143,2.925,8.259,2.706a16.49,16.49,0,0,0,4.352-.789,11.628,11.628,0,0,0,3.545-2.22,10.052,10.052,0,0,1,2.712-1.789,9.044,9.044,0,0,1,4.274-.182c.405.043,3.433-.015,4.245-.534a5.376,5.376,0,0,0,2.008-3.743c.607-3.336-.04-6.762.636-10.092-.015-.025-.028-.05-.043-.075a.141.141,0,0,1,.138-.209.148.148,0,0,1,.217.157c-.006.027-.01.055-.016.082,1.947,3.437,1.522,7.739,1.147,11.511-.392,3.936-.8,7.8-3.057,11.169a11.554,11.554,0,0,1-3.647,3.692c-1.661.942-3.682.956-5.54,1.014a57.51,57.51,0,0,1-6.528-.166,14.848,14.848,0,0,1-5.167-1.2,12.147,12.147,0,0,1-6.567-8.02.135.135,0,0,1,.005-.081,9.678,9.678,0,0,1-1.176-1.03c-.127-.131.073-.332.2-.2m14.583,5.756c1.56,1.011,3.415.5,5.073-.015a5.261,5.261,0,0,0,3.7-3.079,18.814,18.814,0,0,0,.712-2.947,9.639,9.639,0,0,1-2.434.465,13.955,13.955,0,0,0-2.137.187,5.431,5.431,0,0,0-2.121,1.293,8.683,8.683,0,0,1-4.823,2.179,7.907,7.907,0,0,0,2.026,1.917" transform="translate(-986.084 -242.894)" fill="#301616"/>
          <path id="Trazado_894429" data-name="Trazado 894429" d="M1154.339,312.1c-.105-.15.141-.292.245-.143l2.38,3.389a13.129,13.129,0,0,1,1.823,2.869,3.09,3.09,0,0,1-.373,2.658,15.444,15.444,0,0,1-2.165,2.91c-.125.134-.325-.067-.2-.2a15.844,15.844,0,0,0,2-2.639,3.027,3.027,0,0,0,.039-3.486c-1.141-1.844-2.5-3.582-3.744-5.356" transform="translate(-1044.116 -263.212)" fill="#c25a3e"/>
          <path id="Trazado_894430" data-name="Trazado 894430" d="M925.315,635.928a9.446,9.446,0,0,0,2.866-3.767,22.212,22.212,0,0,1,2.1-4.344c.873-1.108,2.487-1.219,3.768-1.507l5.211-1.171c.178-.04.254.234.075.274l-4.943,1.111c-.8.179-1.609.323-2.393.551a3.038,3.038,0,0,0-1.966,1.682c-1.351,2.6-2.076,5.621-4.572,7.416-.149.107-.29-.139-.143-.245" transform="translate(-788.852 -527.561)" fill="#c25a3e"/>
          <path id="Trazado_894431" data-name="Trazado 894431" d="M954.128,607.831c.586-.3.843-.878,1.3-1.318a3.051,3.051,0,0,1,1.335-.7c1.562-.448,3.164-.786,4.741-1.176.177-.044.253.23.076.274-1.511.373-3.031.724-4.536,1.121a2.971,2.971,0,0,0-1.67.972,3.589,3.589,0,0,1-1.1,1.073c-.163.082-.307-.162-.143-.245" transform="translate(-815.59 -510.257)" fill="#c25a3e"/>
          <path id="Trazado_894432" data-name="Trazado 894432" d="M1147.227,636.5a21.264,21.264,0,0,1,2.595-.95,3.931,3.931,0,0,1,2.317.636q3.092,1.555,6.119,3.234c.16.088.017.333-.143.245q-2.665-1.474-5.378-2.859c-.943-.481-1.972-1.183-3.077-.938-.823.182-1.544.681-2.357.905a.142.142,0,0,1-.075-.274" transform="translate(-1042.376 -536.332)" fill="#c25a3e"/>
          <path id="Trazado_894433" data-name="Trazado 894433" d="M1163.487,670.133c2.813-2.509,6.5.335,9.374,1.1a.142.142,0,0,1-.075.274c-2.757-.738-6.405-3.579-9.1-1.177-.136.121-.337-.079-.2-.2" transform="translate(-1059.556 -564.679)" fill="#c25a3e"/>
          <path id="Trazado_894434" data-name="Trazado 894434" d="M1185.118,701.876a6.391,6.391,0,0,1,3.452-.729,33.4,33.4,0,0,1,4.095,1.08.142.142,0,0,1-.075.274c-1.127-.314-2.251-.657-3.388-.937a5.891,5.891,0,0,0-3.94.558c-.166.071-.311-.174-.143-.245" transform="translate(-1082.732 -591.674)" fill="#c25a3e"/>
          <path id="Trazado_894435" data-name="Trazado 894435" d="M1099.247,333.223c2.209,0,4.428-2.136,4.948-4.76a4.445,4.445,0,0,0-.74-3.706,3,3,0,0,0-2.364-1.1c-2.209,0-4.428,2.136-4.948,4.76a4.445,4.445,0,0,0,.74,3.706,3,3,0,0,0,2.364,1.1m1.844-9.316a2.717,2.717,0,0,1,2.168,1.011,4.2,4.2,0,0,1,.687,3.5c-.5,2.512-2.605,4.556-4.7,4.556a2.717,2.717,0,0,1-2.168-1.011,4.2,4.2,0,0,1-.687-3.5c.5-2.512,2.605-4.556,4.7-4.556" transform="translate(-980.38 -273.135)" fill="#f7e9e1"/>
          <path id="Trazado_894436" data-name="Trazado 894436" d="M1188.019,358.976c2.209,0,4.428-2.135,4.948-4.76a4.445,4.445,0,0,0-.74-3.706,3,3,0,0,0-2.364-1.1c-2.209,0-4.429,2.135-4.948,4.76a4.444,4.444,0,0,0,.74,3.706,3,3,0,0,0,2.364,1.1m1.844-9.316a2.718,2.718,0,0,1,2.168,1.011,4.2,4.2,0,0,1,.687,3.5c-.5,2.512-2.605,4.556-4.7,4.556a2.717,2.717,0,0,1-2.168-1.011,4.2,4.2,0,0,1-.687-3.5c.5-2.512,2.605-4.556,4.7-4.556" transform="translate(-1083.008 -294.868)" fill="#f7e9e1"/>
          <path id="Trazado_894437" data-name="Trazado 894437" d="M1147.312,359.993a4.543,4.543,0,0,1,5.943-1.708c.16.088.017.333-.143.245a4.22,4.22,0,0,0-5.444,1.458.143.143,0,0,1-.092.178l-.1.035a.143.143,0,0,1-.16-.208" transform="translate(-1037.399 -301.921)" fill="#f7e9e1"/>
          <path id="Trazado_894438" data-name="Trazado 894438" d="M1234.813,287.5A134.864,134.864,0,0,1,1249,301.242c.121.136-.079.337-.2.2a134.892,134.892,0,0,0-14.191-13.747c-.14-.117.062-.317.2-.2" transform="translate(-1146.739 -242.591)" fill="#f7e9e1"/>
          <path id="Trazado_894439" data-name="Trazado 894439" d="M1093.462,245.9c.019-.18.3-.182.284,0q-.719,6.654-1.185,13.331c-.013.181-.3.182-.284,0q.466-6.676,1.185-13.331" transform="translate(-969.234 -207.401)" fill="#f7e9e1"/>
          <path id="Trazado_894440" data-name="Trazado 894440" d="M1123.3,121.286c6.083-4.1,13.5-6.172,20.8-6.964a95.7,95.7,0,0,1,9.961-.495.142.142,0,0,1,0,.284c-10.51.04-21.517,1.331-30.446,7.3a1.251,1.251,0,0,0-.312-.127" transform="translate(-1034.52 -96.06)" fill="#301616"/>
          <path id="Trazado_894441" data-name="Trazado 894441" d="M670.322,663.368a33,33,0,0,1,11.588-2.952c.182-.012.182.271,0,.284a32.611,32.611,0,0,0-11.445,2.914c-.165.076-.309-.169-.143-.245" transform="translate(-491.662 -557.334)" fill="#c25a3e"/>
          <path id="Trazado_894442" data-name="Trazado 894442" d="M1399.759,473.265a78.271,78.271,0,0,1,24.506,35.07c.06.173-.214.247-.274.075a78.015,78.015,0,0,0-24.433-34.945c-.142-.115.06-.315.2-.2" transform="translate(-1347.716 -399.366)" fill="#658bd6"/>
          <path id="Trazado_894443" data-name="Trazado 894443" d="M943.932,228.377a240.4,240.4,0,0,1,4.527,34.248q.292,4.916.38,9.84a.142.142,0,0,1-.284,0A239.958,239.958,0,0,0,945.428,238q-.788-4.791-1.77-9.546c-.037-.178.237-.254.274-.075" transform="translate(-801.129 -192.644)" fill="#658bd6"/>
          <path id="Trazado_894444" data-name="Trazado 894444" d="M1068.946,754.8a138.323,138.323,0,0,0,14.853,32.379c2.815,4.558,5.962,9.485,6.61,14.924a9,9,0,0,1-1.478,6.694c-1.543,1.956-4,2.885-6.074,4.148-3.494,2.132-6.889,5.031-8.755,8.712a1.644,1.644,0,0,0-.248-.115,20.682,20.682,0,0,1,5.9-6.808,60.245,60.245,0,0,1,6.264-3.907,8.741,8.741,0,0,0,3.105-2.8,7.95,7.95,0,0,0,1.09-3.822,18.948,18.948,0,0,0-1.873-8.2,59.414,59.414,0,0,0-4.057-7.507,165.112,165.112,0,0,1-8.5-15.267,133.224,133.224,0,0,1-7.112-18.361.142.142,0,0,1,.274-.076" transform="translate(-962.308 -636.903)" fill="#301616"/>
          <path id="Trazado_894445" data-name="Trazado 894445" d="M448.61,837.563H466.77L464.5,826.64H446.34Z" transform="translate(-241.437 -697.613)" fill="#fff"/>
          <path id="Trazado_894446" data-name="Trazado 894446" d="M512.751,1039.8l.034-.938a1.4,1.4,0,0,0-1.345-1.447l-15.277-.557a1.4,1.4,0,0,0-1.447,1.345l-.034.938a1.4,1.4,0,0,0,1.345,1.446l15.277.557a1.4,1.4,0,0,0,1.446-1.345" transform="translate(-294.998 -875.023)" fill="#301616"/>
          <path id="Trazado_894447" data-name="Trazado 894447" d="M1563.444,1084.307l.9-.268a1.4,1.4,0,0,0,.94-1.737l-4.362-14.651a1.4,1.4,0,0,0-1.737-.94l-.9.268a1.4,1.4,0,0,0-.94,1.737l4.362,14.651a1.4,1.4,0,0,0,1.737.94" transform="translate(-1513.41 -900.164)" fill="#301616"/>
          <path id="Trazado_894448" data-name="Trazado 894448" d="M1549.041,1079.443l.244.866.068.244,2.328,8.305.074.269.246.876a1.394,1.394,0,0,0,1.721.967l4.55-1.275a1.4,1.4,0,0,0,.967-1.721l-1.341-4.779-.079-.287-.94-3.349-.069-.246-.533-1.9a1.4,1.4,0,0,0-1.722-.967l-4.55,1.277a1.4,1.4,0,0,0-.967,1.722" transform="translate(-1506.066 -908.383)" fill="#c25a3e"/>
          <path id="Trazado_894449" data-name="Trazado 894449" d="M716.538,1122.915l10.21,5.919c.023-.086.046-.173.068-.257q-1.626-.941-3.253-1.884-1.858-1.078-3.722-2.158c-1.214-.7-2.509-1.343-3.672-2.13-1-.675.132-2.524.48-3.385.4-.983.813-1.958,1.26-2.917.406-.876.843-1.742,1.32-2.582q6.338,3.74,12.467,7.815c.069-.058.135-.114.2-.167q-6.163-4.106-12.543-7.869a23.934,23.934,0,0,1,1.526-2.333,15.862,15.862,0,0,1,10.36-6.282c8.158-1.3,15.585,2.917,21.478,8.2.089-.036.175-.069.264-.107a35.137,35.137,0,0,0-11.172-7.168,20.548,20.548,0,0,0-12.68-.719,16.549,16.549,0,0,0-9.466,7.407,38.664,38.664,0,0,0-2.88,5.731c-.411.983-.82,1.968-1.188,2.968-.378,1.028.068,1.417.939,1.922" transform="translate(-569.657 -931.849)" fill="#301616"/>
          <path id="Trazado_894450" data-name="Trazado 894450" d="M884.844,1204.079q5.427,1.051,10.847,2.151,3.31.671,6.617,1.364-.43,5.123-1.353,10.185c.081.015.165.03.249.048q.922-5.05,1.353-10.182l2.808.586q-.442,5.1-1.148,10.159l.246.046q.7-5.062,1.15-10.151,12.93,2.731,25.8,5.736l.046-.251q-4.334-1.013-8.676-1.991-18.876-4.262-37.876-7.945a.131.131,0,0,0-.15.089c0,.008-.005.015-.008.025a.109.109,0,0,0,.089.132" transform="translate(-774.561 -1015.93)" fill="#301616"/>
          <path id="Trazado_894451" data-name="Trazado 894451" d="M1031.436,632.208c3.194.076,4.187-3.7,5.689-5.8a12.2,12.2,0,0,1,5.307-4.05,19.7,19.7,0,0,1,7.155-1.4c3.091-.065,6.281.339,9.289-.577a10.921,10.921,0,0,0,7.4-11.99c-.888-5.339-5.087-9.348-6.444-14.519a9.177,9.177,0,0,1-.193-4.31c.271-1.211.866-2.519,2.176-2.843,2.191-.541,5.84.8,5.5,3.528-.02.16-.274.162-.254,0,.2-1.636-1.185-2.726-2.617-3.116-1.522-.415-3.268-.461-4.085,1.131-1.4,2.726-.347,6.039.883,8.612,2.077,4.345,5.6,8.526,5.43,13.6a11.26,11.26,0,0,1-7.243,9.99c-2.695.966-5.615.769-8.427.742a22.218,22.218,0,0,0-7.621,1.061,12.1,12.1,0,0,0-6.482,4.948c-1.29,2.114-2.468,5.319-5.462,5.248a.127.127,0,0,1,0-.254" transform="translate(-933.306 -495.038)" fill="#301616"/>
          <path id="Trazado_894452" data-name="Trazado 894452" d="M1381.078,1028.349a8.105,8.105,0,0,1,2.025-.625,15.453,15.453,0,0,1,4.314-.038,47.4,47.4,0,0,0,5.192.485,5.74,5.74,0,0,0,4.576-1.647,10.912,10.912,0,0,0,1.881-4.362,14.593,14.593,0,0,1,1.564-3.8,11.973,11.973,0,0,1,5.644-4.832,11.2,11.2,0,0,1,9.306.455c.145.076.017.295-.128.219a10.946,10.946,0,0,0-8.716-.58,11.67,11.67,0,0,0-5.987,5.029,16.128,16.128,0,0,0-1.562,4.022,10.984,10.984,0,0,1-1.561,3.7c-1.68,2.264-4.653,2.188-7.193,1.926-1.692-.174-3.375-.477-5.08-.493a11.422,11.422,0,0,0-2.6.243c-.648.145-2.309.493-2.443,1.274-.028.161-.273.093-.245-.068.086-.5.587-.712,1.007-.908" transform="translate(-1336.052 -854.658)" fill="#c25a3e"/>
          <path id="Trazado_894453" data-name="Trazado 894453" d="M425.211,989.541a9.287,9.287,0,0,1,5.28-1.553c2.357-.1,4.761.279,7.08-.307a8.457,8.457,0,0,0,5.21-4.25.127.127,0,0,1,.219.128,9.027,9.027,0,0,1-4.094,3.934,14.745,14.745,0,0,1-6.345.754,13.461,13.461,0,0,0-6.155.868c-2.186,1.042-3.085,3.141-3.181,5.471-.007.163-.261.163-.254,0a6.381,6.381,0,0,1,2.24-5.044" transform="translate(-214.037 -829.879)" fill="#fff"/>
          <path id="Trazado_894454" data-name="Trazado 894454" d="M1419.183,1506.007q.628,4.768,1.2,9.544l.244-.091q-.567-4.73-1.191-9.453c-.02-.16-.274-.163-.254,0" transform="translate(-1347.141 -1270.84)" fill="#c25a3e"/>
          <path id="Trazado_894455" data-name="Trazado 894455" d="M1320.064,153.093a43.59,43.59,0,0,1,9.824,1.287.1.1,0,0,1,.084.079.109.109,0,0,1-.031.178,32.212,32.212,0,0,0-5,3.288c-1.544,1.122-3.06,2.163-5.017,2.009l.036-.036a7.407,7.407,0,0,1-1.094-2.752,5.99,5.99,0,0,1,1.2-4.052" transform="translate(-1240.853 -129.193)" fill="#301616"/>
          <path id="Trazado_894456" data-name="Trazado 894456" d="M1122.825,115.217q1.756,7.1,3.266,14.252l-.254.015q-1.5-7.126-3.258-14.2a.128.128,0,0,1,.246-.069" transform="translate(-1006.307 -97.157)" fill="#301616"/>
          <path id="Trazado_894457" data-name="Trazado 894457" d="M1173.043,119.246q2.239,7.446,3.844,15.06c-.081.023-.162.046-.244.071q-1.607-7.606-3.844-15.062c-.048-.157.2-.223.244-.069" transform="translate(-1064.942 -100.558)" fill="#301616"/>
          <path id="Trazado_894458" data-name="Trazado 894458" d="M1224.682,129.349c.724,5.563,2.575,10.85,4.245,16.182-.079.03-.157.061-.234.094-1.678-5.365-3.54-10.679-4.266-16.276-.023-.162.234-.16.254,0" transform="translate(-1125.041 -109.057)" fill="#301616"/>
          <path id="Trazado_894459" data-name="Trazado 894459" d="M1276.345,153.125q2.342,8.032,4.291,16.172c-.079.036-.155.076-.234.117q-1.95-8.162-4.3-16.22a.128.128,0,0,1,.246-.069" transform="translate(-1184.814 -129.148)" fill="#301616"/>
          <path id="Trazado_894460" data-name="Trazado 894460" d="M1320.967,178.915q2.392,7.972,4.626,15.986l-.226.14q-2.24-8.051-4.647-16.057a.128.128,0,0,1,.246-.069" transform="translate(-1236.737 -150.914)" fill="#301616"/>
          <path id="Trazado_894461" data-name="Trazado 894461" d="M686.995,570.967c.053.071.1.145.155.218q3.153-1.005,6.317-1.978a232.642,232.642,0,0,1,23.794-6.14c-.046-.076-.089-.155-.135-.234q-.747.145-1.493.3a276.964,276.964,0,0,0-28.639,7.836" transform="translate(-529.491 -474.983)" fill="#658bd6"/>
          <path id="Trazado_894462" data-name="Trazado 894462" d="M1411.26,784.064c0,.089,0,.175,0,.264l1.407-.434a221.605,221.605,0,0,1,26.117-6.569c.01-.089.023-.175.033-.264q-2,.35-3.984.757c-7.975,1.622-15.8,3.842-23.576,6.246" transform="translate(-1364.096 -655.773)" fill="#658bd6"/>
          <path id="Trazado_894463" data-name="Trazado 894463" d="M913.759,465.41a.086.086,0,0,1,0,.025,65.6,65.6,0,0,1,4.994,16.245q-2.369-3.138-4.84-6.2c-.033.358-.223-6.391-.411-10.07-.008-.165.246-.162.254,0" transform="translate(-766.34 -392.662)" fill="#301616"/>
          <path id="Trazado_894464" data-name="Trazado 894464" d="M1509.442,466.948c.112-.531.231-1.061.361-1.589a36.276,36.276,0,0,1,8.595,8.285c.005,0,.008,0,.013,0a.124.124,0,0,1,.02.231.137.137,0,0,1-.165,0q-4.841-1.07-9.7-2.039c.252-1.638.541-3.27.879-4.888" transform="translate(-1458.964 -392.723)" fill="#301616"/>
          <path id="Trazado_894465" data-name="Trazado 894465" d="M1143.978,1132.436c.01-.01.023-.018.033-.028a.107.107,0,0,1,.142,0c.031,0,.058-.007.086-.01.162-.018.178.234.015.254-.058.005-.119.015-.178.02a28.347,28.347,0,0,0-5.474,5.33c-.559.716-1.056,1.465-1.541,2.224-1.2-.571-2.41-1.132-3.631-1.663q-2.358-1.021-4.741-1.991a54.241,54.241,0,0,1,15.288-4.141" transform="translate(-1025.54 -955.635)" fill="#301616"/>
          <path id="Trazado_894466" data-name="Trazado 894466" d="M363.482,495.641q4.281,5.862,8.554,11.726c.048-.079.1-.155.145-.231l-8.5-11.649Z" transform="translate(-133.915 -418.147)" fill="#658bd6"/>
          <path id="Trazado_894467" data-name="Trazado 894467" d="M220.441,982.389c.071-.147.29-.019.219.128-.471.983-1.14,2.539-.024,3.372,1.386,1.035,2.1-1,2.279-2.007.028-.161.273-.093.245.067-.2,1.109-.925,3.07-2.447,2.294s-.823-2.7-.271-3.854" transform="translate(37.532 -828.998)" fill="#658bd6"/>
          <path id="Trazado_894468" data-name="Trazado 894468" d="M508.487,1029.446a1.4,1.4,0,0,0,1.346,1.447l2.6.094.256.01,5.071.185.254.008,2.783.1a1.4,1.4,0,0,0,1.447-1.343l.17-4.723a1.4,1.4,0,0,0-1.343-1.447l-3.377-.122-.254-.01-3.433-.125-.254-.01-3.644-.132a1.4,1.4,0,0,0-1.447,1.343Z" transform="translate(-306.779 -863.645)" fill="#fff"/>
          <path id="Trazado_894469" data-name="Trazado 894469" d="M536.684,1025.093q.164,3.767.32,7.536l.254.008q-.156-3.767-.32-7.534Z" transform="translate(-326.026 -865.091)" fill="#301616"/>
          <path id="Trazado_894470" data-name="Trazado 894470" d="M562.353,1031.705l.256.01q.712-3.729,1.318-7.475l-.254-.01q-.609,3.748-1.32,7.475" transform="translate(-356.702 -864.363)" fill="#301616"/>
          <path id="Trazado_894471" data-name="Trazado 894471" d="M1564.435,1096.1l.069.244q3.755-.571,7.529-.993l-.069-.246q-3.774.423-7.529,1" transform="translate(-1521.216 -924.178)" fill="#301616"/>
          <path id="Trazado_894472" data-name="Trazado 894472" d="M1557.912,1124.092l.074.269a75.292,75.292,0,0,0,6.145-5.931l-.079-.287a76.243,76.243,0,0,1-6.14,5.949" transform="translate(-1512.297 -943.617)" fill="#301616"/>
          <path id="Trazado_894473" data-name="Trazado 894473" d="M468.267,841.338H479.23a.127.127,0,0,1,.028-.03c.451-.332,2.079-.839,2.205.1.047.349-.276.569-.586.6a3.391,3.391,0,0,1-1.558-.413H468.267a.127.127,0,0,1,0-.254" transform="translate(-259.538 -709.622)" fill="#301616"/>
          <path id="Trazado_894474" data-name="Trazado 894474" d="M465.625,858.825h10.963a.135.135,0,0,1,.028-.03c.451-.332,2.079-.839,2.205.1.047.349-.276.569-.586.6a3.4,3.4,0,0,1-1.558-.412H465.625a.127.127,0,0,1,0-.254" transform="translate(-256.483 -724.38)" fill="#301616"/>
          <path id="Trazado_894475" data-name="Trazado 894475" d="M479.045,878.347h8.424a.129.129,0,0,1,.028-.03c.451-.332,2.079-.839,2.205.1.047.349-.276.569-.586.6a3.391,3.391,0,0,1-1.558-.413h-8.513a.127.127,0,0,1,0-.254" transform="translate(-269.459 -740.854)" fill="#301616"/>
          <path id="Trazado_894476" data-name="Trazado 894476" d="M1347.7,1117.519c5.928,4.548,11.3,10.307,13.062,17.459a10.029,10.029,0,0,1-.043,6.013.13.13,0,0,1-.19.06,2.47,2.47,0,0,1-.633-.455.123.123,0,0,1-.2-.032q-5.752-11.6-12.181-22.894a.123.123,0,0,1,.182-.152" transform="translate(-1276.524 -943.07)" fill="#fff"/>
          <path id="Trazado_894477" data-name="Trazado 894477" d="M1344.919,1164.953q11.086,7.436,22.586,14.285a.109.109,0,0,1,.009.188c.165.192,2.1,1.215,2.2,1.461a.118.118,0,0,1-.087.17c-2.129.443-5.694-.617-7.73-1.328-7.318-2.557-13.119-8.515-17.157-14.626-.07-.105.084-.217.183-.15" transform="translate(-1284.611 -983.104)" fill="#fff"/>
          <path id="Trazado_894478" data-name="Trazado 894478" d="M1260.685,1259.709a4.4,4.4,0,0,0,1.651-.294,2.265,2.265,0,0,0,1.489-1.579c.419-1.751-1.407-3.986-1.977-4.629a13.292,13.292,0,0,0-6.735-4.031c-1.594-.391-4.573-.822-6.831.612l-.515.133a.7.7,0,0,0-.516.869,7.66,7.66,0,0,0,2.84,3.7,45.18,45.18,0,0,0,4.2,2.928,16.365,16.365,0,0,0,4.1,1.934,8.507,8.507,0,0,0,2.291.361m-8.546-9.486a11.809,11.809,0,0,1,8.568,3.907,6.628,6.628,0,0,1,1.619,2.7,1,1,0,0,1-.189.928,2.171,2.171,0,0,1-1.641.5c-2.339-.086-4.431-1.365-6.727-2.9l-.5-.329c-1.646-1.089-3.5-2.314-4.293-3.926a5.359,5.359,0,0,1,3.159-.873" transform="translate(-1163.56 -1053.877)" fill="#fff"/>
          <path id="Trazado_894479" data-name="Trazado 894479" d="M1322.039,1270.237a14.449,14.449,0,0,0-1.549-4.06,41.876,41.876,0,0,0-2.584-4.279,7.918,7.918,0,0,0-3.559-3.1.768.768,0,0,0-.979.377l-.2.465c-1.786,1.937-1.689,4.771-1.468,6.306a12.1,12.1,0,0,0,3.444,6.775c.61.609,2.749,2.583,4.647,2.4a2.376,2.376,0,0,0,1.845-1.2,3.759,3.759,0,0,0,.509-1.506,7.149,7.149,0,0,0-.1-2.183m-7.576-9.784c1.605.939,2.675,2.814,3.627,4.482.1.171.193.339.288.5,1.346,2.33,2.444,4.437,2.253,6.632a1.922,1.922,0,0,1-.724,1.472,1.172,1.172,0,0,1-1,.065,7.126,7.126,0,0,1-2.651-1.836,10.826,10.826,0,0,1-2.908-5.233,9.864,9.864,0,0,1-.184-3.238,4.686,4.686,0,0,1,1.3-2.845" transform="translate(-1231.904 -1062.276)" fill="#fff"/>
          <path id="Trazado_894480" data-name="Trazado 894480" d="M1354.236,1256.786a.6.6,0,1,1,.032,1.2.6.6,0,1,1-.032-1.2" transform="translate(-1271.147 -1060.62)" fill="#301616"/>
        </g>
      </g>
    </g>
  </g>
</svg>
